<svg width="1440" height="4259" viewBox="0 0 1440 4259" fill="none" xmlns="http://www.w3.org/2000/svg">
<mask id="mask0_2842_927" style="mask-type:alpha" maskUnits="userSpaceOnUse" x="0" y="0" width="1440" height="4259">
<rect width="1440" height="4259" fill="black"/>
</mask>
<g mask="url(#mask0_2842_927)">
<g filter="url(#filter0_f_2842_927)">
<path d="M317.177 1598.24C313.055 1520.71 461.939 1655.13 536.896 1732.03C547.841 1743.68 575.525 1779.21 598.704 1828.18C627.679 1889.38 543.919 1894.83 566.595 1942.73C589.27 1990.63 630.127 1898 653.504 1943.94C676.88 1989.88 702.743 1920.63 677.132 1856.2C651.52 1791.78 626.448 1793.87 648.247 1729.8C670.047 1665.74 648.906 1638.28 601.636 1631.34C554.367 1624.4 522.12 1501.23 467.088 1457.24C412.057 1413.26 322.202 1426.48 301.743 1458.96C281.283 1491.45 166.366 1475.82 142.43 1425.26C118.495 1374.7 135.511 1379.67 161.578 1331.5C187.645 1283.33 159.707 1265.61 147.11 1239C134.512 1212.38 166.897 1115.62 145.206 1052.59C123.516 989.567 194.607 960.799 228.365 952.962C262.122 945.125 373.768 898.787 352.982 854.879C332.196 810.971 525.436 737.408 605.488 720.685C685.539 703.963 674.415 670.139 586.601 649.818C498.787 629.497 350.315 642.777 235.317 661.384C120.319 679.992 -23.0093 821.136 -46.2628 830.515C-69.5163 839.895 -196.406 1043.29 -188.848 1059.26C-181.289 1075.23 -120.125 1139.45 -184.193 1179.21C-285.072 1241.81 -228.743 1513.36 -231.387 1534.16C-160.22 1739.55 -88.8309 1855.94 -22.3102 1910.43C9.90181 1936.81 122.932 1748.83 112.456 1654.44C101.981 1560.05 198.736 1654.31 241.321 1634.15C283.907 1613.99 218.892 1696.89 299.9 1757.9C380.908 1818.9 319.976 1834.72 274.951 1815.31C229.926 1795.91 163.936 1862.98 204.419 1848.7C244.901 1834.42 288.841 1965.09 364.394 2004.25C439.946 2043.41 395.163 1921.28 438.114 1853.71C481.064 1786.15 322.33 1695.16 317.177 1598.24Z" fill="#000569" fill-opacity="0.25"/>
</g>
<path d="M695.479 1946.55C695.191 1939.76 711.585 1897.66 719.026 1876.49C725.663 1857.19 743.521 1946.51 743.106 1948.53C742.692 1950.55 737.611 1948.77 739.556 1959.19C740.204 1962.67 755.042 1958.54 755.106 1960.04C755.169 1961.53 758.336 1965.4 759.006 1969.38C759.675 1973.35 757.932 1979.43 756.019 1981.52C754.105 1983.6 746.24 1986.94 746.41 1990.93C746.58 1994.93 748.726 1998.34 752.223 1998.19C755.72 1998.04 757.356 2012.99 755.528 2017.07C753.7 2021.15 757.015 2028.52 768.218 2033.04C779.42 2037.57 814.812 2069.6 825.791 2080.64C836.77 2091.69 871.225 2148.77 876.273 2161.57C881.321 2174.37 976.797 2419.04 978.135 2426.99C979.474 2434.94 1007.02 2447.28 1015.77 2452.91C1024.52 2458.54 1030.09 2471.82 1031.62 2484.27C1033.15 2496.71 1018.4 2514.85 1015.99 2516.96C1013.58 2519.06 1021.24 2522.74 1022.39 2526.2C1023.54 2529.65 1022.1 2531.21 1019.17 2532.84C1016.23 2534.46 1018.94 2539.35 1019.53 2541.33C1020.11 2543.31 1050.43 2750.21 1052.92 2750.1C1055.42 2749.99 1065.19 2732.56 1069.1 2730.4C1073.01 2728.23 1078.16 2731.51 1082.82 2735.32C1087.4 2739.05 1103.18 2814.02 1106.75 2830.95L1106.95 2831.88C1110.08 2846.76 1112.68 2849.15 1107.69 2849.37C1105.19 2849.47 1125.82 2946.18 1127.18 2954.63C1128.54 2963.08 1112.93 2949.23 1103.34 2947.14C1093.74 2945.04 1064.38 2937.28 1058.32 2936.04C1052.27 2934.8 1029.57 2930.76 1020.95 2928.12C1012.33 2925.48 970.553 2919.75 961.455 2917.64C952.357 2915.52 924.51 2919.71 911.001 2919.78C897.492 2919.85 883.813 2915.93 875.299 2915.79C866.786 2915.65 864.99 2908.72 862.907 2906.81C860.824 2904.9 833.806 2905.05 825.228 2903.41C816.651 2901.77 727.795 2907.05 719.324 2907.91C710.853 2908.77 654.988 2913.15 642.478 2913.18C629.968 2913.21 593.714 2919.75 587.241 2920.53C580.768 2921.31 581.065 2928.3 577.611 2929.45C574.156 2930.59 573.072 2928.64 568.428 2925.33C563.783 2922.03 555.939 2925.86 545.948 2926.29C535.957 2926.71 524.743 2933.7 520.874 2936.86C517.005 2940.03 508.375 2948.9 503.879 2949.1C499.383 2949.29 493.973 2951.52 489.477 2951.71C484.981 2951.9 482.674 2956.5 479.74 2958.13C476.807 2959.75 469.994 2952.54 466.912 2950.67C463.83 2948.8 456.506 2953.11 449.013 2953.43C443.019 2953.68 390.161 2969.94 364.482 2978.04C367.679 2951.21 373.988 2895.56 373.648 2887.57C373.309 2879.58 378.694 2880.68 381.429 2882.23C382.191 2880.53 383.172 2876.16 381.004 2872.24C378.294 2867.35 372.714 2865.59 372.544 2861.59C372.375 2857.6 385.588 2827.01 385.896 2822.49C386.204 2817.97 398.874 2809.93 405.114 2803.66C411.353 2797.39 404.604 2791.67 404.455 2788.17C404.307 2784.68 417.71 2782.1 420.537 2777.98C423.365 2773.86 432.701 2687.38 434.051 2683.82C435.131 2680.97 431.362 2679.43 429.343 2679.02C429.006 2675.03 428.404 2666.35 428.685 2663.53C429.035 2660.01 417.897 2656.98 413.518 2648.16C409.14 2639.34 420.301 2619.35 422.671 2616.24C425.042 2613.14 431.621 2614.86 437.158 2615.63C442.696 2616.39 446.662 2580.19 448.066 2566.12C449.469 2552.05 498.403 2349.29 498.776 2346.27C499.148 2343.25 507.419 2302.36 513.924 2290.57C520.43 2278.79 522.334 2241.17 523.844 2229.6C525.332 2218.19 529.153 2215.92 535.338 2212.25L535.611 2212.08C541.956 2208.31 542.957 2184.75 545.572 2175.63C548.187 2166.51 554.108 2152.74 557.892 2147.58C561.676 2142.41 566.087 2140.22 567.809 2133.65C569.531 2127.07 588.334 2110.25 593.596 2104.52C598.857 2098.8 598.709 2095.3 600.367 2087.22C602.025 2079.14 665.024 2042.43 667.479 2041.33C669.934 2040.22 666.267 2036.38 670.094 2032.21C673.155 2028.88 679.207 2026.82 681.85 2026.21C680.855 2022.41 679.329 2014 681.192 2010.72C683.52 2006.62 683.849 2002.6 689.259 2000.37C694.669 1998.14 690.939 1992.79 690.79 1989.29C690.642 1985.8 683.127 1985.61 680.003 1982.74C676.878 1979.87 680.429 1969.21 682.108 1961.64C683.452 1955.57 692.992 1958.67 697.594 1960.98C700.581 1948.84 695.768 1953.35 695.479 1946.55Z" fill="url(#paint0_linear_2842_927)"/>
<path d="M1417.18 3483.17C1417.18 5379.16 1027.79 6916.17 695.27 6916.17C362.747 6916.17 93.1836 5379.16 93.1836 3483.17C93.1836 1587.17 362.747 50.1678 695.27 50.1678C1027.79 50.1678 1417.18 1587.17 1417.18 3483.17Z" fill="url(#paint1_radial_2842_927)" fill-opacity="0.75"/>
<path d="M1109.85 2841.74C1107.85 2844.45 1132.62 2955.66 1132.62 2955.66L983.474 2921.61L967.467 2718.74L1055.64 2745.42C1061.01 2739.42 1072.77 2726.54 1076.84 2723C1081.93 2718.59 1083.71 2723.24 1086.5 2726.79C1088.73 2729.63 1113.09 2831.11 1113.84 2836.32C1114.58 2841.54 1111.84 2839.03 1109.85 2841.74Z" fill="url(#paint2_linear_2842_927)"/>
<path d="M366.485 2882.15C346.714 2888.2 340.286 2942.62 342.457 2967.86L339.905 2985.34L456.493 2953.79C462.267 2893.28 473.708 2769.77 473.284 2759.8C472.754 2747.34 448.79 2757.04 443.529 2757.27C439.32 2757.44 412.423 2769.45 399.501 2775.42C400.893 2777.17 403.85 2781.65 404.542 2785.53C405.407 2790.37 381.904 2810.92 374.831 2815.02C367.759 2819.12 359.45 2840.65 356.461 2847.83C353.473 2855.02 391.198 2874.58 366.485 2882.15Z" fill="url(#paint3_linear_2842_927)"/>
<path d="M507.255 2436.75C496.449 2457.64 458.016 2800.08 440.15 2968.69C710.24 2891.43 930.346 2920.44 1006.64 2944.61C980.436 2778.72 956.389 2438.78 946.226 2418.09C934.721 2394.67 891.057 2349.11 869.848 2328.39C873.481 2322.96 864.853 2291.59 849.358 2270.18C833.862 2248.77 824.286 2254.74 809.063 2252.33C804.522 2145.48 742.325 2060.18 720.698 2045.44C668.777 2095.04 643.42 2213.4 638.83 2259.56C591.982 2267.27 581.622 2316.81 582.298 2340.61C572.842 2355.31 520.761 2410.64 507.255 2436.75Z" fill="url(#paint4_linear_2842_927)"/>
<path d="M521.943 2493.74C511.756 2514.61 476.129 2857.12 459.589 3025.76C715.239 2949.08 923.787 2978.61 996.105 3002.96C970.91 2836.94 947.362 2496.79 937.689 2476.07C926.738 2452.61 885.277 2406.93 865.141 2386.15C868.57 2380.73 860.327 2349.32 845.601 2327.87C830.875 2306.41 821.818 2312.37 807.394 2309.92C802.85 2203.01 743.745 2117.53 723.227 2102.74C674.16 2152.24 650.411 2270.6 646.167 2316.77C601.812 2324.38 592.111 2373.91 592.805 2397.73C583.882 2412.41 534.677 2467.65 521.943 2493.74Z" fill="url(#paint5_linear_2842_927)"/>
<path d="M547.367 2547.95C538.399 2565.75 508.291 2857.58 493.581 3001.3C718.149 2935.68 892.689 2960.97 956.163 2981.64C934.223 2840.2 916.255 2550.28 907.784 2532.63C898.194 2512.66 864.17 2473.68 846.512 2456C849.529 2451.37 842.326 2424.62 829.419 2406.36C816.512 2388.09 808.553 2393.18 795.889 2391.1C792.018 2300.01 739.572 2230.5 721.572 2217.91C678.432 2260.15 658.087 2357.77 654.31 2397.12C615.354 2403.65 606.781 2445.87 607.364 2466.16C599.513 2478.69 558.577 2525.71 547.367 2547.95Z" fill="url(#paint6_linear_2842_927)"/>
<path d="M717.632 2797.6C704.928 2800.14 716.155 2872.73 716.394 2909.75L764.35 2907.71C762.633 2886.94 763.622 2843.49 764.822 2824.62C766.322 2801.03 752.537 2794.61 747.892 2791.31C744.177 2788.66 736.496 2421.13 727.51 2311.74C734.561 2422.71 730.336 2795.06 717.632 2797.6Z" fill="#0D2E55"/>
<path d="M537.712 2839.33C527.678 2848.17 520.454 2904.29 518.097 2931.25C540.739 2934.12 619.293 2926.65 623.86 2911.64C629.568 2892.88 623.215 2837.6 620.293 2827.72C617.37 2817.83 605.306 2828.35 584.825 2829.22C581.828 2829.35 576.786 2569.43 578.71 2555.84C580.25 2544.96 609.008 2503.34 623.195 2483.88C608.604 2501.68 577.552 2540.37 570.069 2552.7C560.715 2568.11 550.254 2828.29 537.712 2839.33Z" fill="#0D2E55"/>
<path d="M938.436 2824.3C938.967 2836.79 944.928 2871.07 942.386 2917.22C920.069 2922 861.955 2915.83 856.131 2901.27C848.851 2883.06 850.491 2827.44 852.564 2817.34C854.637 2807.25 874.044 2816.43 894.526 2815.56C897.523 2815.43 873.998 2556.3 870.927 2542.92C868.47 2532.21 836.284 2493.18 820.498 2475C836.546 2491.5 870.769 2527.41 879.271 2539.06C888.485 2551.68 919.265 2760.66 930.125 2817.15C930.125 2817.15 938.399 2823.43 938.436 2824.3Z" fill="#0D2E55"/>
<path d="M365.286 2906.32C360.005 2904.54 356.291 2953.75 355.291 2977.31L369.151 2973.72C370.063 2951.99 370.566 2908.1 365.286 2906.32Z" fill="#D3FF86"/>
<path d="M543.549 2847.09C529.98 2847.67 531.759 2903 530.004 2928.74L548.941 2924.93C550.543 2901.2 555.957 2846.56 543.549 2847.09Z" fill="#D3FF86"/>
<path d="M744.221 2811.54L730.233 2812.13L730.707 2905.7L745.693 2905.06L744.221 2811.54Z" fill="#D3FF86"/>
<path d="M933.388 2835.02L922.686 2830.48L926.04 2909.4L938.157 2911.89L933.388 2835.02Z" fill="#D3FF86"/>
<path d="M1098.39 2878.56L1085.93 2868.08L1094.69 2944.77L1110.44 2950.11L1098.39 2878.56Z" fill="#D3FF86"/>
<path d="M180.113 3064.56C454.922 2866.08 1122.88 2816.09 1323.41 3095.31C1337.7 3113.73 1311.39 3130.48 1302.22 3138.4C1293.05 3146.32 1315.59 3229.23 1271.83 3271.26C1228.08 3313.3 1345.39 3777.35 1339.72 3797.17C1334.06 3817 920.444 3975.69 908.869 3974.17C897.295 3972.65 875.17 3569.84 873.191 3546.83C871.212 3523.81 844.072 3356.23 753.722 3361.58C663.672 3366.91 641.16 3487.59 633.344 3529.49L633.266 3529.91C625.522 3571.42 608.437 4064.28 602.177 4070.07C595.918 4075.86 574.821 4085.79 562.503 4090.33C550.186 4094.87 -20.5015 3996.1 -29.0266 3983.9C-37.5517 3971.71 77.0219 3535.47 88.2508 3481.76C97.234 3438.8 153.235 3185.73 180.113 3064.56Z" fill="url(#paint7_linear_2842_927)"/>
<path d="M1352.99 3646.49C1352.99 4095.22 1028.59 4458.99 751.575 4458.99C474.556 4458.99 249.988 4095.22 249.988 3646.49C249.988 3197.76 474.556 2833.99 751.575 2833.99C1028.59 2833.99 1352.99 3197.76 1352.99 3646.49Z" fill="url(#paint8_radial_2842_927)" fill-opacity="0.75"/>
<path d="M140.189 1782.89C140.189 1735.09 44.4557 1608.38 -3.41124 1551H-130C-87.8037 2106.63 73.5427 3350.1 107.166 3397.9C149.196 3457.65 140.189 2846.1 140.189 2754.1C140.189 2662.1 76.6449 2154.68 72.6421 2054.62C68.6393 1954.56 140.189 1842.65 140.189 1782.89Z" fill="url(#paint9_linear_2842_927)"/>
<path d="M15.4405 151.841C15.4405 122.844 -102.86 128.846 -162.01 135.472H-199V4253H1604V274.613C1580.51 273.833 1527.92 272.742 1505.53 274.613C1477.54 276.951 1424.55 419.6 1380.06 421.939C1335.57 424.277 1265.59 738.222 1265.59 805.454C1265.59 872.686 1424.55 1547.93 1424.55 1580.67C1424.55 1613.41 1345.57 2302.68 1363.57 2372.25C1381.56 2441.83 1408.05 2934.67 1380.06 2965.65C1352.07 2996.64 1320.58 3709.3 1340.07 3737.94C1364.98 3774.54 1101.64 3739.7 1072.15 3737.94C1042.66 3736.19 833.214 3751.39 815.219 3784.13C797.224 3816.87 417.829 3742.04 335.852 3737.94C253.874 3733.85 156.401 3196.96 126.91 3156.62C97.4178 3116.28 45.9321 2452.93 50.9307 2406.75C55.9293 2360.56 31.4361 1719.23 -0.0551605 1701.69C-31.5464 1684.15 -64.0374 1454.39 -64.0374 1433.34C-64.0374 1412.3 20.4391 1286.02 20.4391 1249.19C20.4391 1212.35 139.406 887.302 146.404 828.255C153.402 769.207 112.414 695.544 89.9199 676.252C67.4261 656.959 128.409 289.813 125.41 249.474C122.411 209.135 15.4405 188.088 15.4405 151.841Z" fill="url(#paint10_linear_2842_927)"/>
<path d="M1280 1972.16C1280 1921.76 1375.67 1788.16 1423.5 1727.66H1550C1507.83 2313.49 1415.1 3497.76 1381.5 3548.16C1339.5 3611.16 1280 3093.16 1280 2996.16C1280 2899.16 1343.5 2364.16 1347.5 2258.66C1351.5 2153.16 1280 2035.16 1280 1972.16Z" fill="url(#paint11_linear_2842_927)"/>
<path d="M64 3898.89C-39.5503 3978.21 -91.6185 4104.06 -98.5 4255.89L1632 4296.9V4154.9C1564.98 4052.73 1476.52 3887.37 1443 3857.9C1385.55 3807.4 1260.94 3753.21 1198 3772.89C1044.51 3820.89 459.111 3738.24 277.5 3760.4C230.227 3773.57 186.071 3805.39 64 3898.89Z" fill="url(#paint12_linear_2842_927)"/>
<path d="M172 3594.04C172 3654.67 129.959 3714.98 129.959 3714.98H49.5489C49.5489 3714.98 95.4846 3679.23 95.4846 3599.08C95.4846 3518.92 48 3556 48 3493.88C48 3445.14 102.654 3417.18 102.654 3349.07C102.654 3303.48 76.9422 3205.29 76.1014 3201.98C78.5796 3205.45 157.308 3315.76 157.308 3379.39C157.308 3472.46 117.346 3457.18 117.346 3485.92C117.346 3529.07 172 3524.66 172 3594.04Z" fill="url(#paint13_linear_2842_927)"/>
<path d="M86.598 3493.77C87.7024 3502.43 92.9147 3508.5 98.8338 3513.46C111.07 3523.07 125.823 3535.13 131.168 3559.55C141.593 3606.82 130.196 3660.86 111.82 3696.39C108.463 3703.01 104.885 3709.15 101.131 3714.98H98.2595C117.165 3684.34 131.035 3642.9 130.064 3596.73C129.887 3573.89 125.116 3551.44 113.72 3539.7C102.721 3526.15 84.2127 3524.18 79.1329 3497.79C71.7561 3453.35 102.279 3431.77 116.503 3413.02C127.369 3399.94 131.345 3379.14 129.754 3356.61C128.253 3333.69 121.229 3312.26 112.527 3295.16L113.101 3293.98C129.622 3315.49 141.681 3356.14 135.232 3393.56C130.461 3419.4 116.459 3432.79 104.885 3445.95C94.814 3456.58 83.6827 3471.4 86.598 3493.77Z" fill="#3B087D"/>
<path d="M530.428 4145.9C521.654 4145.9 509.447 4142.18 495.237 4137.89C481.79 4133.79 466.531 4129.12 457.185 4129.12C455.373 4129.12 454.228 4129.31 453.56 4129.4C438.397 4133.02 415.985 4137.79 396.911 4137.79C383.368 4137.79 373.355 4135.31 366.679 4130.36C356.569 4131.5 346.556 4132.17 336.828 4132.17C294.102 4132.17 258.052 4121.01 229.537 4098.89C208.937 4082.97 196.921 4062.19 193.773 4037.21C188.814 3997.07 208.079 3954.64 223.815 3927.66C182.806 3946.26 107.273 3976.1 43.0893 3976.1C-16.3261 3976.1 -102.922 3895.82 -172.637 3831.37C-208.973 3797.72 -246.549 3762.92 -260.091 3760.44C-261.712 3760.15 -263.429 3759.96 -265.241 3759.96C-288.225 3759.96 -319.22 3783.51 -341.918 3800.67C-350.883 3807.44 -358.608 3813.35 -364.712 3816.88C-373.2 3821.84 -384.167 3838.81 -393.799 3853.78C-408.868 3877.13 -420.789 3895.63 -435.571 3895.63H-436.811C-442.343 3895.15 -450.163 3891.82 -456.553 3877.99C-467.902 3853.3 -471.526 3799.15 -443.392 3761.58C-422.22 3733.17 -396.375 3727.26 -378.35 3727.26C-371.102 3727.26 -365.189 3728.21 -360.992 3729.17C-350.311 3718.2 -318.934 3691.13 -269.533 3691.13C-264.86 3691.13 -260.091 3691.41 -255.323 3691.89C-201.725 3697.42 -156.234 3745.57 -112.173 3792.09C-66.1092 3840.71 -18.5196 3891.05 36.3179 3891.05C108.131 3891.05 132.355 3868.46 140.366 3855.02C120.148 3853.3 104.793 3845 97.5453 3831.56C94.3981 3825.84 92.9675 3819.45 93.0629 3812.68C76.1825 3824.51 51.7678 3836.14 21.0587 3836.14C-6.50312 3836.14 -34.6371 3826.6 -62.5804 3807.92C-83.4664 3793.9 -95.9598 3773.69 -99.87 3747.76C-107.595 3696.75 -78.4119 3633.16 -48.0843 3595.69C-9.26884 3547.74 57.8715 3519.14 100.406 3519.14C102.409 3519.14 104.412 3519.14 106.319 3519.33L107.654 3519.14C115.57 3518.37 123.867 3517.99 133.023 3517.99C136.456 3517.99 139.794 3517.99 143.227 3518.18C159.25 3518.66 177.942 3520.09 195.204 3527.43H196.158L197.97 3528.1C254.047 3551.26 260.532 3606.37 260.341 3632.02C263.393 3631.25 266.35 3630.49 269.402 3629.82C275.601 3628.68 280.941 3628.11 285.996 3628.11C290.574 3628.11 294.865 3628.58 298.871 3629.54C302.495 3630.4 306.024 3631.73 309.934 3633.64C312.032 3634.69 314.13 3635.83 316.133 3637.26C316.419 3637.45 318.422 3638.88 320.043 3640.69L320.424 3640.98L321.283 3642.22C325.67 3649.75 327.672 3659.47 327.482 3672.15C340.261 3668.91 359.431 3667.2 384.99 3667.2C390.712 3667.2 397.006 3667.2 403.777 3667.48C455.182 3668.91 475.209 3689.03 491.327 3705.14C501.341 3715.25 509.352 3723.16 523.371 3725.26C524.134 3725.35 524.992 3725.45 525.66 3725.45C533.671 3725.45 539.489 3717.54 548.263 3704.57C560.374 3686.74 576.969 3662.33 613.114 3662.33C627.706 3662.33 644.014 3666.24 662.992 3674.16C718.593 3697.51 767.804 3761.39 764.752 3791.81C772 3801.05 789.262 3825.46 787.927 3844.72C786.115 3870.65 751.209 3894.2 723.934 3895.25C723.075 3895.25 722.122 3895.25 721.263 3895.25C703.525 3895.25 658.319 3883.81 658.319 3869.41C658.319 3861.31 662.134 3847.58 687.407 3847.58C692.271 3847.58 697.135 3848.06 701.426 3848.44C704.383 3848.72 706.958 3848.91 708.961 3848.91H709.056C709.723 3847.2 709.533 3841.67 709.437 3838.33C709.151 3829.08 708.77 3816.31 718.498 3808.59C721.74 3801.72 705.05 3765.02 688.742 3744.61C678.824 3732.12 664.137 3724.4 650.499 3724.4C642.392 3724.4 631.234 3727.07 623.033 3739.65C610.062 3797.43 583.263 3822.12 533.862 3822.12C503.725 3822.12 474.065 3798.29 447.838 3777.22C429.432 3762.35 411.979 3748.33 398.151 3745.28C395.48 3744.71 392.81 3744.42 390.33 3744.42C372.305 3744.42 360.956 3760.44 356.569 3768.26C365.439 3780.36 395.29 3816.12 441.067 3816.12C442.784 3816.12 444.596 3816.12 446.408 3815.93C448.887 3815.74 451.272 3815.74 453.751 3815.74C521.273 3815.74 578.685 3869.79 578.972 3933.77C579.162 3966.28 568.195 3994.5 547.404 4015.47C522.894 4040.16 486.654 4053.13 442.784 4053.13C368.681 4053.13 358.191 4031.87 350.657 3999.36C350.084 3996.98 349.607 3994.59 348.94 3992.21C345.983 3980.58 349.703 3967.23 359.907 3953.6C378.886 3928.24 418.178 3904.31 442.402 3903.45C452.321 3903.45 455.945 3908.98 457.089 3911.27C463.765 3925.09 446.885 3950.26 408.832 3997.93L408.546 3998.31C410.263 4001.65 416.08 4007.75 429.718 4007.75C435.726 4007.75 442.593 4006.51 450.127 4004.13C484.46 3993.16 497.24 3973.24 497.24 3930.52C497.24 3896.58 476.831 3880.09 434.868 3880.09C401.298 3880.09 365.248 3891.15 355.33 3894.39C330.438 3930.24 278.748 4022.53 313.558 4056.37C328.149 4070.58 349.798 4078.49 379.744 4080.68C406.829 4066.86 430.863 4059.8 451.081 4059.8H452.13C485.033 4060.19 515.932 4083.54 532.527 4103.47C539.679 4112.05 547.786 4124.35 546.069 4134.45C545.592 4137.12 543.017 4145.99 529.856 4145.99L530.428 4145.9Z" fill="url(#paint14_radial_2842_927)"/>
<path d="M301.247 3679.64C297.749 3692.19 286.497 3692.56 273.639 3689.15C260.78 3685.73 251.231 3679.91 254.729 3667.35C258.227 3654.8 271.464 3647.41 284.228 3650.83C296.992 3654.24 304.651 3667.17 301.152 3679.64H301.247Z" fill="#FED220"/>
<path d="M146.176 3828.65C157.58 3821.75 154.941 3810.62 148.249 3799.02C141.557 3787.41 133.169 3779.74 121.764 3786.55C110.36 3793.36 106.59 3808.42 113.376 3820.02C120.162 3831.62 134.865 3835.46 146.27 3828.56L146.176 3828.65Z" fill="#FED220"/>
<path d="M-39 3854.47C-39 3924.43 4.05854 3994.04 4.05854 3994.04H86.4136C86.4136 3994.04 39.3666 3952.79 39.3666 3860.28C39.3666 3767.78 88 3810.58 88 3738.88C88 3682.64 32.0239 3650.38 32.0239 3571.78C32.0239 3519.17 58.3576 3405.86 59.2187 3402.04C56.6805 3406.04 -23.9521 3533.34 -23.9521 3606.76C-23.9521 3714.17 16.9761 3696.54 16.9761 3729.71C16.9761 3779.5 -39 3774.41 -39 3854.47Z" fill="url(#paint15_linear_2842_927)"/>
<path d="M48.2562 3738.67C47.1332 3748.67 41.8326 3755.68 35.8131 3761.41C23.37 3772.5 8.36631 3786.42 2.93086 3814.61C-7.67052 3869.17 3.91914 3931.56 22.6063 3972.58C26.0203 3980.22 29.6588 3987.31 33.4771 3994.04H36.3971C17.1709 3958.66 3.06562 3910.83 4.05389 3857.53C4.23357 3831.16 9.0851 3805.24 20.6747 3791.69C31.8601 3776.05 50.682 3773.78 55.8479 3743.31C63.3497 3692.02 32.3093 3667.1 17.8447 3645.45C6.7941 3630.36 2.7512 3606.35 4.36836 3580.34C5.89568 3553.87 13.0381 3529.14 21.8876 3509.4L21.3036 3508.04C4.50308 3532.87 -7.76029 3579.79 -1.20181 3622.99C3.64967 3652.82 17.8896 3668.28 29.659 3683.47C39.901 3695.75 51.221 3712.84 48.2562 3738.67Z" fill="#3B087D"/>
<path d="M291 4052.89C291 4128.19 238.787 4203.1 238.787 4203.1H138.924C138.924 4203.1 195.973 4158.7 195.973 4059.15C195.973 3959.59 137 4005.65 137 3928.5C137 3867.96 204.877 3833.25 204.877 3748.66C204.877 3692.04 172.944 3570.09 171.9 3565.98C174.978 3570.29 272.753 3707.29 272.753 3786.31C272.753 3901.9 223.123 3882.93 223.123 3918.62C223.123 3972.21 291 3966.73 291 4052.89Z" fill="url(#paint16_linear_2842_927)"/>
<path d="M184.936 3928.36C186.308 3939.13 192.781 3946.66 200.132 3952.82C215.328 3964.76 233.651 3979.73 240.289 4010.06C253.236 4068.76 239.082 4135.88 216.261 4180.01C212.091 4188.22 207.648 4195.86 202.985 4203.1H199.419C222.899 4165.04 240.124 4113.57 238.918 4056.24C238.698 4027.87 232.773 3999.98 218.62 3985.4C204.96 3968.57 181.974 3966.13 175.665 3933.35C166.503 3878.17 204.411 3851.36 222.076 3828.08C235.571 3811.84 240.508 3786.01 238.533 3758.02C236.668 3729.55 227.946 3702.94 217.138 3681.71L217.852 3680.24C238.369 3706.95 253.345 3757.44 245.336 3803.91C239.411 3836 222.021 3852.63 207.648 3868.97C195.14 3882.18 181.315 3900.58 184.936 3928.36Z" fill="#3B087D"/>
<rect y="3392.89" width="1478" height="853" fill="url(#paint17_linear_2842_927)" fill-opacity="0.5"/>
<path d="M1369 3675.04C1369 3735.67 1326.96 3795.98 1326.96 3795.98H1246.55C1246.55 3795.98 1292.48 3760.23 1292.48 3680.08C1292.48 3599.92 1245 3637 1245 3574.88C1245 3526.14 1299.65 3498.18 1299.65 3430.07C1299.65 3384.48 1273.94 3286.29 1273.1 3282.98C1275.58 3286.45 1354.31 3396.76 1354.31 3460.39C1354.31 3553.46 1314.35 3538.18 1314.35 3566.92C1314.35 3610.07 1369 3605.66 1369 3675.04Z" fill="url(#paint18_linear_2842_927)"/>
<path d="M1283.6 3574.77C1284.7 3583.43 1289.91 3589.5 1295.83 3594.46C1308.07 3604.07 1322.82 3616.13 1328.17 3640.55C1338.59 3687.82 1327.2 3741.86 1308.82 3777.39C1305.46 3784.01 1301.89 3790.15 1298.13 3795.98H1295.26C1314.17 3765.34 1328.04 3723.9 1327.06 3677.73C1326.89 3654.89 1322.12 3632.44 1310.72 3620.7C1299.72 3607.15 1281.21 3605.18 1276.13 3578.79C1268.76 3534.35 1299.28 3512.77 1313.5 3494.02C1324.37 3480.94 1328.34 3460.14 1326.75 3437.61C1325.25 3414.69 1318.23 3393.26 1309.53 3376.16L1310.1 3374.98C1326.62 3396.49 1338.68 3437.14 1332.23 3474.56C1327.46 3500.4 1313.46 3513.79 1301.89 3526.95C1291.81 3537.58 1280.68 3552.4 1283.6 3574.77Z" fill="#3B087D"/>
<path d="M1158 3935.47C1158 4005.43 1201.06 4075.04 1201.06 4075.04H1283.41C1283.41 4075.04 1236.37 4033.79 1236.37 3941.28C1236.37 3848.78 1285 3891.58 1285 3819.88C1285 3763.64 1229.02 3731.38 1229.02 3652.78C1229.02 3600.17 1255.36 3486.86 1256.22 3483.04C1253.68 3487.04 1173.05 3614.34 1173.05 3687.76C1173.05 3795.17 1213.98 3777.54 1213.98 3810.71C1213.98 3860.5 1158 3855.41 1158 3935.47Z" fill="url(#paint19_linear_2842_927)"/>
<path d="M1245.26 3819.67C1244.13 3829.67 1238.83 3836.68 1232.81 3842.41C1220.37 3853.5 1205.37 3867.42 1199.93 3895.61C1189.33 3950.17 1200.92 4012.56 1219.61 4053.58C1223.02 4061.22 1226.66 4068.31 1230.48 4075.04H1233.4C1214.17 4039.66 1200.07 3991.83 1201.05 3938.53C1201.23 3912.16 1206.09 3886.24 1217.67 3872.69C1228.86 3857.05 1247.68 3854.78 1252.85 3824.31C1260.35 3773.02 1229.31 3748.1 1214.84 3726.45C1203.79 3711.36 1199.75 3687.35 1201.37 3661.34C1202.9 3634.87 1210.04 3610.14 1218.89 3590.4L1218.3 3589.04C1201.5 3613.87 1189.24 3660.79 1195.8 3703.99C1200.65 3733.82 1214.89 3749.28 1226.66 3764.47C1236.9 3776.75 1248.22 3793.84 1245.26 3819.67Z" fill="#3B087D"/>
<path d="M1231.5 4065.21C1161.1 4068.41 1027.17 4197.54 969 4261.71H1473V4190.71C1452.17 4158.54 1408.8 4096.21 1402 4104.21C1393.5 4114.21 1319.5 4061.21 1231.5 4065.21Z" fill="#04031A"/>
<path d="M92.5596 4096.18C152.5 4098.91 266.534 4209.2 316.059 4264H-113.059V4203.36C-95.3214 4175.89 -58.3979 4122.65 -52.6082 4129.48C-45.3711 4138.03 17.6343 4092.76 92.5596 4096.18Z" fill="#04031A"/>
<path d="M1488 4133.89C1488 4209.19 1435.79 4284.1 1435.79 4284.1H1335.92C1335.92 4284.1 1392.97 4239.7 1392.97 4140.15C1392.97 4040.59 1334 4086.65 1334 4009.5C1334 3948.96 1401.88 3914.25 1401.88 3829.66C1401.88 3773.04 1369.94 3651.09 1368.9 3646.98C1371.98 3651.29 1469.75 3788.29 1469.75 3867.31C1469.75 3982.9 1420.12 3963.93 1420.12 3999.62C1420.12 4053.21 1488 4047.73 1488 4133.89Z" fill="url(#paint20_linear_2842_927)"/>
<path d="M1381.94 4009.36C1383.31 4020.13 1389.78 4027.66 1397.13 4033.82C1412.33 4045.76 1430.65 4060.73 1437.29 4091.06C1450.24 4149.76 1436.08 4216.88 1413.26 4261.01C1409.09 4269.22 1404.65 4276.86 1399.98 4284.1H1396.42C1419.9 4246.04 1437.12 4194.57 1435.92 4137.24C1435.7 4108.87 1429.77 4080.98 1415.62 4066.4C1401.96 4049.57 1378.97 4047.13 1372.66 4014.35C1363.5 3959.17 1401.41 3932.36 1419.08 3909.08C1432.57 3892.84 1437.51 3867.01 1435.53 3839.02C1433.67 3810.55 1424.95 3783.94 1414.14 3762.71L1414.85 3761.24C1435.37 3787.95 1450.35 3838.44 1442.34 3884.91C1436.41 3917 1419.02 3933.63 1404.65 3949.97C1392.14 3963.18 1378.32 3981.58 1381.94 4009.36Z" fill="#3B087D"/>
<path d="M431.766 1789.58V1821.07C431.766 1823.05 429.365 1824.02 427.974 1822.6L418.684 1812.96C414.092 1821.45 401.671 1827.54 387.059 1827.54C368.515 1827.54 353.52 1817.76 353.52 1805.72C353.52 1793.69 368.515 1783.94 387.059 1783.94C401.567 1783.94 413.883 1789.93 418.58 1798.28L427.939 1788.08C429.296 1786.62 431.766 1787.56 431.766 1789.58Z" fill="#3B087D"/>
<path d="M364.862 1800.57C367.715 1800.57 368.411 1802.87 368.411 1805.72C368.411 1808.58 367.715 1810.87 364.862 1810.87C362.009 1810.87 359.713 1808.58 359.713 1805.72C359.713 1802.87 362.009 1800.57 364.862 1800.57Z" fill="#FED220"/>
<path d="M648.868 1752.63V1784.12C648.868 1786.1 646.467 1787.07 645.075 1785.65L635.786 1776.01C631.193 1784.5 618.773 1790.59 604.16 1790.59C585.616 1790.59 570.621 1780.81 570.621 1768.77C570.621 1756.74 585.616 1746.99 604.16 1746.99C618.668 1746.99 630.985 1752.98 635.682 1761.33L645.04 1751.13C646.397 1749.67 648.868 1750.61 648.868 1752.63Z" fill="#3B087D"/>
<path d="M581.926 1763.63C584.779 1763.63 585.475 1765.92 585.475 1768.77C585.475 1771.63 584.779 1773.92 581.926 1773.92C579.074 1773.92 576.777 1771.63 576.777 1768.77C576.777 1765.92 579.074 1763.63 581.926 1763.63Z" fill="#FED220"/>
<path d="M554.094 1802.35V1833.83C554.094 1835.82 551.693 1836.79 550.302 1835.37L541.012 1825.73C536.42 1834.22 523.999 1840.31 509.387 1840.31C490.843 1840.31 475.848 1830.53 475.848 1818.49C475.848 1806.45 490.843 1796.71 509.387 1796.71C523.895 1796.71 536.211 1802.7 540.908 1811.05L550.267 1800.85C551.624 1799.39 554.094 1800.33 554.094 1802.35Z" fill="#3B087D"/>
<path d="M487.155 1813.34C490.008 1813.34 490.704 1815.64 490.704 1818.49C490.704 1821.35 490.008 1823.64 487.155 1823.64C484.302 1823.64 482.006 1821.35 482.006 1818.49C482.006 1815.64 484.302 1813.34 487.155 1813.34Z" fill="#FED220"/>
<path d="M737.481 1802.35V1833.83C737.481 1835.82 735.08 1836.79 733.689 1835.37L724.399 1825.73C719.807 1834.22 707.386 1840.31 692.774 1840.31C674.23 1840.31 659.234 1830.53 659.234 1818.49C659.234 1806.45 674.23 1796.71 692.774 1796.71C707.282 1796.71 719.598 1802.7 724.295 1811.05L733.654 1800.85C735.011 1799.39 737.481 1800.33 737.481 1802.35Z" fill="#3B087D"/>
<path d="M670.577 1813.34C673.43 1813.34 674.126 1815.64 674.126 1818.49C674.126 1821.35 673.43 1823.64 670.577 1823.64C667.724 1823.64 665.428 1821.35 665.428 1818.49C665.428 1815.64 667.724 1813.34 670.577 1813.34Z" fill="#FED220"/>
<path d="M499.02 1719.61V1751.1C499.02 1753.08 496.619 1754.06 495.228 1752.63L485.938 1742.99C481.346 1751.48 468.925 1757.57 454.313 1757.57C435.769 1757.57 420.773 1747.79 420.773 1735.76C420.773 1723.72 435.769 1713.98 454.313 1713.98C468.821 1713.98 481.137 1719.96 485.834 1728.31L495.193 1718.12C496.55 1716.66 499.02 1717.6 499.02 1719.61Z" fill="#3B087D"/>
<path d="M432.079 1730.57C434.932 1730.57 435.628 1732.87 435.628 1735.72C435.628 1738.57 434.932 1740.87 432.079 1740.87C429.226 1740.87 426.93 1738.57 426.93 1735.72C426.93 1732.87 429.226 1730.57 432.079 1730.57Z" fill="#FED220"/>
<path d="M404.246 1667.63V1699.12C404.246 1701.1 401.846 1702.08 400.454 1700.65L391.165 1691.01C386.572 1699.5 374.152 1705.59 359.539 1705.59C340.995 1705.59 326 1695.82 326 1683.78C326 1671.74 340.995 1662 359.539 1662C374.047 1662 386.364 1667.98 391.06 1676.33L400.419 1666.14C401.776 1664.68 404.246 1665.62 404.246 1667.63Z" fill="#3B087D"/>
<path d="M337.307 1678.63C340.16 1678.63 340.856 1680.93 340.856 1683.78C340.856 1686.63 340.16 1688.93 337.307 1688.93C334.454 1688.93 332.158 1686.63 332.158 1683.78C332.158 1680.93 334.454 1678.63 337.307 1678.63Z" fill="#FED220"/>
<path d="M587.633 1667.63V1699.12C587.633 1701.1 585.233 1702.08 583.841 1700.65L574.552 1691.01C569.959 1699.5 557.538 1705.59 542.926 1705.59C524.382 1705.59 509.387 1695.82 509.387 1683.78C509.387 1671.74 524.382 1662 542.926 1662C557.434 1662 569.75 1667.98 574.447 1676.33L583.806 1666.14C585.163 1664.68 587.633 1665.62 587.633 1667.63Z" fill="#3B087D"/>
<path d="M520.729 1678.63C523.582 1678.63 524.278 1680.93 524.278 1683.78C524.278 1686.63 523.582 1688.93 520.729 1688.93C517.876 1688.93 515.58 1686.63 515.58 1683.78C515.58 1680.93 517.876 1678.63 520.729 1678.63Z" fill="#FED220"/>
<g filter="url(#filter1_f_2842_927)">
<path d="M1160.45 1823.74C1101.34 1779.1 1128.19 1968.58 1149.01 2068.9C1152.38 2083.77 1165.71 2124.63 1192.07 2169.1C1225.01 2224.68 1274.01 2161.35 1299.79 2204.85C1325.57 2248.35 1230.51 2231.21 1254.37 2274.22C1278.23 2317.23 1209.66 2300.72 1172.38 2246.08C1135.1 2191.43 1150.13 2172.73 1087.84 2155.77C1025.54 2138.81 1015.11 2107.44 1034.84 2066.35C1054.58 2025.27 974.375 1934.02 968.956 1867.03C963.537 1800.03 1021.94 1736.03 1058.55 1737.19C1095.15 1738.35 1144.11 1639.13 1116.9 1593.22C1089.68 1547.3 1084.54 1563.41 1032.53 1558.31C980.53 1553.21 981.423 1521.66 967.101 1497.5C952.779 1473.33 858.974 1447.29 820.707 1396.5C782.44 1345.7 721.757 1386.57 697.546 1409.08C673.336 1431.59 577.12 1495.15 553.488 1455.27C529.856 1415.4 368.571 1528.95 312.632 1583.32C256.694 1637.7 235.882 1610.85 266.668 1530.56C297.454 1450.27 387.178 1339.95 463.254 1258.94C539.331 1177.94 652.778 1158.11 747.252 1126.55C872.878 1084.58 995.633 1121.39 1004.23 1135.89C1012.82 1150.39 1030.97 1233.04 1096.6 1203.59C1199.94 1157.23 1384.62 1346.72 1402.48 1355.73C1526.93 1521.64 1580.88 1640.22 1588.48 1721.91C1592.16 1761.46 1383.19 1750.51 1314.13 1691.84C1245.07 1633.17 1267.99 1760 1229.33 1782.92C1190.66 1805.84 1290.91 1798.67 1295.93 1895.29C1300.94 1991.91 1345.96 1952.17 1354.64 1906.21C1363.32 1860.25 1451.58 1843.86 1418.68 1868.25C1385.79 1892.65 1465.68 1997.14 1456.33 2077.79C1446.98 2158.43 1374.3 2057.83 1297.95 2055.73C1221.6 2053.63 1234.34 1879.54 1160.45 1823.74Z" fill="#001C5D" fill-opacity="0.25"/>
</g>
<g filter="url(#filter2_f_2842_927)">
<path d="M-31.0904 1715.74C28.0223 1671.1 1.16886 1860.58 -19.647 1960.9C-23.0191 1975.77 -36.3517 2016.63 -62.7049 2061.1C-95.6464 2116.68 -144.648 2053.35 -170.428 2096.85C-196.209 2140.35 -101.151 2123.21 -125.007 2166.22C-148.863 2209.23 -80.3002 2192.72 -43.0179 2138.08C-5.7356 2083.43 -20.7712 2064.73 41.5264 2047.77C103.824 2030.81 114.253 1999.44 94.5193 1958.35C74.7853 1917.27 154.988 1826.02 160.407 1759.03C165.826 1692.03 107.426 1628.03 70.818 1629.19C34.2097 1630.35 -14.7451 1531.13 12.4675 1485.22C39.6801 1439.3 44.8259 1455.41 96.8296 1450.31C148.833 1445.21 147.94 1413.66 162.262 1389.5C176.585 1365.33 270.389 1339.29 308.656 1288.5C346.923 1237.7 407.606 1278.57 431.817 1301.08C456.027 1323.59 552.243 1387.15 575.875 1347.27C599.507 1307.4 760.792 1420.95 816.731 1475.32C872.67 1529.7 893.482 1502.85 862.696 1422.56C831.91 1342.27 742.185 1231.95 666.109 1150.94C590.033 1069.94 476.585 1050.11 382.111 1018.55C256.486 976.577 133.73 1013.39 125.137 1027.89C116.543 1042.39 98.389 1125.04 32.7622 1095.59C-70.5718 1049.23 -255.258 1238.72 -273.116 1247.73C-397.567 1413.64 -451.518 1532.22 -459.114 1613.91C-462.792 1653.46 -253.824 1642.51 -184.766 1583.84C-115.708 1525.17 -138.629 1652 -99.9636 1674.92C-61.298 1697.84 -161.545 1690.67 -166.563 1787.29C-171.58 1883.91 -216.6 1844.17 -225.28 1798.21C-233.959 1752.25 -322.212 1735.86 -289.32 1760.25C-256.427 1784.65 -336.318 1889.14 -326.969 1969.79C-317.62 2050.43 -244.935 1949.83 -168.586 1947.73C-92.2361 1945.63 -104.981 1771.54 -31.0904 1715.74Z" fill="#001C5D" fill-opacity="0.25"/>
</g>
<g filter="url(#filter3_f_2842_927)">
<path d="M498.91 2518.74C558.022 2474.1 531.169 2663.58 510.353 2763.9C506.981 2778.77 493.648 2819.63 467.295 2864.1C434.354 2919.68 385.352 2856.35 359.572 2899.85C333.791 2943.35 428.849 2926.21 404.993 2969.22C381.137 3012.23 449.7 2995.72 486.982 2941.08C524.264 2886.43 509.229 2867.73 571.526 2850.77C633.824 2833.81 644.253 2802.44 624.519 2761.35C604.785 2720.27 684.988 2629.02 690.407 2562.03C695.826 2495.03 637.426 2431.03 600.818 2432.19C564.21 2433.35 515.255 2334.13 542.468 2288.22C569.68 2242.3 574.826 2258.41 626.83 2253.31C678.833 2248.21 677.94 2216.66 692.262 2192.5C706.585 2168.33 800.389 2142.29 838.656 2091.5C876.923 2040.7 937.606 2081.57 961.817 2104.08C986.027 2126.59 1082.24 2190.15 1105.88 2150.27C1129.51 2110.4 1290.79 2223.95 1346.73 2278.32C1402.67 2332.7 1423.48 2305.85 1392.7 2225.56C1361.91 2145.27 1272.19 2034.95 1196.11 1953.94C1120.03 1872.94 1006.59 1853.11 912.111 1821.55C786.486 1779.58 663.73 1816.39 655.137 1830.89C646.543 1845.39 628.389 1928.04 562.762 1898.59C459.428 1852.23 274.742 2041.72 256.884 2050.73C132.433 2216.64 78.482 2335.22 70.8863 2416.91C67.208 2456.46 276.176 2445.51 345.234 2386.84C414.292 2328.17 391.371 2455 430.036 2477.92C468.702 2500.84 368.455 2493.67 363.437 2590.29C358.42 2686.91 313.4 2647.17 304.72 2601.21C296.041 2555.25 207.788 2538.86 240.68 2563.25C273.573 2587.65 193.682 2692.14 203.031 2772.79C212.38 2853.43 285.065 2752.83 361.414 2750.73C437.764 2748.63 425.019 2574.54 498.91 2518.74Z" fill="#001C5D" fill-opacity="0.25"/>
</g>
<circle cx="53.8286" cy="1333.32" r="53.8286" fill="url(#paint21_linear_2842_927)" fill-opacity="0.2"/>
<path d="M66.2632 1284.81C45.138 1279.57 29.2692 1287.2 57.5521 1291.34C85.835 1295.48 91.0949 1312.98 104.948 1333.66C104.07 1309.09 87.3884 1290.05 66.2632 1284.81Z" fill="url(#paint22_linear_2842_927)" fill-opacity="0.35"/>
<path d="M69.4005 1382.74C81.7114 1377.91 87.0049 1370.12 68.0463 1375.97C49.0878 1381.82 37.3491 1377.54 23.6968 1374.64C34.2465 1384.04 57.0896 1387.58 69.4005 1382.74Z" fill="url(#paint23_linear_2842_927)" fill-opacity="0.25"/>
<circle cx="96.1214" cy="1671.69" r="31.2053" fill="url(#paint24_linear_2842_927)" fill-opacity="0.1"/>
<path d="M103.33 1643.57C91.0834 1640.53 81.884 1644.96 98.2801 1647.36C114.676 1649.76 117.725 1659.9 125.756 1671.89C125.248 1657.65 115.577 1646.61 103.33 1643.57Z" fill="url(#paint25_linear_2842_927)" fill-opacity="0.25"/>
<path d="M105.149 1700.35C112.286 1697.54 115.354 1693.03 104.364 1696.42C93.3732 1699.81 86.5681 1697.33 78.6536 1695.65C84.7695 1701.1 98.012 1703.15 105.149 1700.35Z" fill="url(#paint26_linear_2842_927)" fill-opacity="0.3"/>
<circle cx="168.668" cy="1443.67" r="21.5895" transform="rotate(-58.6645 168.668 1443.67)" fill="url(#paint27_linear_2842_927)" fill-opacity="0.2"/>
<path d="M155.441 1430.33C149.239 1436.48 148.542 1443.5 155.86 1434.68C163.179 1425.85 170.27 1427.7 180.244 1427.27C171.644 1422.45 161.644 1424.19 155.441 1430.33Z" fill="url(#paint28_linear_2842_927)" fill-opacity="0.25"/>
<path d="M187.895 1446.65C188.806 1441.43 187.243 1437.99 185.293 1445.7C183.342 1453.42 179.425 1456.55 175.584 1460.62C181.006 1458.96 186.983 1451.88 187.895 1446.65Z" fill="url(#paint29_linear_2842_927)" fill-opacity="0.5"/>
<circle cx="21.5895" cy="21.5895" r="21.5895" transform="matrix(0.520049 0.854137 0.854137 -0.520049 108 1883.91)" fill="url(#paint30_linear_2842_927)" fill-opacity="0.15"/>
<path d="M124.441 1904.46C118.239 1898.32 117.542 1891.29 124.86 1900.11C132.179 1908.94 139.27 1907.09 149.244 1907.52C140.644 1912.35 130.644 1910.6 124.441 1904.46Z" fill="url(#paint31_linear_2842_927)" fill-opacity="0.25"/>
<path d="M156.895 1888.14C157.806 1893.37 156.243 1896.81 154.293 1889.09C152.342 1881.38 148.425 1878.25 144.584 1874.18C150.006 1875.83 155.983 1882.92 156.895 1888.14Z" fill="url(#paint32_linear_2842_927)" fill-opacity="0.3"/>
<circle cx="39.6524" cy="39.6524" r="39.6524" transform="matrix(0.520049 0.854137 0.854137 -0.520049 160 1961.75)" fill="url(#paint33_linear_2842_927)" fill-opacity="0.1"/>
<path d="M190.197 1999.5C178.805 1988.21 177.526 1975.31 190.967 1991.51C204.408 2007.72 217.432 2004.33 235.75 2005.12C219.956 2013.98 201.589 2010.78 190.197 1999.5Z" fill="url(#paint34_linear_2842_927)" fill-opacity="0.25"/>
<path d="M249.802 1969.52C251.476 1979.12 248.605 1985.44 245.023 1971.27C241.441 1957.1 234.247 1951.35 227.192 1943.87C237.149 1946.91 248.128 1959.93 249.802 1969.52Z" fill="url(#paint35_linear_2842_927)" fill-opacity="0.25"/>
<circle cx="104.789" cy="2153.54" r="58.1595" transform="rotate(121.336 104.789 2153.54)" fill="url(#paint36_linear_2842_927)" fill-opacity="0.1"/>
<path d="M140.422 2189.47C157.131 2172.92 159.007 2153.99 139.293 2177.76C119.579 2201.53 100.476 2196.56 73.6078 2197.72C96.7735 2210.72 123.713 2206.02 140.422 2189.47Z" fill="url(#paint37_linear_2842_927)" fill-opacity="0.25"/>
<path d="M52.9962 2145.51C50.5409 2159.58 54.7526 2168.84 60.0058 2148.06C65.259 2127.28 75.8111 2118.85 86.1598 2107.88C71.5544 2112.34 55.4515 2131.43 52.9962 2145.51Z" fill="url(#paint38_linear_2842_927)" fill-opacity="0.25"/>
<circle cx="108.178" cy="1180.74" r="38.5059" transform="rotate(-115.019 108.178 1180.74)" fill="url(#paint39_linear_2842_927)" fill-opacity="0.15"/>
<path d="M75.3062 1187.2C78.2984 1202.48 88.0445 1210.46 82.1728 1190.87C76.3011 1171.29 86.0517 1162.58 95.2653 1147.35C79.6057 1155.35 72.314 1171.92 75.3062 1187.2Z" fill="url(#paint40_linear_2842_927)" fill-opacity="0.25"/>
<path d="M131.605 1155.14C124.746 1148.62 118.097 1147.55 127.625 1158.07C137.153 1168.59 137.926 1177.49 140.175 1187.22C143.079 1177.54 138.463 1161.66 131.605 1155.14Z" fill="url(#paint41_linear_2842_927)" fill-opacity="0.25"/>
<circle cx="88.0096" cy="1531.58" r="59.0121" transform="rotate(-58.6645 88.0096 1531.58)" fill="url(#paint42_linear_2842_927)" fill-opacity="0.2"/>
<path d="M51.8541 1495.13C34.9002 1511.92 32.9967 1531.13 52.9998 1507.01C73.0029 1482.88 92.3857 1487.93 119.648 1486.75C96.1425 1473.57 68.8079 1478.34 51.8541 1495.13Z" fill="url(#paint43_linear_2842_927)" fill-opacity="0.25"/>
<path d="M140.563 1539.73C143.054 1525.45 138.781 1516.05 133.451 1537.14C128.12 1558.23 117.413 1566.78 106.913 1577.91C121.733 1573.39 138.072 1554.02 140.563 1539.73Z" fill="url(#paint44_linear_2842_927)" fill-opacity="0.5"/>
<circle cx="78.9523" cy="78.9523" r="78.9523" transform="matrix(-1 0 0 1 1414.58 1906.86)" fill="url(#paint45_linear_2842_927)" fill-opacity="0.2"/>
<path d="M1317.39 1914.66C1348.37 1906.97 1371.65 1918.16 1330.16 1924.24C1288.68 1930.31 1280.96 1955.98 1260.64 1986.31C1261.93 1950.27 1286.4 1922.35 1317.39 1914.66Z" fill="url(#paint46_linear_2842_927)" fill-opacity="0.35"/>
<path d="M1312.78 2058.31C1294.73 2051.21 1286.96 2039.79 1314.77 2048.37C1342.58 2056.96 1359.79 2050.67 1379.82 2046.41C1364.34 2060.2 1330.84 2065.4 1312.78 2058.31Z" fill="url(#paint47_linear_2842_927)" fill-opacity="0.25"/>
<circle cx="45.77" cy="45.77" r="45.77" transform="matrix(-1 0 0 1 1319.36 2436.35)" fill="url(#paint48_linear_2842_927)" fill-opacity="0.1"/>
<path d="M1263.02 2440.87C1280.98 2436.41 1294.47 2442.9 1270.42 2446.42C1246.37 2449.94 1241.9 2464.82 1230.12 2482.41C1230.87 2461.52 1245.05 2445.33 1263.02 2440.87Z" fill="url(#paint49_linear_2842_927)" fill-opacity="0.25"/>
<path d="M1260.35 2524.15C1249.88 2520.04 1245.38 2513.41 1261.5 2518.39C1277.62 2523.36 1287.6 2519.72 1299.21 2517.25C1290.24 2525.25 1270.82 2528.26 1260.35 2524.15Z" fill="url(#paint50_linear_2842_927)" fill-opacity="0.3"/>
<circle cx="31.6661" cy="31.6661" r="31.6661" transform="matrix(-0.520049 -0.854137 -0.854137 0.520049 1204.96 2088.56)" fill="url(#paint51_linear_2842_927)" fill-opacity="0.2"/>
<path d="M1180.84 2058.42C1189.94 2067.43 1190.96 2077.74 1180.23 2064.79C1169.49 2051.85 1159.09 2054.56 1144.46 2053.92C1157.07 2046.85 1171.74 2049.41 1180.84 2058.42Z" fill="url(#paint52_linear_2842_927)" fill-opacity="0.25"/>
<path d="M1133.24 2082.35C1131.9 2074.69 1134.2 2069.65 1137.06 2080.96C1139.92 2092.28 1145.66 2096.86 1151.3 2102.84C1143.34 2100.41 1134.58 2090.02 1133.24 2082.35Z" fill="url(#paint53_linear_2842_927)" fill-opacity="0.5"/>
<circle cx="1212.65" cy="2803.98" r="31.6661" transform="rotate(121.336 1212.65 2803.98)" fill="url(#paint54_linear_2842_927)" fill-opacity="0.15"/>
<path d="M1232.05 2823.54C1241.15 2814.53 1242.17 2804.22 1231.44 2817.16C1220.71 2830.11 1210.31 2827.4 1195.68 2828.03C1208.29 2835.11 1222.96 2832.55 1232.05 2823.54Z" fill="url(#paint55_linear_2842_927)" fill-opacity="0.25"/>
<path d="M1184.45 2799.6C1183.12 2807.27 1185.41 2812.31 1188.27 2800.99C1191.13 2789.68 1196.88 2785.09 1202.51 2779.12C1194.56 2781.54 1185.79 2791.94 1184.45 2799.6Z" fill="url(#paint56_linear_2842_927)" fill-opacity="0.3"/>
<circle cx="56.4779" cy="56.4779" r="56.4779" transform="matrix(0.422919 -0.906167 -0.906167 -0.422919 1139.55 1913.36)" fill="url(#paint57_linear_2842_927)" fill-opacity="0.15"/>
<path d="M1160.48 1847.77C1156.09 1870.18 1141.79 1881.88 1150.4 1853.15C1159.02 1824.43 1144.71 1811.66 1131.2 1789.31C1154.17 1801.05 1164.86 1825.36 1160.48 1847.77Z" fill="url(#paint58_linear_2842_927)" fill-opacity="0.25"/>
<path d="M1077.9 1800.74C1087.96 1791.18 1097.71 1789.61 1083.74 1805.04C1069.76 1820.46 1068.63 1833.53 1065.33 1847.8C1061.07 1833.59 1067.84 1810.3 1077.9 1800.74Z" fill="url(#paint59_linear_2842_927)" fill-opacity="0.25"/>
<circle cx="86.5551" cy="86.5551" r="86.5551" transform="matrix(-0.520049 -0.854137 -0.854137 0.520049 1404.43 2305.53)" fill="url(#paint60_linear_2842_927)" fill-opacity="0.2"/>
<path d="M1338.52 2223.14C1363.38 2247.77 1366.18 2275.95 1336.84 2240.57C1307.5 2205.18 1279.07 2212.59 1239.08 2210.86C1273.56 2191.52 1313.65 2198.51 1338.52 2223.14Z" fill="url(#paint61_linear_2842_927)" fill-opacity="0.25"/>
<path d="M1208.41 2288.57C1204.75 2267.62 1211.02 2253.83 1218.84 2284.76C1226.66 2315.7 1242.36 2328.23 1257.76 2344.56C1236.03 2337.93 1212.06 2309.52 1208.41 2288.57Z" fill="url(#paint62_linear_2842_927)" fill-opacity="0.5"/>
<path d="M1580.68 -71.3458C1581.05 -79.7336 1592.44 -81.9581 1595.94 -74.3263L1652.83 49.7431C1653.43 51.0493 1654.37 52.1697 1655.55 52.9872L1766.64 129.831C1773.42 134.521 1769.53 145.159 1761.33 144.374L1630.6 131.87C1629.65 131.779 1628.69 131.86 1627.77 132.105C1603.78 245.734 1411.61 466.211 1244.98 620.037C1269.33 610.551 1300.57 601.63 1335.08 594.891C1417.2 578.855 1504.11 542.189 1507.82 561.159C1511.53 580.131 1430.62 647.557 1348.5 663.593C1274.95 677.955 1211.46 677.543 1196.35 663.67C1153.91 700.59 1114.64 731.586 1082.16 753.398C892.588 880.716 681.697 898.737 611.118 793.648C540.538 688.56 636.998 500.157 826.568 372.839C858.487 351.402 900.219 325.927 947.889 298.88C946.533 298.449 945.367 297.786 944.407 296.881C930.341 283.622 965.46 223.515 1022.85 162.627C1080.24 101.739 1180.44 69.3044 1194.5 82.5614C1208.57 95.8195 1131.18 149.75 1073.79 210.639C1057.81 227.592 1041.79 242.817 1026.68 255.678C1220.35 152.948 1466.77 46.4114 1574.96 57.8759L1580.68 -71.3458Z" fill="#220A44" fill-opacity="0.22"/>
<g filter="url(#filter4_f_2842_927)">
<path d="M812.186 1706.24C816.308 1628.71 667.425 1763.13 592.467 1840.03C581.523 1851.68 553.838 1887.21 530.659 1936.18C501.685 1997.38 585.444 2002.83 562.769 2050.73C540.093 2098.63 499.236 2006 475.86 2051.94C452.483 2097.88 426.62 2028.63 452.232 1964.2C477.843 1899.78 502.916 1901.87 481.116 1837.8C459.317 1773.74 480.458 1746.28 527.727 1739.34C574.996 1732.4 607.243 1609.23 662.275 1565.24C717.307 1521.26 807.161 1534.48 827.621 1566.96C848.08 1599.45 962.997 1583.82 986.933 1533.26C1010.87 1482.7 993.852 1487.67 967.785 1439.5C941.719 1391.33 969.656 1373.61 982.254 1347C994.851 1320.38 962.467 1223.62 984.157 1160.59C1005.85 1097.57 934.756 1068.8 900.999 1060.96C867.241 1053.12 755.596 1006.79 776.382 962.879C797.168 918.971 603.927 845.408 523.876 828.685C443.824 811.963 454.949 778.139 542.762 757.818C630.576 737.497 779.048 750.777 894.046 769.384C1009.04 787.992 1152.37 929.136 1175.63 938.515C1198.88 947.895 1325.77 1151.29 1318.21 1167.26C1310.65 1183.23 1249.49 1247.45 1313.56 1287.21C1414.44 1349.81 1358.11 1621.36 1360.75 1642.16C1289.58 1847.55 1218.19 1963.94 1151.67 2018.43C1119.46 2044.81 1006.43 1856.83 1016.91 1762.44C1027.38 1668.05 930.627 1762.31 888.042 1742.15C845.456 1721.99 910.471 1804.89 829.463 1865.9C748.455 1926.9 809.388 1942.72 854.412 1923.31C899.437 1903.91 965.428 1970.98 924.945 1956.7C884.462 1942.42 840.522 2073.09 764.969 2112.25C689.417 2151.41 734.2 2029.28 691.25 1961.71C648.299 1894.15 807.034 1803.16 812.186 1706.24Z" fill="#000569" fill-opacity="0.25"/>
</g>
</g>
<defs>
<filter id="filter0_f_2842_927" x="-455.505" y="428.815" width="1354.05" height="1793.81" filterUnits="userSpaceOnUse" color-interpolation-filters="sRGB">
<feFlood flood-opacity="0" result="BackgroundImageFix"/>
<feBlend mode="normal" in="SourceGraphic" in2="BackgroundImageFix" result="shape"/>
<feGaussianBlur stdDeviation="105.4" result="effect1_foregroundBlur_2842_927"/>
</filter>
<filter id="filter1_f_2842_927" x="42.4199" y="897.085" width="1756.11" height="1611.56" filterUnits="userSpaceOnUse" color-interpolation-filters="sRGB">
<feFlood flood-opacity="0" result="BackgroundImageFix"/>
<feBlend mode="normal" in="SourceGraphic" in2="BackgroundImageFix" result="shape"/>
<feGaussianBlur stdDeviation="105" result="effect1_foregroundBlur_2842_927"/>
</filter>
<filter id="filter2_f_2842_927" x="-669.162" y="789.085" width="1756.11" height="1611.56" filterUnits="userSpaceOnUse" color-interpolation-filters="sRGB">
<feFlood flood-opacity="0" result="BackgroundImageFix"/>
<feBlend mode="normal" in="SourceGraphic" in2="BackgroundImageFix" result="shape"/>
<feGaussianBlur stdDeviation="105" result="effect1_foregroundBlur_2842_927"/>
</filter>
<filter id="filter3_f_2842_927" x="-139.162" y="1592.09" width="1756.11" height="1611.56" filterUnits="userSpaceOnUse" color-interpolation-filters="sRGB">
<feFlood flood-opacity="0" result="BackgroundImageFix"/>
<feBlend mode="normal" in="SourceGraphic" in2="BackgroundImageFix" result="shape"/>
<feGaussianBlur stdDeviation="105" result="effect1_foregroundBlur_2842_927"/>
</filter>
<filter id="filter4_f_2842_927" x="230.819" y="536.815" width="1354.05" height="1793.81" filterUnits="userSpaceOnUse" color-interpolation-filters="sRGB">
<feFlood flood-opacity="0" result="BackgroundImageFix"/>
<feBlend mode="normal" in="SourceGraphic" in2="BackgroundImageFix" result="shape"/>
<feGaussianBlur stdDeviation="105.4" result="effect1_foregroundBlur_2842_927"/>
</filter>
<linearGradient id="paint0_linear_2842_927" x1="699.455" y1="1874.69" x2="746.156" y2="2973.47" gradientUnits="userSpaceOnUse">
<stop stop-color="#1F6BAD"/>
<stop offset="1" stop-color="#3A5771"/>
</linearGradient>
<radialGradient id="paint1_radial_2842_927" cx="0" cy="0" r="1" gradientUnits="userSpaceOnUse" gradientTransform="translate(695.27 3483.17) rotate(-90) scale(3433 602.086)">
<stop stop-color="#00FFEE" stop-opacity="0.9"/>
<stop offset="1" stop-color="#63D5FF" stop-opacity="0"/>
</radialGradient>
<linearGradient id="paint2_linear_2842_927" x1="1085.33" y1="2761.47" x2="965.387" y2="2923.06" gradientUnits="userSpaceOnUse">
<stop stop-color="#0F396A"/>
<stop offset="1" stop-color="#0A233F"/>
</linearGradient>
<linearGradient id="paint3_linear_2842_927" x1="391.699" y1="2808.87" x2="444.912" y2="2919.67" gradientUnits="userSpaceOnUse">
<stop stop-color="#0F396A"/>
<stop offset="1" stop-color="#0C2748"/>
</linearGradient>
<linearGradient id="paint4_linear_2842_927" x1="684.731" y1="2046.97" x2="723.394" y2="2956.65" gradientUnits="userSpaceOnUse">
<stop stop-color="#2E86C9"/>
<stop offset="1" stop-color="#3A6F9F"/>
</linearGradient>
<linearGradient id="paint5_linear_2842_927" x1="689.162" y1="2104.18" x2="727.847" y2="3014.36" gradientUnits="userSpaceOnUse">
<stop stop-color="#056BBA"/>
<stop offset="1" stop-color="#1C345F"/>
</linearGradient>
<linearGradient id="paint6_linear_2842_927" x1="692.047" y1="2219.16" x2="724.872" y2="2991.47" gradientUnits="userSpaceOnUse">
<stop stop-color="#19418A"/>
<stop offset="1" stop-color="#093458"/>
</linearGradient>
<linearGradient id="paint7_linear_2842_927" x1="621.977" y1="2906.84" x2="672.085" y2="4085.77" gradientUnits="userSpaceOnUse">
<stop stop-color="#0062C3"/>
<stop offset="1" stop-color="#123155"/>
</linearGradient>
<radialGradient id="paint8_radial_2842_927" cx="0" cy="0" r="1" gradientTransform="matrix(-8.21737 -426.376 263.218 -5.07483 751.575 3646.49)" gradientUnits="userSpaceOnUse">
<stop stop-color="#00FFEE"/>
<stop offset="1" stop-color="#63D5FF" stop-opacity="0"/>
</radialGradient>
<linearGradient id="paint9_linear_2842_927" x1="5.09468" y1="1551" x2="5.09468" y2="3282.67" gradientUnits="userSpaceOnUse">
<stop stop-color="#1F3D67"/>
<stop offset="0.533654" stop-color="#0F0A21"/>
</linearGradient>
<linearGradient id="paint10_linear_2842_927" x1="713" y1="599" x2="702.5" y2="4253" gradientUnits="userSpaceOnUse">
<stop offset="0.0480769" stop-color="#00264D" stop-opacity="0"/>
<stop offset="0.399038" stop-color="#00080F"/>
</linearGradient>
<linearGradient id="paint11_linear_2842_927" x1="1415" y1="1727.66" x2="1415" y2="3553.46" gradientUnits="userSpaceOnUse">
<stop stop-color="#142B4C"/>
<stop offset="0.533654" stop-color="#0D0627"/>
</linearGradient>
<linearGradient id="paint12_linear_2842_927" x1="806" y1="3712.41" x2="806" y2="4296.9" gradientUnits="userSpaceOnUse">
<stop stop-color="#0C1040"/>
<stop offset="1" stop-color="#000F1E"/>
</linearGradient>
<linearGradient id="paint13_linear_2842_927" x1="110" y1="4220.58" x2="110" y2="3340.25" gradientUnits="userSpaceOnUse">
<stop offset="0.35" stop-color="#005568"/>
<stop offset="0.79" stop-color="#7B39CB"/>
</linearGradient>
<radialGradient id="paint14_radial_2842_927" cx="0" cy="0" r="1" gradientUnits="userSpaceOnUse" gradientTransform="translate(17.7208 3259.91) scale(1413.57 1413.12)">
<stop offset="0.35" stop-color="#3B087D"/>
<stop offset="0.79" stop-color="#AA2500"/>
</radialGradient>
<linearGradient id="paint15_linear_2842_927" x1="24.5" y1="4577.5" x2="24.5" y2="3561.6" gradientUnits="userSpaceOnUse">
<stop offset="0.35" stop-color="#15083B"/>
<stop offset="0.79" stop-color="#4C5F94"/>
</linearGradient>
<linearGradient id="paint16_linear_2842_927" x1="214" y1="4831.02" x2="214" y2="3737.7" gradientUnits="userSpaceOnUse">
<stop offset="0.35" stop-color="#005568"/>
<stop offset="0.79" stop-color="#986AD0"/>
</linearGradient>
<linearGradient id="paint17_linear_2842_927" x1="739" y1="3392.89" x2="739" y2="4245.89" gradientUnits="userSpaceOnUse">
<stop stop-color="#003C74" stop-opacity="0"/>
<stop offset="1" stop-color="#05001C"/>
</linearGradient>
<linearGradient id="paint18_linear_2842_927" x1="1307" y1="4301.58" x2="1307" y2="3421.25" gradientUnits="userSpaceOnUse">
<stop offset="0.35" stop-color="#005568"/>
<stop offset="0.79" stop-color="#7B39CB"/>
</linearGradient>
<linearGradient id="paint19_linear_2842_927" x1="1221.5" y1="4658.5" x2="1221.5" y2="3642.6" gradientUnits="userSpaceOnUse">
<stop offset="0.35" stop-color="#15083B"/>
<stop offset="0.79" stop-color="#4C5F94"/>
</linearGradient>
<linearGradient id="paint20_linear_2842_927" x1="1411" y1="4912.02" x2="1411" y2="3818.7" gradientUnits="userSpaceOnUse">
<stop offset="0.35" stop-color="#005568"/>
<stop offset="0.79" stop-color="#986AD0"/>
</linearGradient>
<linearGradient id="paint21_linear_2842_927" x1="53.8286" y1="1279.49" x2="53.8286" y2="1387.15" gradientUnits="userSpaceOnUse">
<stop stop-color="white"/>
<stop offset="1" stop-color="#9EFCFF" stop-opacity="0.5"/>
</linearGradient>
<linearGradient id="paint22_linear_2842_927" x1="79.5575" y1="1282.2" x2="79.5575" y2="1333.66" gradientUnits="userSpaceOnUse">
<stop stop-color="#D9D9D9"/>
<stop offset="1" stop-color="#006AAC" stop-opacity="0.05"/>
</linearGradient>
<linearGradient id="paint23_linear_2842_927" x1="54.3647" y1="1385.33" x2="32.9366" y2="1364.93" gradientUnits="userSpaceOnUse">
<stop stop-color="#D9D9D9"/>
<stop offset="1" stop-color="#006AAC" stop-opacity="0.05"/>
</linearGradient>
<linearGradient id="paint24_linear_2842_927" x1="96.1214" y1="1640.49" x2="96.1214" y2="1702.9" gradientUnits="userSpaceOnUse">
<stop stop-color="white"/>
<stop offset="1" stop-color="#9EFCFF" stop-opacity="0.5"/>
</linearGradient>
<linearGradient id="paint25_linear_2842_927" x1="111.037" y1="1642.06" x2="111.037" y2="1671.89" gradientUnits="userSpaceOnUse">
<stop stop-color="#D9D9D9"/>
<stop offset="1" stop-color="#006AAC" stop-opacity="0.05"/>
</linearGradient>
<linearGradient id="paint26_linear_2842_927" x1="96.4323" y1="1701.85" x2="84.0101" y2="1690.02" gradientUnits="userSpaceOnUse">
<stop stop-color="#D9D9D9"/>
<stop offset="1" stop-color="#006AAC" stop-opacity="0.05"/>
</linearGradient>
<linearGradient id="paint27_linear_2842_927" x1="168.668" y1="1422.08" x2="168.668" y2="1465.26" gradientUnits="userSpaceOnUse">
<stop stop-color="#600089"/>
<stop offset="1" stop-color="#00FFB7" stop-opacity="0.5"/>
</linearGradient>
<linearGradient id="paint28_linear_2842_927" x1="157.319" y1="1425.23" x2="174.948" y2="1435.97" gradientUnits="userSpaceOnUse">
<stop stop-color="#D9D9D9" stop-opacity="0.6"/>
<stop offset="1" stop-color="#006AAC" stop-opacity="0.05"/>
</linearGradient>
<linearGradient id="paint29_linear_2842_927" x1="185.644" y1="1452.34" x2="174.186" y2="1455.43" gradientUnits="userSpaceOnUse">
<stop stop-color="#D9D9D9" stop-opacity="0.6"/>
<stop offset="1" stop-color="#006AAC" stop-opacity="0.05"/>
</linearGradient>
<linearGradient id="paint30_linear_2842_927" x1="21.5895" y1="0" x2="21.5895" y2="43.1791" gradientUnits="userSpaceOnUse">
<stop stop-color="#600089"/>
<stop offset="1" stop-color="#00FFB7" stop-opacity="0.5"/>
</linearGradient>
<linearGradient id="paint31_linear_2842_927" x1="126.319" y1="1909.56" x2="143.948" y2="1898.83" gradientUnits="userSpaceOnUse">
<stop stop-color="#D9D9D9" stop-opacity="0.6"/>
<stop offset="1" stop-color="#006AAC" stop-opacity="0.05"/>
</linearGradient>
<linearGradient id="paint32_linear_2842_927" x1="154.644" y1="1882.45" x2="143.186" y2="1879.37" gradientUnits="userSpaceOnUse">
<stop stop-color="#D9D9D9" stop-opacity="0.6"/>
<stop offset="1" stop-color="#006AAC" stop-opacity="0.05"/>
</linearGradient>
<linearGradient id="paint33_linear_2842_927" x1="39.6524" y1="0" x2="39.6524" y2="79.3047" gradientUnits="userSpaceOnUse">
<stop stop-color="#600089"/>
<stop offset="1" stop-color="#00FFB7" stop-opacity="0.5"/>
</linearGradient>
<linearGradient id="paint34_linear_2842_927" x1="193.646" y1="2008.86" x2="226.023" y2="1989.15" gradientUnits="userSpaceOnUse">
<stop stop-color="#D9D9D9" stop-opacity="0.6"/>
<stop offset="1" stop-color="#006AAC" stop-opacity="0.05"/>
</linearGradient>
<linearGradient id="paint35_linear_2842_927" x1="245.668" y1="1959.07" x2="224.625" y2="1953.41" gradientUnits="userSpaceOnUse">
<stop stop-color="#D9D9D9" stop-opacity="0.6"/>
<stop offset="1" stop-color="#006AAC" stop-opacity="0.05"/>
</linearGradient>
<linearGradient id="paint36_linear_2842_927" x1="104.789" y1="2095.38" x2="104.789" y2="2211.7" gradientUnits="userSpaceOnUse">
<stop stop-color="#600089"/>
<stop offset="1" stop-color="#00FFB7" stop-opacity="0.5"/>
</linearGradient>
<linearGradient id="paint37_linear_2842_927" x1="135.364" y1="2203.2" x2="87.8747" y2="2174.29" gradientUnits="userSpaceOnUse">
<stop stop-color="#D9D9D9" stop-opacity="0.6"/>
<stop offset="1" stop-color="#006AAC" stop-opacity="0.05"/>
</linearGradient>
<linearGradient id="paint38_linear_2842_927" x1="59.0601" y1="2130.18" x2="89.9248" y2="2121.86" gradientUnits="userSpaceOnUse">
<stop stop-color="#D9D9D9" stop-opacity="0.6"/>
<stop offset="1" stop-color="#006AAC" stop-opacity="0.05"/>
</linearGradient>
<linearGradient id="paint39_linear_2842_927" x1="108.178" y1="1142.23" x2="108.178" y2="1219.25" gradientUnits="userSpaceOnUse">
<stop stop-color="#600089"/>
<stop offset="1" stop-color="#00FFB7" stop-opacity="0.5"/>
</linearGradient>
<linearGradient id="paint40_linear_2842_927" x1="69.5903" y1="1179.37" x2="102.947" y2="1163.81" gradientUnits="userSpaceOnUse">
<stop stop-color="#D9D9D9" stop-opacity="0.6"/>
<stop offset="1" stop-color="#006AAC" stop-opacity="0.05"/>
</linearGradient>
<linearGradient id="paint41_linear_2842_927" x1="137.828" y1="1164.1" x2="131.089" y2="1184.17" gradientUnits="userSpaceOnUse">
<stop stop-color="#D9D9D9" stop-opacity="0.6"/>
<stop offset="1" stop-color="#006AAC" stop-opacity="0.05"/>
</linearGradient>
<linearGradient id="paint42_linear_2842_927" x1="88.0096" y1="1472.57" x2="88.0096" y2="1590.59" gradientUnits="userSpaceOnUse">
<stop stop-color="#600089"/>
<stop offset="1" stop-color="#00FFB7" stop-opacity="0.5"/>
</linearGradient>
<linearGradient id="paint43_linear_2842_927" x1="56.9865" y1="1481.19" x2="105.172" y2="1510.53" gradientUnits="userSpaceOnUse">
<stop stop-color="#D9D9D9" stop-opacity="0.6"/>
<stop offset="1" stop-color="#006AAC" stop-opacity="0.05"/>
</linearGradient>
<linearGradient id="paint44_linear_2842_927" x1="134.41" y1="1555.28" x2="103.093" y2="1563.72" gradientUnits="userSpaceOnUse">
<stop stop-color="#D9D9D9" stop-opacity="0.6"/>
<stop offset="1" stop-color="#006AAC" stop-opacity="0.05"/>
</linearGradient>
<linearGradient id="paint45_linear_2842_927" x1="78.9523" y1="0" x2="78.9523" y2="157.905" gradientUnits="userSpaceOnUse">
<stop stop-color="white"/>
<stop offset="1" stop-color="#9EFCFF" stop-opacity="0.5"/>
</linearGradient>
<linearGradient id="paint46_linear_2842_927" x1="1297.89" y1="1910.83" x2="1297.89" y2="1986.31" gradientUnits="userSpaceOnUse">
<stop stop-color="#D9D9D9"/>
<stop offset="1" stop-color="#006AAC" stop-opacity="0.05"/>
</linearGradient>
<linearGradient id="paint47_linear_2842_927" x1="1334.84" y1="2062.1" x2="1366.27" y2="2032.18" gradientUnits="userSpaceOnUse">
<stop stop-color="#D9D9D9"/>
<stop offset="1" stop-color="#006AAC" stop-opacity="0.05"/>
</linearGradient>
<linearGradient id="paint48_linear_2842_927" x1="45.77" y1="0" x2="45.77" y2="91.5399" gradientUnits="userSpaceOnUse">
<stop stop-color="white"/>
<stop offset="1" stop-color="#9EFCFF" stop-opacity="0.5"/>
</linearGradient>
<linearGradient id="paint49_linear_2842_927" x1="1251.71" y1="2438.65" x2="1251.71" y2="2482.41" gradientUnits="userSpaceOnUse">
<stop stop-color="#D9D9D9"/>
<stop offset="1" stop-color="#006AAC" stop-opacity="0.05"/>
</linearGradient>
<linearGradient id="paint50_linear_2842_927" x1="1273.13" y1="2526.34" x2="1291.35" y2="2509" gradientUnits="userSpaceOnUse">
<stop stop-color="#D9D9D9"/>
<stop offset="1" stop-color="#006AAC" stop-opacity="0.05"/>
</linearGradient>
<linearGradient id="paint51_linear_2842_927" x1="31.6661" y1="0" x2="31.6661" y2="63.3323" gradientUnits="userSpaceOnUse">
<stop stop-color="#600089"/>
<stop offset="1" stop-color="#00FFB7" stop-opacity="0.5"/>
</linearGradient>
<linearGradient id="paint52_linear_2842_927" x1="1178.09" y1="2050.94" x2="1152.23" y2="2066.68" gradientUnits="userSpaceOnUse">
<stop stop-color="#D9D9D9" stop-opacity="0.6"/>
<stop offset="1" stop-color="#006AAC" stop-opacity="0.05"/>
</linearGradient>
<linearGradient id="paint53_linear_2842_927" x1="1136.54" y1="2090.7" x2="1153.35" y2="2095.22" gradientUnits="userSpaceOnUse">
<stop stop-color="#D9D9D9" stop-opacity="0.6"/>
<stop offset="1" stop-color="#006AAC" stop-opacity="0.05"/>
</linearGradient>
<linearGradient id="paint54_linear_2842_927" x1="1212.65" y1="2772.31" x2="1212.65" y2="2835.64" gradientUnits="userSpaceOnUse">
<stop stop-color="#600089"/>
<stop offset="1" stop-color="#00FFB7" stop-opacity="0.5"/>
</linearGradient>
<linearGradient id="paint55_linear_2842_927" x1="1229.3" y1="2831.02" x2="1203.44" y2="2815.27" gradientUnits="userSpaceOnUse">
<stop stop-color="#D9D9D9" stop-opacity="0.6"/>
<stop offset="1" stop-color="#006AAC" stop-opacity="0.05"/>
</linearGradient>
<linearGradient id="paint56_linear_2842_927" x1="1187.76" y1="2791.26" x2="1204.56" y2="2786.73" gradientUnits="userSpaceOnUse">
<stop stop-color="#D9D9D9" stop-opacity="0.6"/>
<stop offset="1" stop-color="#006AAC" stop-opacity="0.05"/>
</linearGradient>
<linearGradient id="paint57_linear_2842_927" x1="56.4779" y1="0" x2="56.4779" y2="112.956" gradientUnits="userSpaceOnUse">
<stop stop-color="#600089"/>
<stop offset="1" stop-color="#00FFB7" stop-opacity="0.5"/>
</linearGradient>
<linearGradient id="paint58_linear_2842_927" x1="1168.86" y1="1836.29" x2="1119.93" y2="1813.45" gradientUnits="userSpaceOnUse">
<stop stop-color="#D9D9D9" stop-opacity="0.6"/>
<stop offset="1" stop-color="#006AAC" stop-opacity="0.05"/>
</linearGradient>
<linearGradient id="paint59_linear_2842_927" x1="1068.77" y1="1813.89" x2="1078.66" y2="1843.32" gradientUnits="userSpaceOnUse">
<stop stop-color="#D9D9D9" stop-opacity="0.6"/>
<stop offset="1" stop-color="#006AAC" stop-opacity="0.05"/>
</linearGradient>
<linearGradient id="paint60_linear_2842_927" x1="86.5551" y1="0" x2="86.5551" y2="173.11" gradientUnits="userSpaceOnUse">
<stop stop-color="#600089"/>
<stop offset="1" stop-color="#00FFB7" stop-opacity="0.5"/>
</linearGradient>
<linearGradient id="paint61_linear_2842_927" x1="1330.99" y1="2202.7" x2="1260.31" y2="2245.73" gradientUnits="userSpaceOnUse">
<stop stop-color="#D9D9D9" stop-opacity="0.6"/>
<stop offset="1" stop-color="#006AAC" stop-opacity="0.05"/>
</linearGradient>
<linearGradient id="paint62_linear_2842_927" x1="1217.43" y1="2311.38" x2="1263.37" y2="2323.75" gradientUnits="userSpaceOnUse">
<stop stop-color="#D9D9D9" stop-opacity="0.6"/>
<stop offset="1" stop-color="#006AAC" stop-opacity="0.05"/>
</linearGradient>
</defs>
</svg>
