<svg width="897" height="286" viewBox="0 0 897 286" fill="none" xmlns="http://www.w3.org/2000/svg">
<path d="M872.323 102.705C843.779 100.51 780.854 101.787 736.746 103.8L719.572 104.534C713.915 104.775 712.553 183.219 722.922 180.659C766.031 178.948 856.168 173.693 872.384 173.103C898.781 172.142 906.333 105.32 872.323 102.705Z" fill="#A17C63"/>
<path d="M736.737 103.613C736.743 103.738 736.749 103.863 736.755 103.988C744.617 103.671 752.552 103.395 760.431 103.157C792.02 102.256 823.631 101.601 855.217 102.378C860.893 102.543 866.662 102.775 872.286 103.203C888.72 103.935 895.448 122.829 894.568 137.356C893.882 151.675 888.375 170.891 872.367 172.633C822.565 175.045 772.701 178.178 722.908 180.325L722.841 180.334C721.52 180.686 720.503 179.281 719.853 177.967C719.228 176.705 718.752 175.177 718.385 173.761C717.639 170.851 717.166 167.784 716.799 164.824C716.069 158.805 715.737 152.732 715.577 146.669C715.354 134.541 715.461 122.347 717.382 110.354C717.471 109.872 717.591 109.273 717.708 108.76C717.768 108.499 717.826 108.257 717.89 108.01C717.964 107.722 718.039 107.452 718.116 107.198C718.405 106.304 718.834 104.907 719.582 104.75C725.304 104.496 731.032 104.242 736.754 103.988C736.749 103.863 736.743 103.738 736.738 103.613C731.015 103.847 725.286 104.082 719.563 104.317C718.81 104.418 718.544 105.053 718.278 105.53C718.049 105.987 717.835 106.592 717.69 107.068C717.611 107.328 717.533 107.604 717.456 107.897C717.391 108.148 717.331 108.394 717.269 108.659C717.149 109.178 717.025 109.784 716.934 110.27C714.962 122.336 714.822 134.523 715.009 146.682C715.151 152.759 715.467 158.846 716.183 164.898C716.544 167.876 717.011 170.962 717.76 173.921C718.13 175.362 718.609 176.923 719.264 178.257C719.94 179.587 721.05 181.413 723.002 180.983L722.935 180.992C772.742 178.974 822.631 175.93 872.402 173.573C889.488 171.578 894.774 151.908 895.548 137.391C896.471 122.711 889.604 103.024 872.361 102.207C866.71 101.776 860.93 101.543 855.244 101.378C823.612 100.6 791.999 101.39 760.41 102.557C752.531 102.863 744.598 103.213 736.737 103.613ZM736.755 103.988L736.737 103.613L736.754 103.988L736.755 103.988Z" fill="black" fill-opacity="0.03"/>
<path d="M571.209 11.9424C547.216 12.6375 93.6952 21.2775 93.6952 21.2775C59.7978 22.3363 42.6719 31.7527 26.3051 51.8563C-3.79962 96.8949 -13.4243 216.587 58.464 252.536C130.352 288.486 550.445 269.773 585.947 266.291C621.448 262.808 656.021 201.283 669.937 195.972C683.853 190.661 771.626 190.572 771.626 190.572C771.626 190.572 776.578 190.02 777.831 190.393C779.085 190.765 780.437 194.407 780.437 194.407C781.351 197.243 799.602 198.35 799.429 192.63L801.899 192.149C802.862 196.62 807.011 196.908 808.517 191.957L812.654 191.837C814.871 196.681 819.008 196.561 820.928 191.598C823.915 194.341 825.81 193.32 829.201 191.358C832.592 189.396 833.198 90.8744 829.054 90.7609C823.532 90.6098 820.389 90.6423 814.576 91.1804L814.287 90.8572C810.912 87.07 808.934 84.8515 807.129 91.3961C805.006 90.9223 803.948 91.0356 802.165 91.5399C802.136 90.5641 800.853 89.2103 799.197 89.2152C797.541 89.2202 782.89 87.2204 781.337 87.3549C779.272 87.5336 777.06 89.4379 776.907 91.4537C776.907 91.4537 715.294 94.0565 666.61 86.0611C627.871 37.2916 595.202 11.2474 571.209 11.9424Z" fill="#DDE8FF" fill-opacity="0.16"/>
<path d="M93.6952 21.2775C126.225 20.6908 160.027 20.076 192.937 19.4754C319.04 17.1476 445.533 14.9055 571.22 12.3074C613.207 17.2981 640.185 55.8355 666.28 86.3234L666.381 86.4511L666.542 86.4776C703.023 92.1995 740.135 92.9419 776.927 91.9132L777.334 91.8961L777.365 91.4892C777.551 89.6336 779.495 88.0072 781.378 87.8148C787.179 88.1644 793.15 89.1917 799.199 89.6817C800.325 89.6427 801.609 90.6032 801.698 91.5534L801.716 92.1529L802.293 91.9898C803.884 91.4841 805.413 91.4525 807.028 91.8536L807.463 91.9508L807.581 91.5212C807.838 90.6043 808.122 89.7074 808.537 88.9024C808.953 88.0967 809.52 87.4865 810.202 87.7573C811.687 88.3903 812.939 90.1161 814.224 91.4942L814.382 91.6719L814.62 91.65C819.423 91.17 824.211 91.0688 829.042 91.2358C832.949 122.963 832.574 158.857 828.954 190.932C827.634 191.679 826.319 192.511 824.964 192.737C823.615 192.985 822.334 192.233 821.261 191.234L820.728 190.745L820.467 191.419C819.823 193.121 818.574 194.848 816.887 194.901C815.201 194.946 813.85 193.293 813.104 191.632L812.967 191.333L812.639 191.343C811.26 191.383 809.881 191.422 808.502 191.462L808.147 191.472L808.043 191.813C807.591 193.348 806.59 194.96 805.168 195.085C803.74 195.211 802.683 193.599 802.384 192.045L802.281 191.569L801.803 191.662C800.98 191.822 800.157 191.982 799.334 192.142L798.92 192.223L798.933 192.644C799.018 194.145 797.267 195.073 795.677 195.527C794.025 196.002 792.276 196.178 790.528 196.225C787.219 196.231 782.851 196.084 780.911 194.254L780.904 194.234C780.189 192.705 779.916 191.06 777.973 189.915C775.636 189.558 773.68 189.902 771.57 190.077L771.625 190.074C754.882 190.131 737.956 190.39 721.144 190.93C704.018 191.761 686.645 191.467 669.759 195.506C640.89 218.435 623.785 258.192 585.898 265.807C410.696 272.104 230.555 290.188 58.5788 252.307C-4.18251 218.386 -5.43983 132.276 16.2215 71.8737C18.9614 64.9093 22.2325 58.1151 26.367 51.8976C41.6562 30.7252 68.1794 21.2332 93.6952 21.2775C68.1874 21.1786 41.5997 30.6305 26.2474 51.8092C22.0891 58.0369 18.8009 64.8351 16.0447 71.804C-5.72335 132.229 -4.74785 218.481 58.3493 252.766C230.731 291.007 410.614 273.006 585.995 266.775C624.671 258.966 642.032 218.734 670.116 196.438C686.507 192.524 704.127 192.742 721.178 191.929C737.976 191.39 754.899 191.131 771.628 191.071L771.682 191.068C773.685 190.883 775.92 190.602 777.69 190.87C778.625 191.373 779.416 193.199 779.97 194.579L779.963 194.559C780.599 195.828 781.616 195.943 782.466 196.284C783.349 196.563 784.25 196.746 785.144 196.886C786.934 197.159 788.746 197.262 790.554 197.22C792.363 197.169 794.171 196.993 795.957 196.481C797.6 195.987 799.952 194.997 799.925 192.615L799.525 193.117C800.348 192.957 801.171 192.796 801.994 192.636L801.413 192.253C801.754 193.957 802.948 196.194 805.247 196.073C807.452 195.801 808.469 193.764 808.991 192.102L808.532 192.452C809.911 192.412 811.29 192.372 812.669 192.332L812.204 192.043C813.027 193.821 814.495 195.893 816.917 195.889C819.335 195.752 820.675 193.598 821.388 191.776L820.594 191.961C821.718 193.021 823.363 194.035 825.115 193.712C826.803 193.413 828.114 192.528 829.448 191.785C833.787 157.704 834.779 124.203 829.066 90.2861C824.232 90.1201 819.351 90.2256 814.532 90.7107L814.927 90.8665C813.587 89.4783 812.578 87.8021 810.488 86.8617C809.939 86.6531 809.151 86.7759 808.695 87.1754C808.227 87.5522 807.947 88.0127 807.705 88.466C807.232 89.388 806.944 90.3197 806.677 91.2709L807.231 90.9385C805.585 90.5087 803.648 90.5551 802.038 91.09L802.633 91.5264C802.36 89.7066 800.758 88.7822 799.195 88.7488C793.322 88.2747 787.44 87.2434 781.297 86.8949C778.932 87.1947 776.774 88.9083 776.448 91.4183L776.887 90.9943C740.164 92.043 703.059 91.3232 666.678 85.6446L666.941 85.7988C640.717 55.2964 613.957 16.681 571.198 11.5775C445.527 14.3071 319.029 16.7295 192.933 19.2854C160.024 19.946 126.223 20.6241 93.6952 21.2775Z" fill="black" fill-opacity="0.03"/>
<path d="M93.9681 45.9744C98.1458 45.2689 96.0533 36.536 89.7095 37.876C35.5745 49.3106 24.0363 94.6201 25.034 115.846C25.5121 112.279 24.7824 101.449 41.2012 74.9765C57.6199 48.504 89.7903 46.6798 93.9681 45.9744Z" fill="#DCEFFF" fill-opacity="0.57"/>
<path d="M563.327 236.601C560.342 236.898 557.821 245.267 562.473 244.563C602.17 238.562 629.578 197.095 638.32 177.112C636.438 180.413 632.118 190.629 609.912 214.013C587.706 237.397 566.312 236.304 563.327 236.601Z" fill="#DCEFFF" fill-opacity="0.57"/>
</svg>
