<svg width="63" height="71" viewBox="0 0 63 71" fill="none" xmlns="http://www.w3.org/2000/svg">
<g opacity="0.3" style="mix-blend-mode:screen">
<path d="M41.5948 70.1723C53.1544 70.1723 62.5254 60.8013 62.5254 49.2416C62.5254 37.6819 53.1544 28.3109 41.5948 28.3109C30.0351 28.3109 20.6641 37.6819 20.6641 49.2416C20.6641 60.8013 30.0351 70.1723 41.5948 70.1723Z" fill="#6EF1FA"/>
</g>
<g opacity="0.3" style="mix-blend-mode:screen">
<path d="M39.1759 33.1504C41.0149 34.9894 37.5547 38.4496 33.6347 42.3454C29.7147 46.2412 26.8353 49.0481 25.0205 47.2091C23.2057 45.3701 24.8753 40.7242 28.7952 36.8526C32.7152 32.9811 37.3611 31.3114 39.1759 33.1504Z" fill="#6EF1FA"/>
</g>
<g opacity="0.3" style="mix-blend-mode:screen">
<path d="M12.9698 25.9395C20.1328 25.9395 25.9395 20.1328 25.9395 12.9698C25.9395 5.80676 20.1328 0 12.9698 0C5.80676 0 0 5.80676 0 12.9698C0 20.1328 5.80676 25.9395 12.9698 25.9395Z" fill="#6EF1FA"/>
</g>
<g opacity="0.3" style="mix-blend-mode:screen">
<path d="M14.7604 4.35564C16.5994 6.19463 14.2522 8.56597 11.6147 11.1793C8.97722 13.7926 6.99303 15.7284 5.17823 13.8894C3.36343 12.0504 4.01677 8.42078 6.67847 5.78327C9.34018 3.14576 12.9456 2.51664 14.7846 4.35564H14.7604Z" fill="#6EF1FA"/>
</g>
</svg>
