<svg width="63" height="89" viewBox="0 0 63 89" fill="none" xmlns="http://www.w3.org/2000/svg">
<g opacity="0.3" style="mix-blend-mode:screen">
<path d="M20.9309 88.8526C9.37123 88.8526 0.000179291 79.4816 0.000179291 67.9219C0.000179291 56.3622 9.37123 46.9913 20.9309 46.9913C32.4906 46.9913 41.8616 56.3622 41.8616 67.9219C41.8616 79.4816 32.4906 88.8526 20.9309 88.8526Z" fill="#6EF1FA"/>
</g>
<g opacity="0.3" style="mix-blend-mode:screen">
<path d="M23.3504 51.8064C21.5114 53.6454 24.9716 57.1056 28.8915 61.0014C32.8115 64.8972 35.691 67.704 37.5058 65.865C39.3206 64.026 37.6509 59.3801 33.731 55.5085C29.811 51.637 25.1652 49.9674 23.3504 51.8064Z" fill="#6EF1FA"/>
</g>
<g opacity="0.3" style="mix-blend-mode:screen">
<path d="M49.5318 44.5956C42.3688 44.5956 36.5621 38.7888 36.5621 31.6258C36.5621 24.4628 42.3688 18.6561 49.5318 18.6561C56.6948 18.6561 62.5016 24.4628 62.5016 31.6258C62.5016 38.7888 56.6948 44.5956 49.5318 44.5956Z" fill="#6EF1FA"/>
</g>
<g opacity="0.3" style="mix-blend-mode:screen">
<path d="M47.7654 23.012C45.9264 24.851 48.2735 27.2224 50.911 29.8357C53.5486 32.449 55.5327 34.3848 57.3475 32.5458C59.1623 30.7068 58.509 27.0772 55.8473 24.4396C53.1856 21.8021 49.5802 21.173 47.7412 23.012H47.7654Z" fill="#6EF1FA"/>
</g>
<g opacity="0.3" style="mix-blend-mode:screen">
<path d="M20.132 25.9395C12.969 25.9395 7.1623 20.1328 7.1623 12.9698C7.1623 5.80676 12.969 0 20.132 0C27.295 0 33.1018 5.80676 33.1018 12.9698C33.1018 20.1328 27.295 25.9395 20.132 25.9395Z" fill="#6EF1FA"/>
</g>
<g opacity="0.3" style="mix-blend-mode:screen">
<path d="M18.3656 4.35558C16.5266 6.19457 18.8738 8.56589 21.5113 11.1792C24.1488 13.7925 26.133 15.7283 27.9478 13.8893C29.7626 12.0503 29.1093 8.42072 26.4476 5.78321C23.7859 3.1457 20.1805 2.51658 18.3415 4.35558H18.3656Z" fill="#6EF1FA"/>
</g>
</svg>
