<svg width="63" height="89" viewBox="0 0 63 89" fill="none" xmlns="http://www.w3.org/2000/svg">
<g opacity="0.3" style="mix-blend-mode:screen">
<path d="M41.5715 88.8526C53.1312 88.8526 62.5022 79.4816 62.5022 67.9219C62.5022 56.3622 53.1312 46.9913 41.5715 46.9913C30.0118 46.9913 20.6408 56.3622 20.6408 67.9219C20.6408 79.4816 30.0118 88.8526 41.5715 88.8526Z" fill="#6EF1FA"/>
</g>
<g opacity="0.3" style="mix-blend-mode:screen">
<path d="M39.1516 51.8064C40.9906 53.6454 37.5304 57.1056 33.6105 61.0014C29.6905 64.8972 26.811 67.704 24.9962 65.865C23.1814 64.026 24.851 59.3801 28.771 55.5085C32.691 51.637 37.3368 49.9674 39.1516 51.8064Z" fill="#6EF1FA"/>
</g>
<g opacity="0.3" style="mix-blend-mode:screen">
<path d="M12.9698 44.5956C20.1328 44.5956 25.9395 38.7888 25.9395 31.6258C25.9395 24.4628 20.1328 18.6561 12.9698 18.6561C5.8068 18.6561 0 24.4628 0 31.6258C0 38.7888 5.8068 44.5956 12.9698 44.5956Z" fill="#6EF1FA"/>
</g>
<g opacity="0.3" style="mix-blend-mode:screen">
<path d="M14.7361 23.0119C16.5751 24.8509 14.228 27.2223 11.5905 29.8356C8.953 32.4489 6.96881 34.3847 5.15401 32.5457C3.33921 30.7067 3.99253 27.0771 6.65423 24.4396C9.31594 21.8021 12.9214 21.173 14.7603 23.0119H14.7361Z" fill="#6EF1FA"/>
</g>
<g opacity="0.3" style="mix-blend-mode:screen">
<path d="M42.3696 25.9395C49.5326 25.9395 55.3393 20.1328 55.3393 12.9698C55.3393 5.80676 49.5326 0 42.3696 0C35.2066 0 29.3998 5.80676 29.3998 12.9698C29.3998 20.1328 35.2066 25.9395 42.3696 25.9395Z" fill="#6EF1FA"/>
</g>
<g opacity="0.3" style="mix-blend-mode:screen">
<path d="M44.1365 4.35552C45.9755 6.19451 43.6283 8.56583 40.9908 11.1791C38.3533 13.7925 36.3691 15.7282 34.5543 13.8892C32.7395 12.0502 33.3928 8.42066 36.0545 5.78315C38.7162 3.14564 42.3216 2.51652 44.1606 4.35552H44.1365Z" fill="#6EF1FA"/>
</g>
</svg>
