<svg width="849" height="404" viewBox="0 0 849 404" fill="none" xmlns="http://www.w3.org/2000/svg">
<path d="M841.301 287.869C841.301 287.869 840.48 295.065 837.01 304.414C836.682 305.298 836.333 306.202 835.943 307.129C832.986 314.324 828.449 322.467 821.591 329.426C820.852 330.201 820.072 330.934 819.271 331.666C810.094 339.982 797.221 346.143 779.132 346.143C752.38 346.143 742.032 345.518 742.032 345.518C742.032 345.518 739.65 357.41 734.785 368.139C729.221 380.375 710.044 382.723 708.196 381.237C706.78 380.138 699.717 358.681 708.196 348.922C716.655 339.185 725.278 334.725 725.278 334.725C725.278 334.725 712.262 333.196 700.025 324.88C689.082 317.469 683.908 298.619 685.612 296.831C687.624 294.72 705.199 293.427 715.239 298.964C725.627 304.673 732.67 316.112 733.101 316.823V316.866C733.265 316.651 733.388 316.457 733.553 316.241C734.045 315.444 734.559 314.69 735.092 313.936C736.797 311.459 738.644 309.068 740.615 306.784C741.088 306.202 741.58 305.664 742.094 305.104C749.054 297.413 757.574 291.015 768.23 286.383C795.886 295.431 813.625 296.53 841.301 287.869Z" fill="#2EB2EF"/>
<path d="M735.093 313.936C734.292 322.446 741.622 330.18 747.247 330.18C749.937 330.18 752.236 328.392 753.058 324.083C753.058 324.083 753.201 324.126 753.427 324.191C754.105 324.406 755.439 324.772 755.439 324.772C753.838 338.108 770.119 340.09 772.583 326.108C772.583 326.108 773.712 326.022 774.595 325.936C774.8 325.936 774.985 325.936 775.149 325.893C775.437 325.85 775.622 325.828 775.622 325.828C774.78 330.955 777.572 335.91 782.397 335.027C787.407 334.101 791.041 327.315 793.381 322.209C794.613 321.95 795.229 321.821 796.482 321.563C797.426 325.203 798.411 330.481 802.436 330.611C807.281 329.792 811.777 324.04 812.476 318.891C812.476 318.891 813.954 318.762 814.837 318.697C815.001 318.676 815.083 318.676 815.268 318.654H815.514C814.672 325.16 817.773 328.758 821.591 329.426C820.852 330.201 820.072 330.934 819.271 331.666C817.341 331.085 815.576 329.878 814.221 327.918C813.707 327.185 813.338 326.345 813.03 325.462C810.155 330.223 805.29 334.23 800.547 334.23C796.974 333.648 795.27 330.524 794.161 327.056C792.252 330.546 789.87 333.971 786.75 336.341C780.652 340.951 774.944 338.086 773.035 332.7C772.439 333.648 771.782 334.575 771.043 335.393C764.062 342.998 755.316 338.129 753.263 330.137C748.89 335.824 739.527 333.476 735.093 322.252C734.251 320.162 733.758 318.094 733.553 316.241L735.093 313.936Z" fill="#6EF1FA"/>
<path d="M837.01 304.414C836.682 305.298 836.333 306.203 835.943 307.129C835.511 306.181 835.183 305.212 834.916 304.242C830.687 310.576 820.811 313.075 816.048 306.138C815.534 305.405 815.165 304.565 814.857 303.682C811.982 308.443 807.096 312.45 802.353 312.45C798.781 311.89 797.077 308.745 795.968 305.276C794.058 308.766 791.677 312.213 788.577 314.561C782.479 319.193 776.771 316.306 774.841 310.921C774.266 311.868 773.609 312.795 772.85 313.613C765.869 321.218 757.122 316.371 755.069 308.357C751.702 312.752 745.358 312.342 740.615 306.784C741.087 306.203 741.58 305.664 742.093 305.104C744.27 307.15 746.795 308.4 749.054 308.4C751.743 308.4 754.043 306.633 754.864 302.303C754.864 302.303 755.028 302.346 755.254 302.433C755.911 302.626 757.266 302.993 757.266 302.993C755.644 316.328 771.946 318.31 774.41 304.328C774.41 304.328 775.519 304.264 776.401 304.178C776.607 304.156 776.812 304.134 776.976 304.113C777.264 304.091 777.449 304.07 777.449 304.07C776.586 309.176 779.399 314.13 784.224 313.247C789.234 312.321 792.868 305.535 795.188 300.429C796.44 300.171 797.056 300.041 798.288 299.804C799.253 303.424 800.238 308.702 804.242 308.831C809.108 308.034 813.584 302.26 814.302 297.133C814.302 297.133 815.76 296.982 816.664 296.918C816.828 296.918 816.91 296.918 817.074 296.918C817.238 296.896 817.341 296.896 817.341 296.896C815.514 310.856 831.836 311.394 834.546 298.404C835.45 298.641 835.902 298.792 836.825 299.093C836.559 300.989 836.641 302.777 837.01 304.436V304.414Z" fill="#6EF1FA"/>
<path d="M290.566 401.94C288.677 401.94 286.049 401.1 282.99 400.131C280.095 399.204 276.81 398.149 274.798 398.149C274.408 398.149 274.161 398.192 274.017 398.213C270.753 399.032 265.928 400.109 261.822 400.109C258.906 400.109 256.751 399.549 255.313 398.429C253.137 398.687 250.981 398.838 248.887 398.838C239.689 398.838 231.928 396.317 225.789 391.319C221.354 387.722 218.767 383.025 218.09 377.381C217.022 368.311 221.17 358.725 224.557 352.628C215.729 356.829 199.468 363.572 185.65 363.572C172.859 363.572 154.217 345.433 139.208 330.87C131.386 323.265 123.296 315.402 120.381 314.842C120.032 314.777 119.662 314.734 119.272 314.734C114.324 314.734 107.651 320.055 102.765 323.933C100.835 325.462 99.1719 326.798 97.8579 327.595C96.0306 328.715 93.6695 332.55 91.5958 335.932C88.3518 341.21 85.7854 345.39 82.603 345.39H82.3361C81.1453 345.282 79.4617 344.528 78.0861 341.404C75.6429 335.825 74.8627 323.588 80.9194 315.1C85.4774 308.68 91.0414 307.345 94.9219 307.345C96.4823 307.345 97.7552 307.56 98.6586 307.775C100.958 305.298 107.713 299.18 118.348 299.18C119.354 299.18 120.381 299.244 121.407 299.352C132.946 300.602 142.74 311.481 152.225 321.994C162.142 332.981 172.387 344.356 184.192 344.356C199.653 344.356 204.868 339.25 206.592 336.212C202.24 335.825 198.934 333.95 197.374 330.913C196.696 329.62 196.388 328.177 196.409 326.647C192.775 329.319 187.519 331.947 180.907 331.947C174.974 331.947 168.917 329.792 162.901 325.57C158.405 322.403 155.715 317.836 154.874 311.976C153.211 300.451 159.493 286.082 166.022 277.615C174.378 266.779 188.833 260.316 197.99 260.316C198.421 260.316 198.852 260.316 199.263 260.359L199.55 260.316C201.254 260.144 203.04 260.058 205.011 260.058C205.75 260.058 206.469 260.058 207.208 260.101C210.658 260.208 214.682 260.532 218.398 262.19H218.603L218.993 262.341C231.066 267.576 232.462 280.028 232.421 285.823C233.078 285.651 233.714 285.478 234.371 285.328C235.706 285.069 236.856 284.94 237.944 284.94C238.929 284.94 239.853 285.048 240.715 285.263C241.496 285.457 242.255 285.758 243.097 286.189C243.549 286.426 244.001 286.685 244.432 287.008C244.493 287.051 244.924 287.374 245.273 287.784L245.356 287.848L245.54 288.128C246.485 289.83 246.916 292.027 246.875 294.893C249.626 294.16 253.753 293.773 259.255 293.773C260.487 293.773 261.842 293.772 263.3 293.837C274.367 294.16 278.678 298.706 282.148 302.347C284.304 304.63 286.028 306.418 289.046 306.892C289.211 306.914 289.395 306.935 289.539 306.935C291.264 306.935 292.516 305.147 294.405 302.217C297.013 298.189 300.585 292.674 308.367 292.674C311.508 292.674 315.019 293.557 319.104 295.345C331.074 300.623 341.669 315.057 341.012 321.929C342.572 324.019 346.288 329.534 346.001 333.886C345.611 339.745 338.096 345.066 332.224 345.303C332.039 345.303 331.834 345.303 331.649 345.303C327.83 345.303 318.098 342.718 318.098 339.465C318.098 337.634 318.92 334.532 324.361 334.532C325.408 334.532 326.455 334.64 327.379 334.726C328.015 334.79 328.569 334.834 329.001 334.834H329.021C329.165 334.446 329.124 333.196 329.103 332.442C329.042 330.353 328.96 327.466 331.054 325.721C331.752 324.17 328.159 315.876 324.648 311.265C322.513 308.443 319.351 306.698 316.415 306.698C314.67 306.698 312.268 307.302 310.502 310.145C307.71 323.2 301.94 328.78 291.305 328.78C284.817 328.78 278.432 323.394 272.786 318.633C268.823 315.272 265.066 312.106 262.089 311.416C261.514 311.287 260.939 311.222 260.405 311.222C256.525 311.222 254.081 314.842 253.137 316.608C255.046 319.344 261.473 327.423 271.328 327.423C271.697 327.423 272.088 327.423 272.478 327.38C273.011 327.337 273.525 327.337 274.059 327.337C288.595 327.337 300.955 339.551 301.016 354.007C301.057 361.353 298.696 367.73 294.22 372.469C288.944 378.049 281.142 380.979 271.697 380.979C255.744 380.979 253.486 376.175 251.864 368.828C251.741 368.29 251.638 367.751 251.494 367.213C250.858 364.584 251.659 361.568 253.856 358.488C257.941 352.757 266.4 347.35 271.615 347.156C273.751 347.156 274.531 348.406 274.777 348.923C276.214 352.046 272.58 357.734 264.388 368.505L264.327 368.591C264.696 369.345 265.949 370.724 268.885 370.724C270.178 370.724 271.656 370.444 273.278 369.906C280.67 367.428 283.421 362.926 283.421 353.274C283.421 345.605 279.027 341.878 269.993 341.878C262.766 341.878 255.005 344.377 252.87 345.11C247.511 353.21 236.383 374.063 243.877 381.711C247.019 384.921 251.679 386.709 258.126 387.205C263.957 384.081 269.131 382.487 273.484 382.487H273.71C280.793 382.573 287.445 387.851 291.017 392.353C292.557 394.292 294.303 397.071 293.933 399.355C293.83 399.958 293.276 401.962 290.443 401.962L290.566 401.94Z" fill="url(#paint0_radial_3335_959)"/>
<path d="M290.566 401.94C288.677 401.94 286.049 401.1 282.99 400.131C280.095 399.204 276.81 398.149 274.798 398.149C274.408 398.149 274.161 398.192 274.018 398.213C270.753 399.032 265.928 400.109 261.822 400.109C258.906 400.109 256.751 399.549 255.313 398.429C253.137 398.687 250.981 398.838 248.887 398.838C239.689 398.838 231.928 396.317 225.789 391.319C221.354 387.722 218.767 383.025 218.09 377.381C217.022 368.311 221.17 358.725 224.557 352.628C215.729 356.829 199.468 363.572 185.65 363.572C172.859 363.572 154.217 345.433 139.208 330.87C131.386 323.265 123.296 315.402 120.381 314.842C120.032 314.777 119.662 314.734 119.272 314.734C114.324 314.734 107.651 320.055 102.765 323.933C100.835 325.462 99.1719 326.798 97.8579 327.595C96.0306 328.715 93.6695 332.55 91.5958 335.932C88.3518 341.21 85.7854 345.39 82.603 345.39H82.3361C81.1453 345.282 79.4617 344.528 78.0861 341.404C75.6429 335.825 74.8627 323.588 80.9194 315.1C85.4774 308.68 91.0414 307.345 94.9219 307.345C96.4823 307.345 97.7552 307.56 98.6586 307.775C100.958 305.298 107.713 299.18 118.348 299.18C119.354 299.18 120.381 299.244 121.407 299.352C132.946 300.602 142.74 311.481 152.225 321.994C162.142 332.981 172.387 344.356 184.193 344.356C199.653 344.356 204.868 339.25 206.592 336.212C202.24 335.825 198.934 333.95 197.374 330.913C196.696 329.62 196.388 328.177 196.409 326.647C192.775 329.319 187.519 331.947 180.907 331.947C174.974 331.947 168.917 329.792 162.901 325.57C158.405 322.403 155.715 317.836 154.874 311.976C153.211 300.451 159.493 286.082 166.022 277.615C174.378 266.779 188.833 260.316 197.99 260.316C198.421 260.316 198.852 260.316 199.263 260.359L199.55 260.316C201.254 260.144 203.04 260.058 205.011 260.058C205.751 260.058 206.469 260.058 207.208 260.101C210.658 260.208 214.682 260.532 218.398 262.19H218.603L218.993 262.341C231.066 267.576 232.462 280.028 232.421 285.823C233.078 285.651 233.714 285.478 234.371 285.328C235.706 285.069 236.856 284.94 237.944 284.94C238.929 284.94 239.853 285.048 240.716 285.263C241.496 285.457 242.255 285.758 243.097 286.189C243.549 286.426 244.001 286.685 244.432 287.008C244.493 287.051 244.924 287.374 245.273 287.784L245.356 287.848L245.54 288.128C246.485 289.83 246.916 292.027 246.875 294.893C249.626 294.16 253.753 293.773 259.255 293.773C260.487 293.773 261.842 293.772 263.3 293.837C274.367 294.16 278.678 298.706 282.148 302.347C284.304 304.63 286.028 306.418 289.047 306.892C289.211 306.914 289.396 306.935 289.539 306.935C291.264 306.935 292.516 305.147 294.405 302.217C297.013 298.189 300.585 292.674 308.367 292.674C311.508 292.674 315.019 293.557 319.105 295.345C331.074 300.623 341.669 315.057 341.012 321.929C342.572 324.019 346.288 329.534 346.001 333.886C345.611 339.745 338.096 345.066 332.224 345.303C332.039 345.303 331.834 345.303 331.649 345.303C327.83 345.303 318.098 342.718 318.098 339.465C318.098 337.634 318.92 334.532 324.361 334.532C325.408 334.532 326.455 334.64 327.379 334.726C328.015 334.79 328.569 334.834 329.001 334.834H329.021C329.165 334.446 329.124 333.196 329.103 332.442C329.042 330.353 328.96 327.466 331.054 325.721C331.752 324.17 328.159 315.876 324.648 311.265C322.513 308.443 319.351 306.698 316.415 306.698C314.67 306.698 312.268 307.302 310.502 310.145C307.71 323.2 301.94 328.78 291.305 328.78C284.817 328.78 278.432 323.394 272.786 318.633C268.823 315.272 265.066 312.106 262.089 311.416C261.514 311.287 260.939 311.222 260.405 311.222C256.525 311.222 254.081 314.842 253.137 316.608C255.046 319.344 261.473 327.423 271.328 327.423C271.697 327.423 272.088 327.423 272.478 327.38C273.011 327.337 273.525 327.337 274.059 327.337C288.595 327.337 300.955 339.551 301.016 354.007C301.057 361.353 298.696 367.73 294.22 372.469C288.944 378.049 281.142 380.979 271.697 380.979C255.745 380.979 253.486 376.175 251.864 368.828C251.741 368.29 251.638 367.751 251.495 367.213C250.858 364.584 251.659 361.568 253.856 358.488C257.941 352.757 266.4 347.35 271.615 347.156C273.751 347.156 274.531 348.406 274.777 348.923C276.214 352.046 272.58 357.734 264.388 368.505L264.327 368.591C264.696 369.345 265.949 370.724 268.885 370.724C270.178 370.724 271.656 370.444 273.278 369.906C280.67 367.428 283.421 362.926 283.421 353.274C283.421 345.605 279.027 341.878 269.993 341.878C262.766 341.878 255.005 344.377 252.87 345.11C247.511 353.21 236.383 374.063 243.877 381.711C247.019 384.921 251.679 386.709 258.126 387.205C263.957 384.081 269.131 382.487 273.484 382.487H273.71C280.793 382.573 287.445 387.851 291.018 392.353C292.557 394.292 294.303 397.071 293.933 399.355C293.83 399.958 293.276 401.962 290.443 401.962L290.566 401.94Z" fill="url(#paint1_radial_3335_959)"/>
<path d="M241.434 296.659C240.674 299.589 238.231 299.675 235.438 298.878C232.646 298.081 230.572 296.724 231.332 293.794C232.092 290.864 234.966 289.141 237.738 289.938C240.51 290.735 242.173 293.751 241.413 296.659H241.434Z" fill="#FED220"/>
<path d="M208.009 330.223C210.494 328.672 209.919 326.173 208.461 323.566C207.003 320.96 205.176 319.236 202.692 320.766C200.207 322.295 199.386 325.677 200.864 328.284C202.343 330.891 205.546 331.753 208.03 330.202L208.009 330.223Z" fill="#FED220"/>
<path d="M85.2102 183.062C86.8938 180.132 87.7151 176.922 87.7151 173.411C87.7151 167.077 84.3684 163.91 77.6752 163.91H18.2367C10.0858 163.91 6 167.896 6 175.867V284.444H26.2645V234.205H80.3443C82.0278 231.276 82.8696 228.044 82.8696 224.533C82.8696 218.22 79.523 215.054 72.8092 215.054H26.2645V183.062H85.2102Z" fill="#BEF3FC"/>
<path d="M175.63 196.764C173.967 196.419 172.345 196.247 170.785 196.247C167.767 196.247 165.303 197.044 163.414 198.616C161.505 200.21 160.56 202.516 160.56 205.553V244.395C160.56 260.682 153.313 268.804 138.797 268.804C124.281 268.804 117.034 260.682 117.034 244.395V198.185C116.028 197.604 114.693 197.13 113.01 196.764C111.326 196.419 109.725 196.247 108.144 196.247C105.146 196.247 102.682 197.044 100.793 198.616C98.8839 200.21 97.9395 202.516 97.9395 205.553V248.79C97.9395 260.488 101.615 269.773 108.985 276.624C116.356 283.496 126.293 286.921 138.797 286.921C144.258 286.921 149.227 286.275 153.703 285.004C155.92 279.92 158.712 275.245 161.628 271.453C166.227 265.486 172.489 260.725 178.915 257.45C179.408 254.736 179.655 251.849 179.655 248.79V198.185C178.648 197.604 177.314 197.13 175.63 196.764Z" fill="#BEF3FC"/>
<path d="M214.148 155.487C212.485 155.143 210.863 154.949 209.303 154.949C206.285 154.949 203.821 155.746 201.932 157.318C200.023 158.913 199.078 161.218 199.078 164.277V252.237C200.844 252.065 202.651 251.979 204.663 251.979C205.463 251.979 206.264 252 207.065 252.022C210.473 252.129 214.374 252.431 218.172 253.81V156.888C217.166 156.306 215.832 155.832 214.148 155.487Z" fill="#BEF3FC"/>
<path d="M252.666 155.487C250.982 155.143 249.381 154.949 247.8 154.949C244.802 154.949 242.338 155.746 240.45 157.318C238.54 158.913 237.596 161.218 237.596 164.277V278.52C238.314 278.455 239.012 278.412 239.669 278.412C240.881 278.412 242.01 278.541 243.078 278.8C244.043 279.037 245.028 279.424 246.034 279.941C246.691 280.286 247.225 280.609 247.718 280.976C247.902 281.105 248.436 281.514 248.909 282.074L249.093 282.247L249.401 282.721L249.483 282.85L249.566 282.979C249.812 283.431 250.038 283.927 250.202 284.444H256.69V156.888C255.684 156.306 254.349 155.832 252.666 155.487Z" fill="#BEF3FC"/>
<path d="M323.539 317.038C322.204 314.97 320.131 313.57 318.139 313.398C316.722 313.29 315.511 313.807 314.546 314.97C313.273 319.214 311.631 322.532 309.598 324.966C316.024 325.483 321.691 324.923 326.578 323.307C325.797 321.175 324.709 318.805 323.539 317.017V317.038ZM353.638 196.764C351.975 196.419 350.353 196.247 348.793 196.247C345.774 196.247 343.352 197.022 341.504 198.616C339.656 200.189 338.732 202.516 338.732 205.553V243.146C338.732 251.009 336.864 257.063 333.127 261.328C329.39 265.615 323.95 267.748 316.805 267.748C309.66 267.748 304.691 265.788 300.893 261.867C297.094 257.946 295.206 252.345 295.206 245.085V198.164C294.076 197.582 292.68 197.108 291.017 196.764C289.334 196.419 287.712 196.247 286.151 196.247C283.133 196.247 280.71 197.022 278.863 198.616C277.035 200.189 276.111 202.516 276.111 205.553V249.135C276.111 256.395 277.672 262.707 280.792 268.114C283.913 273.5 288.266 277.615 293.85 280.501C299.435 283.367 305.861 284.788 313.109 284.788C319.371 284.788 324.75 283.776 329.267 281.729C333.805 279.683 337.11 276.947 339.245 273.543V278.476C339.245 285.327 336.125 294.267 333.476 298.382C338.322 302.238 342.654 307.129 345.569 311.911C352.529 304.177 357.826 289.614 357.826 275.137V198.164C356.718 197.582 355.322 197.108 353.638 196.764Z" fill="#BEF3FC"/>
<path d="M473.952 164.535C472.33 164.126 470.749 163.91 469.189 163.91C466.047 163.91 463.522 164.772 461.572 166.474C459.601 168.154 458.636 170.546 458.636 173.583V212.231H399.69V166.022C398.232 165.44 396.692 164.944 395.091 164.535C393.469 164.126 391.867 163.91 390.307 163.91C387.186 163.91 384.64 164.772 382.69 166.474C380.739 168.154 379.754 170.546 379.754 173.583V284.444H399.69V231.383H458.636V284.444H478.551V166.022C477.114 165.44 475.574 164.944 473.952 164.535Z" fill="#BEF3FC"/>
<path d="M564.968 203.183C557.494 196.914 546.428 193.79 531.809 193.79C522.652 193.79 515.733 194.954 511.052 197.302C506.35 199.65 504.01 202.817 504.01 206.781C504.01 208.655 504.462 210.443 505.344 212.145C506.248 213.847 507.295 215.161 508.527 216.109C510.436 214.342 513.536 212.877 517.827 211.714C522.119 210.529 526.902 209.948 532.138 209.948C540.412 209.948 546.633 211.585 550.821 214.881C555.01 218.155 557.104 223.369 557.104 230.5C554.64 230.155 551.396 229.875 547.393 229.638C543.369 229.401 539.735 229.272 536.491 229.272C522.324 229.272 512.079 231.749 505.776 236.661C499.472 241.573 496.311 248.596 496.311 257.752C496.311 268.049 499.965 275.482 507.274 280.049C514.584 284.637 525.157 286.921 539.016 286.921C544.477 286.921 550.596 286.641 557.35 286.124C564.105 285.585 570.388 284.917 576.178 284.099V231.211C576.178 218.802 572.441 209.452 564.968 203.183ZM557.268 270.742C555.359 271.216 552.69 271.604 549.22 271.884C545.771 272.185 542.363 272.336 539.016 272.336C530.865 272.336 524.89 271.238 521.092 269.083C517.294 266.907 515.405 263.31 515.405 258.269C515.405 253.228 516.986 249.63 520.168 247.109C523.35 244.589 529.017 243.339 537.168 243.339C540.186 243.339 543.677 243.49 547.639 243.77C551.602 244.072 554.805 244.503 557.268 245.084V270.742Z" fill="#BEF3FC"/>
<path d="M660.747 263.18C654.505 267.166 647.565 269.169 639.989 269.169C631.489 269.169 624.776 266.563 619.807 261.349C614.838 256.136 612.354 249.07 612.354 240.172C612.354 231.275 614.797 224.101 619.725 218.996C624.632 213.911 631.161 211.348 639.312 211.348C643.788 211.348 647.997 212.08 651.959 213.545C655.922 215.01 659.289 217.1 662.081 219.793C664.093 218.155 665.695 216.367 666.865 214.429C668.035 212.49 668.61 210.594 668.61 208.72C668.61 206.027 667.399 203.571 664.935 201.352C662.471 199.004 658.981 197.151 654.464 195.815C649.947 194.458 644.896 193.79 639.312 193.79C629.6 193.79 621.224 195.772 614.202 199.758C607.16 203.743 601.78 209.258 598.044 216.281C594.286 223.304 592.418 231.448 592.418 240.69C592.418 249.931 594.327 258.204 598.126 265.119C601.924 272.035 607.221 277.399 614.038 281.19C620.833 285.004 628.759 286.921 637.813 286.921C649.187 286.921 659.515 283.991 668.795 278.131L660.747 263.18Z" fill="#BEF3FC"/>
<path d="M742.463 258.894C734.435 250.384 726.099 242.758 717.517 235.951C720.864 233.624 724.642 230.888 728.809 227.786C732.998 224.684 737.166 221.517 741.293 218.307C745.419 215.075 749.156 212.124 752.523 209.431C755.87 206.738 758.313 204.627 759.874 203.097C758.991 201.223 757.595 199.607 755.685 198.272C753.796 196.915 751.291 196.247 748.15 196.247C746.261 196.247 744.085 196.635 741.621 197.389C739.178 198.143 736.488 199.694 733.593 202.042L698.751 228.755V156.888C697.745 156.306 696.411 155.832 694.748 155.487C693.064 155.143 691.442 154.949 689.882 154.949C686.864 154.949 684.421 155.746 682.511 157.318C680.622 158.913 679.678 161.218 679.678 164.277V284.444H698.751V244.74C704.11 248.833 709.325 253.207 714.417 257.838C719.488 262.47 724.19 267.059 728.481 271.626C732.772 276.193 736.447 280.48 739.445 284.444H763.241C757.43 275.891 750.511 267.382 742.463 258.894Z" fill="#BEF3FC"/>
<path d="M819.661 232.094L802.579 229.811C797.672 229.1 794.058 227.893 791.779 226.213C789.5 224.511 788.351 222.314 788.351 219.621C788.351 216.109 789.993 213.438 793.278 211.628C796.584 209.797 801.183 208.892 807.096 208.892C811.346 208.892 815.596 209.345 819.825 210.206C824.075 211.09 827.874 212.21 831.22 213.545C834.567 214.903 836.969 216.346 838.427 217.854C839.987 217.035 841.342 215.7 842.513 213.826C843.683 211.951 844.278 210.12 844.278 208.375C844.278 205.553 842.779 203.076 839.761 200.9C836.743 198.745 832.616 197 827.36 195.729C822.125 194.437 816.089 193.791 809.272 193.791C796.337 193.791 786.441 196.16 779.645 200.9C772.829 205.639 769.421 212.598 769.421 221.732C769.421 229.229 771.72 235.067 776.299 239.289C780.857 243.512 787.406 246.205 795.886 247.368L812.968 249.652C823.685 251.073 829.044 254.757 829.044 260.725C829.044 267.769 822.453 271.281 809.272 271.281C802.579 271.281 796.111 270.398 789.849 268.631C783.608 266.886 778.68 264.839 775.128 262.491L767.922 276.02C770.365 277.895 773.917 279.683 778.557 281.385C783.177 283.065 788.31 284.422 793.956 285.413C799.602 286.404 805.043 286.921 810.278 286.921C821.899 286.921 831.241 284.357 838.324 279.273C845.428 274.168 848.959 267.058 848.959 257.924C848.959 243.275 839.207 234.679 819.661 232.094Z" fill="#BEF3FC"/>
<path d="M668.365 231.577V251.074C668.365 252.302 666.948 252.905 666.127 252.021L660.645 246.054C657.935 251.311 650.605 255.081 641.982 255.081C631.039 255.081 622.189 249.027 622.189 241.573C622.189 234.119 631.039 228.087 641.982 228.087C650.543 228.087 657.811 231.793 660.583 236.963L666.106 230.651C666.907 229.746 668.365 230.328 668.365 231.577Z" fill="#6EF1FA"/>
<path d="M628.863 238.385C630.546 238.385 630.957 239.807 630.957 241.573C630.957 243.34 630.546 244.762 628.863 244.762C627.179 244.762 625.824 243.34 625.824 241.573C625.824 239.807 627.179 238.385 628.863 238.385Z" fill="#3B087D"/>
<path d="M725.278 334.726C725.278 334.726 712.262 333.196 700.025 324.881C689.082 317.47 683.908 298.62 685.612 296.832C687.624 294.72 705.199 293.428 715.239 298.964C725.627 304.673 732.67 316.113 733.101 316.824V316.867C733.101 316.867 730.74 317.534 727.249 323.049C723.739 328.564 725.278 334.726 725.278 334.726Z" fill="#3B087D"/>
<path d="M742.031 345.519C742.031 345.519 739.65 357.41 734.784 368.139C729.22 380.375 710.043 382.723 708.195 381.237C706.779 380.138 699.716 358.681 708.195 348.922C716.654 339.185 725.278 334.726 725.278 334.726C725.278 334.726 728.296 343.472 733.121 345.303C737.945 347.134 742.031 345.519 742.031 345.519Z" fill="#3B087D"/>
<mask id="mask0_3335_959" style="mask-type:luminance" maskUnits="userSpaceOnUse" x="6" y="154" width="844" height="172">
<path d="M85.2532 183.062C86.9367 180.133 87.758 176.923 87.758 173.411C87.758 167.077 84.4114 163.911 77.7181 163.911H18.2797C10.1287 163.911 6.04297 167.896 6.04297 175.867V284.444H26.3075V234.206H80.3872C82.0708 231.276 82.9126 228.044 82.9126 224.533C82.9126 218.221 79.566 215.054 72.8522 215.054H26.3075V183.062H85.2532ZM175.674 196.764C174.011 196.419 172.389 196.247 170.828 196.247C167.81 196.247 165.346 197.044 163.457 198.616C161.548 200.211 160.603 202.516 160.603 205.553V244.395C160.603 260.682 153.356 268.804 138.84 268.804C124.324 268.804 117.077 260.682 117.077 244.395V198.186C116.071 197.604 114.736 197.13 113.053 196.764C111.369 196.419 109.768 196.247 108.187 196.247C105.189 196.247 102.725 197.044 100.837 198.616C98.9271 200.211 97.9827 202.516 97.9827 205.553V248.79C97.9827 260.488 101.658 269.773 109.029 276.624C116.399 283.496 126.337 286.921 138.84 286.921C144.302 286.921 149.27 286.275 153.746 285.004C155.963 279.92 158.756 275.245 161.671 271.454C166.27 265.486 172.532 260.725 178.959 257.451C179.451 254.736 179.698 251.849 179.698 248.79V198.186C178.692 197.604 177.357 197.13 175.674 196.764ZM214.19 155.487C212.527 155.143 210.905 154.949 209.345 154.949C206.327 154.949 203.863 155.746 201.974 157.318C200.065 158.913 199.12 161.218 199.12 164.277V252.237C200.886 252.065 202.693 251.979 204.705 251.979C205.506 251.979 206.306 252 207.107 252.022C210.515 252.129 214.416 252.431 218.215 253.81V156.888C217.209 156.306 215.874 155.832 214.19 155.487ZM252.707 155.487C251.024 155.143 249.422 154.949 247.841 154.949C244.844 154.949 242.38 155.746 240.491 157.318C238.582 158.913 237.637 161.218 237.637 164.277V278.52C238.356 278.455 239.054 278.412 239.711 278.412C240.922 278.412 242.052 278.541 243.119 278.8C244.084 279.037 245.07 279.424 246.076 279.941C246.733 280.286 247.267 280.609 247.759 280.976C247.944 281.105 248.478 281.514 248.95 282.074L249.135 282.247L249.443 282.721L249.525 282.85L249.607 282.979C249.854 283.431 250.079 283.927 250.244 284.444H256.732V156.888C255.726 156.306 254.391 155.832 252.707 155.487ZM323.582 317.039C322.247 314.97 320.174 313.57 318.182 313.398C316.766 313.29 315.554 313.807 314.589 314.97C313.316 319.214 311.674 322.532 309.641 324.966C316.067 325.483 321.734 324.923 326.621 323.308C325.84 321.175 324.752 318.805 323.582 317.017V317.039ZM353.681 196.764C352.018 196.419 350.396 196.247 348.836 196.247C345.817 196.247 343.395 197.022 341.547 198.616C339.699 200.189 338.775 202.516 338.775 205.553V243.146C338.775 251.009 336.907 257.063 333.17 261.328C329.433 265.615 323.993 267.748 316.848 267.748C309.703 267.748 304.734 265.788 300.936 261.867C297.137 257.946 295.249 252.345 295.249 245.085V198.164C294.119 197.582 292.723 197.108 291.06 196.764C289.377 196.419 287.755 196.247 286.194 196.247C283.176 196.247 280.753 197.022 278.906 198.616C277.078 200.189 276.154 202.516 276.154 205.553V249.135C276.154 256.395 277.715 262.707 280.835 268.114C283.956 273.5 288.309 277.615 293.893 280.502C299.478 283.367 305.904 284.789 313.152 284.789C319.414 284.789 324.793 283.776 329.31 281.73C333.848 279.683 337.153 276.947 339.288 273.543V278.477C339.288 285.327 336.168 294.268 333.519 298.382C338.365 302.239 342.697 307.129 345.612 311.911C352.572 304.177 357.869 289.614 357.869 275.137V198.164C356.761 197.582 355.365 197.108 353.681 196.764ZM473.995 164.535C472.373 164.126 470.792 163.911 469.232 163.911C466.09 163.911 463.565 164.772 461.615 166.474C459.644 168.155 458.679 170.546 458.679 173.583V212.232H399.733V166.022C398.275 165.44 396.735 164.945 395.134 164.535C393.512 164.126 391.91 163.911 390.35 163.911C387.229 163.911 384.683 164.772 382.733 166.474C380.782 168.155 379.797 170.546 379.797 173.583V284.444H399.733V231.383H458.679V284.444H478.594V166.022C477.157 165.44 475.617 164.945 473.995 164.535ZM565.011 203.184C557.537 196.915 546.471 193.791 531.853 193.791C522.696 193.791 515.776 194.954 511.095 197.302C506.394 199.651 504.053 202.817 504.053 206.781C504.053 208.656 504.505 210.444 505.388 212.146C506.291 213.847 507.338 215.162 508.57 216.109C510.479 214.343 513.58 212.878 517.871 211.715C522.162 210.53 526.946 209.948 532.181 209.948C540.455 209.948 546.676 211.585 550.865 214.881C555.053 218.156 557.147 223.369 557.147 230.5C554.684 230.155 551.44 229.875 547.436 229.638C543.412 229.401 539.778 229.272 536.534 229.272C522.367 229.272 512.122 231.75 505.819 236.661C499.516 241.573 496.354 248.596 496.354 257.752C496.354 268.05 500.008 275.482 507.318 280.049C514.627 284.638 525.2 286.921 539.059 286.921C544.521 286.921 550.639 286.641 557.394 286.124C564.148 285.586 570.431 284.918 576.221 284.099V231.211C576.221 218.802 572.484 209.453 565.011 203.184ZM557.312 270.743C555.402 271.217 552.733 271.604 549.263 271.884C545.814 272.186 542.406 272.337 539.059 272.337C530.908 272.337 524.934 271.238 521.135 269.084C517.337 266.908 515.448 263.31 515.448 258.269C515.448 253.228 517.029 249.63 520.211 247.11C523.394 244.589 529.06 243.34 537.211 243.34C540.229 243.34 543.72 243.491 547.682 243.771C551.645 244.072 554.848 244.503 557.312 245.085V270.743ZM660.79 263.181C654.548 267.166 647.609 269.17 640.033 269.17C631.533 269.17 624.819 266.563 619.85 261.35C614.882 256.136 612.397 249.07 612.397 240.173C612.397 231.276 614.841 224.102 619.768 218.996C624.675 213.912 631.204 211.348 639.355 211.348C643.831 211.348 648.04 212.081 652.003 213.546C655.965 215.011 659.332 217.1 662.124 219.793C664.137 218.156 665.738 216.368 666.908 214.429C668.079 212.49 668.653 210.594 668.653 208.72C668.653 206.027 667.442 203.571 664.978 201.352C662.515 199.004 659.024 197.152 654.507 195.816C649.99 194.459 644.94 193.791 639.355 193.791C629.644 193.791 621.267 195.773 614.245 199.758C607.203 203.744 601.824 209.259 598.087 216.282C594.33 223.305 592.461 231.448 592.461 240.69C592.461 249.932 594.371 258.205 598.169 265.12C601.967 272.035 607.265 277.399 614.081 281.191C620.877 285.004 628.802 286.921 637.856 286.921C649.231 286.921 659.558 283.992 668.838 278.132L660.79 263.181ZM742.505 258.894C734.477 250.384 726.141 242.758 717.559 235.951C720.906 233.624 724.684 230.888 728.852 227.786C733.04 224.684 737.208 221.517 741.335 218.307C745.461 215.075 749.198 212.124 752.565 209.431C755.912 206.738 758.355 204.627 759.916 203.097C759.033 201.223 757.637 199.607 755.727 198.272C753.838 196.915 751.333 196.247 748.192 196.247C746.303 196.247 744.127 196.635 741.663 197.389C739.22 198.143 736.53 199.694 733.635 202.042L698.794 228.755V156.888C697.788 156.306 696.453 155.832 694.79 155.487C693.106 155.143 691.484 154.949 689.924 154.949C686.906 154.949 684.463 155.746 682.553 157.318C680.664 158.913 679.72 161.218 679.72 164.277V284.444H698.794V244.74C704.152 248.833 709.367 253.207 714.459 257.838C719.53 262.47 724.232 267.059 728.523 271.626C732.814 276.193 736.489 280.48 739.487 284.444H763.283C757.472 275.891 750.553 267.382 742.505 258.894ZM819.703 232.094L802.621 229.811C797.714 229.1 794.1 227.893 791.821 226.213C789.542 224.511 788.393 222.314 788.393 219.621C788.393 216.109 790.035 213.438 793.32 211.628C796.626 209.797 801.225 208.893 807.138 208.893C811.388 208.893 815.638 209.345 819.867 210.207C824.117 211.09 827.916 212.21 831.262 213.546C834.609 214.903 837.011 216.346 838.469 217.854C840.029 217.036 841.384 215.7 842.555 213.826C843.725 211.952 844.32 210.12 844.32 208.375C844.32 205.553 842.822 203.076 839.803 200.9C836.785 198.746 832.658 197.001 827.402 195.73C822.167 194.437 816.131 193.791 809.314 193.791C796.379 193.791 786.483 196.161 779.687 200.9C772.871 205.64 769.463 212.598 769.463 221.732C769.463 229.229 771.762 235.067 776.341 239.29C780.899 243.512 787.448 246.205 795.928 247.368L813.01 249.652C823.727 251.074 829.086 254.758 829.086 260.725C829.086 267.77 822.495 271.281 809.314 271.281C802.621 271.281 796.154 270.398 789.891 268.631C783.65 266.886 778.722 264.84 775.17 262.492L767.964 276.021C770.407 277.895 773.959 279.683 778.599 281.385C783.219 283.065 788.352 284.422 793.998 285.413C799.644 286.404 805.085 286.921 810.32 286.921C821.941 286.921 831.283 284.358 838.366 279.274C845.47 274.168 849.001 267.059 849.001 257.925C849.001 243.275 839.249 234.68 819.703 232.094Z" fill="white"/>
</mask>
<g mask="url(#mask0_3335_959)">
<g style="mix-blend-mode:multiply" opacity="0.5">
<path d="M357.746 240.021C346.618 240.021 337.584 252.366 337.584 267.597H377.908C377.908 252.366 368.874 240.021 357.746 240.021Z" fill="#F053DC"/>
<path d="M317.422 240.021C306.294 240.021 297.26 252.366 297.26 267.597H337.583C337.583 252.366 328.55 240.021 317.422 240.021Z" fill="#F053DC"/>
<path d="M277.097 240.021C265.969 240.021 256.936 252.366 256.936 267.597H297.259C297.259 252.366 288.225 240.021 277.097 240.021Z" fill="#F053DC"/>
<path d="M478.719 240.021C467.59 240.021 458.557 252.366 458.557 267.597H498.88C498.88 252.366 489.847 240.021 478.719 240.021Z" fill="#F053DC"/>
<path d="M398.07 240.021C386.942 240.021 377.908 252.366 377.908 267.597H418.232C418.232 252.366 409.198 240.021 398.07 240.021Z" fill="#F053DC"/>
<path d="M236.795 240.021C225.667 240.021 216.633 252.366 216.633 267.597H256.957C256.957 252.366 247.923 240.021 236.795 240.021Z" fill="#F053DC"/>
<path d="M438.394 240.021C427.266 240.021 418.232 252.366 418.232 267.597H458.556C458.556 252.366 449.522 240.021 438.394 240.021Z" fill="#F053DC"/>
<path d="M115.824 240.021C104.696 240.021 95.6621 252.366 95.6621 267.597H135.986C135.986 252.366 126.952 240.021 115.824 240.021Z" fill="#F053DC"/>
<path d="M-5.12721 240.021C-16.2552 240.021 -25.2891 252.366 -25.2891 267.597H15.0346C15.0346 252.366 6.00082 240.021 -5.12721 240.021Z" fill="#F053DC"/>
<path d="M196.472 240.021C185.344 240.021 176.311 252.366 176.311 267.597H216.634C216.634 252.366 207.6 240.021 196.472 240.021Z" fill="#F053DC"/>
<path d="M35.1775 240.021C24.0494 240.021 15.0156 252.366 15.0156 267.597H55.3393C55.3393 252.366 46.3055 240.021 35.1775 240.021Z" fill="#F053DC"/>
<path d="M156.148 240.021C145.02 240.021 135.986 252.366 135.986 267.597H176.31C176.31 252.366 167.276 240.021 156.148 240.021Z" fill="#F053DC"/>
<path d="M519.021 240.021C507.893 240.021 498.859 252.366 498.859 267.597H539.183C539.183 252.366 530.149 240.021 519.021 240.021Z" fill="#F053DC"/>
<path d="M75.4997 240.021C64.3717 240.021 55.3379 252.366 55.3379 267.597H95.6616C95.6616 252.366 86.6278 240.021 75.4997 240.021Z" fill="#F053DC"/>
<path d="M639.992 240.021C628.864 240.021 619.83 252.366 619.83 267.597H660.154C660.154 252.366 651.12 240.021 639.992 240.021Z" fill="#F053DC"/>
<path d="M680.316 240.021C669.188 240.021 660.154 252.366 660.154 267.597H700.478C700.478 252.366 691.444 240.021 680.316 240.021Z" fill="#F053DC"/>
<path d="M720.638 240.021C709.51 240.021 700.477 252.366 700.477 267.597H740.8C740.8 252.366 731.766 240.021 720.638 240.021Z" fill="#F053DC"/>
<path d="M559.344 240.021C548.215 240.021 539.182 252.366 539.182 267.597H579.505C579.505 252.366 570.472 240.021 559.344 240.021Z" fill="#F053DC"/>
<path d="M599.668 240.021C588.54 240.021 579.506 252.366 579.506 267.597H619.83C619.83 252.366 610.796 240.021 599.668 240.021Z" fill="#F053DC"/>
<path d="M841.59 240.021C830.462 240.021 821.428 252.366 821.428 267.597H861.751C861.751 252.366 852.718 240.021 841.59 240.021Z" fill="#F053DC"/>
<path d="M760.963 240.021C749.835 240.021 740.801 252.366 740.801 267.597H781.124C781.124 252.366 772.091 240.021 760.963 240.021Z" fill="#F053DC"/>
<path d="M801.265 240.021C790.137 240.021 781.104 252.366 781.104 267.597H821.427C821.427 252.366 812.393 240.021 801.265 240.021Z" fill="#F053DC"/>
<path d="M337.584 256.89C326.456 256.89 317.422 269.234 317.422 284.465H357.746C357.746 269.234 348.712 256.89 337.584 256.89Z" fill="#3B087D"/>
<path d="M297.26 256.89C286.131 256.89 277.098 269.234 277.098 284.465H317.421C317.421 269.234 308.388 256.89 297.26 256.89Z" fill="#3B087D"/>
<path d="M256.957 256.89C245.829 256.89 236.795 269.234 236.795 284.465H277.119C277.119 269.234 268.085 256.89 256.957 256.89Z" fill="#3B087D"/>
<path d="M458.554 256.89C447.426 256.89 438.393 269.234 438.393 284.465H478.716C478.716 269.234 469.682 256.89 458.554 256.89Z" fill="#3B087D"/>
<path d="M377.908 256.89C366.78 256.89 357.746 269.234 357.746 284.465H398.07C398.07 269.234 389.036 256.89 377.908 256.89Z" fill="#3B087D"/>
<path d="M216.633 256.89C205.505 256.89 196.471 269.234 196.471 284.465H236.794C236.794 269.234 227.761 256.89 216.633 256.89Z" fill="#3B087D"/>
<path d="M418.232 256.89C407.104 256.89 398.07 269.234 398.07 284.465H438.394C438.394 269.234 429.36 256.89 418.232 256.89Z" fill="#3B087D"/>
<path d="M95.6619 256.89C84.5338 256.89 75.5 269.234 75.5 284.465H115.824C115.824 269.234 106.79 256.89 95.6619 256.89Z" fill="#3B087D"/>
<path d="M176.31 256.89C165.182 256.89 156.148 269.234 156.148 284.465H196.472C196.472 269.234 187.438 256.89 176.31 256.89Z" fill="#3B087D"/>
<path d="M15.0154 256.89C3.88734 256.89 -5.14648 269.234 -5.14648 284.465H35.1772C35.1772 269.234 26.1434 256.89 15.0154 256.89Z" fill="#3B087D"/>
<path d="M135.986 256.89C124.858 256.89 115.824 269.234 115.824 284.465H156.148C156.148 269.234 147.114 256.89 135.986 256.89Z" fill="#3B087D"/>
<path d="M498.879 256.89C487.751 256.89 478.717 269.234 478.717 284.465H519.04C519.04 269.234 510.007 256.89 498.879 256.89Z" fill="#3B087D"/>
<path d="M55.3396 256.89C44.2116 256.89 35.1777 269.234 35.1777 284.465H75.5014C75.5014 269.234 66.4676 256.89 55.3396 256.89Z" fill="#3B087D"/>
<path d="M861.752 256.89C850.624 256.89 841.59 269.234 841.59 284.465H881.914C881.914 269.234 872.88 256.89 861.752 256.89Z" fill="#3B087D"/>
<path d="M619.83 256.89C608.702 256.89 599.668 269.234 599.668 284.465H639.992C639.992 269.234 630.958 256.89 619.83 256.89Z" fill="#3B087D"/>
<path d="M660.152 256.89C649.024 256.89 639.99 269.234 639.99 284.465H680.314C680.314 269.234 671.28 256.89 660.152 256.89Z" fill="#3B087D"/>
<path d="M700.476 256.89C689.348 256.89 680.314 269.234 680.314 284.465H720.638C720.638 269.234 711.604 256.89 700.476 256.89Z" fill="#3B087D"/>
<path d="M539.181 256.89C528.053 256.89 519.02 269.234 519.02 284.465H559.343C559.343 269.234 550.309 256.89 539.181 256.89Z" fill="#3B087D"/>
<path d="M579.506 256.89C568.378 256.89 559.344 269.234 559.344 284.465H599.667C599.667 269.234 590.634 256.89 579.506 256.89Z" fill="#3B087D"/>
<path d="M821.427 256.89C810.299 256.89 801.266 269.234 801.266 284.465H841.589C841.589 269.234 832.556 256.89 821.427 256.89Z" fill="#3B087D"/>
<path d="M740.801 256.89C729.673 256.89 720.639 269.234 720.639 284.465H760.962C760.962 269.234 751.929 256.89 740.801 256.89Z" fill="#3B087D"/>
<path d="M781.103 256.89C769.975 256.89 760.941 269.234 760.941 284.465H801.265C801.265 269.234 792.231 256.89 781.103 256.89Z" fill="#3B087D"/>
<path d="M357.746 267.468C346.618 267.468 337.584 276.946 337.584 288.623H377.908C377.908 276.946 368.874 267.468 357.746 267.468Z" fill="#F053DC"/>
<path d="M317.422 267.468C306.294 267.468 297.26 276.946 297.26 288.623H337.583C337.583 276.946 328.55 267.468 317.422 267.468Z" fill="#F053DC"/>
<path d="M277.097 267.468C265.969 267.468 256.936 276.946 256.936 288.623H297.259C297.259 276.946 288.225 267.468 277.097 267.468Z" fill="#F053DC"/>
<path d="M478.719 267.468C467.59 267.468 458.557 276.946 458.557 288.623H498.88C498.88 276.946 489.847 267.468 478.719 267.468Z" fill="#F053DC"/>
<path d="M398.07 267.468C386.942 267.468 377.908 276.946 377.908 288.623H418.232C418.232 276.946 409.198 267.468 398.07 267.468Z" fill="#F053DC"/>
<path d="M236.795 267.468C225.667 267.468 216.633 276.946 216.633 288.623H256.957C256.957 276.946 247.923 267.468 236.795 267.468Z" fill="#F053DC"/>
<path d="M438.394 267.468C427.266 267.468 418.232 276.946 418.232 288.623H458.556C458.556 276.946 449.522 267.468 438.394 267.468Z" fill="#F053DC"/>
<path d="M115.824 267.468C104.696 267.468 95.6621 276.946 95.6621 288.623H135.986C135.986 276.946 126.952 267.468 115.824 267.468Z" fill="#F053DC"/>
<path d="M-5.12721 267.468C-16.2552 267.468 -25.2891 276.946 -25.2891 288.623H15.0346C15.0346 276.946 6.00082 267.468 -5.12721 267.468Z" fill="#F053DC"/>
<path d="M196.472 267.468C185.344 267.468 176.311 276.946 176.311 288.623H216.634C216.634 276.946 207.6 267.468 196.472 267.468Z" fill="#F053DC"/>
<path d="M35.1775 267.468C24.0494 267.468 15.0156 276.946 15.0156 288.623H55.3393C55.3393 276.946 46.3055 267.468 35.1775 267.468Z" fill="#F053DC"/>
<path d="M156.148 267.468C145.02 267.468 135.986 276.946 135.986 288.623H176.31C176.31 276.946 167.276 267.468 156.148 267.468Z" fill="#F053DC"/>
<path d="M519.021 267.468C507.893 267.468 498.859 276.946 498.859 288.623H539.183C539.183 276.946 530.149 267.468 519.021 267.468Z" fill="#F053DC"/>
<path d="M75.4997 267.468C64.3717 267.468 55.3379 276.946 55.3379 288.623H95.6616C95.6616 276.946 86.6278 267.468 75.4997 267.468Z" fill="#F053DC"/>
<path d="M639.992 267.468C628.864 267.468 619.83 276.946 619.83 288.623H660.154C660.154 276.946 651.12 267.468 639.992 267.468Z" fill="#F053DC"/>
<path d="M680.316 267.468C669.188 267.468 660.154 276.946 660.154 288.623H700.478C700.478 276.946 691.444 267.468 680.316 267.468Z" fill="#F053DC"/>
<path d="M720.638 267.468C709.51 267.468 700.477 276.946 700.477 288.623H740.8C740.8 276.946 731.766 267.468 720.638 267.468Z" fill="#F053DC"/>
<path d="M559.344 267.468C548.215 267.468 539.182 276.946 539.182 288.623H579.505C579.505 276.946 570.472 267.468 559.344 267.468Z" fill="#F053DC"/>
<path d="M599.668 267.468C588.54 267.468 579.506 276.946 579.506 288.623H619.83C619.83 276.946 610.796 267.468 599.668 267.468Z" fill="#F053DC"/>
<path d="M841.59 267.468C830.462 267.468 821.428 276.946 821.428 288.623H861.751C861.751 276.946 852.718 267.468 841.59 267.468Z" fill="#F053DC"/>
<path d="M760.963 267.468C749.835 267.468 740.801 276.946 740.801 288.623H781.124C781.124 276.946 772.091 267.468 760.963 267.468Z" fill="#F053DC"/>
<path d="M801.265 267.468C790.137 267.468 781.104 276.946 781.104 288.623H821.427C821.427 276.946 812.393 267.468 801.265 267.468Z" fill="#F053DC"/>
<path d="M361.401 285.801H323.746V325.311H361.401V285.801Z" fill="#3B087D"/>
<path d="M331.466 309.692H294.078V340.326H331.466V309.692Z" fill="#3B087D"/>
</g>
</g>
<path d="M489.291 362.15H453.812V352.003C454.901 351.314 456.338 350.344 458.124 349.116C459.91 347.888 461.82 346.488 463.832 344.937C465.844 343.386 467.712 341.813 469.396 340.241C471.798 338.022 473.646 335.932 474.96 333.993C476.274 332.054 476.931 330.051 476.931 328.026C476.931 326.001 476.253 324.299 474.878 322.877C473.502 321.477 471.531 320.766 468.944 320.766C464.571 320.766 461.45 322.812 459.561 326.906C457.816 326.216 456.44 325.29 455.434 324.127C454.428 322.963 453.915 321.714 453.915 320.4C453.915 319.71 454.038 318.956 454.305 318.138C454.572 317.319 454.901 316.586 455.332 315.962C456.564 314.131 458.535 312.687 461.265 311.632C463.996 310.576 466.994 310.037 470.299 310.037C474.056 310.037 477.342 310.748 480.134 312.149C482.926 313.549 485.102 315.488 486.622 317.922C488.141 320.356 488.921 323.179 488.921 326.389C488.921 328.866 488.449 331.3 487.505 333.756C486.56 336.212 485.246 338.474 483.563 340.607C482.721 341.641 481.674 342.783 480.421 344.054C479.169 345.303 477.875 346.531 476.541 347.716C475.206 348.901 473.913 349.957 472.701 350.905H489.27V362.15H489.291Z" fill="#BEF3FC"/>
<path d="M501.137 356.398C497.524 351.68 495.717 345.131 495.717 336.75C495.717 328.37 497.524 321.821 501.137 317.103C504.751 312.385 509.842 310.037 516.371 310.037C522.9 310.037 527.992 312.385 531.606 317.103C535.219 321.821 537.046 328.37 537.046 336.75C537.046 345.131 535.24 351.68 531.606 356.398C527.992 361.115 522.9 363.464 516.371 363.464C509.842 363.464 504.751 361.115 501.137 356.398ZM522.921 348.19C524.42 345.561 525.179 341.748 525.179 336.75C525.179 331.752 524.42 327.961 522.921 325.311C521.422 322.683 519.225 321.347 516.371 321.347C513.518 321.347 511.321 322.661 509.822 325.311C508.323 327.961 507.563 331.752 507.563 336.75C507.563 341.748 508.323 345.54 509.822 348.19C511.321 350.839 513.518 352.154 516.371 352.154C519.225 352.154 521.422 350.839 522.921 348.19Z" fill="#BEF3FC"/>
<path d="M576.445 362.15H540.967V352.003C542.055 351.313 543.492 350.344 545.278 349.116C547.065 347.888 548.974 346.488 550.986 344.937C552.998 343.386 554.867 341.813 556.55 340.24C558.952 338.021 560.8 335.932 562.114 333.993C563.428 332.054 564.085 330.05 564.085 328.025C564.085 326 563.408 324.298 562.032 322.877C560.656 321.476 558.685 320.765 556.099 320.765C551.725 320.765 548.605 322.812 546.716 326.905C544.97 326.216 543.595 325.289 542.589 324.126C541.583 322.963 541.069 321.713 541.069 320.399C541.069 319.71 541.193 318.956 541.46 318.137C541.727 317.318 542.055 316.586 542.486 315.961C543.718 314.13 545.689 312.687 548.42 311.631C551.15 310.575 554.148 310.037 557.454 310.037C561.211 310.037 564.496 310.748 567.288 312.148C570.08 313.548 572.257 315.487 573.776 317.922C575.295 320.356 576.076 323.178 576.076 326.388C576.076 328.866 575.603 331.3 574.659 333.756C573.714 336.212 572.4 338.474 570.717 340.606C569.875 341.641 568.828 342.782 567.576 344.053C566.323 345.303 565.03 346.531 563.695 347.716C562.361 348.901 561.067 349.956 559.856 350.904H576.425V362.15H576.445Z" fill="#BEF3FC"/>
<path d="M602.684 327.358C602.972 327.315 603.28 327.272 603.629 327.25C603.978 327.229 604.245 327.207 604.429 327.207C607.776 327.207 610.691 327.896 613.176 329.275C615.66 330.654 617.611 332.614 618.986 335.113C620.362 337.612 621.06 340.607 621.06 344.075C621.06 347.781 620.239 351.098 618.596 354.028C616.954 356.958 614.675 359.263 611.759 360.943C608.844 362.624 605.476 363.464 601.678 363.464C597.88 363.464 594.595 362.667 591.741 361.051C588.867 359.457 586.629 357.238 585.007 354.394C583.385 351.551 582.584 348.298 582.584 344.592C582.584 341.641 583.2 338.646 584.452 335.63C585.705 332.614 587.758 329.103 590.632 325.053L598.948 313.355C600.487 311.136 602.541 310.016 605.086 310.016C606.503 310.016 607.92 310.317 609.357 310.899C610.794 311.502 611.882 312.213 612.642 313.053L602.705 327.336L602.684 327.358ZM607.406 350.344C608.905 348.793 609.665 346.79 609.665 344.312C609.665 341.835 608.905 339.831 607.406 338.28C605.908 336.729 603.978 335.953 601.617 335.953C599.255 335.953 597.346 336.729 595.827 338.28C594.328 339.831 593.568 341.835 593.568 344.312C593.568 346.79 594.328 348.793 595.827 350.344C597.326 351.895 599.255 352.671 601.617 352.671C603.978 352.671 605.887 351.895 607.406 350.344Z" fill="#BEF3FC"/>
<defs>
<radialGradient id="paint0_radial_3335_959" cx="0" cy="0" r="1" gradientUnits="userSpaceOnUse" gradientTransform="translate(180.189 201.741) scale(304.317 319.311)">
<stop offset="0.35" stop-color="#3B087D"/>
<stop offset="0.79" stop-color="#AA2500"/>
</radialGradient>
<radialGradient id="paint1_radial_3335_959" cx="0" cy="0" r="1" gradientUnits="userSpaceOnUse" gradientTransform="translate(180.189 201.741) scale(304.317 319.311)">
<stop offset="0.35" stop-color="#3B087D"/>
<stop offset="0.79" stop-color="#AA2500"/>
</radialGradient>
</defs>
</svg>
