<svg width="843" height="403" viewBox="0 0 843 403" fill="none" xmlns="http://www.w3.org/2000/svg">
<path d="M344.004 98.0855V117.582C344.004 118.81 345.421 119.413 346.242 118.53L351.724 112.562C354.434 117.819 361.764 121.589 370.387 121.589C381.33 121.589 390.179 115.535 390.179 108.081C390.179 100.628 381.33 94.5956 370.387 94.5956C361.825 94.5956 354.557 98.3009 351.785 103.471L346.263 97.1592C345.462 96.2544 344.004 96.836 344.004 98.0855Z" fill="#6EF1FA"/>
<path d="M383.507 104.893C381.823 104.893 381.412 106.315 381.412 108.081C381.412 109.848 381.823 111.269 383.507 111.269C385.19 111.269 386.545 109.848 386.545 108.081C386.545 106.315 385.19 104.893 383.507 104.893Z" fill="#3B087D"/>
<path d="M399.727 122.429C398.885 121.546 398.454 120.469 398.454 119.219C398.454 117.97 398.885 116.914 399.727 116.009C400.569 115.126 401.575 114.674 402.725 114.674C403.874 114.674 404.88 115.126 405.722 116.009C406.564 116.892 406.995 117.97 406.995 119.219C406.995 120.469 406.564 121.524 405.722 122.429C404.88 123.334 403.874 123.765 402.725 123.765C401.575 123.765 400.569 123.312 399.727 122.429ZM406.297 111.507H399.132V93.7552C399.132 92.6565 399.46 91.8379 400.117 91.2778C400.774 90.7176 401.698 90.4376 402.868 90.4376C403.464 90.4376 404.059 90.5022 404.655 90.6315C405.25 90.7607 405.804 90.9331 406.297 91.1485V111.507Z" fill="#FED220"/>
<path style="mix-blend-mode:screen" d="M208.806 197.614L531.19 118.896V99.421L208.806 7.30289" fill="url(#paint0_linear_2449_3490)"/>
<path d="M835.302 288.547C835.302 288.547 834.481 295.743 831.011 305.092C830.683 305.976 830.333 306.881 829.943 307.807C826.987 315.002 822.449 323.146 815.592 330.104C814.853 330.879 814.073 331.612 813.272 332.344C804.094 340.66 791.221 346.821 773.133 346.821C746.38 346.821 736.033 346.197 736.033 346.197C736.033 346.197 733.651 358.088 728.785 368.817C723.221 381.053 704.045 383.401 702.197 381.915C700.78 380.816 693.717 359.359 702.197 349.6C710.656 339.863 719.279 335.404 719.279 335.404C719.279 335.404 706.262 333.874 694.025 325.558C683.082 318.148 677.908 299.297 679.612 297.509C681.624 295.398 699.199 294.105 709.239 299.642C719.628 305.351 726.67 316.79 727.102 317.501V317.544C727.266 317.329 727.389 317.135 727.553 316.92C728.046 316.122 728.559 315.368 729.093 314.614C730.797 312.137 732.645 309.746 734.616 307.462C735.088 306.881 735.581 306.342 736.094 305.782C743.054 298.091 751.575 291.693 762.231 287.061C789.887 296.109 807.626 297.208 835.302 288.547Z" fill="#2EB2EF"/>
<path d="M729.093 314.614C728.292 323.124 735.622 330.858 741.247 330.858C743.937 330.858 746.236 329.07 747.058 324.761C747.058 324.761 747.201 324.804 747.427 324.869C748.105 325.084 749.439 325.45 749.439 325.45C747.838 338.785 764.119 340.767 766.583 326.786C766.583 326.786 767.712 326.7 768.595 326.614C768.8 326.614 768.985 326.614 769.149 326.571C769.437 326.527 769.622 326.506 769.622 326.506C768.78 331.633 771.572 336.588 776.397 335.705C781.407 334.778 785.041 327.992 787.381 322.887C788.613 322.628 789.229 322.499 790.481 322.24C791.426 325.881 792.411 331.159 796.436 331.288C801.281 330.47 805.777 324.718 806.475 319.569C806.475 319.569 807.954 319.44 808.837 319.375C809.001 319.354 809.083 319.354 809.268 319.332H809.514C808.672 325.838 811.773 329.436 815.591 330.104C814.852 330.879 814.072 331.612 813.271 332.344C811.341 331.762 809.576 330.556 808.221 328.596C807.707 327.863 807.338 327.023 807.03 326.14C804.155 330.901 799.289 334.908 794.547 334.908C790.974 334.326 789.27 331.202 788.161 327.734C786.252 331.224 783.87 334.649 780.75 337.019C774.652 341.629 768.944 338.764 767.035 333.378C766.439 334.326 765.782 335.252 765.043 336.071C758.062 343.676 749.316 338.807 747.263 330.815C742.89 336.502 733.527 334.154 729.093 322.93C728.251 320.84 727.758 318.772 727.553 316.919L729.093 314.614Z" fill="#6EF1FA"/>
<path d="M831.01 305.093C830.681 305.976 830.332 306.881 829.942 307.807C829.511 306.859 829.182 305.89 828.916 304.92C824.686 311.254 814.81 313.753 810.047 306.816C809.534 306.084 809.164 305.243 808.856 304.36C805.982 309.121 801.095 313.128 796.353 313.128C792.78 312.568 791.076 309.423 789.967 305.954C788.058 309.444 785.676 312.891 782.576 315.239C776.478 319.871 770.771 316.984 768.841 311.599C768.266 312.547 767.609 313.473 766.849 314.291C759.868 321.896 751.122 317.049 749.069 309.035C745.702 313.43 739.357 313.02 734.615 307.462C735.087 306.881 735.58 306.342 736.093 305.782C738.269 307.829 740.795 309.078 743.053 309.078C745.743 309.078 748.042 307.312 748.864 302.981C748.864 302.981 749.028 303.024 749.254 303.111C749.911 303.305 751.266 303.671 751.266 303.671C749.644 317.006 765.946 318.988 768.409 305.006C768.409 305.006 769.518 304.942 770.401 304.856C770.606 304.834 770.812 304.813 770.976 304.791C771.263 304.769 771.448 304.748 771.448 304.748C770.586 309.854 773.399 314.809 778.223 313.925C783.233 312.999 786.867 306.213 789.187 301.107C790.44 300.849 791.056 300.719 792.287 300.482C793.252 304.102 794.238 309.38 798.242 309.509C803.108 308.712 807.583 302.938 808.302 297.811C808.302 297.811 809.76 297.66 810.663 297.596C810.827 297.596 810.909 297.596 811.074 297.596C811.238 297.574 811.341 297.574 811.341 297.574C809.513 311.534 825.836 312.073 828.546 299.082C829.449 299.319 829.901 299.47 830.825 299.771C830.558 301.667 830.64 303.455 831.01 305.114V305.093Z" fill="#6EF1FA"/>
<path d="M284.566 402.618C282.677 402.618 280.049 401.778 276.99 400.808C274.095 399.882 270.81 398.827 268.798 398.827C268.408 398.827 268.162 398.87 268.018 398.891C264.753 399.71 259.929 400.787 255.822 400.787C252.907 400.787 250.751 400.227 249.314 399.107C247.137 399.365 244.982 399.516 242.887 399.516C233.689 399.516 225.928 396.995 219.79 391.997C215.355 388.4 212.768 383.703 212.09 378.059C211.023 368.989 215.17 359.403 218.558 353.306C209.729 357.507 193.468 364.25 179.651 364.25C166.86 364.25 148.217 346.111 133.209 331.548C125.386 323.943 117.297 316.08 114.381 315.52C114.032 315.455 113.663 315.412 113.273 315.412C108.325 315.412 101.652 320.733 96.7653 324.611C94.8354 326.14 93.1723 327.476 91.8583 328.273C90.031 329.393 87.6699 333.228 85.5962 336.61C82.3523 341.888 79.7858 346.068 76.6034 346.068H76.3365C75.1457 345.96 73.4621 345.206 72.0865 342.082C69.6433 336.503 68.8631 324.266 74.9199 315.778C79.4778 309.358 85.0419 308.023 88.9223 308.023C90.4827 308.023 91.7556 308.238 92.659 308.453C94.9585 305.976 101.713 299.858 112.349 299.858C113.355 299.858 114.381 299.922 115.408 300.03C126.946 301.28 136.74 312.159 146.225 322.672C156.142 333.659 166.387 345.034 178.193 345.034C193.653 345.034 198.868 339.928 200.593 336.89C196.24 336.502 192.934 334.628 191.374 331.591C190.697 330.298 190.389 328.855 190.409 327.325C186.775 329.996 181.519 332.625 174.908 332.625C168.974 332.625 162.918 330.47 156.902 326.248C152.405 323.081 149.716 318.514 148.874 312.654C147.211 301.129 153.494 286.76 160.023 278.293C168.379 267.457 182.833 260.994 191.99 260.994C192.421 260.994 192.852 260.994 193.263 261.037L193.55 260.994C195.255 260.822 197.041 260.736 199.012 260.736C199.751 260.736 200.47 260.736 201.209 260.779C204.658 260.886 208.682 261.21 212.398 262.868H212.604L212.994 263.019C225.066 268.254 226.462 280.706 226.421 286.501C227.078 286.329 227.715 286.156 228.372 286.006C229.706 285.747 230.856 285.618 231.944 285.618C232.93 285.618 233.854 285.726 234.716 285.941C235.496 286.135 236.256 286.436 237.098 286.867C237.549 287.104 238.001 287.363 238.432 287.686C238.494 287.729 238.925 288.052 239.274 288.462L239.356 288.526L239.541 288.806C240.485 290.508 240.916 292.705 240.875 295.571C243.627 294.838 247.753 294.45 253.256 294.45C254.488 294.45 255.843 294.45 257.3 294.515C268.367 294.838 272.679 299.384 276.148 303.025C278.304 305.308 280.029 307.096 283.047 307.57C283.211 307.592 283.396 307.613 283.54 307.613C285.264 307.613 286.517 305.825 288.406 302.895C291.013 298.867 294.586 293.352 302.367 293.352C305.508 293.352 309.019 294.235 313.105 296.023C325.075 301.301 335.669 315.735 335.012 322.607C336.572 324.697 340.288 330.212 340.001 334.564C339.611 340.423 332.096 345.744 326.224 345.981C326.04 345.981 325.834 345.981 325.65 345.981C321.831 345.981 312.099 343.396 312.099 340.143C312.099 338.312 312.92 335.21 318.361 335.21C319.408 335.21 320.455 335.318 321.379 335.404C322.016 335.468 322.57 335.512 323.001 335.512H323.022C323.165 335.124 323.124 333.874 323.104 333.12C323.042 331.031 322.96 328.144 325.054 326.399C325.752 324.848 322.159 316.554 318.648 311.943C316.513 309.121 313.351 307.376 310.415 307.376C308.67 307.376 306.268 307.979 304.502 310.823C301.71 323.878 295.941 329.458 285.305 329.458C278.817 329.458 272.432 324.072 266.786 319.311C262.823 315.95 259.066 312.784 256.089 312.094C255.514 311.965 254.939 311.9 254.406 311.9C250.525 311.9 248.082 315.52 247.137 317.286C249.047 320.022 255.473 328.101 265.328 328.101C265.698 328.101 266.088 328.101 266.478 328.058C267.012 328.015 267.525 328.015 268.059 328.015C282.595 328.015 294.955 340.229 295.017 354.685C295.058 362.031 292.697 368.408 288.221 373.147C282.944 378.727 275.142 381.657 265.698 381.657C249.745 381.657 247.486 376.853 245.865 369.506C245.741 368.968 245.639 368.429 245.495 367.891C244.858 365.262 245.659 362.246 247.856 359.166C251.942 353.435 260.401 348.028 265.616 347.834C267.751 347.834 268.531 349.084 268.778 349.601C270.215 352.724 266.581 358.412 258.389 369.183L258.327 369.269C258.697 370.023 259.949 371.402 262.885 371.402C264.179 371.402 265.657 371.122 267.279 370.584C274.67 368.106 277.421 363.604 277.421 353.952C277.421 346.283 273.028 342.556 263.994 342.556C256.767 342.556 249.006 345.055 246.871 345.788C241.512 353.888 230.384 374.741 237.878 382.389C241.019 385.599 245.68 387.387 252.127 387.883C257.957 384.759 263.131 383.165 267.484 383.165H267.71C274.793 383.251 281.445 388.529 285.018 393.031C286.558 394.97 288.303 397.749 287.933 400.033C287.831 400.636 287.276 402.64 284.443 402.64L284.566 402.618Z" fill="url(#paint1_radial_2449_3490)"/>
<path d="M284.566 402.618C282.677 402.618 280.049 401.778 276.99 400.808C274.095 399.882 270.81 398.827 268.798 398.827C268.408 398.827 268.162 398.87 268.018 398.891C264.753 399.71 259.929 400.787 255.822 400.787C252.907 400.787 250.751 400.227 249.314 399.107C247.137 399.365 244.982 399.516 242.887 399.516C233.689 399.516 225.928 396.995 219.79 391.997C215.355 388.4 212.768 383.703 212.09 378.059C211.023 368.989 215.17 359.403 218.558 353.306C209.729 357.507 193.468 364.25 179.651 364.25C166.86 364.25 148.217 346.111 133.209 331.548C125.386 323.943 117.297 316.08 114.381 315.52C114.032 315.455 113.663 315.412 113.273 315.412C108.325 315.412 101.652 320.733 96.7653 324.611C94.8354 326.14 93.1723 327.476 91.8583 328.273C90.031 329.393 87.6699 333.228 85.5962 336.61C82.3523 341.888 79.7858 346.068 76.6034 346.068H76.3365C75.1457 345.96 73.4621 345.206 72.0865 342.082C69.6433 336.503 68.8631 324.266 74.9199 315.778C79.4778 309.358 85.0419 308.023 88.9223 308.023C90.4827 308.023 91.7556 308.238 92.659 308.453C94.9585 305.976 101.713 299.858 112.349 299.858C113.355 299.858 114.381 299.922 115.408 300.03C126.946 301.28 136.74 312.159 146.225 322.672C156.142 333.659 166.387 345.034 178.193 345.034C193.653 345.034 198.868 339.928 200.593 336.89C196.24 336.502 192.934 334.628 191.374 331.591C190.697 330.298 190.389 328.855 190.409 327.325C186.775 329.996 181.519 332.625 174.908 332.625C168.974 332.625 162.918 330.47 156.902 326.248C152.405 323.081 149.716 318.514 148.874 312.654C147.211 301.129 153.494 286.76 160.023 278.293C168.379 267.457 182.833 260.994 191.99 260.994C192.421 260.994 192.852 260.994 193.263 261.037L193.55 260.994C195.255 260.822 197.041 260.736 199.012 260.736C199.751 260.736 200.47 260.736 201.209 260.779C204.658 260.886 208.682 261.21 212.398 262.868H212.604L212.994 263.019C225.066 268.254 226.462 280.706 226.421 286.501C227.078 286.329 227.715 286.156 228.372 286.006C229.706 285.747 230.856 285.618 231.944 285.618C232.93 285.618 233.854 285.726 234.716 285.941C235.496 286.135 236.256 286.436 237.098 286.867C237.549 287.104 238.001 287.363 238.432 287.686C238.494 287.729 238.925 288.052 239.274 288.462L239.356 288.526L239.541 288.806C240.485 290.508 240.916 292.705 240.875 295.571C243.627 294.838 247.753 294.45 253.256 294.45C254.488 294.45 255.843 294.45 257.3 294.515C268.367 294.838 272.679 299.384 276.148 303.025C278.304 305.308 280.029 307.096 283.047 307.57C283.211 307.592 283.396 307.613 283.54 307.613C285.264 307.613 286.517 305.825 288.406 302.895C291.013 298.867 294.586 293.352 302.367 293.352C305.508 293.352 309.019 294.235 313.105 296.023C325.075 301.301 335.669 315.735 335.012 322.607C336.572 324.697 340.288 330.212 340.001 334.564C339.611 340.423 332.096 345.744 326.224 345.981C326.04 345.981 325.834 345.981 325.65 345.981C321.831 345.981 312.099 343.396 312.099 340.143C312.099 338.312 312.92 335.21 318.361 335.21C319.408 335.21 320.455 335.318 321.379 335.404C322.016 335.468 322.57 335.512 323.001 335.512H323.022C323.165 335.124 323.124 333.874 323.104 333.12C323.042 331.031 322.96 328.144 325.054 326.399C325.752 324.848 322.159 316.554 318.648 311.943C316.513 309.121 313.351 307.376 310.415 307.376C308.67 307.376 306.268 307.979 304.502 310.823C301.71 323.878 295.941 329.458 285.305 329.458C278.817 329.458 272.432 324.072 266.786 319.311C262.823 315.95 259.066 312.784 256.089 312.094C255.514 311.965 254.939 311.9 254.406 311.9C250.525 311.9 248.082 315.52 247.137 317.286C249.047 320.022 255.473 328.101 265.328 328.101C265.698 328.101 266.088 328.101 266.478 328.058C267.012 328.015 267.525 328.015 268.059 328.015C282.595 328.015 294.955 340.229 295.017 354.685C295.058 362.031 292.697 368.408 288.221 373.147C282.944 378.727 275.142 381.657 265.698 381.657C249.745 381.657 247.486 376.853 245.865 369.506C245.741 368.968 245.639 368.429 245.495 367.891C244.858 365.262 245.659 362.246 247.856 359.166C251.942 353.435 260.401 348.028 265.616 347.834C267.751 347.834 268.531 349.084 268.778 349.601C270.215 352.724 266.581 358.412 258.389 369.183L258.327 369.269C258.697 370.023 259.949 371.402 262.885 371.402C264.179 371.402 265.657 371.122 267.279 370.584C274.67 368.106 277.421 363.604 277.421 353.952C277.421 346.283 273.028 342.556 263.994 342.556C256.767 342.556 249.006 345.055 246.871 345.788C241.512 353.888 230.384 374.741 237.878 382.389C241.019 385.599 245.68 387.387 252.127 387.883C257.957 384.759 263.131 383.165 267.484 383.165H267.71C274.793 383.251 281.445 388.529 285.018 393.031C286.558 394.97 288.303 397.749 287.933 400.033C287.831 400.636 287.276 402.64 284.443 402.64L284.566 402.618Z" fill="url(#paint2_radial_2449_3490)"/>
<path d="M235.434 297.337C234.674 300.267 232.231 300.353 229.439 299.556C226.646 298.759 224.573 297.402 225.332 294.472C226.092 291.542 228.966 289.819 231.738 290.616C234.51 291.413 236.173 294.429 235.413 297.337H235.434Z" fill="#FED220"/>
<path d="M202.009 330.901C204.494 329.35 203.919 326.851 202.461 324.244C201.003 321.638 199.176 319.914 196.692 321.444C194.208 322.973 193.386 326.356 194.865 328.962C196.343 331.569 199.546 332.431 202.03 330.88L202.009 330.901Z" fill="#FED220"/>
<path d="M79.2102 183.74C80.8938 180.81 81.7151 177.6 81.7151 174.089C81.7151 167.755 78.3684 164.588 71.6752 164.588H12.2367C4.08575 164.588 0 168.574 0 176.545V285.122H20.2645V234.883H74.3443C76.0278 231.953 76.8696 228.722 76.8696 225.211C76.8696 218.898 73.523 215.732 66.8092 215.732H20.2645V183.74H79.2102Z" fill="#BEF3FC"/>
<path d="M169.63 197.442C167.967 197.097 166.345 196.925 164.785 196.925C161.767 196.925 159.303 197.722 157.414 199.294C155.504 200.889 154.56 203.194 154.56 206.231V245.073C154.56 261.36 147.312 269.482 132.797 269.482C118.281 269.482 111.033 261.36 111.033 245.073V198.864C110.027 198.282 108.693 197.808 107.009 197.442C105.326 197.097 103.724 196.925 102.143 196.925C99.1457 196.925 96.682 197.722 94.7931 199.294C92.8836 200.889 91.9392 203.194 91.9392 206.231V249.468C91.9392 261.166 95.6143 270.451 102.985 277.302C110.356 284.174 120.293 287.599 132.797 287.599C138.258 287.599 143.227 286.953 147.703 285.682C149.92 280.598 152.712 275.923 155.628 272.132C160.227 266.164 166.489 261.403 172.915 258.129C173.408 255.414 173.654 252.527 173.654 249.468V198.864C172.648 198.282 171.314 197.808 169.63 197.442Z" fill="#BEF3FC"/>
<path d="M208.148 156.165C206.485 155.821 204.863 155.627 203.303 155.627C200.285 155.627 197.821 156.424 195.932 157.996C194.022 159.591 193.078 161.896 193.078 164.955V252.915C194.844 252.743 196.651 252.657 198.663 252.657C199.463 252.657 200.264 252.678 201.065 252.7C204.473 252.807 208.374 253.109 212.172 254.488V157.566C211.166 156.984 209.832 156.51 208.148 156.165Z" fill="#BEF3FC"/>
<path d="M246.666 156.165C244.982 155.821 243.381 155.627 241.8 155.627C238.802 155.627 236.339 156.424 234.45 157.996C232.54 159.591 231.596 161.896 231.596 164.955V279.198C232.314 279.133 233.013 279.09 233.67 279.09C234.881 279.09 236.01 279.219 237.078 279.478C238.043 279.715 239.028 280.102 240.034 280.619C240.691 280.964 241.225 281.287 241.718 281.654C241.903 281.783 242.436 282.192 242.909 282.752L243.093 282.925L243.401 283.399L243.484 283.528L243.566 283.657C243.812 284.109 244.038 284.605 244.202 285.122H250.69V157.566C249.684 156.984 248.35 156.51 246.666 156.165Z" fill="#BEF3FC"/>
<path d="M317.54 317.716C316.205 315.648 314.131 314.248 312.14 314.076C310.723 313.968 309.512 314.485 308.547 315.648C307.274 319.892 305.631 323.21 303.599 325.644C310.025 326.161 315.692 325.601 320.578 323.986C319.798 321.853 318.71 319.483 317.54 317.695V317.716ZM347.639 197.442C345.976 197.097 344.354 196.925 342.793 196.925C339.775 196.925 337.353 197.7 335.505 199.294C333.657 200.867 332.733 203.194 332.733 206.231V243.824C332.733 251.687 330.865 257.741 327.128 262.006C323.391 266.293 317.95 268.426 310.805 268.426C303.66 268.426 298.692 266.466 294.894 262.545C291.095 258.624 289.206 253.023 289.206 245.763V198.842C288.077 198.26 286.681 197.786 285.018 197.442C283.334 197.097 281.712 196.925 280.152 196.925C277.134 196.925 274.711 197.7 272.863 199.294C271.036 200.867 270.112 203.194 270.112 206.231V249.813C270.112 257.073 271.673 263.385 274.793 268.792C277.914 274.178 282.267 278.293 287.851 281.179C293.436 284.045 299.862 285.467 307.11 285.467C313.372 285.467 318.751 284.454 323.268 282.407C327.805 280.361 331.111 277.625 333.246 274.221V279.154C333.246 286.005 330.125 294.946 327.477 299.06C332.322 302.916 336.654 307.807 339.57 312.589C346.53 304.855 351.827 290.292 351.827 275.815V198.842C350.718 198.26 349.322 197.786 347.639 197.442Z" fill="#BEF3FC"/>
<path d="M467.953 165.213C466.331 164.804 464.75 164.588 463.189 164.588C460.048 164.588 457.523 165.45 455.572 167.152C453.601 168.832 452.636 171.224 452.636 174.261V212.909H393.691V166.7C392.233 166.118 390.693 165.622 389.092 165.213C387.47 164.804 385.868 164.588 384.308 164.588C381.187 164.588 378.641 165.45 376.691 167.152C374.74 168.832 373.755 171.224 373.755 174.261V285.122H393.691V232.061H452.636V285.122H472.552V166.7C471.115 166.118 469.575 165.622 467.953 165.213Z" fill="#BEF3FC"/>
<path d="M558.968 203.861C551.494 197.592 540.428 194.468 525.81 194.468C516.653 194.468 509.734 195.632 505.052 197.98C500.351 200.328 498.01 203.495 498.01 207.459C498.01 209.333 498.462 211.121 499.345 212.823C500.248 214.525 501.295 215.839 502.527 216.787C504.436 215.02 507.537 213.556 511.828 212.392C516.119 211.207 520.903 210.626 526.138 210.626C534.412 210.626 540.633 212.263 544.822 215.559C549.01 218.834 551.104 224.047 551.104 231.178C548.641 230.833 545.397 230.553 541.393 230.316C537.369 230.079 533.735 229.95 530.491 229.95C516.324 229.95 506.079 232.427 499.776 237.339C493.473 242.251 490.311 249.274 490.311 258.43C490.311 268.727 493.965 276.16 501.275 280.727C508.584 285.315 519.157 287.599 533.016 287.599C538.478 287.599 544.596 287.319 551.351 286.802C558.106 286.263 564.388 285.595 570.178 284.777V231.889C570.178 219.48 566.441 210.13 558.968 203.861ZM551.269 271.42C549.359 271.894 546.69 272.282 543.22 272.562C539.771 272.864 536.363 273.014 533.016 273.014C524.865 273.014 518.891 271.916 515.092 269.761C511.294 267.585 509.405 263.988 509.405 258.947C509.405 253.906 510.986 250.308 514.168 247.787C517.351 245.267 523.017 244.017 531.168 244.017C534.186 244.017 537.677 244.168 541.639 244.448C545.602 244.75 548.805 245.181 551.269 245.762V271.42Z" fill="#BEF3FC"/>
<path d="M654.748 263.859C648.506 267.844 641.567 269.847 633.99 269.847C625.49 269.847 618.777 267.241 613.808 262.027C608.839 256.814 606.355 249.748 606.355 240.851C606.355 231.953 608.798 224.779 613.726 219.674C618.633 214.59 625.162 212.026 633.313 212.026C637.789 212.026 641.998 212.758 645.96 214.223C649.923 215.688 653.29 217.778 656.082 220.471C658.094 218.834 659.696 217.046 660.866 215.107C662.036 213.168 662.611 211.272 662.611 209.398C662.611 206.705 661.4 204.249 658.936 202.03C656.472 199.682 652.982 197.829 648.465 196.493C643.948 195.136 638.897 194.468 633.313 194.468C623.602 194.468 615.225 196.45 608.203 200.436C601.161 204.421 595.781 209.936 592.045 216.959C588.287 223.982 586.419 232.126 586.419 241.368C586.419 250.61 588.329 258.882 592.127 265.797C595.925 272.713 601.222 278.077 608.039 281.869C614.835 285.682 622.76 287.599 631.814 287.599C643.189 287.599 653.516 284.669 662.796 278.809L654.748 263.859Z" fill="#BEF3FC"/>
<path d="M736.463 259.572C728.436 251.063 720.1 243.436 711.518 236.629C714.864 234.302 718.642 231.566 722.81 228.464C726.998 225.362 731.166 222.195 735.293 218.985C739.42 215.753 743.157 212.802 746.524 210.109C749.87 207.416 752.314 205.305 753.874 203.776C752.991 201.901 751.595 200.286 749.686 198.95C747.797 197.593 745.292 196.925 742.15 196.925C740.262 196.925 738.085 197.313 735.622 198.067C733.178 198.821 730.489 200.372 727.594 202.72L692.752 229.433V157.566C691.746 156.984 690.411 156.51 688.748 156.165C687.065 155.821 685.443 155.627 683.882 155.627C680.864 155.627 678.421 156.424 676.512 157.997C674.623 159.591 673.678 161.896 673.678 164.955V285.122H692.752V245.418C698.111 249.511 703.326 253.885 708.417 258.516C713.489 263.148 718.19 267.737 722.481 272.304C726.772 276.871 730.448 281.158 733.445 285.122H757.241C751.431 276.569 744.512 268.06 736.463 259.572Z" fill="#BEF3FC"/>
<path d="M813.661 232.772L796.579 230.488C791.672 229.778 788.058 228.571 785.779 226.891C783.5 225.189 782.351 222.991 782.351 220.299C782.351 216.787 783.993 214.116 787.278 212.306C790.584 210.475 795.183 209.57 801.096 209.57C805.346 209.57 809.596 210.023 813.825 210.884C818.075 211.768 821.874 212.888 825.22 214.223C828.567 215.581 830.969 217.024 832.427 218.532C833.987 217.713 835.342 216.378 836.512 214.503C837.683 212.629 838.278 210.798 838.278 209.053C838.278 206.231 836.779 203.754 833.761 201.578C830.743 199.423 826.616 197.678 821.36 196.407C816.125 195.115 810.088 194.468 803.272 194.468C790.337 194.468 780.441 196.838 773.645 201.578C766.829 206.317 763.421 213.276 763.421 222.41C763.421 229.907 765.72 235.745 770.299 239.967C774.857 244.19 781.406 246.883 789.886 248.046L806.968 250.33C817.685 251.751 823.044 255.435 823.044 261.403C823.044 268.447 816.453 271.959 803.272 271.959C796.579 271.959 790.111 271.076 783.849 269.309C777.608 267.564 772.68 265.517 769.128 263.169L761.922 276.698C764.365 278.572 767.917 280.361 772.557 282.062C777.177 283.743 782.309 285.1 787.956 286.091C793.602 287.082 799.043 287.599 804.278 287.599C815.899 287.599 825.241 285.035 832.324 279.951C839.428 274.846 842.959 267.736 842.959 258.602C842.959 243.953 833.207 235.357 813.661 232.772Z" fill="#BEF3FC"/>
<path d="M662.365 232.255V251.752C662.365 252.98 660.948 253.583 660.127 252.699L654.645 246.732C651.935 251.989 644.605 255.759 635.982 255.759C625.039 255.759 616.19 249.705 616.19 242.251C616.19 234.797 625.039 228.765 635.982 228.765C644.544 228.765 651.812 232.471 654.584 237.641L660.107 231.329C660.907 230.424 662.365 231.006 662.365 232.255Z" fill="#6EF1FA"/>
<path d="M622.863 239.063C624.546 239.063 624.957 240.485 624.957 242.251C624.957 244.018 624.546 245.44 622.863 245.44C621.179 245.44 619.824 244.018 619.824 242.251C619.824 240.485 621.179 239.063 622.863 239.063Z" fill="#3B087D"/>
<path d="M606.334 30.8065C605.903 25.1838 604.877 11.03 604.487 5.75194C604.405 4.61016 603.501 3.7269 602.392 3.7269H577.467C576.318 3.7269 575.373 4.71787 575.373 5.92428V11.8271C575.373 13.0335 576.318 14.0245 577.467 14.0245H588.636C589.868 14.0245 590.833 15.1232 590.731 16.4158L589.56 30.8065C589.458 32.0775 590.423 33.1978 591.655 33.1978H604.261C605.472 33.1978 606.437 32.1206 606.355 30.8496L606.334 30.8065Z" fill="#3B087D"/>
<path d="M574.244 17.6222C577.272 17.6222 579.726 13.6773 579.726 8.81111C579.726 3.94487 577.272 0 574.244 0C571.216 0 568.762 3.94487 568.762 8.81111C568.762 13.6773 571.216 17.6222 574.244 17.6222Z" fill="#3B087D"/>
<path d="M573.586 14.9506C575.503 14.9506 577.056 12.2017 577.056 8.81085C577.056 5.41995 575.503 2.67108 573.586 2.67108C571.67 2.67108 570.117 5.41995 570.117 8.81085C570.117 12.2017 571.67 14.9506 573.586 14.9506Z" fill="#6EF1FA"/>
<path d="M680.884 108.297C680.884 119.779 677.661 130.615 672.015 140.181C658.649 162.822 631.712 178.333 602.064 178.333C579.09 178.333 557.655 171.892 542.934 158.169C542.174 157.48 541.435 156.747 540.737 156.015C540.285 155.541 539.833 155.067 539.382 154.571C539.279 154.571 539.156 154.571 539.053 154.571C521.109 153.947 500.906 133.05 500.906 107.349C500.906 81.6482 521.458 60.4713 539.505 60.1267C539.649 60.1267 539.813 60.1267 539.957 60.1267C541.209 58.791 542.544 57.5199 543.919 56.3135C552.276 49.0104 562.849 43.9909 575.106 41.1257C576.667 40.7595 578.268 40.4148 579.911 40.1347C581.492 39.8331 583.073 39.5961 584.715 39.3592C587.056 39.036 589.437 38.7775 591.881 38.6052C595.186 38.3466 598.615 38.2174 602.085 38.2174C602.249 38.2174 602.434 38.2174 602.619 38.2174C608.121 38.2389 613.541 38.8206 618.797 39.8762C653.495 46.8131 680.946 74.819 680.946 108.275L680.884 108.297Z" fill="#3578A7"/>
<path d="M615.902 52.565H578.33C575.825 52.565 573.916 49.8506 574.306 46.8777L576.112 33.3056C576.42 30.9143 578.125 29.1693 580.137 29.1693H613.603C615.533 29.1693 617.196 30.8066 617.586 33.0901L619.906 46.6622C620.419 49.7214 618.489 52.565 615.923 52.565H615.902Z" fill="#3B087D"/>
<path d="M547.779 75.0988C544.207 68.722 536.158 66.2661 529.527 69.5406C519.528 74.4525 506.121 84.8362 506.121 105.173C506.121 123.334 516.818 135.678 526.221 143.002C533.407 148.604 543.981 145.954 547.553 137.681C551.146 129.344 554.698 117.883 554.698 105.173C554.698 91.0837 551.311 81.3678 547.8 75.0988H547.779Z" fill="#3B087D"/>
<path d="M543.877 56.314C550.776 58.8991 556.586 64.4141 559.625 71.4156C560.077 72.6651 560.672 74.0439 561.021 75.3365L561.658 78.0078C562.089 79.5589 562.212 81.7994 562.438 83.4151C562.52 85.2247 562.52 87.0344 562.561 88.8224H560.385C560.2 86.345 560.036 83.6306 559.481 81.1962C559.338 80.356 559.194 79.5158 558.906 78.7403C556.422 69.089 548.928 61.6136 539.422 60.2133V60.1486L543.857 56.3355L543.877 56.314Z" fill="#3B087D"/>
<path d="M562.458 132.081C562.499 133.654 562.376 135.248 562.068 136.799C559.789 146.881 551.454 153.689 542.912 158.17C541.681 157.028 540.49 155.821 539.34 154.572C539.237 154.572 539.114 154.572 539.011 154.572C548.62 150.996 559.851 143.887 560.528 132.081H562.458Z" fill="#3B087D"/>
<path d="M563.465 100.606C565.415 106.832 565.723 113.855 563.465 120.038L560.652 119.65C560.221 116.505 560.221 113.446 560.221 110.322C560.262 107.177 560.262 104.096 560.652 100.929L563.465 100.606Z" fill="#3B087D"/>
<path d="M613.315 37.1834C605.082 38.3468 596.787 38.5837 588.492 38.6484C587.466 38.6484 586.316 38.6915 585.33 39.0577C584.612 39.2516 584.057 39.7686 583.791 39.8548C583.4 41.8798 582.62 43.8402 581.82 45.736L579.972 45.4129C579.766 43.4309 579.787 41.4705 579.869 39.5101L579.849 39.8548C579.766 38.3898 580.464 37.0542 581.204 36.3002C583.175 34.2105 585.823 33.5211 588.513 33.6073C591.264 33.6288 594.036 33.6504 596.787 33.7581C602.31 33.952 607.833 34.2967 613.335 35.0722V37.1619L613.315 37.1834Z" fill="#3578A7"/>
<path d="M682.835 96.1251C685.175 104.419 685.175 112.713 682.835 120.986C690.739 121.374 696.817 114.351 696.201 107.349C695.646 101.08 689.836 95.6727 682.835 96.1035V96.1251Z" fill="#3B087D"/>
<path d="M701.128 106.078C699.034 106.444 697.638 104.419 698.911 102.89C701.744 99.4642 706.343 94.6601 711.147 92.4411C720.448 88.1541 726.341 93.7122 718.99 99.0118C712.995 103.342 705.85 105.238 701.128 106.078Z" fill="#FED220"/>
<path d="M701.128 110.516C699.034 110.15 697.638 112.175 698.911 113.704C701.744 117.13 706.343 121.934 711.147 124.153C720.448 128.44 726.341 122.882 718.99 117.582C712.995 113.252 705.85 111.356 701.128 110.516Z" fill="#FED220"/>
<path d="M661.399 131.499H653.31V109.977H629.391V131.499H621.301V86.5169C621.301 85.289 621.691 84.3195 622.492 83.6302C623.293 82.9408 624.319 82.5961 625.592 82.5961C626.229 82.5961 626.865 82.6823 627.522 82.8546C628.179 83.027 628.795 83.2209 629.391 83.4578V102.2H653.31V86.5169C653.31 85.289 653.7 84.3195 654.5 83.6302C655.301 82.9408 656.328 82.5961 657.601 82.5961C658.237 82.5961 658.874 82.6823 659.531 82.8546C660.188 83.027 660.804 83.2209 661.399 83.4578V131.499Z" fill="white"/>
<path d="M582.066 86.5168C582.066 83.2853 583.729 81.6696 587.035 81.6696H611.159C613.869 81.6696 615.245 82.9622 615.245 85.5258C615.245 86.9477 614.896 88.2618 614.218 89.4467H590.299V102.416H609.188C611.898 102.416 613.274 103.708 613.274 106.272C613.274 107.694 612.925 109.008 612.247 110.193H590.299V130.572H582.087V86.5168H582.066Z" fill="white"/>
<path d="M654.954 131.498H646.597C645.201 130.809 643.579 130.615 643.579 128.439C643.579 125.445 649.287 123.721 649.287 119.52C649.287 116.677 646.515 110.472 646.515 110.472C646.515 110.472 654.995 117.409 654.995 121.395C654.995 127.125 650.827 126.177 650.827 127.944C650.827 129.71 653.291 130.163 654.974 131.498H654.954Z" fill="#6EF1FA"/>
<path d="M662.775 127.728C662.775 129.236 663.226 130.486 663.822 131.498H656.225C655.424 130.292 654.788 128.849 654.788 127.427C654.788 123.161 660.496 123.441 660.496 120.77C660.496 119.004 656.328 119.951 656.328 114.221C656.328 110.257 664.807 103.299 664.807 103.299C664.807 103.299 662.036 109.503 662.036 112.347C662.036 116.548 667.743 118.25 667.743 121.266C667.743 125.079 662.795 122.817 662.795 127.728H662.775Z" fill="#6EF1FA"/>
<path d="M648.198 128.784C648.978 129.43 649.984 129.689 650.887 130.357C651.339 130.68 651.688 131.068 651.975 131.477H649.984C649.122 130.981 648.033 130.658 647.192 130.077C645.898 129.193 645.857 127.061 646.76 125.854C647.91 124.303 649.306 123.808 650.292 123.032C652.571 121.438 651.585 118.271 650.148 116.246L650.271 116.095C653.064 117.689 654.398 122.386 651.483 124.626C650.148 125.919 646.822 126.953 648.177 128.763L648.198 128.784Z" fill="#3B087D"/>
<path d="M664.09 122.924C662.693 123.915 660.599 124.131 659.983 125.682C659.224 127.621 659.491 129.646 660.332 131.477H659.45C658.834 130.292 658.464 128.978 658.464 127.556C658.382 125.94 659.039 124.066 660.414 123.161C661.318 122.472 662.324 122.214 663.104 121.589C664.439 119.779 661.133 118.745 659.799 117.452C656.883 115.212 658.218 110.516 660.989 108.921L661.113 109.072C659.675 111.097 658.69 114.264 660.969 115.858C661.954 116.634 663.35 117.129 664.5 118.68C665.383 119.887 665.342 122.02 664.049 122.924H664.09Z" fill="#3B087D"/>
<path d="M587.035 130.659H595.391C596.787 129.969 598.409 129.775 598.409 127.6C598.409 124.605 592.701 122.882 592.701 118.681C592.701 115.837 595.473 109.633 595.473 109.633C595.473 109.633 586.994 116.569 586.994 120.555C586.994 126.285 591.162 125.337 591.162 127.104C591.162 128.871 588.698 129.323 587.014 130.659H587.035Z" fill="#6EF1FA"/>
<path d="M579.191 126.889C579.191 128.397 578.74 129.646 578.144 130.659H585.741C586.542 129.452 587.178 128.009 587.178 126.587C587.178 122.321 581.47 122.602 581.47 119.93C581.47 118.164 585.638 119.112 585.638 113.381C585.638 109.417 577.159 102.459 577.159 102.459C577.159 102.459 579.931 108.663 579.931 111.507C579.931 115.708 574.223 117.41 574.223 120.426C574.223 124.239 579.171 121.977 579.171 126.889H579.191Z" fill="#6EF1FA"/>
<path d="M593.77 127.944C592.989 128.591 591.983 128.849 591.08 129.517C590.628 129.84 590.279 130.228 589.992 130.637H591.983C592.846 130.142 593.934 129.819 594.776 129.237C596.069 128.354 596.11 126.221 595.207 125.014C594.057 123.463 592.661 122.968 591.675 122.192C589.396 120.598 590.382 117.431 591.819 115.406L591.696 115.255C588.904 116.85 587.569 121.546 590.484 123.787C591.819 125.079 595.145 126.113 593.79 127.923L593.77 127.944Z" fill="#3B087D"/>
<path d="M577.878 122.106C579.275 123.097 581.369 123.312 581.985 124.863C582.744 126.802 582.477 128.827 581.636 130.658H582.518C583.134 129.474 583.504 128.159 583.504 126.738C583.586 125.122 582.929 123.248 581.553 122.343C580.65 121.653 579.644 121.395 578.864 120.77C577.529 118.961 580.835 117.927 582.169 116.634C585.085 114.393 583.75 109.697 580.979 108.103L580.855 108.254C582.293 110.279 583.278 113.446 580.999 115.04C580.014 115.815 578.617 116.311 577.468 117.862C576.585 119.068 576.626 121.201 577.919 122.106H577.878Z" fill="#3B087D"/>
<mask id="mask0_2449_3490" style="mask-type:luminance" maskUnits="userSpaceOnUse" x="506" y="68" width="49" height="78">
<path d="M547.78 75.0988C544.207 68.7221 536.159 66.2662 529.527 69.5407C519.528 74.4525 506.121 84.8363 506.121 105.173C506.121 123.334 516.818 135.678 526.222 143.003C533.408 148.604 543.981 145.954 547.554 137.681C551.147 129.344 554.699 117.883 554.699 105.173C554.699 91.0838 551.311 81.3678 547.8 75.0988H547.78Z" fill="white"/>
</mask>
<g mask="url(#mask0_2449_3490)">
<path d="M524.025 86.1933C524.025 86.1933 527.987 81.9063 531.129 82.5741C534.27 83.2419 534.147 86.6673 534.147 86.6673L524.025 86.1933Z" fill="#D77D58"/>
<path d="M552.462 134.558C542.257 148.927 529.672 152.266 512.61 135.742L512.035 114.092C505.65 110.839 508.832 97.7836 512.302 96.8788C512.795 89.6834 521.541 85.5903 526.879 85.9996C532.218 86.4089 536.96 86.5166 536.96 86.5166C537.35 86.215 545.789 86.732 549.115 90.459C552.42 94.1429 545.542 98.0637 545.255 98.5807C545.255 98.5807 550.408 104.268 545.173 111.571L552.441 134.579L552.462 134.558Z" fill="#F3A370"/>
<path d="M525.381 99.4638C525.381 99.4638 525.976 97.2018 528.378 96.6848C530.78 96.1678 532.834 97.3742 532.834 97.3742" stroke="#C66544" stroke-width="0.78359" stroke-miterlimit="10" stroke-linecap="round"/>
<path d="M522.034 105.669C521.13 109.352 518.584 111.981 515.977 112.153C515.607 112.196 515.217 112.153 514.848 112.088C514.766 112.088 514.683 112.067 514.601 112.045C511.563 111.227 509.961 107.047 511.029 102.696C512.096 98.3439 515.423 95.5002 518.461 96.3188C521.5 97.1375 523.081 101.317 522.013 105.669H522.034Z" fill="#D77D58"/>
<path d="M523.594 111.506C523.594 111.506 523.162 112.971 520.76 113.876C518.728 114.652 516.654 113.38 516.018 112.928C515.812 110.149 516.12 107.478 516.941 104.72L515.853 104.354C514.991 107.241 514.683 110.063 514.909 112.971C514.519 113.294 513.431 114.005 511.932 113.316C510.002 112.433 509.55 109.61 509.55 109.567L508.421 109.761C508.441 109.912 508.975 113.273 511.48 114.415C511.726 114.522 511.952 114.608 512.178 114.673C513.759 115.104 514.95 114.415 515.504 113.984C515.956 114.307 516.798 114.802 517.865 115.082C518.83 115.341 519.98 115.427 521.15 114.975C524.148 113.833 524.661 111.872 524.682 111.786C524.928 110.838 523.819 110.537 523.594 111.485V111.506Z" fill="#C66544"/>
<path d="M545.214 98.6449C544.27 95.6935 542.812 90.0061 536.735 86.4946C536.735 86.1284 548.396 86.5377 549.813 91.5572C551.045 95.9736 546.713 98.4079 545.214 98.6449Z" fill="#D77D58"/>
<path d="M518.502 103.514C518.379 103.277 518.092 103.169 517.845 103.299L516.306 104.16C516.306 104.16 516.264 104.203 516.244 104.225C516.203 104.225 516.162 104.225 516.121 104.225L515.217 102.825C515.074 102.588 514.766 102.545 514.56 102.695C514.334 102.846 514.293 103.169 514.437 103.385L515.402 104.871C514.745 107.263 514.807 109.654 514.868 112.067C515.238 112.153 515.607 112.174 515.998 112.131C515.915 109.718 516.203 107.37 516.88 104.979L518.318 104.16C518.543 104.031 518.646 103.729 518.523 103.471L518.502 103.514Z" fill="#C66544"/>
<path d="M534.27 100.648C535.902 100.648 537.226 100.157 537.226 99.5498C537.226 98.943 535.902 98.4511 534.27 98.4511C532.637 98.4511 531.313 98.943 531.313 99.5498C531.313 100.157 532.637 100.648 534.27 100.648Z" fill="#FF668B"/>
</g>
<path d="M671.994 140.18C658.628 162.822 631.69 178.333 602.043 178.333C579.068 178.333 557.634 171.892 542.913 158.169C542.153 157.479 541.414 156.747 540.716 156.015L553.384 150.198C553.384 150.198 579.151 155.648 618.078 155.648C643.25 155.648 661.461 149.142 672.014 140.159L671.994 140.18Z" fill="#3B087D"/>
<path d="M564.882 49.9366C565.827 51.6385 563.116 52.4356 560.221 54.2237C557.327 56.0117 555.335 58.0799 554.391 56.378C553.446 54.6761 555.027 51.8539 557.922 50.0658C560.817 48.2778 563.938 48.2347 564.882 49.9366Z" fill="white"/>
<path d="M586.584 75.4864C588.127 75.4864 589.377 74.1746 589.377 72.5565C589.377 70.9384 588.127 69.6266 586.584 69.6266C585.042 69.6266 583.792 70.9384 583.792 72.5565C583.792 74.1746 585.042 75.4864 586.584 75.4864Z" fill="#3B087D"/>
<path d="M622.76 75.4861C624.302 75.4861 625.552 74.1744 625.552 72.5563C625.552 70.9381 624.302 69.6264 622.76 69.6264C621.217 69.6264 619.967 70.9381 619.967 72.5563C619.967 74.1744 621.217 75.4861 622.76 75.4861Z" fill="#3B087D"/>
<path d="M656.473 75.4861C658.016 75.4861 659.266 74.1744 659.266 72.5563C659.266 70.9381 658.016 69.6264 656.473 69.6264C654.931 69.6264 653.681 70.9381 653.681 72.5563C653.681 74.1744 654.931 75.4861 656.473 75.4861Z" fill="#3B087D"/>
<path d="M586.584 143.11C588.127 143.11 589.377 141.798 589.377 140.18C589.377 138.562 588.127 137.25 586.584 137.25C585.042 137.25 583.792 138.562 583.792 140.18C583.792 141.798 585.042 143.11 586.584 143.11Z" fill="#3B087D"/>
<path d="M622.76 143.11C624.302 143.11 625.552 141.798 625.552 140.18C625.552 138.562 624.302 137.25 622.76 137.25C621.217 137.25 619.967 138.562 619.967 140.18C619.967 141.798 621.217 143.11 622.76 143.11Z" fill="#3B087D"/>
<path d="M656.473 143.11C658.016 143.11 659.266 141.798 659.266 140.18C659.266 138.562 658.016 137.25 656.473 137.25C654.931 137.25 653.681 138.562 653.681 140.18C653.681 141.798 654.931 143.11 656.473 143.11Z" fill="#3B087D"/>
<g style="mix-blend-mode:screen">
<path d="M547.779 75.0988C544.207 68.722 536.158 66.2661 529.527 69.5406C519.528 74.4525 506.121 84.8362 506.121 105.173C506.121 123.334 516.818 135.678 526.221 143.002C533.407 148.604 543.981 145.954 547.553 137.681C551.146 129.344 554.698 117.883 554.698 105.173C554.698 91.0837 551.311 81.3678 547.8 75.0988H547.779Z" fill="#3B087D"/>
</g>
<path d="M522.587 77.8569C523.757 75.8749 525.728 74.2161 528.356 73.0743C530.984 71.9325 534.228 70.9846 537.287 71.5878C543.323 72.7512 537.472 76.7797 531.436 78.2877C525.4 79.7958 522.258 84.5783 520.575 83.932C519.507 83.5227 521.191 80.2481 522.607 77.8569H522.587Z" fill="white"/>
<path d="M719.279 335.404C719.279 335.404 706.262 333.874 694.025 325.559C683.082 318.148 677.908 299.298 679.612 297.509C681.624 295.398 699.199 294.106 709.239 299.642C719.628 305.351 726.67 316.791 727.102 317.501V317.545C727.102 317.545 724.74 318.212 721.25 323.727C717.739 329.242 719.279 335.404 719.279 335.404Z" fill="#3B087D"/>
<path d="M736.031 346.196C736.031 346.196 733.649 358.088 728.784 368.817C723.22 381.053 704.043 383.401 702.195 381.915C700.779 380.816 693.716 359.359 702.195 349.6C710.654 339.863 719.277 335.403 719.277 335.403C719.277 335.403 722.296 344.15 727.12 345.981C731.945 347.812 736.031 346.196 736.031 346.196Z" fill="#3B087D"/>
<mask id="mask1_2449_3490" style="mask-type:luminance" maskUnits="userSpaceOnUse" x="0" y="155" width="844" height="171">
<path d="M79.2527 183.74C80.9363 180.811 81.7575 177.601 81.7575 174.089C81.7575 167.755 78.4109 164.589 71.7177 164.589H12.2792C4.12823 164.589 0.0424805 168.574 0.0424805 176.545V285.122H20.307V234.884H74.3867C76.0703 231.954 76.9121 228.722 76.9121 225.211C76.9121 218.899 73.5655 215.732 66.8517 215.732H20.307V183.74H79.2527ZM169.673 197.442C168.01 197.097 166.388 196.925 164.828 196.925C161.81 196.925 159.346 197.722 157.457 199.294C155.547 200.889 154.603 203.194 154.603 206.231V245.073C154.603 261.36 147.355 269.482 132.84 269.482C118.324 269.482 111.076 261.36 111.076 245.073V198.864C110.07 198.282 108.736 197.808 107.052 197.442C105.369 197.097 103.767 196.925 102.186 196.925C99.1887 196.925 96.7249 197.722 94.836 199.294C92.9266 200.889 91.9822 203.194 91.9822 206.231V249.468C91.9822 261.166 95.6573 270.451 103.028 277.302C110.399 284.174 120.336 287.599 132.84 287.599C138.301 287.599 143.27 286.953 147.745 285.682C149.963 280.598 152.755 275.923 155.671 272.132C160.27 266.164 166.532 261.403 172.958 258.129C173.451 255.414 173.697 252.527 173.697 249.468V198.864C172.691 198.282 171.357 197.808 169.673 197.442ZM208.19 156.165C206.527 155.821 204.905 155.627 203.345 155.627C200.326 155.627 197.863 156.424 195.974 157.996C194.064 159.591 193.12 161.896 193.12 164.955V252.915C194.886 252.743 196.692 252.657 198.704 252.657C199.505 252.657 200.306 252.678 201.107 252.7C204.515 252.807 208.416 253.109 212.214 254.488V157.566C211.208 156.984 209.874 156.51 208.19 156.165ZM246.707 156.165C245.023 155.821 243.422 155.627 241.841 155.627C238.843 155.627 236.38 156.424 234.491 157.996C232.581 159.591 231.637 161.896 231.637 164.955V279.198C232.355 279.133 233.054 279.09 233.711 279.09C234.922 279.09 236.051 279.219 237.119 279.478C238.084 279.715 239.069 280.102 240.075 280.619C240.732 280.964 241.266 281.287 241.759 281.654C241.944 281.783 242.477 282.192 242.95 282.752L243.134 282.925L243.442 283.399L243.525 283.528L243.607 283.657C243.853 284.109 244.079 284.605 244.243 285.122H250.731V157.566C249.725 156.984 248.391 156.51 246.707 156.165ZM317.581 317.717C316.247 315.648 314.173 314.248 312.182 314.076C310.765 313.968 309.554 314.485 308.589 315.648C307.316 319.892 305.673 323.21 303.641 325.644C310.067 326.161 315.734 325.601 320.62 323.986C319.84 321.853 318.752 319.483 317.581 317.695V317.717ZM347.68 197.442C346.017 197.097 344.395 196.925 342.835 196.925C339.817 196.925 337.394 197.7 335.546 199.294C333.699 200.867 332.775 203.194 332.775 206.231V243.824C332.775 251.687 330.906 257.741 327.17 262.006C323.433 266.293 317.992 268.426 310.847 268.426C303.702 268.426 298.734 266.466 294.935 262.545C291.137 258.624 289.248 253.023 289.248 245.763V198.842C288.119 198.26 286.723 197.786 285.06 197.442C283.376 197.097 281.754 196.925 280.194 196.925C277.176 196.925 274.753 197.7 272.905 199.294C271.078 200.867 270.154 203.194 270.154 206.231V249.813C270.154 257.073 271.714 263.385 274.835 268.792C277.956 274.178 282.308 278.293 287.893 281.18C293.477 284.045 299.904 285.467 307.151 285.467C313.413 285.467 318.793 284.454 323.31 282.408C327.847 280.361 331.153 277.625 333.288 274.221V279.155C333.288 286.005 330.167 294.946 327.519 299.06C332.364 302.917 336.696 307.807 339.612 312.589C346.572 304.855 351.869 290.292 351.869 275.815V198.842C350.76 198.26 349.364 197.786 347.68 197.442ZM467.995 165.213C466.373 164.804 464.792 164.589 463.231 164.589C460.09 164.589 457.565 165.45 455.614 167.152C453.643 168.833 452.678 171.224 452.678 174.261V212.91H393.732V166.7C392.275 166.118 390.735 165.623 389.133 165.213C387.511 164.804 385.91 164.589 384.35 164.589C381.229 164.589 378.683 165.45 376.732 167.152C374.782 168.833 373.796 171.224 373.796 174.261V285.122H393.732V232.061H452.678V285.122H472.594V166.7C471.156 166.118 469.617 165.623 467.995 165.213ZM559.01 203.862C551.537 197.593 540.47 194.469 525.852 194.469C516.695 194.469 509.776 195.632 505.095 197.98C500.393 200.329 498.053 203.495 498.053 207.459C498.053 209.334 498.504 211.122 499.387 212.824C500.29 214.525 501.338 215.84 502.569 216.787C504.479 215.021 507.579 213.556 511.87 212.393C516.161 211.208 520.945 210.626 526.181 210.626C534.455 210.626 540.676 212.263 544.864 215.559C549.053 218.834 551.147 224.047 551.147 231.178C548.683 230.834 545.439 230.553 541.435 230.316C537.411 230.08 533.777 229.95 530.533 229.95C516.367 229.95 506.121 232.428 499.818 237.34C493.515 242.251 490.353 249.274 490.353 258.43C490.353 268.728 494.008 276.16 501.317 280.727C508.626 285.316 519.2 287.599 533.059 287.599C538.52 287.599 544.638 287.319 551.393 286.802C558.148 286.264 564.431 285.596 570.22 284.777V231.889C570.22 219.48 566.484 210.131 559.01 203.862ZM551.311 271.421C549.402 271.895 546.733 272.282 543.263 272.562C539.813 272.864 536.405 273.015 533.059 273.015C524.908 273.015 518.933 271.916 515.135 269.762C511.336 267.586 509.447 263.988 509.447 258.947C509.447 253.906 511.028 250.308 514.211 247.788C517.393 245.267 523.06 244.018 531.211 244.018C534.229 244.018 537.719 244.169 541.682 244.449C545.644 244.75 548.847 245.181 551.311 245.763V271.421ZM654.789 263.859C648.548 267.844 641.608 269.848 634.032 269.848C625.532 269.848 618.818 267.241 613.85 262.028C608.881 256.814 606.397 249.748 606.397 240.851C606.397 231.954 608.84 224.78 613.768 219.674C618.675 214.59 625.204 212.026 633.355 212.026C637.83 212.026 642.039 212.759 646.002 214.224C649.965 215.689 653.332 217.778 656.124 220.471C658.136 218.834 659.737 217.046 660.908 215.107C662.078 213.168 662.653 211.272 662.653 209.398C662.653 206.705 661.442 204.249 658.978 202.03C656.514 199.682 653.024 197.83 648.507 196.494C643.99 195.137 638.939 194.469 633.355 194.469C623.643 194.469 615.266 196.451 608.245 200.436C601.202 204.422 595.823 209.937 592.086 216.96C588.329 223.983 586.461 232.126 586.461 241.368C586.461 250.61 588.37 258.883 592.169 265.798C595.967 272.713 601.264 278.077 608.08 281.869C614.876 285.682 622.801 287.599 631.856 287.599C643.23 287.599 653.557 284.67 662.838 278.81L654.789 263.859ZM736.504 259.572C728.477 251.062 720.141 243.436 711.559 236.629C714.905 234.302 718.683 231.566 722.851 228.464C727.039 225.362 731.207 222.195 735.334 218.985C739.461 215.753 743.198 212.802 746.565 210.109C749.911 207.416 752.355 205.305 753.915 203.775C753.032 201.901 751.636 200.285 749.727 198.95C747.838 197.593 745.333 196.925 742.192 196.925C740.303 196.925 738.126 197.313 735.663 198.067C733.219 198.821 730.53 200.372 727.635 202.72L692.793 229.433V157.566C691.787 156.984 690.452 156.51 688.789 156.165C687.106 155.821 685.484 155.627 683.924 155.627C680.905 155.627 678.462 156.424 676.553 157.996C674.664 159.591 673.719 161.896 673.719 164.955V285.122H692.793V245.418C698.152 249.511 703.367 253.885 708.459 258.516C713.53 263.148 718.232 267.737 722.523 272.304C726.814 276.871 730.489 281.158 733.486 285.122H757.282C751.472 276.569 744.553 268.06 736.504 259.572ZM813.703 232.772L796.62 230.489C791.713 229.778 788.1 228.572 785.821 226.891C783.542 225.189 782.392 222.992 782.392 220.299C782.392 216.787 784.035 214.116 787.32 212.306C790.625 210.475 795.224 209.571 801.137 209.571C805.387 209.571 809.637 210.023 813.867 210.885C818.117 211.768 821.915 212.888 825.262 214.224C828.608 215.581 831.011 217.024 832.468 218.532C834.029 217.714 835.384 216.378 836.554 214.504C837.724 212.63 838.32 210.798 838.32 209.054C838.32 206.231 836.821 203.754 833.803 201.578C830.785 199.424 826.658 197.679 821.402 196.408C816.166 195.115 810.13 194.469 803.314 194.469C790.379 194.469 780.483 196.839 773.687 201.578C766.87 206.318 763.462 213.276 763.462 222.41C763.462 229.907 765.762 235.745 770.34 239.968C774.898 244.19 781.448 246.883 789.927 248.046L807.009 250.33C817.727 251.752 823.086 255.436 823.086 261.403C823.086 268.448 816.495 271.959 803.314 271.959C796.62 271.959 790.153 271.076 783.891 269.309C777.649 267.564 772.722 265.518 769.17 263.17L761.963 276.699C764.407 278.573 767.959 280.361 772.599 282.063C777.218 283.743 782.351 285.1 787.997 286.091C793.643 287.082 799.084 287.599 804.32 287.599C815.94 287.599 825.282 285.036 832.366 279.952C839.469 274.846 843.001 267.737 843.001 258.603C843.001 243.953 833.248 235.358 813.703 232.772Z" fill="white"/>
</mask>
<g mask="url(#mask1_2449_3490)">
<g style="mix-blend-mode:multiply" opacity="0.5">
<path d="M351.744 240.699C340.616 240.699 331.583 253.044 331.583 268.275H371.906C371.906 253.044 362.872 240.699 351.744 240.699Z" fill="#F053DC"/>
<path d="M311.421 240.699C300.293 240.699 291.259 253.044 291.259 268.275H331.583C331.583 253.044 322.549 240.699 311.421 240.699Z" fill="#F053DC"/>
<path d="M271.097 240.699C259.969 240.699 250.935 253.044 250.935 268.275H291.259C291.259 253.044 282.225 240.699 271.097 240.699Z" fill="#F053DC"/>
<path d="M472.717 240.699C461.589 240.699 452.555 253.044 452.555 268.275H492.879C492.879 253.044 483.845 240.699 472.717 240.699Z" fill="#F053DC"/>
<path d="M392.069 240.699C380.941 240.699 371.907 253.044 371.907 268.275H412.231C412.231 253.044 403.197 240.699 392.069 240.699Z" fill="#F053DC"/>
<path d="M230.794 240.699C219.666 240.699 210.633 253.044 210.633 268.275H250.956C250.956 253.044 241.922 240.699 230.794 240.699Z" fill="#F053DC"/>
<path d="M432.393 240.699C421.265 240.699 412.231 253.044 412.231 268.275H452.554C452.554 253.044 443.521 240.699 432.393 240.699Z" fill="#F053DC"/>
<path d="M109.823 240.699C98.6951 240.699 89.6613 253.044 89.6613 268.275H129.985C129.985 253.044 120.951 240.699 109.823 240.699Z" fill="#F053DC"/>
<path d="M-11.1273 240.699C-22.2553 240.699 -31.2892 253.044 -31.2892 268.275H9.03455C9.03455 253.044 0.000730515 240.699 -11.1273 240.699Z" fill="#F053DC"/>
<path d="M190.471 240.699C179.343 240.699 170.309 253.044 170.309 268.275H210.633C210.633 253.044 201.599 240.699 190.471 240.699Z" fill="#F053DC"/>
<path d="M29.177 240.699C18.0489 240.699 9.01511 253.044 9.01511 268.275H49.3388C49.3388 253.044 40.305 240.699 29.177 240.699Z" fill="#F053DC"/>
<path d="M150.147 240.699C139.019 240.699 129.985 253.044 129.985 268.275H170.309C170.309 253.044 161.275 240.699 150.147 240.699Z" fill="#F053DC"/>
<path d="M513.019 240.699C501.891 240.699 492.858 253.044 492.858 268.275H533.181C533.181 253.044 524.147 240.699 513.019 240.699Z" fill="#F053DC"/>
<path d="M69.4995 240.699C58.3715 240.699 49.3377 253.044 49.3377 268.275H89.6614C89.6614 253.044 80.6276 240.699 69.4995 240.699Z" fill="#F053DC"/>
<path d="M633.99 240.699C622.862 240.699 613.828 253.044 613.828 268.275H654.152C654.152 253.044 645.118 240.699 633.99 240.699Z" fill="#F053DC"/>
<path d="M674.314 240.699C663.186 240.699 654.153 253.044 654.153 268.275H694.476C694.476 253.044 685.442 240.699 674.314 240.699Z" fill="#F053DC"/>
<path d="M714.638 240.699C703.51 240.699 694.476 253.044 694.476 268.275H734.8C734.8 253.044 725.766 240.699 714.638 240.699Z" fill="#F053DC"/>
<path d="M553.343 240.699C542.215 240.699 533.181 253.044 533.181 268.275H573.505C573.505 253.044 564.471 240.699 553.343 240.699Z" fill="#F053DC"/>
<path d="M593.667 240.699C582.539 240.699 573.505 253.044 573.505 268.275H613.828C613.828 253.044 604.795 240.699 593.667 240.699Z" fill="#F053DC"/>
<path d="M835.588 240.699C824.46 240.699 815.426 253.044 815.426 268.275H855.75C855.75 253.044 846.716 240.699 835.588 240.699Z" fill="#F053DC"/>
<path d="M754.962 240.699C743.834 240.699 734.8 253.044 734.8 268.275H775.123C775.123 253.044 766.09 240.699 754.962 240.699Z" fill="#F053DC"/>
<path d="M795.264 240.699C784.136 240.699 775.102 253.044 775.102 268.275H815.426C815.426 253.044 806.392 240.699 795.264 240.699Z" fill="#F053DC"/>
<path d="M331.584 257.568C320.456 257.568 311.422 269.912 311.422 285.143H351.746C351.746 269.912 342.712 257.568 331.584 257.568Z" fill="#3B087D"/>
<path d="M291.261 257.568C280.133 257.568 271.099 269.912 271.099 285.143H311.422C311.422 269.912 302.389 257.568 291.261 257.568Z" fill="#3B087D"/>
<path d="M250.957 257.568C239.829 257.568 230.795 269.912 230.795 285.143H271.119C271.119 269.912 262.085 257.568 250.957 257.568Z" fill="#3B087D"/>
<path d="M452.555 257.568C441.427 257.568 432.393 269.912 432.393 285.143H472.717C472.717 269.912 463.683 257.568 452.555 257.568Z" fill="#3B087D"/>
<path d="M371.908 257.568C360.78 257.568 351.746 269.912 351.746 285.143H392.07C392.07 269.912 383.036 257.568 371.908 257.568Z" fill="#3B087D"/>
<path d="M210.633 257.568C199.505 257.568 190.471 269.912 190.471 285.143H230.795C230.795 269.912 221.761 257.568 210.633 257.568Z" fill="#3B087D"/>
<path d="M412.231 257.568C401.103 257.568 392.07 269.912 392.07 285.143H432.393C432.393 269.912 423.359 257.568 412.231 257.568Z" fill="#3B087D"/>
<path d="M89.6629 257.568C78.5349 257.568 69.5011 269.912 69.5011 285.143H109.825C109.825 269.912 100.791 257.568 89.6629 257.568Z" fill="#3B087D"/>
<path d="M170.311 257.568C159.183 257.568 150.149 269.912 150.149 285.143H190.473C190.473 269.912 181.439 257.568 170.311 257.568Z" fill="#3B087D"/>
<path d="M9.0147 257.568C-2.11333 257.568 -11.1472 269.912 -11.1472 285.143H29.1766C29.1766 269.912 20.1427 257.568 9.0147 257.568Z" fill="#3B087D"/>
<path d="M129.986 257.568C118.858 257.568 109.824 269.912 109.824 285.143H150.148C150.148 269.912 141.114 257.568 129.986 257.568Z" fill="#3B087D"/>
<path d="M492.879 257.568C481.751 257.568 472.717 269.912 472.717 285.143H513.04C513.04 269.912 504.007 257.568 492.879 257.568Z" fill="#3B087D"/>
<path d="M49.3393 257.568C38.2113 257.568 29.1775 269.912 29.1775 285.143H69.5012C69.5012 269.912 60.4674 257.568 49.3393 257.568Z" fill="#3B087D"/>
<path d="M855.751 257.568C844.623 257.568 835.589 269.912 835.589 285.143H875.913C875.913 269.912 866.879 257.568 855.751 257.568Z" fill="#3B087D"/>
<path d="M613.83 257.568C602.702 257.568 593.668 269.912 593.668 285.143H633.992C633.992 269.912 624.958 257.568 613.83 257.568Z" fill="#3B087D"/>
<path d="M654.153 257.568C643.025 257.568 633.991 269.912 633.991 285.143H674.315C674.315 269.912 665.281 257.568 654.153 257.568Z" fill="#3B087D"/>
<path d="M694.477 257.568C683.349 257.568 674.315 269.912 674.315 285.143H714.639C714.639 269.912 705.605 257.568 694.477 257.568Z" fill="#3B087D"/>
<path d="M533.182 257.568C522.054 257.568 513.02 269.912 513.02 285.143H553.344C553.344 269.912 544.31 257.568 533.182 257.568Z" fill="#3B087D"/>
<path d="M573.506 257.568C562.378 257.568 553.345 269.912 553.345 285.143H593.668C593.668 269.912 584.634 257.568 573.506 257.568Z" fill="#3B087D"/>
<path d="M815.427 257.568C804.299 257.568 795.265 269.912 795.265 285.143H835.589C835.589 269.912 826.555 257.568 815.427 257.568Z" fill="#3B087D"/>
<path d="M734.8 257.568C723.672 257.568 714.639 269.912 714.639 285.143H754.962C754.962 269.912 745.928 257.568 734.8 257.568Z" fill="#3B087D"/>
<path d="M775.103 257.568C763.975 257.568 754.941 269.912 754.941 285.143H795.265C795.265 269.912 786.231 257.568 775.103 257.568Z" fill="#3B087D"/>
<path d="M351.744 268.146C340.616 268.146 331.583 277.624 331.583 289.301H371.906C371.906 277.624 362.872 268.146 351.744 268.146Z" fill="#F053DC"/>
<path d="M311.421 268.146C300.293 268.146 291.259 277.624 291.259 289.301H331.583C331.583 277.624 322.549 268.146 311.421 268.146Z" fill="#F053DC"/>
<path d="M271.097 268.146C259.969 268.146 250.935 277.624 250.935 289.301H291.259C291.259 277.624 282.225 268.146 271.097 268.146Z" fill="#F053DC"/>
<path d="M472.717 268.146C461.589 268.146 452.555 277.624 452.555 289.301H492.879C492.879 277.624 483.845 268.146 472.717 268.146Z" fill="#F053DC"/>
<path d="M392.069 268.146C380.941 268.146 371.907 277.624 371.907 289.301H412.231C412.231 277.624 403.197 268.146 392.069 268.146Z" fill="#F053DC"/>
<path d="M230.794 268.146C219.666 268.146 210.633 277.624 210.633 289.301H250.956C250.956 277.624 241.922 268.146 230.794 268.146Z" fill="#F053DC"/>
<path d="M432.393 268.146C421.265 268.146 412.231 277.624 412.231 289.301H452.554C452.554 277.624 443.521 268.146 432.393 268.146Z" fill="#F053DC"/>
<path d="M109.823 268.146C98.6951 268.146 89.6613 277.624 89.6613 289.301H129.985C129.985 277.624 120.951 268.146 109.823 268.146Z" fill="#F053DC"/>
<path d="M-11.1273 268.146C-22.2553 268.146 -31.2892 277.624 -31.2892 289.301H9.03455C9.03455 277.624 0.000730515 268.146 -11.1273 268.146Z" fill="#F053DC"/>
<path d="M190.471 268.146C179.343 268.146 170.309 277.624 170.309 289.301H210.633C210.633 277.624 201.599 268.146 190.471 268.146Z" fill="#F053DC"/>
<path d="M29.177 268.146C18.0489 268.146 9.01511 277.624 9.01511 289.301H49.3388C49.3388 277.624 40.305 268.146 29.177 268.146Z" fill="#F053DC"/>
<path d="M150.147 268.146C139.019 268.146 129.985 277.624 129.985 289.301H170.309C170.309 277.624 161.275 268.146 150.147 268.146Z" fill="#F053DC"/>
<path d="M513.019 268.146C501.891 268.146 492.858 277.624 492.858 289.301H533.181C533.181 277.624 524.147 268.146 513.019 268.146Z" fill="#F053DC"/>
<path d="M69.4995 268.146C58.3715 268.146 49.3377 277.624 49.3377 289.301H89.6614C89.6614 277.624 80.6276 268.146 69.4995 268.146Z" fill="#F053DC"/>
<path d="M633.99 268.146C622.862 268.146 613.828 277.624 613.828 289.301H654.152C654.152 277.624 645.118 268.146 633.99 268.146Z" fill="#F053DC"/>
<path d="M674.314 268.146C663.186 268.146 654.153 277.624 654.153 289.301H694.476C694.476 277.624 685.442 268.146 674.314 268.146Z" fill="#F053DC"/>
<path d="M714.638 268.146C703.51 268.146 694.476 277.624 694.476 289.301H734.8C734.8 277.624 725.766 268.146 714.638 268.146Z" fill="#F053DC"/>
<path d="M553.343 268.146C542.215 268.146 533.181 277.624 533.181 289.301H573.505C573.505 277.624 564.471 268.146 553.343 268.146Z" fill="#F053DC"/>
<path d="M593.667 268.146C582.539 268.146 573.505 277.624 573.505 289.301H613.828C613.828 277.624 604.795 268.146 593.667 268.146Z" fill="#F053DC"/>
<path d="M835.588 268.146C824.46 268.146 815.426 277.624 815.426 289.301H855.75C855.75 277.624 846.716 268.146 835.588 268.146Z" fill="#F053DC"/>
<path d="M754.962 268.146C743.834 268.146 734.8 277.624 734.8 289.301H775.123C775.123 277.624 766.09 268.146 754.962 268.146Z" fill="#F053DC"/>
<path d="M795.264 268.146C784.136 268.146 775.102 277.624 775.102 289.301H815.426C815.426 277.624 806.392 268.146 795.264 268.146Z" fill="#F053DC"/>
<path d="M355.4 286.479H317.745V325.989H355.4V286.479Z" fill="#3B087D"/>
<path d="M325.466 310.37H288.078V341.004H325.466V310.37Z" fill="#3B087D"/>
</g>
</g>
<path d="M483.29 362.828H447.812V352.681C448.9 351.992 450.337 351.022 452.123 349.794C453.909 348.566 455.819 347.166 457.831 345.615C459.843 344.064 461.711 342.491 463.395 340.919C465.797 338.7 467.645 336.61 468.959 334.671C470.273 332.732 470.93 330.729 470.93 328.704C470.93 326.679 470.252 324.977 468.877 323.555C467.501 322.155 465.53 321.444 462.943 321.444C458.57 321.444 455.449 323.49 453.56 327.583C451.815 326.894 450.44 325.968 449.434 324.804C448.427 323.641 447.914 322.392 447.914 321.077C447.914 320.388 448.037 319.634 448.304 318.815C448.571 317.997 448.9 317.264 449.331 316.64C450.563 314.808 452.534 313.365 455.265 312.309C457.995 311.254 460.993 310.715 464.298 310.715C468.056 310.715 471.341 311.426 474.133 312.826C476.925 314.227 479.101 316.166 480.621 318.6C482.14 321.034 482.92 323.856 482.92 327.066C482.92 329.544 482.448 331.978 481.504 334.434C480.559 336.89 479.245 339.152 477.562 341.285C476.72 342.319 475.673 343.461 474.42 344.732C473.168 345.981 471.874 347.209 470.54 348.394C469.205 349.579 467.912 350.634 466.7 351.582H483.269V362.828H483.29Z" fill="#BEF3FC"/>
<path d="M495.136 357.075C491.522 352.357 489.715 345.808 489.715 337.428C489.715 329.048 491.522 322.499 495.136 317.781C498.749 313.063 503.841 310.715 510.37 310.715C516.899 310.715 521.991 313.063 525.604 317.781C529.218 322.499 531.045 329.048 531.045 337.428C531.045 345.808 529.238 352.357 525.604 357.075C521.991 361.793 516.899 364.141 510.37 364.141C503.841 364.141 498.749 361.793 495.136 357.075ZM516.919 348.867C518.418 346.239 519.178 342.426 519.178 337.428C519.178 332.43 518.418 328.639 516.919 325.989C515.421 323.361 513.224 322.025 510.37 322.025C507.516 322.025 505.319 323.339 503.82 325.989C502.322 328.639 501.562 332.43 501.562 337.428C501.562 342.426 502.322 346.218 503.82 348.867C505.319 351.517 507.516 352.831 510.37 352.831C513.224 352.831 515.421 351.517 516.919 348.867Z" fill="#BEF3FC"/>
<path d="M570.445 362.827H534.967V352.681C536.055 351.991 537.492 351.022 539.278 349.794C541.065 348.566 542.974 347.166 544.986 345.614C546.998 344.063 548.867 342.491 550.55 340.918C552.952 338.699 554.8 336.609 556.114 334.671C557.428 332.732 558.085 330.728 558.085 328.703C558.085 326.678 557.408 324.976 556.032 323.554C554.656 322.154 552.685 321.443 550.099 321.443C545.725 321.443 542.605 323.49 540.716 327.583C538.97 326.894 537.595 325.967 536.589 324.804C535.583 323.641 535.069 322.391 535.069 321.077C535.069 320.388 535.193 319.634 535.46 318.815C535.727 317.996 536.055 317.264 536.486 316.639C537.718 314.808 539.689 313.365 542.42 312.309C545.15 311.253 548.148 310.715 551.454 310.715C555.211 310.715 558.496 311.426 561.288 312.826C564.08 314.226 566.257 316.165 567.776 318.599C569.295 321.034 570.076 323.856 570.076 327.066C570.076 329.543 569.603 331.978 568.659 334.434C567.714 336.89 566.4 339.152 564.717 341.284C563.875 342.318 562.828 343.46 561.576 344.731C560.323 345.981 559.03 347.209 557.695 348.394C556.361 349.578 555.067 350.634 553.856 351.582H570.425V362.827H570.445Z" fill="#BEF3FC"/>
<path d="M596.684 328.036C596.971 327.992 597.279 327.949 597.628 327.928C597.978 327.906 598.244 327.885 598.429 327.885C601.776 327.885 604.691 328.574 607.176 329.953C609.66 331.332 611.61 333.292 612.986 335.791C614.362 338.29 615.06 341.285 615.06 344.753C615.06 348.458 614.238 351.776 612.596 354.706C610.953 357.636 608.674 359.941 605.759 361.621C602.843 363.302 599.476 364.142 595.678 364.142C591.88 364.142 588.595 363.345 585.741 361.729C582.866 360.135 580.628 357.916 579.006 355.072C577.384 352.228 576.584 348.975 576.584 345.27C576.584 342.319 577.2 339.324 578.452 336.308C579.705 333.292 581.758 329.781 584.632 325.73L592.947 314.033C594.487 311.814 596.54 310.693 599.086 310.693C600.503 310.693 601.919 310.995 603.357 311.577C604.794 312.18 605.882 312.891 606.642 313.731L596.705 328.014L596.684 328.036ZM601.406 351.022C602.905 349.471 603.665 347.467 603.665 344.99C603.665 342.512 602.905 340.509 601.406 338.958C599.907 337.407 597.977 336.631 595.616 336.631C593.255 336.631 591.346 337.407 589.826 338.958C588.328 340.509 587.568 342.512 587.568 344.99C587.568 347.467 588.328 349.471 589.826 351.022C591.325 352.573 593.255 353.349 595.616 353.349C597.977 353.349 599.887 352.573 601.406 351.022Z" fill="#BEF3FC"/>
<defs>
<linearGradient id="paint0_linear_2449_3490" x1="208.806" y1="102.459" x2="531.19" y2="102.459" gradientUnits="userSpaceOnUse">
<stop stop-color="#FED220" stop-opacity="0"/>
<stop offset="1" stop-color="#FED220"/>
</linearGradient>
<radialGradient id="paint1_radial_2449_3490" cx="0" cy="0" r="1" gradientUnits="userSpaceOnUse" gradientTransform="translate(174.189 202.419) scale(304.317 319.311)">
<stop offset="0.35" stop-color="#3B087D"/>
<stop offset="0.79" stop-color="#AA2500"/>
</radialGradient>
<radialGradient id="paint2_radial_2449_3490" cx="0" cy="0" r="1" gradientUnits="userSpaceOnUse" gradientTransform="translate(174.189 202.419) scale(304.317 319.311)">
<stop offset="0.35" stop-color="#3B087D"/>
<stop offset="0.79" stop-color="#AA2500"/>
</radialGradient>
</defs>
</svg>
