<svg width="1440" height="1584" viewBox="0 0 1440 1584" fill="none" xmlns="http://www.w3.org/2000/svg">
<path d="M28.8071 42H-42.0732L-33.2132 1382.11H172.361L191.853 770.833L110.319 206.59H51.8432L28.8071 42Z" fill="url(#paint0_linear_2721_200)"/>
<path d="M206.029 620.656H-38.5508V1465.75H369.075V1349.49L287.541 785.246H229.065L206.029 620.656Z" fill="url(#paint1_linear_2721_200)"/>
<path d="M6.36719 262.95L34.7197 495.464H76.3721L89.9785 776.27H93.1953L121.548 1008.78L121.569 1008.74H194.222L227.89 1301.33H109.239L81.5879 1541.63H21.7803L21.7627 1541.59L-1.57715 1733H-111V1300.77H-39.7266V776.27H21.0283L-40.6016 765.827V262.95H6.36719Z" fill="url(#paint2_linear_2721_200)"/>
<path d="M220.206 870.13L287.542 785.245H-46.5137L-40.301 914.536H50.0714L99.6877 870.13H220.206Z" fill="#2EB2EF"/>
<path d="M44.754 269.293L110.318 204H-42.0957V308.477L-3.11152 269.293H44.754Z" fill="#2EB2EF"/>
<path d="M1459.89 221.591H1561.34L1548.66 1397.96H1254.41L1226.51 861.371L1343.21 366.071H1426.91L1459.89 221.591Z" fill="url(#paint3_linear_2721_200)"/>
<path d="M1206.22 729.506H1556.3V1471.34H972.838V1369.29L1089.54 873.985H1173.24L1206.22 729.506Z" fill="url(#paint4_linear_2721_200)"/>
<path d="M1393.87 1562.49L1201.26 1577L1243.39 1234.99H1296.36L1321.64 921.944H1393.87V1562.49ZM1390 871.546L1236.11 874.325L1269.76 808.832H1312.09L1332.29 748.888H1390V871.546ZM1437.03 746.704H1294.96L1368.51 437.136H1404.05L1437.03 746.704Z" fill="url(#paint5_linear_2721_200)"/>
<path d="M1427.55 873.985H1090.15L1078.72 920.996H1213.79L1237.75 955.392H1396.45L1427.52 873.985H1427.55Z" fill="#2EB2EF"/>
<path d="M1401.55 731.816L1207.5 728.369L1199.89 758.182H1307.95L1325.76 795.512L1376.18 792.578L1401.55 731.816Z" fill="#2EB2EF"/>
<path d="M1537.46 369.058L1343.41 365.611L1335.8 395.423H1443.85L1461.67 432.753L1512.09 429.82L1537.46 369.058Z" fill="#2EB2EF"/>
<path d="M1516.05 79H1617.5L1604.82 1059.33H1310.57L1282.67 612.161L1399.37 199.402H1483.07L1516.05 79Z" fill="#27084F"/>
<path d="M1262.38 502.271H1612.46V1120.48H1029V1035.43L1145.7 622.673H1229.41L1262.38 502.271Z" fill="#27084F"/>
<path d="M1450.03 1196.44L1257.42 1208.53L1299.55 923.515H1352.52L1377.8 662.639H1450.03V1196.44ZM1446.16 620.641L1292.27 622.956L1325.93 568.378H1368.25L1388.45 518.423H1446.16V620.641ZM1493.19 516.603H1351.12L1424.68 258.625H1460.22L1493.19 516.603Z" fill="url(#paint6_linear_2721_200)"/>
<path d="M1483.72 622.673H1146.32L1134.89 661.849H1269.96L1293.92 690.514H1452.61L1483.69 622.673H1483.72Z" fill="#2EB2EF"/>
<path d="M1457.71 504.196L1263.66 501.324L1256.05 526.168H1364.11L1381.92 557.277L1432.35 554.832L1457.71 504.196Z" fill="#2EB2EF"/>
<path d="M1593.62 201.891L1399.57 199.019L1391.96 223.863H1500.02L1517.83 254.972L1568.25 252.527L1593.62 201.891Z" fill="#2EB2EF"/>
<path d="M1341.34 647.391H1324.36C1324.36 647.391 1315.47 640.23 1315.47 633.032C1315.47 624.796 1327.02 625.319 1327.02 620.197C1327.02 616.785 1318.58 618.598 1318.58 607.549C1318.58 599.995 1335.21 586.898 1335.73 586.487C1335.55 586.88 1330.12 598.537 1330.12 603.949C1330.12 612.036 1341.67 615.354 1341.67 621.141C1341.67 628.517 1331.64 624.114 1331.64 633.63C1331.64 643.146 1341.34 647.391 1341.34 647.391Z" fill="url(#paint7_linear_2721_200)"/>
<path d="M1335.3 621.618C1334.23 624.749 1330.31 624.983 1327.98 626.591C1324.26 628.75 1324.04 633.677 1324.95 637.463C1325.91 641.333 1328.28 644.708 1331.25 647.39H1330.64C1327.63 644.81 1325.21 641.548 1324.07 637.696C1322.87 633.518 1323.18 628.002 1327.25 625.478C1329.22 623.917 1332.89 623.534 1333.72 621.141C1334.34 618.486 1331.98 616.728 1329.85 615.466C1327.4 613.905 1324.44 612.316 1323.43 609.25C1322.06 604.809 1324.62 599.986 1328.11 597.434L1328.23 597.574C1326.39 599.603 1324.9 602.145 1324.59 604.866C1324.25 607.549 1325.09 610.007 1327.39 611.559C1330.4 613.784 1336.86 616.355 1335.3 621.618Z" fill="#3B087D"/>
<path d="M1365.89 653.675H1352.95C1352.95 653.675 1346.17 648.217 1346.17 642.73C1346.17 636.453 1354.97 636.852 1354.97 632.947C1354.97 630.346 1348.53 631.729 1348.53 623.306C1348.53 617.549 1361.21 607.566 1361.61 607.253C1361.47 607.552 1357.33 616.438 1357.33 620.563C1357.33 626.727 1366.13 629.256 1366.13 633.667C1366.13 639.289 1358.49 635.933 1358.49 643.186C1358.49 650.44 1365.89 653.675 1365.89 653.675Z" fill="url(#paint8_linear_2721_200)"/>
<path d="M1361.28 634.03C1360.46 636.417 1357.48 636.596 1355.7 637.821C1352.87 639.467 1352.7 643.222 1353.39 646.108C1354.13 649.058 1355.93 651.63 1358.2 653.675H1357.73C1355.44 651.709 1353.59 649.222 1352.72 646.286C1351.8 643.101 1352.05 638.897 1355.15 636.973C1356.65 635.783 1359.44 635.491 1360.08 633.667C1360.55 631.643 1358.75 630.304 1357.13 629.342C1355.26 628.152 1353 626.941 1352.23 624.603C1351.19 621.219 1353.14 617.542 1355.8 615.597L1355.89 615.704C1354.49 617.25 1353.36 619.188 1353.12 621.262C1352.86 623.307 1353.5 625.181 1355.25 626.363C1357.55 628.059 1362.47 630.019 1361.28 634.03Z" fill="#3B087D"/>
<path d="M66.1367 843.049H33.2317C33.2317 843.049 16 829.169 16 815.217C16 799.254 38.3776 800.268 38.3776 790.339C38.3776 783.725 22.0157 787.241 22.0157 765.823C22.0157 751.183 54.2503 725.797 55.265 725C54.9207 725.761 44.3933 748.356 44.3933 758.847C44.3933 774.521 66.7709 780.953 66.7709 792.169C66.7709 806.465 47.3286 797.931 47.3286 816.377C47.3286 834.822 66.1367 843.049 66.1367 843.049Z" fill="url(#paint9_linear_2721_200)"/>
<path d="M54.4314 793.093C52.3477 799.163 44.7556 799.616 40.2439 802.733C33.0323 806.918 32.6155 816.467 34.3731 823.806C36.2394 831.307 40.8237 837.848 46.5857 843.049H45.4079C39.5734 838.048 34.8805 831.724 32.6699 824.259C30.3325 816.159 30.9485 805.469 38.8305 800.577C42.6538 797.551 49.7566 796.808 51.3692 792.169C52.5651 787.023 47.999 783.617 43.8678 781.171C39.1204 778.145 33.3766 775.064 31.4197 769.121C28.7742 760.514 33.7208 751.165 40.4975 746.218L40.7331 746.49C37.1635 750.422 34.2825 755.35 33.6665 760.623C33.0142 765.823 34.6449 770.589 39.1023 773.597C44.9368 777.909 57.4574 782.892 54.4314 793.093Z" fill="#3B087D"/>
<path d="M159.715 845.952H134.634C134.634 845.952 121.5 835.373 121.5 824.738C121.5 812.571 138.557 813.344 138.557 805.776C138.557 800.735 126.085 803.414 126.085 787.089C126.085 775.93 150.655 756.58 151.429 755.973C151.166 756.553 143.142 773.775 143.142 781.772C143.142 793.719 160.199 798.622 160.199 807.171C160.199 818.068 145.38 811.563 145.38 825.622C145.38 839.682 159.715 845.952 159.715 845.952Z" fill="url(#paint10_linear_2721_200)"/>
<path d="M150.794 807.875C149.206 812.502 143.419 812.847 139.98 815.223C134.483 818.413 134.166 825.692 135.505 831.285C136.928 837.003 140.422 841.989 144.814 845.952H143.916C139.469 842.141 135.892 837.321 134.207 831.63C132.425 825.457 132.895 817.308 138.903 813.579C141.817 811.273 147.231 810.706 148.46 807.171C149.372 803.248 145.891 800.652 142.742 798.787C139.124 796.481 134.746 794.133 133.254 789.603C131.238 783.043 135.008 775.916 140.173 772.146L140.353 772.353C137.632 775.35 135.436 779.106 134.967 783.126C134.469 787.089 135.712 790.722 139.11 793.014C143.557 796.301 153.101 800.099 150.794 807.875Z" fill="#3B087D"/>
<defs>
<linearGradient id="paint0_linear_2721_200" x1="74.89" y1="42" x2="74.89" y2="1382.11" gradientUnits="userSpaceOnUse">
<stop offset="0.908654" stop-color="#27084F"/>
<stop offset="1" stop-color="#27084F" stop-opacity="0"/>
</linearGradient>
<linearGradient id="paint1_linear_2721_200" x1="165.262" y1="620.656" x2="165.262" y2="1465.75" gradientUnits="userSpaceOnUse">
<stop offset="0.625" stop-color="#27084F"/>
<stop offset="1" stop-color="#27084F" stop-opacity="0"/>
</linearGradient>
<linearGradient id="paint2_linear_2721_200" x1="58.4448" y1="262.95" x2="58" y2="1566" gradientUnits="userSpaceOnUse">
<stop offset="0.341346" stop-color="#150F28"/>
<stop offset="1" stop-color="#150F28" stop-opacity="0"/>
</linearGradient>
<linearGradient id="paint3_linear_2721_200" x1="1393.92" y1="221.591" x2="1393.92" y2="1397.96" gradientUnits="userSpaceOnUse">
<stop offset="0.625" stop-color="#27084F"/>
<stop offset="1" stop-color="#27084F" stop-opacity="0"/>
</linearGradient>
<linearGradient id="paint4_linear_2721_200" x1="1264.57" y1="729.506" x2="1264.57" y2="1471.34" gradientUnits="userSpaceOnUse">
<stop offset="0.625" stop-color="#27084F"/>
<stop offset="1" stop-color="#27084F" stop-opacity="0"/>
</linearGradient>
<linearGradient id="paint5_linear_2721_200" x1="1319.14" y1="437.136" x2="1318.76" y2="1447.51" gradientUnits="userSpaceOnUse">
<stop offset="0.341346" stop-color="#150F28"/>
<stop offset="1" stop-color="#150F28" stop-opacity="0"/>
</linearGradient>
<linearGradient id="paint6_linear_2721_200" x1="1375.31" y1="258.625" x2="1375.31" y2="1208.53" gradientUnits="userSpaceOnUse">
<stop offset="0.5" stop-color="#150F28"/>
<stop offset="1" stop-color="#150F28" stop-opacity="0"/>
</linearGradient>
<linearGradient id="paint7_linear_2721_200" x1="1328.57" y1="707.415" x2="1328.57" y2="602.902" gradientUnits="userSpaceOnUse">
<stop offset="0.35" stop-color="#3B087D"/>
<stop offset="0.79" stop-color="#119400"/>
</linearGradient>
<linearGradient id="paint8_linear_2721_200" x1="1356.15" y1="699.427" x2="1356.15" y2="619.765" gradientUnits="userSpaceOnUse">
<stop offset="0.35" stop-color="#3B087D"/>
<stop offset="0.79" stop-color="#119400"/>
</linearGradient>
<linearGradient id="paint9_linear_2721_200" x1="41.3854" y1="959.394" x2="41.3854" y2="756.818" gradientUnits="userSpaceOnUse">
<stop offset="0.35" stop-color="#3B087D"/>
<stop offset="0.79" stop-color="#119400"/>
</linearGradient>
<linearGradient id="paint10_linear_2721_200" x1="140.849" y1="934.634" x2="140.849" y2="780.225" gradientUnits="userSpaceOnUse">
<stop offset="0.35" stop-color="#3B087D"/>
<stop offset="0.79" stop-color="#119400"/>
</linearGradient>
</defs>
</svg>
