<svg width="291" height="186" viewBox="0 0 291 186" fill="none" xmlns="http://www.w3.org/2000/svg">
<path d="M120.334 159.461V181.359C120.334 182.738 118.664 183.416 117.696 182.424L111.235 175.721C108.041 181.625 99.4028 185.86 89.2399 185.86C76.3428 185.86 65.9138 179.06 65.9138 170.688C65.9138 162.316 76.3428 155.541 89.2399 155.541C99.3302 155.541 107.896 159.702 111.163 165.51L117.672 158.42C118.615 157.404 120.334 158.057 120.334 159.461Z" fill="#3B087D"/>
<path d="M73.802 167.083C75.7862 167.083 76.2702 168.68 76.2702 170.664C76.2702 172.648 75.7862 174.245 73.802 174.245C71.8178 174.245 70.2208 172.648 70.2208 170.664C70.2208 168.68 71.8178 167.083 73.802 167.083Z" fill="#FED220"/>
<path d="M120.334 88.7316V110.63C120.334 112.009 118.664 112.687 117.696 111.695L111.235 104.992C108.041 110.896 99.4028 115.131 89.2399 115.131C76.3428 115.131 65.9138 108.331 65.9138 99.9592C65.9138 91.5869 76.3428 84.8117 89.2399 84.8117C99.3302 84.8117 107.896 88.9736 111.163 94.781L117.672 87.6911C118.615 86.6749 120.334 87.3282 120.334 88.7316Z" fill="#3B087D"/>
<path d="M73.802 96.378C75.7862 96.378 76.2702 97.975 76.2702 99.9592C76.2702 101.943 75.7862 103.54 73.802 103.54C71.8178 103.54 70.2208 101.943 70.2208 99.9592C70.2208 97.975 71.8178 96.378 73.802 96.378Z" fill="#FED220"/>
<path d="M54.42 123.31V145.208C54.42 146.587 52.7503 147.265 51.7824 146.273L45.3218 139.57C42.1278 145.474 33.4893 149.709 23.3264 149.709C10.4293 149.709 0.000183105 142.909 0.000183105 134.537C0.000183105 126.165 10.4293 119.39 23.3264 119.39C33.4167 119.39 41.9826 123.552 45.2492 129.359L51.7583 122.269C52.702 121.253 54.42 121.906 54.42 123.31Z" fill="#3B087D"/>
<path d="M7.86424 130.956C9.84842 130.956 10.3324 132.553 10.3324 134.537C10.3324 136.521 9.84842 138.118 7.86424 138.118C5.88006 138.118 4.28308 136.521 4.28308 134.537C4.28308 132.553 5.88006 130.956 7.86424 130.956Z" fill="#FED220"/>
<path d="M181.988 123.31V145.208C181.988 146.588 180.319 147.265 179.351 146.273L172.89 139.57C169.696 145.474 161.058 149.709 150.895 149.709C137.998 149.709 127.569 142.91 127.569 134.537C127.569 126.165 137.998 119.39 150.895 119.39C160.985 119.39 169.551 123.552 172.818 129.359L179.327 122.269C180.27 121.253 181.988 121.906 181.988 123.31Z" fill="#3B087D"/>
<path d="M135.433 130.956C137.417 130.956 137.901 132.553 137.901 134.537C137.901 136.521 137.417 138.118 135.433 138.118C133.448 138.118 131.851 136.521 131.851 134.537C131.851 132.553 133.448 130.956 135.433 130.956Z" fill="#FED220"/>
<path d="M267.041 132.19V154.089C267.041 155.468 265.372 156.145 264.404 155.153L257.943 148.451C254.749 154.355 246.111 158.589 235.948 158.589C223.051 158.589 212.622 151.79 212.622 143.418C212.622 135.045 223.051 128.27 235.948 128.27C246.038 128.27 254.604 132.432 257.871 138.239L264.38 131.15C265.323 130.133 267.041 130.787 267.041 132.19Z" fill="#3B087D"/>
<path d="M220.486 139.836C222.47 139.836 222.954 141.433 222.954 143.418C222.954 145.402 222.47 146.999 220.486 146.999C218.502 146.999 216.905 145.402 216.905 143.418C216.905 141.433 218.502 139.836 220.486 139.836Z" fill="#FED220"/>
<path d="M228.738 74.6487V96.5473C228.738 97.9266 227.068 98.6041 226.1 97.612L219.639 90.9093C216.445 96.8135 207.807 101.048 197.644 101.048C184.747 101.048 174.318 94.2486 174.318 85.8763C174.318 77.504 184.747 70.7288 197.644 70.7288C207.734 70.7288 216.3 74.8907 219.567 80.6981L226.076 73.6083C227.02 72.592 228.738 73.2453 228.738 74.6487Z" fill="#3B087D"/>
<path d="M182.206 82.271C184.19 82.271 184.674 83.868 184.674 85.8522C184.674 87.8364 184.19 89.4334 182.206 89.4334C180.222 89.4334 178.625 87.8364 178.625 85.8522C178.625 83.868 180.222 82.271 182.206 82.271Z" fill="#FED220"/>
<path d="M228.738 3.92002V25.8186C228.738 27.1978 227.068 27.8754 226.1 26.8833L219.639 20.1806C216.445 26.0848 207.807 30.3193 197.644 30.3193C184.747 30.3193 174.318 23.5199 174.318 15.1476C174.318 6.77531 184.747 6.10352e-05 197.644 6.10352e-05C207.734 6.10352e-05 216.3 4.162 219.567 9.96936L226.076 2.87954C227.02 1.86325 228.738 2.51658 228.738 3.92002Z" fill="#3B087D"/>
<path d="M182.206 11.5663C184.19 11.5663 184.674 13.1633 184.674 15.1475C184.674 17.1317 184.19 18.7287 182.206 18.7287C180.222 18.7287 178.625 17.1317 178.625 15.1475C178.625 13.1633 180.222 11.5663 182.206 11.5663Z" fill="#FED220"/>
<path d="M162.824 38.4981V60.3967C162.824 61.776 161.155 62.4535 160.187 61.4614L153.726 54.7588C150.532 60.6629 141.894 64.8974 131.731 64.8974C118.834 64.8974 108.405 58.098 108.405 49.7257C108.405 41.3534 118.834 34.5782 131.731 34.5782C141.821 34.5782 150.387 38.7401 153.654 44.5475L160.163 37.4577C161.106 36.4414 162.824 37.0947 162.824 38.4981Z" fill="#3B087D"/>
<path d="M116.268 46.1442C118.253 46.1442 118.737 47.7412 118.737 49.7254C118.737 51.7095 118.253 53.3066 116.268 53.3066C114.284 53.3066 112.687 51.7095 112.687 49.7254C112.687 47.7412 114.284 46.1442 116.268 46.1442Z" fill="#FED220"/>
<path d="M290.392 38.498V60.3965C290.392 61.7758 288.723 62.4533 287.755 61.4612L281.294 54.7586C278.1 60.6627 269.461 64.8972 259.299 64.8972C246.401 64.8972 235.972 58.0978 235.972 49.7255C235.972 41.3532 246.401 34.578 259.299 34.578C269.389 34.578 277.955 38.7399 281.221 44.5473L287.73 37.4575C288.674 36.4412 290.392 37.0945 290.392 38.498Z" fill="#3B087D"/>
<path d="M243.837 46.1442C245.821 46.1442 246.305 47.7412 246.305 49.7254C246.305 51.7095 245.821 53.3066 243.837 53.3066C241.853 53.3066 240.256 51.7095 240.256 49.7254C240.256 47.7412 241.853 46.1442 243.837 46.1442Z" fill="#FED220"/>
</svg>
