<svg width="514" height="198" viewBox="0 0 514 198" fill="none" xmlns="http://www.w3.org/2000/svg">
<path d="M0 197.614L322.384 118.896V99.421L0 7.30298" fill="url(#paint0_linear_2_172)" style="mix-blend-mode:screen"/>
<path d="M397.53 30.8064C397.099 25.1837 396.072 11.0299 395.682 5.75185C395.6 4.61007 394.696 3.72681 393.588 3.72681H368.663C367.513 3.72681 366.568 4.71778 366.568 5.92419V11.827C366.568 13.0334 367.513 14.0244 368.663 14.0244H379.832C381.064 14.0244 382.028 15.1231 381.926 16.4157L380.756 30.8064C380.653 32.0775 381.618 33.1977 382.85 33.1977H395.456C396.667 33.1977 397.632 32.1205 397.55 30.8495L397.53 30.8064Z" fill="#3B087D"/>
<path d="M365.439 17.6222C368.466 17.6222 370.921 13.6773 370.921 8.81111C370.921 3.94487 368.466 0 365.439 0C362.411 0 359.957 3.94487 359.957 8.81111C359.957 13.6773 362.411 17.6222 365.439 17.6222Z" fill="#3B087D"/>
<path d="M364.782 14.9507C366.699 14.9507 368.252 12.2018 368.252 8.81091C368.252 5.42001 366.699 2.67114 364.782 2.67114C362.866 2.67114 361.312 5.42001 361.312 8.81091C361.312 12.2018 362.866 14.9507 364.782 14.9507Z" fill="#6EF1FA"/>
<path d="M472.08 108.297C472.08 119.779 468.857 130.615 463.21 140.181C449.844 162.822 422.907 178.333 393.26 178.333C370.285 178.333 348.85 171.892 334.129 158.169C333.37 157.48 332.631 156.747 331.933 156.015C331.481 155.541 331.029 155.067 330.577 154.571C330.475 154.571 330.352 154.571 330.249 154.571C312.305 153.947 292.102 133.05 292.102 107.349C292.102 81.6481 312.654 60.4713 330.701 60.1266C330.844 60.1266 331.009 60.1266 331.152 60.1266C332.405 58.7909 333.739 57.5199 335.115 56.3134C343.471 49.0104 354.045 43.9908 366.302 41.1256C367.863 40.7594 369.464 40.4147 371.106 40.1346C372.687 39.833 374.268 39.596 375.911 39.3591C378.251 39.0359 380.633 38.7774 383.076 38.6051C386.382 38.3465 389.811 38.2173 393.28 38.2173C393.445 38.2173 393.629 38.2173 393.814 38.2173C399.317 38.2388 404.737 38.8205 409.993 39.8761C444.691 46.813 472.142 74.8189 472.142 108.275L472.08 108.297Z" fill="#3578A7"/>
<path d="M407.097 52.5649H369.524C367.019 52.5649 365.11 49.8505 365.5 46.8776L367.307 33.3055C367.615 30.9142 369.319 29.1692 371.331 29.1692H404.797C406.727 29.1692 408.39 30.8065 408.78 33.09L411.1 46.6621C411.614 49.7213 409.684 52.5649 407.117 52.5649H407.097Z" fill="#3B087D"/>
<path d="M338.975 75.0986C335.402 68.7219 327.354 66.266 320.722 69.5405C310.723 74.4523 297.316 84.8361 297.316 105.173C297.316 123.334 308.013 135.678 317.417 143.002C324.603 148.604 335.176 145.954 338.749 137.681C342.342 129.344 345.894 117.883 345.894 105.173C345.894 91.0836 342.506 81.3677 338.995 75.0986H338.975Z" fill="#3B087D"/>
<path d="M335.072 56.314C341.971 58.8991 347.781 64.4141 350.82 71.4156C351.272 72.6651 351.867 74.0439 352.216 75.3365L352.853 78.0078C353.284 79.5589 353.407 81.7994 353.633 83.4151C353.715 85.2247 353.715 87.0344 353.756 88.8224H351.58C351.395 86.345 351.231 83.6306 350.676 81.1962C350.533 80.356 350.389 79.5158 350.101 78.7403C347.617 69.089 340.123 61.6136 330.617 60.2133V60.1486L335.052 56.3355L335.072 56.314Z" fill="#3B087D"/>
<path d="M353.654 132.081C353.695 133.654 353.572 135.248 353.264 136.799C350.985 146.881 342.649 153.689 334.108 158.17C332.876 157.028 331.685 155.821 330.536 154.572C330.433 154.572 330.31 154.572 330.207 154.572C339.816 150.996 351.046 143.887 351.724 132.081H353.654Z" fill="#3B087D"/>
<path d="M354.66 100.606C356.61 106.832 356.918 113.855 354.66 120.038L351.847 119.65C351.416 116.505 351.416 113.446 351.416 110.322C351.457 107.177 351.457 104.096 351.847 100.929L354.66 100.606Z" fill="#3B087D"/>
<path d="M404.51 37.1836C396.277 38.3469 387.982 38.5839 379.688 38.6485C378.661 38.6485 377.511 38.6916 376.526 39.0578C375.807 39.2517 375.253 39.7687 374.986 39.8549C374.596 41.8799 373.816 43.8404 373.015 45.7362L371.167 45.413C370.962 43.431 370.982 41.4706 371.065 39.5102L371.044 39.8549C370.962 38.39 371.66 37.0543 372.399 36.3003C374.37 34.2106 377.019 33.5212 379.708 33.6074C382.46 33.629 385.231 33.6505 387.982 33.7582C393.505 33.9521 399.028 34.2968 404.531 35.0723V37.162L404.51 37.1836Z" fill="#3578A7"/>
<path d="M474.029 96.125C476.37 104.419 476.37 112.713 474.029 120.986C481.934 121.373 488.011 114.35 487.395 107.349C486.841 101.08 481.031 95.6726 474.029 96.1035V96.125Z" fill="#3B087D"/>
<path d="M492.323 106.078C490.229 106.444 488.833 104.419 490.106 102.89C492.939 99.4643 497.538 94.6602 502.342 92.4413C511.643 88.1542 517.535 93.7123 510.185 99.0119C504.19 103.342 497.045 105.238 492.323 106.078Z" fill="#FED220"/>
<path d="M492.323 110.516C490.229 110.15 488.833 112.175 490.106 113.704C492.939 117.13 497.538 121.934 502.342 124.153C511.643 128.44 517.535 122.882 510.185 117.582C504.19 113.252 497.045 111.356 492.323 110.516Z" fill="#FED220"/>
<path d="M452.594 131.499H444.505V109.977H420.585V131.499H412.496V86.517C412.496 85.2891 412.886 84.3196 413.687 83.6302C414.488 82.9409 415.514 82.5962 416.787 82.5962C417.424 82.5962 418.06 82.6824 418.717 82.8547C419.374 83.027 419.99 83.2209 420.585 83.4579V102.2H444.505V86.517C444.505 85.2891 444.895 84.3196 445.695 83.6302C446.496 82.9409 447.523 82.5962 448.796 82.5962C449.432 82.5962 450.069 82.6824 450.726 82.8547C451.383 83.027 451.999 83.2209 452.594 83.4579V131.499Z" fill="white"/>
<path d="M373.262 86.5169C373.262 83.2854 374.925 81.6697 378.23 81.6697H402.355C405.065 81.6697 406.44 82.9623 406.44 85.5259C406.44 86.9477 406.091 88.2619 405.414 89.4467H381.495V102.416H400.384C403.094 102.416 404.469 103.708 404.469 106.272C404.469 107.694 404.12 109.008 403.443 110.193H381.495V130.572H373.282V86.5169H373.262Z" fill="white"/>
<path d="M446.148 131.498H437.792C436.395 130.809 434.773 130.615 434.773 128.439C434.773 125.445 440.481 123.721 440.481 119.52C440.481 116.677 437.709 110.472 437.709 110.472C437.709 110.472 446.189 117.409 446.189 121.394C446.189 127.125 442.021 126.177 442.021 127.944C442.021 129.71 444.485 130.163 446.168 131.498H446.148Z" fill="#6EF1FA"/>
<path d="M453.969 127.728C453.969 129.236 454.421 130.486 455.016 131.498H447.42C446.619 130.292 445.982 128.849 445.982 127.427C445.982 123.161 451.69 123.441 451.69 120.77C451.69 119.003 447.522 119.951 447.522 114.221C447.522 110.257 456.002 103.299 456.002 103.299C456.002 103.299 453.23 109.503 453.23 112.347C453.23 116.548 458.938 118.249 458.938 121.265C458.938 125.079 453.99 122.817 453.99 127.728H453.969Z" fill="#6EF1FA"/>
<path d="M439.391 128.784C440.171 129.43 441.177 129.689 442.081 130.357C442.532 130.68 442.881 131.068 443.169 131.477H441.177C440.315 130.981 439.227 130.658 438.385 130.077C437.091 129.193 437.05 127.061 437.954 125.854C439.104 124.303 440.5 123.808 441.485 123.032C443.764 121.438 442.779 118.271 441.341 116.246L441.465 116.095C444.257 117.689 445.591 122.386 442.676 124.626C441.341 125.919 438.015 126.953 439.37 128.763L439.391 128.784Z" fill="#3B087D"/>
<path d="M455.283 122.924C453.887 123.915 451.793 124.131 451.177 125.682C450.417 127.621 450.684 129.646 451.526 131.477H450.643C450.027 130.292 449.658 128.978 449.658 127.556C449.576 125.94 450.233 124.066 451.608 123.161C452.512 122.472 453.518 122.213 454.298 121.589C455.632 119.779 452.327 118.745 450.992 117.452C448.077 115.212 449.411 110.516 452.183 108.921L452.306 109.072C450.869 111.097 449.884 114.264 452.163 115.858C453.148 116.634 454.544 117.129 455.694 118.68C456.577 119.887 456.536 122.02 455.242 122.924H455.283Z" fill="#3B087D"/>
<path d="M378.231 130.659H386.587C387.983 129.969 389.605 129.776 389.605 127.6C389.605 124.605 383.897 122.882 383.897 118.681C383.897 115.837 386.669 109.633 386.669 109.633C386.669 109.633 378.189 116.57 378.189 120.555C378.189 126.286 382.357 125.338 382.357 127.104C382.357 128.871 379.894 129.323 378.21 130.659H378.231Z" fill="#6EF1FA"/>
<path d="M370.387 126.889C370.387 128.397 369.935 129.646 369.339 130.659H376.936C377.737 129.452 378.373 128.009 378.373 126.587C378.373 122.322 372.666 122.602 372.666 119.93C372.666 118.164 376.833 119.112 376.833 113.381C376.833 109.417 368.354 102.459 368.354 102.459C368.354 102.459 371.126 108.663 371.126 111.507C371.126 115.708 365.418 117.41 365.418 120.426C365.418 124.239 370.366 121.977 370.366 126.889H370.387Z" fill="#6EF1FA"/>
<path d="M384.964 127.944C384.183 128.591 383.177 128.849 382.274 129.517C381.822 129.84 381.473 130.228 381.186 130.637H383.177C384.04 130.142 385.128 129.819 385.97 129.237C387.263 128.354 387.304 126.221 386.401 125.015C385.251 123.464 383.855 122.968 382.869 122.192C380.59 120.598 381.576 117.431 383.013 115.406L382.89 115.256C380.098 116.85 378.763 121.546 381.679 123.787C383.013 125.079 386.339 126.113 384.984 127.923L384.964 127.944Z" fill="#3B087D"/>
<path d="M369.074 122.106C370.47 123.097 372.564 123.312 373.18 124.864C373.94 126.802 373.673 128.827 372.831 130.659H373.714C374.33 129.474 374.7 128.16 374.7 126.738C374.782 125.122 374.125 123.248 372.749 122.343C371.846 121.654 370.84 121.395 370.059 120.77C368.725 118.961 372.03 117.927 373.365 116.634C376.28 114.394 374.946 109.697 372.174 108.103L372.051 108.254C373.488 110.279 374.474 113.446 372.195 115.04C371.209 115.815 369.813 116.311 368.663 117.862C367.78 119.068 367.822 121.201 369.115 122.106H369.074Z" fill="#3B087D"/>
<mask id="mask0_2_172" style="mask-type:luminance" maskUnits="userSpaceOnUse" x="297" y="68" width="49" height="78">
<path d="M338.975 75.0986C335.402 68.7219 327.354 66.266 320.722 69.5405C310.723 74.4523 297.316 84.8361 297.316 105.173C297.316 123.334 308.013 135.678 317.417 143.002C324.603 148.604 335.176 145.954 338.749 137.681C342.342 129.344 345.894 117.883 345.894 105.173C345.894 91.0836 342.506 81.3677 338.995 75.0986H338.975Z" fill="white"/>
</mask>
<g mask="url(#mask0_2_172)">
<path d="M315.221 86.1933C315.221 86.1933 319.183 81.9062 322.325 82.5741C325.466 83.2419 325.343 86.6672 325.343 86.6672L315.221 86.1933Z" fill="#D77D58"/>
<path d="M343.657 134.558C333.453 148.927 320.867 152.266 303.805 135.742L303.23 114.092C296.845 110.839 300.027 97.7835 303.497 96.8787C303.99 89.6833 312.736 85.5902 318.075 85.9995C323.413 86.4088 328.155 86.5165 328.155 86.5165C328.546 86.2149 336.984 86.732 340.31 90.4589C343.616 94.1428 336.738 98.0636 336.45 98.5806C336.45 98.5806 341.604 104.268 336.368 111.571L343.636 134.579L343.657 134.558Z" fill="#F3A370"/>
<path d="M316.576 99.4638C316.576 99.4638 317.172 97.2018 319.574 96.6847C321.976 96.1677 324.029 97.3741 324.029 97.3741" stroke="#C66544" stroke-width="0.78359" stroke-miterlimit="10" stroke-linecap="round"/>
<path d="M313.228 105.669C312.325 109.352 309.779 111.981 307.172 112.153C306.802 112.196 306.412 112.153 306.042 112.088C305.96 112.088 305.878 112.067 305.796 112.045C302.757 111.227 301.156 107.047 302.223 102.696C303.291 98.3439 306.617 95.5002 309.656 96.3189C312.695 97.1375 314.275 101.317 313.208 105.669H313.228Z" fill="#D77D58"/>
<path d="M314.788 111.506C314.788 111.506 314.357 112.971 311.955 113.876C309.922 114.652 307.848 113.381 307.212 112.928C307.007 110.149 307.315 107.478 308.136 104.72L307.048 104.354C306.185 107.241 305.877 110.063 306.103 112.971C305.713 113.294 304.625 114.005 303.126 113.316C301.196 112.433 300.744 109.611 300.744 109.567L299.615 109.761C299.636 109.912 300.17 113.273 302.674 114.415C302.921 114.522 303.147 114.608 303.373 114.673C304.953 115.104 306.144 114.415 306.699 113.984C307.15 114.307 307.992 114.802 309.06 115.082C310.025 115.341 311.174 115.427 312.345 114.975C315.342 113.833 315.856 111.873 315.876 111.786C316.123 110.838 315.014 110.537 314.788 111.485V111.506Z" fill="#C66544"/>
<path d="M336.409 98.6448C335.465 95.6934 334.007 90.006 327.93 86.4945C327.93 86.1283 339.592 86.5376 341.008 91.5571C342.24 95.9735 337.908 98.4078 336.409 98.6448Z" fill="#D77D58"/>
<path d="M309.698 103.514C309.575 103.277 309.287 103.169 309.041 103.299L307.501 104.16C307.501 104.16 307.46 104.203 307.439 104.225C307.398 104.225 307.357 104.225 307.316 104.225L306.413 102.825C306.269 102.588 305.961 102.545 305.756 102.695C305.53 102.846 305.489 103.169 305.633 103.385L306.598 104.871C305.941 107.263 306.002 109.654 306.064 112.067C306.433 112.153 306.803 112.174 307.193 112.131C307.111 109.718 307.398 107.37 308.076 104.979L309.513 104.16C309.739 104.031 309.842 103.729 309.718 103.471L309.698 103.514Z" fill="#C66544"/>
<path d="M325.464 100.649C327.097 100.649 328.421 100.157 328.421 99.5499C328.421 98.9431 327.097 98.4512 325.464 98.4512C323.831 98.4512 322.508 98.9431 322.508 99.5499C322.508 100.157 323.831 100.649 325.464 100.649Z" fill="#FF668B"/>
</g>
<path d="M463.188 140.18C449.822 162.822 422.885 178.333 393.237 178.333C370.263 178.333 348.828 171.892 334.107 158.169C333.347 157.48 332.608 156.747 331.91 156.015L344.578 150.198C344.578 150.198 370.345 155.648 409.273 155.648C434.444 155.648 452.655 149.142 463.209 140.159L463.188 140.18Z" fill="#3B087D"/>
<path d="M356.077 49.9366C357.022 51.6385 354.312 52.4356 351.417 54.2236C348.522 56.0117 346.53 58.0798 345.586 56.3779C344.641 54.676 346.222 51.8539 349.117 50.0658C352.012 48.2777 355.133 48.2347 356.077 49.9366Z" fill="white"/>
<path d="M377.779 75.4864C379.321 75.4864 380.571 74.1747 380.571 72.5566C380.571 70.9385 379.321 69.6267 377.779 69.6267C376.237 69.6267 374.986 70.9385 374.986 72.5566C374.986 74.1747 376.237 75.4864 377.779 75.4864Z" fill="#3B087D"/>
<path d="M413.954 75.4862C415.496 75.4862 416.747 74.1744 416.747 72.5563C416.747 70.9382 415.496 69.6265 413.954 69.6265C412.412 69.6265 411.162 70.9382 411.162 72.5563C411.162 74.1744 412.412 75.4862 413.954 75.4862Z" fill="#3B087D"/>
<path d="M447.667 75.4862C449.209 75.4862 450.46 74.1744 450.46 72.5563C450.46 70.9382 449.209 69.6265 447.667 69.6265C446.125 69.6265 444.875 70.9382 444.875 72.5563C444.875 74.1744 446.125 75.4862 447.667 75.4862Z" fill="#3B087D"/>
<path d="M377.779 143.11C379.321 143.11 380.571 141.798 380.571 140.18C380.571 138.562 379.321 137.25 377.779 137.25C376.237 137.25 374.986 138.562 374.986 140.18C374.986 141.798 376.237 143.11 377.779 143.11Z" fill="#3B087D"/>
<path d="M413.954 143.11C415.496 143.11 416.747 141.798 416.747 140.18C416.747 138.562 415.496 137.25 413.954 137.25C412.412 137.25 411.162 138.562 411.162 140.18C411.162 141.798 412.412 143.11 413.954 143.11Z" fill="#3B087D"/>
<path d="M447.667 143.11C449.209 143.11 450.46 141.798 450.46 140.18C450.46 138.562 449.209 137.25 447.667 137.25C446.125 137.25 444.875 138.562 444.875 140.18C444.875 141.798 446.125 143.11 447.667 143.11Z" fill="#3B087D"/>
<path d="M313.781 77.8569C314.951 75.8749 316.922 74.2161 319.55 73.0743C322.178 71.9325 325.422 70.9846 328.481 71.5878C334.518 72.7512 328.666 76.7797 322.63 78.2877C316.594 79.7958 313.453 84.5783 311.769 83.932C310.701 83.5227 312.385 80.2481 313.802 77.8569H313.781Z" fill="white"/>
<defs>
<linearGradient id="paint0_linear_2_172" x1="0" y1="102.459" x2="322.384" y2="102.459" gradientUnits="userSpaceOnUse">
<stop stop-color="#FED220" stop-opacity="0"/>
<stop offset="1" stop-color="#FED220"/>
</linearGradient>
</defs>
</svg>
