<svg width="198" height="281" viewBox="0 0 198 281" fill="none" xmlns="http://www.w3.org/2000/svg">
<g opacity="0.3" style="mix-blend-mode:screen">
<path d="M66.1401 280.768C29.612 280.768 0 251.156 0 214.628C0 178.1 29.612 148.488 66.1401 148.488C102.668 148.488 132.28 178.1 132.28 214.628C132.28 251.156 102.668 280.768 66.1401 280.768Z" fill="#6EF1FA"/>
</g>
<g opacity="0.3" style="mix-blend-mode:screen">
<path d="M73.7833 163.705C67.9722 169.516 78.9061 180.45 91.293 192.76C103.68 205.071 112.779 213.94 118.514 208.129C124.248 202.318 118.972 187.637 106.585 175.403C94.1986 163.169 79.518 157.893 73.7833 163.705Z" fill="#6EF1FA"/>
</g>
<g opacity="0.3" style="mix-blend-mode:screen">
<path d="M156.516 140.921C133.881 140.921 115.532 122.572 115.532 99.9369C115.532 77.3022 133.881 58.9531 156.516 58.9531C179.15 58.9531 197.5 77.3022 197.5 99.9369C197.5 122.572 179.15 140.921 156.516 140.921Z" fill="#6EF1FA"/>
</g>
<g opacity="0.3" style="mix-blend-mode:screen">
<path d="M150.935 72.7164C145.124 78.5275 152.541 86.0209 160.875 94.2788C169.21 102.537 175.479 108.654 181.214 102.843C186.949 97.0314 184.884 85.562 176.473 77.2276C168.063 68.8932 156.67 66.9052 150.859 72.7164H150.935Z" fill="#6EF1FA"/>
</g>
<g opacity="0.3" style="mix-blend-mode:screen">
<path d="M63.6154 81.9676C40.9806 81.9676 22.6317 63.6185 22.6317 40.9838C22.6317 18.3491 40.9806 0 63.6154 0C86.2501 0 104.599 18.3491 104.599 40.9838C104.599 63.6185 86.2501 81.9676 63.6154 81.9676Z" fill="#6EF1FA"/>
</g>
<g opacity="0.3" style="mix-blend-mode:screen">
<path d="M58.0345 13.7642C52.2233 19.5754 59.6403 27.0686 67.9747 35.3266C76.3091 43.5845 82.5791 49.7014 88.3137 43.8903C94.0484 38.0792 91.984 26.6099 83.5731 18.2755C75.1623 9.94109 63.7693 7.9531 57.9582 13.7642H58.0345Z" fill="#6EF1FA"/>
</g>
</svg>
