<svg width="157" height="223" viewBox="0 0 157 223" fill="none" xmlns="http://www.w3.org/2000/svg">
<g opacity="0.3" style="mix-blend-mode:screen">
<path d="M103.926 222.132C132.826 222.132 156.253 198.704 156.253 169.805C156.253 140.906 132.826 117.479 103.926 117.479C75.027 117.479 51.5996 140.906 51.5996 169.805C51.5996 198.704 75.027 222.132 103.926 222.132Z" fill="#6EF1FA"/>
</g>
<g opacity="0.3" style="mix-blend-mode:screen">
<path d="M97.8785 129.515C102.476 134.113 93.8256 142.763 84.0257 152.503C74.2258 162.242 67.0271 169.259 62.4901 164.662C57.9531 160.064 62.1271 148.45 71.927 138.771C81.7269 129.092 93.3415 124.918 97.8785 129.515Z" fill="#6EF1FA"/>
</g>
<g opacity="0.3" style="mix-blend-mode:screen">
<path d="M32.4245 111.489C50.332 111.489 64.8488 96.9725 64.8488 79.065C64.8488 61.1575 50.332 46.6406 32.4245 46.6406C14.517 46.6406 0 61.1575 0 79.065C0 96.9725 14.517 111.489 32.4245 111.489Z" fill="#6EF1FA"/>
</g>
<g opacity="0.3" style="mix-blend-mode:screen">
<path d="M36.8399 57.5294C41.4374 62.1269 35.5696 68.0553 28.9758 74.5886C22.382 81.1218 17.4216 85.9613 12.8846 81.3638C8.34757 76.7663 9.98086 67.6923 16.6351 61.0985C23.2894 54.5047 32.3029 52.9319 36.9004 57.5294H36.8399Z" fill="#6EF1FA"/>
</g>
<g opacity="0.3" style="mix-blend-mode:screen">
<path d="M105.923 64.8488C123.83 64.8488 138.347 50.3319 138.347 32.4244C138.347 14.5169 123.83 0 105.923 0C88.015 0 73.498 14.5169 73.498 32.4244C73.498 50.3319 88.015 64.8488 105.923 64.8488Z" fill="#6EF1FA"/>
</g>
<g opacity="0.3" style="mix-blend-mode:screen">
<path d="M110.341 10.8888C114.939 15.4863 109.071 21.4146 102.477 27.9479C95.883 34.4811 90.9225 39.3206 86.3855 34.7231C81.8485 30.1256 83.4818 21.0516 90.1361 14.4579C96.7904 7.8641 105.804 6.2913 110.401 10.8888H110.341Z" fill="#6EF1FA"/>
</g>
</svg>
