<svg width="125" height="101" viewBox="0 0 125 101" fill="none" xmlns="http://www.w3.org/2000/svg">
<path d="M105.751 8.35045C97.8349 4.45789 89.2645 1.63265 80.3369 0.000288791C80.2587 -0.00235189 80.1808 0.0131435 80.1088 0.0456858C80.0368 0.078228 79.9725 0.127027 79.9203 0.18864C78.849 2.26048 77.5992 4.96016 76.7659 7.032C67.2968 5.5252 57.6669 5.5252 48.1978 7.032C47.3646 4.89737 46.1147 2.26048 44.9839 0.18864C44.9244 0.0630732 44.7458 0.000288791 44.5673 0.000288791C35.6397 1.63265 27.1288 4.45789 19.1535 8.35045C19.094 8.35045 19.0345 8.41323 18.975 8.47601C2.78637 34.0288 -1.6774 58.8909 0.524726 83.5019C0.524726 83.6274 0.584242 83.753 0.703276 83.8158C11.4163 92.1032 21.7128 97.1258 31.8902 100.453C32.0687 100.516 32.2473 100.453 32.3068 100.328C34.6874 96.8747 36.8301 93.2333 38.6751 89.4035C38.7941 89.1523 38.6751 88.9012 38.437 88.8384C35.0445 87.4572 31.8306 85.8248 28.6762 83.9414C28.4382 83.8158 28.4382 83.4391 28.6167 83.2507C29.2714 82.7485 29.9261 82.1834 30.5808 81.6812C30.6998 81.5556 30.8784 81.5556 30.9974 81.6184C51.4712 91.4753 73.552 91.4753 93.7878 81.6184C93.9068 81.5556 94.0854 81.5556 94.2044 81.6812C94.8591 82.2462 95.5137 82.7485 96.1684 83.3135C96.4065 83.5019 96.4065 83.8786 96.1089 84.0041C93.014 85.9504 89.7406 87.52 86.3481 88.9012C86.1101 88.964 86.0506 89.2779 86.1101 89.4663C88.0146 93.296 90.1572 96.9375 92.4784 100.391C92.6569 100.453 92.8355 100.516 93.014 100.453C103.251 97.1258 113.547 92.1032 124.26 83.8158C124.379 83.753 124.439 83.6274 124.439 83.5019C127.058 55.0611 120.094 30.3873 105.989 8.47601C105.929 8.41323 105.87 8.35045 105.751 8.35045ZM41.77 68.4967C35.6397 68.4967 30.5213 62.5323 30.5213 55.1867C30.5213 47.841 35.5207 41.8766 41.77 41.8766C48.0788 41.8766 53.0782 47.9038 53.0187 55.1867C53.0187 62.5323 48.0192 68.4967 41.77 68.4967ZM83.2533 68.4967C77.123 68.4967 72.0046 62.5323 72.0046 55.1867C72.0046 47.841 77.004 41.8766 83.2533 41.8766C89.5621 41.8766 94.5615 47.9038 94.502 55.1867C94.502 62.5323 89.5621 68.4967 83.2533 68.4967Z" fill="#72D6E6"/>
</svg>
