<svg width="1103" height="1041" viewBox="0 0 1103 1041" fill="none" xmlns="http://www.w3.org/2000/svg">
<path d="M641.034 937.462H892.348C892.348 937.462 1023.96 830.885 1023.96 723.751C1023.96 601.173 853.045 608.965 853.045 532.719C853.045 481.935 978.01 508.927 978.01 344.47C978.01 232.049 731.817 37.1219 724.067 31C726.697 36.8437 807.1 210.344 807.1 290.903C807.1 411.255 636.19 460.647 636.19 546.772C636.19 656.549 784.681 591.017 784.681 732.656C784.681 874.295 641.034 937.462 641.034 937.462Z" fill="url(#paint0_linear_1_162)"/>
<path d="M730.421 553.869C746.335 600.479 804.32 603.957 838.779 627.888C893.858 660.029 897.041 733.352 883.617 789.702C869.363 847.304 834.351 897.531 790.343 937.463H799.338C843.899 899.062 879.742 850.504 896.625 793.18C914.478 730.987 909.772 648.898 849.573 611.331C820.373 588.096 766.125 582.391 753.808 546.773C744.675 507.259 779.549 481.102 811.101 462.318C847.359 439.083 891.228 415.43 906.174 369.794C926.379 303.705 888.599 231.911 836.842 193.928L835.043 196.015C862.305 226.207 884.309 264.052 889.014 304.54C893.996 344.471 881.541 381.064 847.497 404.16C802.936 437.274 707.31 475.536 730.421 553.869Z" fill="#3B087D"/>
<path d="M277.647 1031H469.205C469.205 1031 569.52 949.763 569.52 868.103C569.52 774.671 439.248 780.61 439.248 722.494C439.248 683.785 534.499 704.359 534.499 579.005C534.499 493.315 346.844 344.737 340.937 340.07C342.941 344.524 404.227 476.771 404.227 538.175C404.227 629.91 273.955 667.559 273.955 733.205C273.955 816.88 387.139 766.93 387.139 874.89C387.139 982.851 277.647 1031 277.647 1031Z" fill="url(#paint1_linear_1_162)"/>
<path d="M345.79 738.616C357.921 774.144 402.118 776.795 428.384 795.036C470.366 819.534 472.792 875.423 462.56 918.374C451.696 962.28 425.008 1000.56 391.465 1031H398.321C432.287 1001.73 459.607 964.719 472.476 921.026C486.083 873.621 482.497 811.05 436.611 782.416C414.354 764.705 373.005 760.357 363.617 733.208C356.655 703.089 383.237 683.151 407.287 668.834C434.924 651.123 468.362 633.095 479.754 598.309C495.155 547.935 466.358 493.212 426.907 464.26L425.536 465.851C446.316 488.864 463.088 517.71 466.674 548.571C470.472 579.008 460.978 606.9 435.029 624.504C401.063 649.745 328.175 678.909 345.79 738.616Z" fill="#3B087D"/>
<path d="M211.455 926H1171.45V1292.25H0L211.455 926Z" fill="#2EB2EF"/>
<defs>
<linearGradient id="paint0_linear_1_162" x1="830.073" y1="1830.84" x2="830.073" y2="275.32" gradientUnits="userSpaceOnUse">
<stop offset="0.35" stop-color="#3B087D"/>
<stop offset="0.79" stop-color="#119400"/>
</linearGradient>
<linearGradient id="paint1_linear_1_162" x1="421.737" y1="1711.96" x2="421.737" y2="526.298" gradientUnits="userSpaceOnUse">
<stop offset="0.35" stop-color="#3B087D"/>
<stop offset="0.79" stop-color="#119400"/>
</linearGradient>
</defs>
</svg>
