<svg width="939" height="655" viewBox="0 0 939 655" fill="none" xmlns="http://www.w3.org/2000/svg">
<rect x="154.044" y="156.643" width="784.618" height="498.357" rx="60" fill="#D9D9D9"/>
<path d="M481.114 124.592C481.311 125.357 481.273 126.351 480.976 127.571C480.382 130.011 478.794 133.191 476.387 136.875C471.582 144.23 463.609 153.45 454.205 162.542C444.802 171.631 433.988 180.573 423.51 187.38C413.015 194.197 402.924 198.828 394.953 199.38C383.162 200.197 374.687 198.516 368.377 195.581C362.069 192.648 357.885 188.444 354.699 184.151C353.103 182.002 351.759 179.832 350.521 177.781C349.287 175.739 348.148 173.8 346.982 172.15C344.648 168.85 342.088 166.545 338.155 166.818C332.431 167.214 328.544 170.748 325.394 175.705C322.258 180.642 319.777 187.115 316.922 193.513C311.181 206.385 303.873 219.109 286.513 220.312C271.252 221.369 255.308 212.975 243.121 204.234C237.039 199.873 231.917 195.444 228.316 192.105C226.516 190.435 225.097 189.039 224.128 188.061C223.644 187.572 223.272 187.188 223.022 186.926C222.912 186.812 222.827 186.72 222.765 186.654L217.865 115.922C218.525 117.023 219.484 118.546 220.741 120.347C223.372 124.12 227.309 129.121 232.531 134.035C242.973 143.861 258.59 153.367 279.197 151.939C289.502 151.225 295.919 148.041 300.209 143.577C304.482 139.131 306.592 133.465 308.388 127.918C310.197 122.33 311.679 116.903 314.66 112.707C317.605 108.561 322.031 105.603 329.806 105.065C335.838 104.647 341.48 107.285 347.133 111.541C352.791 115.8 358.38 121.615 364.33 127.461C376.175 139.101 389.422 150.85 407.026 149.631C412.918 149.223 419.794 146.987 426.925 143.979C434.063 140.969 441.503 137.165 448.523 133.596C455.555 130.02 462.157 126.684 467.654 124.582C470.403 123.531 472.853 122.798 474.927 122.494C477.009 122.189 478.647 122.328 479.823 122.944C480.504 123.301 480.922 123.848 481.114 124.592Z" fill="#B182D0" stroke="#78578E"/>
<path d="M526.527 50.6287C527.465 53.1302 526.873 56.4646 524.908 60.463C520.985 68.4415 511.815 78.6176 500.226 88.9474C488.652 99.2641 474.717 109.69 461.324 118.171C447.922 126.657 435.103 133.171 425.754 135.697C412.021 139.408 401.73 139.839 393.757 138.497C385.791 137.155 380.107 134.037 375.591 130.595C373.33 128.871 371.361 127.064 369.536 125.35C367.719 123.643 366.031 122.013 364.362 120.675C361.006 117.983 357.622 116.39 353.144 117.6C346.571 119.376 342.658 123.762 339.844 129.428C337.047 135.06 335.296 142.045 333.094 149.047C330.882 156.082 328.202 163.19 323.543 169.226C318.894 175.25 312.257 180.23 302.088 182.977C284.279 187.789 263.987 183.426 248.095 177.818C240.158 175.017 233.34 171.913 228.506 169.51C226.089 168.309 224.169 167.283 222.854 166.558C222.197 166.195 221.69 165.907 221.349 165.711C221.205 165.628 221.091 165.561 221.007 165.512L202.439 96.7898C202.49 96.8386 202.541 96.8897 202.595 96.9408C203.574 97.8721 205.023 99.1852 206.91 100.72C210.682 103.788 216.207 107.743 223.225 111.296C237.264 118.403 257.287 123.903 281.179 117.448C293.091 114.229 300.709 110.577 306.237 106.769C311.762 102.963 315.179 99.012 318.671 95.2689C322.162 91.5276 325.745 87.9704 331.641 84.8424C337.543 81.7112 345.792 78.995 358.621 76.9962C374.513 75.2607 391.076 80.0155 408.848 83.8885C426.583 87.7536 445.448 90.7139 465.745 85.2299C479.435 81.5308 487.891 70.5705 495.294 61.1335C499.014 56.3903 502.454 52.048 506.166 49.0998C509.857 46.1682 513.774 44.6503 518.467 45.4928C523.12 46.3279 525.604 48.1662 526.527 50.6287Z" fill="#B182D0" stroke="#78578E"/>
<path d="M175.664 455.301C170.517 451.374 154.562 438.926 138.748 423.709C129.438 414.75 120.19 404.844 113.226 395.161C106.248 385.459 101.619 376.057 101.433 368.095C101.156 356.279 103.224 347.89 106.444 341.721C109.663 335.554 114.053 331.566 118.487 328.58C120.707 327.084 122.937 325.841 125.042 324.698C127.139 323.559 129.127 322.51 130.829 321.42C134.233 319.239 136.652 316.787 136.559 312.847C136.425 307.111 133.073 303.066 128.265 299.693C123.477 296.333 117.125 293.559 110.863 290.415C98.268 284.09 85.8912 276.209 85.4839 258.812C85.126 243.518 94.2407 227.975 103.53 216.2C108.165 210.324 112.823 205.41 116.324 201.966C118.074 200.244 119.533 198.89 120.555 197.967C121.065 197.506 121.466 197.152 121.739 196.914C121.858 196.81 121.953 196.729 122.022 196.67L192.905 195.01C191.775 195.62 190.21 196.508 188.353 197.681C184.464 200.137 179.287 203.841 174.14 208.832C163.847 218.814 153.636 233.98 154.12 254.631C154.361 264.958 157.248 271.514 161.512 276.004C165.757 280.475 171.321 282.842 176.78 284.89C182.28 286.952 187.633 288.682 191.689 291.851C195.695 294.983 198.448 299.539 198.63 307.331C198.771 313.376 195.878 318.891 191.368 324.343C186.854 329.801 180.789 335.118 174.677 340.794C162.508 352.094 150.165 364.791 150.578 382.431C150.716 388.319 152.371 395.836 154.769 403.796C157.17 411.765 160.327 420.213 163.489 427.978C168.546 440.399 173.627 451.089 175.664 455.301Z" fill="#B182D0" stroke="#78578E"/>
<path d="M221.97 193.725C196.773 229.121 120.959 214.286 77.9233 183.65C34.8871 153.014 20.4254 99.4853 45.6222 64.0896C70.8191 28.6939 126.133 24.8352 169.169 55.471C212.205 86.1068 247.167 158.329 221.97 193.725Z" fill="#B182D0"/>
<ellipse cx="208.454" cy="144.167" rx="4.50532" ry="8.3175" transform="rotate(-1.95503 208.454 144.167)" fill="#FFFB91"/>
<ellipse cx="4.50532" cy="8.3175" rx="4.50532" ry="8.3175" transform="matrix(0.333943 -0.942593 -0.942593 -0.333943 166.269 199.709)" fill="#FFFB91"/>
<ellipse cx="117.309" cy="49.9024" rx="11.09" ry="5.545" fill="#78578E"/>
<ellipse cx="96.5128" cy="43.6641" rx="8.3175" ry="5.545" fill="#78578E"/>
<ellipse cx="77.8001" cy="46.0895" rx="4.85188" ry="3.81219" fill="#78578E"/>
<ellipse cx="112.456" cy="39.8513" rx="4.85188" ry="3.81219" fill="#78578E"/>
<path d="M282.757 209.344C282.611 208.572 281.883 207.876 280.597 207.455C279.331 207.041 277.636 206.941 275.822 207.283C274.008 207.626 272.466 208.337 271.439 209.184C270.395 210.045 269.972 210.958 270.117 211.73C270.263 212.503 270.991 213.2 272.276 213.621C273.542 214.035 275.237 214.135 277.051 213.793C278.865 213.45 280.407 212.739 281.435 211.892C282.478 211.031 282.902 210.117 282.757 209.344Z" fill="#78578E" stroke="#C9A6E1"/>
<path d="M300.665 201.364C300.519 200.592 299.791 199.896 298.505 199.475C297.239 199.061 295.545 198.961 293.73 199.303C291.916 199.646 290.375 200.356 289.347 201.204C288.303 202.064 287.88 202.978 288.026 203.75C288.171 204.522 288.899 205.219 290.184 205.64C291.45 206.054 293.145 206.154 294.959 205.812C296.773 205.47 298.315 204.759 299.343 203.911C300.387 203.051 300.811 202.136 300.665 201.364Z" fill="#78578E" stroke="#C9A6E1"/>
<path d="M296.695 211.719C296.549 210.947 295.821 210.251 294.536 209.83C293.269 209.416 291.575 209.316 289.761 209.658C287.947 210.001 286.405 210.712 285.377 211.559C284.334 212.42 283.91 213.333 284.056 214.105C284.202 214.878 284.929 215.575 286.215 215.996C287.481 216.41 289.175 216.51 290.989 216.168C292.803 215.825 294.345 215.114 295.373 214.267C296.417 213.406 296.841 212.492 296.695 211.719Z" fill="#78578E" stroke="#C9A6E1"/>
<path d="M411.565 180.569C411.419 179.797 410.691 179.101 409.406 178.68C408.14 178.266 406.445 178.166 404.631 178.508C402.817 178.851 401.275 179.562 400.247 180.409C399.204 181.269 398.78 182.183 398.926 182.955C399.072 183.727 399.799 184.424 401.085 184.845C402.351 185.26 404.046 185.36 405.86 185.017C407.674 184.675 409.215 183.964 410.243 183.116C411.287 182.256 411.711 181.342 411.565 180.569Z" fill="#78578E" stroke="#C9A6E1"/>
<path d="M407.593 190.925C407.447 190.152 406.72 189.456 405.434 189.035C404.168 188.621 402.473 188.521 400.659 188.864C398.845 189.206 397.303 189.917 396.276 190.764C395.232 191.625 394.809 192.538 394.954 193.311C395.1 194.083 395.827 194.78 397.113 195.201C398.379 195.615 400.074 195.715 401.888 195.373C403.702 195.03 405.244 194.319 406.272 193.472C407.315 192.611 407.739 191.697 407.593 190.925Z" fill="#78578E" stroke="#C9A6E1"/>
<path d="M152.762 414.033C153.495 413.75 154.471 414.001 155.506 414.871C156.527 415.728 157.506 417.114 158.172 418.836C158.839 420.557 159.048 422.242 158.871 423.562C158.691 424.903 158.138 425.744 157.406 426.028C156.672 426.312 155.697 426.062 154.661 425.192C153.641 424.335 152.661 422.949 151.995 421.227C151.329 419.506 151.119 417.821 151.296 416.5C151.476 415.16 152.029 414.317 152.762 414.033Z" fill="#78578E" stroke="#C9A6E1"/>
<path d="M147.217 398.09C147.95 397.806 148.926 398.057 149.962 398.927C150.982 399.784 151.961 401.171 152.627 402.892C153.294 404.614 153.503 406.299 153.326 407.619C153.146 408.959 152.593 409.801 151.861 410.085C151.128 410.369 150.152 410.119 149.116 409.249C148.096 408.392 147.116 407.005 146.45 405.284C145.784 403.562 145.574 401.877 145.751 400.557C145.931 399.216 146.484 398.374 147.217 398.09Z" fill="#78578E" stroke="#C9A6E1"/>
<path d="M143.058 409.182C143.791 408.898 144.767 409.149 145.802 410.019C146.822 410.876 147.802 412.263 148.468 413.984C149.135 415.706 149.344 417.391 149.167 418.711C148.987 420.051 148.434 420.893 147.701 421.177C146.968 421.461 145.992 421.211 144.957 420.341C143.937 419.484 142.957 418.097 142.291 416.376C141.624 414.654 141.415 412.969 141.592 411.649C141.772 410.308 142.325 409.466 143.058 409.182Z" fill="#78578E" stroke="#C9A6E1"/>
<path d="M144.515 379.001C145.294 378.896 146.184 379.366 146.99 380.453C147.783 381.523 148.414 383.099 148.663 384.928C148.911 386.757 148.724 388.445 148.246 389.688C147.759 390.95 147.027 391.64 146.248 391.746C145.469 391.852 144.578 391.383 143.772 390.296C142.979 389.226 142.348 387.65 142.099 385.821C141.85 383.991 142.038 382.304 142.516 381.061C143.003 379.799 143.736 379.107 144.515 379.001Z" fill="#78578E" stroke="#C9A6E1"/>
</svg>
