<svg width="423" height="348" viewBox="0 0 423 348" fill="none" xmlns="http://www.w3.org/2000/svg">
<path d="M283.301 258.028C278.997 273.289 267.507 285.49 252.467 290.68C197.011 309.713 63.0722 353.324 40.3573 338.728C20.7035 326.084 101.936 115.837 101.936 115.837L316.353 140.682L283.301 258.028Z" fill="#304937"/>
<path d="M55.7074 348C47.2336 348 40.7563 346.846 36.7635 344.318C30.5523 340.325 20.1265 333.626 57.482 220.45C75.1836 166.768 95.5473 113.974 95.7691 113.442L97.6324 108.65L324.915 135.003L289.733 259.846C284.853 277.238 271.721 291.124 254.641 296.98C182.902 321.603 96.4346 348 55.7074 348ZM44.4386 333.404C56.1066 339.482 116.532 330.254 250.293 284.38C263.247 279.944 273.185 269.429 276.867 256.253L307.834 146.405L106.284 123.024C70.3035 216.679 37.9613 319.207 44.4386 333.404Z" fill="#222B25"/>
<path d="M127.623 164.018L34.0128 188.507C30.3749 189.483 27.2249 186.067 27.6242 181.675L29.9756 157.541C30.2861 154.257 32.5044 151.507 35.255 151.019L156.949 130.034C163.115 128.969 165.334 138.818 159.744 142.589L129.309 163.219C128.777 163.574 128.2 163.84 127.623 164.018Z" fill="#009245"/>
<path d="M275.359 257.096C275.359 257.096 282.103 276.395 269.68 278.746C257.258 281.097 249.228 277.637 249.228 277.637C249.228 277.637 239.601 291.479 228.11 291.479C216.62 291.479 210.719 286.155 210.719 286.155C210.719 286.155 203.488 299.198 189.025 297.424C174.562 295.649 175.183 288.551 175.183 288.551C175.183 288.551 147.854 300.485 136.807 294.229C126.78 288.551 130.951 281.053 130.951 281.053C130.951 281.053 105.751 300.263 90.2678 288.595C80.6406 281.319 88.6263 266.413 88.6263 266.413C88.6263 266.413 80.3744 266.945 76.8252 258.515C73.276 250.086 81.2173 247.602 81.2173 247.602C81.2173 247.602 69.6824 237.841 75.9379 231.808C82.1934 225.774 93.4177 227.859 93.4177 227.859C93.4177 227.859 74.4295 214.727 85.1215 209.98C95.8135 205.233 107.481 211.355 107.481 211.355L275.404 257.14L275.359 257.096Z" fill="#F8F3EC"/>
<path d="M420.256 78.5263C416.041 88.2867 301.091 274.753 270.745 287.752C270.745 287.752 275.359 280.698 277.001 270.76C277.134 270.139 277.223 269.474 277.311 268.808C279.84 247.824 286.628 213.396 281.482 181.187C281.304 179.989 281.082 178.791 280.861 177.594C276.823 156.032 268.926 136.6 254.596 125.021C207.037 86.6451 90.268 134.293 90.268 134.293C90.268 134.293 94.9264 92.0577 109.035 89.8838C115.467 88.9078 174.384 81.5875 236.673 73.9567C251.535 72.1377 266.575 70.3188 281.127 68.5442C339.423 61.4014 390.043 55.2346 390.043 55.2346C390.043 55.2346 397.63 48.5799 409.519 48.6686C421.454 48.7573 424.47 68.766 420.256 78.5263Z" fill="#222B25"/>
<path d="M110.854 203.636L15.646 257.806C12.851 259.403 9.43495 258.249 8.10399 255.277L0.561867 238.862C-0.769087 235.934 0.340074 232.34 3.09071 230.787L167.064 137.177C171.013 134.914 175.582 138.109 175.183 142.811L172.876 169.874C172.699 172.092 171.368 174.044 169.46 174.976L111.164 203.458C111.164 203.458 110.942 203.547 110.854 203.636Z" fill="#ADD13F"/>
<path d="M280.772 178.126C280.772 178.126 279.574 168.144 274.516 155.189C274.028 153.947 273.54 152.705 272.963 151.418C268.66 141.436 262.049 130.167 252.067 120.496C251.003 119.431 249.849 118.41 248.696 117.39C235.342 105.855 216.62 97.337 190.311 97.337C151.403 97.337 136.363 98.2243 136.363 98.2243C136.363 98.2243 132.903 81.7205 125.804 66.8581C117.73 49.9107 89.8241 46.6277 87.1178 48.7128C85.077 50.2212 74.7843 79.9902 87.1178 93.5216C99.407 107.009 111.962 113.22 111.962 113.22C111.962 113.22 93.0184 115.349 75.228 126.884C59.3009 137.177 51.8032 163.308 54.2433 165.748C57.1714 168.676 82.7257 170.451 97.3218 162.776C112.45 154.879 122.699 138.996 123.32 138.02C123.542 138.242 123.719 138.508 123.941 138.818C124.651 139.928 125.405 140.948 126.159 142.013C128.644 145.429 131.305 148.756 134.189 151.906C134.855 152.705 135.609 153.459 136.319 154.257C146.434 164.905 158.856 173.778 174.34 180.211C214.579 188.33 240.399 184.559 280.638 178.17L280.772 178.126Z" fill="#58CBF5"/>
<path d="M126.248 141.968C125.094 130.167 135.742 119.431 143.95 119.431C147.854 119.431 151.226 121.915 152.423 127.905C152.423 127.905 152.645 127.86 152.956 127.772C153.932 127.461 155.884 126.973 155.884 126.973C153.533 108.473 177.223 105.722 180.817 125.11C180.817 125.11 182.459 125.243 183.745 125.331C184.056 125.331 184.322 125.331 184.544 125.376C184.943 125.42 185.209 125.465 185.209 125.465C183.967 118.366 188.049 111.489 195.058 112.732C202.334 114.018 207.614 123.424 211.03 130.522C212.804 130.877 213.736 131.055 215.555 131.409C216.93 126.352 218.35 119.032 224.206 118.854C231.26 120.008 237.782 127.949 238.802 135.092C238.802 135.092 240.932 135.269 242.218 135.358C242.44 135.358 242.573 135.358 242.839 135.402H243.194C241.952 126.396 246.477 121.383 252.023 120.451C250.958 119.386 249.805 118.366 248.651 117.346C245.856 118.144 243.283 119.83 241.287 122.536C240.533 123.557 240 124.71 239.557 125.953C235.386 119.342 228.288 113.796 221.411 113.796C216.22 114.595 213.736 118.943 212.139 123.734C209.344 118.898 205.883 114.151 201.358 110.868C192.485 104.48 184.189 108.428 181.394 115.926C180.507 114.595 179.575 113.308 178.51 112.199C168.35 101.64 155.618 108.428 152.645 119.475C146.301 111.578 132.681 114.861 126.204 130.389C124.961 133.273 124.252 136.156 123.985 138.73L126.204 141.924L126.248 141.968Z" fill="#6EF0F9"/>
<path d="M274.516 155.189C274.028 153.947 273.54 152.705 272.963 151.418C272.342 152.749 271.854 154.08 271.455 155.411C265.288 146.627 250.958 143.166 243.993 152.793C243.239 153.814 242.706 154.967 242.263 156.209C238.092 149.599 230.994 144.053 224.073 144.053C218.882 144.852 216.398 149.2 214.801 153.991C212.006 149.155 208.545 144.364 204.064 141.125C195.191 134.692 186.895 138.685 184.1 146.183C183.257 144.852 182.325 143.565 181.216 142.456C171.057 131.897 158.324 138.641 155.351 149.732C150.471 143.654 141.243 144.187 134.322 151.906C134.988 152.705 135.742 153.459 136.452 154.257C139.602 151.418 143.284 149.688 146.567 149.688C150.471 149.688 153.843 152.128 155.041 158.162C155.041 158.162 155.263 158.117 155.618 157.984C156.594 157.718 158.546 157.23 158.546 157.23C156.194 138.73 179.885 135.979 183.479 155.367C183.479 155.367 185.076 155.455 186.363 155.588C186.673 155.588 186.939 155.633 187.206 155.677C187.605 155.677 187.871 155.721 187.871 155.721C186.629 148.623 190.71 141.791 197.72 142.989C204.996 144.275 210.275 153.681 213.647 160.779C215.466 161.134 216.353 161.312 218.172 161.666C219.592 156.653 221.012 149.333 226.824 149.155C233.922 150.265 240.399 158.25 241.464 165.393C241.464 165.393 243.594 165.615 244.88 165.704C245.102 165.704 245.235 165.704 245.457 165.704C245.679 165.704 245.856 165.704 245.856 165.704C243.194 146.36 266.93 145.606 270.878 163.618C272.209 163.308 272.83 163.086 274.206 162.642C273.806 160.025 273.939 157.54 274.472 155.233L274.516 155.189Z" fill="#6EF0F9"/>
<path d="M111.962 113.175C111.962 113.175 93.0183 115.305 75.2279 126.84C59.3009 137.133 51.8032 163.264 54.2432 165.704C57.1713 168.632 82.7257 170.406 97.3218 162.731C112.45 154.834 122.699 138.952 123.32 137.976C123.32 137.976 119.859 137 114.757 129.324C109.655 121.694 111.874 113.131 111.874 113.131L111.962 113.175Z" fill="#3B087D"/>
<path d="M136.363 98.2243C136.363 98.2243 132.903 81.7205 125.804 66.8581C117.73 49.9107 89.8243 46.6277 87.118 48.7128C85.0773 50.2212 74.7845 79.9902 87.118 93.5216C99.4072 107.009 111.962 113.22 111.962 113.22C111.962 113.22 116.355 101.108 123.364 98.5348C130.374 96.006 136.319 98.2243 136.319 98.2243H136.363Z" fill="#3B087D"/>
<path d="M136.896 168.632C136.896 168.632 134.367 147.248 151.58 139.084C171.944 129.457 163.337 154.346 163.337 154.346L136.94 168.632H136.896Z" fill="#D67D58"/>
<path d="M277.311 268.808C277.222 269.474 277.134 270.139 277.001 270.76L247.143 270.095C246.744 270.538 246.3 270.893 245.856 271.248C238.935 276.616 198.253 286.288 178.688 277.548C175.804 276.261 173.364 274.531 171.545 272.357C170.657 271.293 169.948 270.139 169.415 268.808C169.415 268.719 169.326 268.586 169.282 268.498L160.409 268.364L122.965 267.566C122.965 267.566 98.0761 271.869 98.0761 234.026C98.0761 231.231 98.1648 228.835 98.3866 226.528C96.5233 224.532 94.9705 222.092 94.1276 219.252C92.7967 214.816 93.2847 210.291 95.148 206.52C95.3254 206.076 95.5029 205.677 95.7691 205.277V205.189C95.7691 205.189 95.9022 204.922 96.0796 204.789C96.612 203.902 97.2775 203.015 98.1204 202.172C98.3866 201.817 98.6972 201.506 99.0521 201.196C99.9394 200.397 100.915 199.776 101.936 199.244C102.291 199.022 102.734 198.8 103.134 198.623C103.71 198.401 104.287 198.135 104.908 197.957C105.707 197.735 106.55 197.558 107.393 197.469C107.925 197.425 108.502 197.336 109.079 197.336C110.765 197.292 112.495 197.602 114.092 198.134C115.645 198.623 117.109 199.377 118.44 200.264C120.392 190.992 125.494 173.113 136.984 161.755C143.107 155.677 151.137 151.462 161.474 151.462H164.136C177.978 151.507 190.577 152.084 200.914 153.991C217.596 157.052 228.332 163.707 228.332 177.593H280.86C281.082 178.791 281.304 179.989 281.481 181.187C286.628 213.396 279.84 247.823 277.311 268.808Z" fill="#F2A270"/>
<path d="M164.357 213.928C161.829 223.733 154.73 230.698 147.454 231.186C146.39 231.32 145.369 231.231 144.349 231.009C144.127 231.009 143.861 230.965 143.639 230.876C135.165 228.702 130.729 217.566 133.701 206.031C136.674 194.497 145.946 186.91 154.42 189.084C162.893 191.258 167.33 202.394 164.357 213.928Z" fill="#D67D58"/>
<path d="M146.035 210.601C144.704 214.993 142.042 227.06 143.018 230.698C144.083 230.698 146.789 230.787 147.854 230.787C147.854 229.944 147.854 229.101 147.765 228.258C147.765 227.282 147.765 226.306 147.809 225.419C147.809 224.975 147.854 224.487 147.854 224.088C148.164 219.696 148.918 215.304 150.338 210.867L154.508 208.693C155.174 208.338 155.396 207.54 155.041 206.874C154.686 206.253 153.843 206.031 153.133 206.342L148.652 208.649L148.475 208.826H148.12L145.502 205.1C145.103 204.479 144.171 204.346 143.55 204.745C142.973 205.144 142.796 205.987 143.195 206.564L145.99 210.557L146.035 210.601Z" fill="#C56544"/>
<path d="M182.192 200.752C185.402 200.752 188.004 198.15 188.004 194.94C188.004 191.73 185.402 189.128 182.192 189.128C178.983 189.128 176.381 191.73 176.381 194.94C176.381 198.15 178.983 200.752 182.192 200.752Z" fill="#C56544"/>
<path d="M133.657 194.497C136.867 194.497 139.469 191.895 139.469 188.685C139.469 185.475 136.867 182.873 133.657 182.873C130.447 182.873 127.845 185.475 127.845 188.685C127.845 191.895 130.447 194.497 133.657 194.497Z" fill="#C56544"/>
<g opacity="0.5">
<path d="M207.436 228.924C206.238 228.924 205.129 228.436 204.286 227.46C199.983 222.668 199.45 202.615 199.672 200.752L204.463 201.018C203.931 205.765 203.221 218.72 206.194 222.092C206.682 222.624 207.125 222.713 207.436 222.713C207.746 222.713 208.19 222.668 208.723 222.092C211.784 218.72 211.429 205.721 211.03 201.018L215.2 200.796C215.377 202.66 215.022 222.668 210.586 227.46C209.699 228.436 208.589 228.924 207.392 228.924H207.436Z" fill="#98D8E3"/>
</g>
<path d="M200.427 154.169C200.427 154.169 234.721 142.234 243.15 155.278C253.487 171.249 234.011 178.969 228.332 177.904L200.427 154.124V154.169Z" fill="#D67D58"/>
<path d="M188.448 261.266H169.859V266.412H188.448V261.266Z" fill="#C56544"/>
<path d="M112.938 203.236C111.874 204.434 110.764 205.854 109.877 207.495L107.126 204.656L101.891 199.288C102.246 199.022 102.646 198.844 103.089 198.667C103.666 198.401 104.243 198.134 104.864 198.001C105.707 197.735 106.505 197.602 107.348 197.469L110.055 200.264L112.938 203.281V203.236Z" fill="#D67D58"/>
<path d="M98.1203 202.127L110.099 213.928L106.372 217.566L95.1035 206.519C95.7246 205.011 96.745 203.591 98.1203 202.172V202.127Z" fill="#D67D58"/>
<path d="M189.025 272.357V277.504H178.687C175.804 276.217 173.364 274.487 171.545 272.357H189.025Z" fill="#C56544"/>
<path d="M215.599 252.926C216.043 251.595 191.021 249.554 180.64 252.26C176.114 253.458 173.364 257.495 171.722 261.266C170.968 263.174 170.391 265.037 170.081 266.413C169.726 267.788 169.637 268.719 169.637 268.719H169.504C169.504 268.719 169.415 268.586 169.371 268.453L160.498 268.32C160.631 262.775 162.583 253.458 172.343 248.533C184.233 242.633 207.214 245.206 215.333 250.13C217.33 251.328 215.732 252.926 215.732 252.926H215.599Z" fill="#C56544"/>
<path d="M122.787 231.186C122.787 231.186 122.565 233.139 121.323 232.473C116.887 230.033 106.328 221.559 105.751 215.57C105.44 212.331 107.126 208.338 109.256 204.922C110.188 203.325 111.208 201.772 112.14 200.53C112.849 199.554 113.515 198.711 114.047 198.09C115.6 198.622 117.064 199.332 118.395 200.22C118.395 200.22 116.798 201.506 115.023 203.547C113.959 204.745 112.849 206.165 111.962 207.806C110.676 210.246 109.966 212.952 110.897 215.614C113.426 222.935 122.743 231.231 122.743 231.231L122.787 231.186Z" fill="#C56544"/>
<path d="M120.969 287.619C120.969 287.619 119.061 299.553 110.188 298.4C101.315 297.246 99.7623 287.974 99.7623 287.974C107.526 278.214 114.492 279.278 120.969 287.619Z" fill="#F8F3EC"/>
<path d="M91.0663 275.641C91.0663 275.641 75.9378 277.06 75.3167 267.522C74.6956 257.983 90.4452 257.096 90.4452 257.096L91.0219 275.641H91.0663Z" fill="#F8F3EC"/>
<path d="M181.926 289.748C181.926 289.748 175.094 303.324 166.665 298.755C158.235 294.185 165.911 280.387 165.911 280.387L181.926 289.748Z" fill="#F8F3EC"/>
<path d="M170.303 302.57C168.75 302.57 167.241 302.171 165.733 301.372C163.337 300.086 161.74 298.089 160.986 295.516C159.078 288.861 163.914 280.343 164.091 279.988L167.951 282.207C166.798 284.203 164.091 290.325 165.245 294.363C165.644 295.782 166.487 296.803 167.818 297.512C169.105 298.222 170.436 298.355 171.767 297.956C175.626 296.758 179.043 291.434 180.019 289.482L183.967 291.479C183.79 291.834 179.486 300.174 173.098 302.215C172.121 302.526 171.19 302.659 170.258 302.659L170.303 302.57Z" fill="#D8D0C7"/>
<path d="M134.367 287.619C134.367 287.619 120.747 294.362 116.754 285.711C112.761 277.06 127.135 270.538 127.135 270.538L134.367 287.619Z" fill="#F8F3EC"/>
<path d="M124.163 292.898C122.743 292.898 121.279 292.721 119.948 292.233C117.464 291.346 115.601 289.66 114.447 287.175C113.294 284.691 113.205 282.162 114.181 279.633C116.665 273.156 125.627 269.207 125.982 269.03L127.757 273.112C125.627 274.043 119.815 277.282 118.351 281.23C117.819 282.606 117.908 283.937 118.529 285.312C119.15 286.687 120.126 287.575 121.457 288.018C125.228 289.349 131.173 287.131 133.125 286.155L135.077 290.148C134.811 290.281 129.487 292.898 124.163 292.898Z" fill="#D8D0C7"/>
<path d="M144.393 316.279C142.574 320.05 136.984 321.159 131.927 318.675C126.869 316.19 120.791 312.508 122.655 308.737C124.518 304.966 133.524 302.526 138.582 305.01C143.639 307.495 146.212 312.508 144.393 316.279Z" fill="#D8D0C7"/>
<path d="M56.107 279.057C59.3456 276.395 64.8913 277.726 68.4405 282.073C71.9897 286.421 75.9826 292.322 72.7439 294.984C69.5052 297.645 60.2773 296.093 56.7281 291.745C53.1789 287.397 52.9127 281.718 56.1513 279.057H56.107Z" fill="#F8F3EC"/>
<path d="M283.256 304.079C285.563 307.583 283.611 312.952 278.908 316.013C274.206 319.074 267.906 322.401 265.599 318.852C263.292 315.303 265.865 306.341 270.568 303.28C275.27 300.219 280.949 300.574 283.212 304.079H283.256Z" fill="#F8F3EC"/>
<path d="M0.0844052 198.903C-0.625437 194.777 3.27866 190.651 8.77993 189.675C14.2812 188.699 21.424 188.211 22.1339 192.337C22.8437 196.463 16.8988 203.694 11.3975 204.67C5.89625 205.646 0.794247 203.029 0.0844052 198.903Z" fill="#F8F3EC"/>
<path d="M24.1216 144.789C20.9717 142.039 21.3709 136.36 25.0532 132.145C28.7356 127.931 33.9263 123.051 37.0762 125.801C40.2261 128.552 40.1818 137.913 36.4995 142.128C32.8172 146.342 27.2715 147.54 24.0772 144.789H24.1216Z" fill="#D8D0C7"/>
<path d="M77.0469 244.008C74.2962 247.158 68.6175 246.759 64.4028 243.077C60.1881 239.394 55.2636 234.248 58.0586 231.054C60.8536 227.859 70.1703 227.904 74.4294 231.586C78.6884 235.268 79.8419 240.814 77.0912 244.008H77.0469Z" fill="#F8F3EC"/>
<path d="M110.055 277.992C109.567 281.009 105.485 282.828 100.916 282.074C96.346 281.319 90.7116 279.855 91.1996 276.838C91.6876 273.822 98.1649 270.361 102.734 271.115C107.304 271.87 110.543 274.931 110.055 277.948V277.992Z" fill="#D8D0C7"/>
<path d="M213.426 286.909C213.426 286.909 214.357 298.977 205.44 299.908C196.523 300.84 192.885 292.233 192.885 292.233C198.164 280.964 205.174 280.343 213.426 286.909Z" fill="#F8F3EC"/>
<path d="M204.73 302.57C197.321 302.57 192.84 296.758 191.465 293.431L195.546 291.701C195.679 291.967 198.696 298.799 205.839 298.045C212.494 297.335 211.873 287.797 211.828 287.397L216.265 287.042C216.62 291.967 215.023 301.506 206.327 302.437C205.795 302.482 205.262 302.526 204.774 302.526L204.73 302.57Z" fill="#D8D0C7"/>
<path d="M105.929 308.471C108.28 310.423 107.792 314.859 104.864 318.409C101.936 321.958 97.8099 326.128 95.4585 324.176C93.1072 322.224 93.3734 314.904 96.3459 311.354C99.3183 307.805 103.577 306.519 105.929 308.471Z" fill="#D8D0C7"/>
<path d="M342.35 122.581C342.04 120.362 335.474 67.2131 314.755 70.0081C312.271 70.4074 305.616 70.7179 307.258 73.0249C324.116 97.2926 333.788 122.359 331.747 125.908C328.021 132.43 343.593 131.809 342.35 122.581Z" fill="#304937"/>
<path d="M306.681 175.021C310.452 175.021 315.998 187.975 312.005 196.671C308.678 203.858 298.474 217.478 296.61 218.188C288.758 221.205 302.866 175.021 306.681 175.021Z" fill="#304937"/>
<path d="M315.421 211.577C318.837 211.444 317.24 221.826 311.872 229.323C307.435 235.49 299.627 240.947 297.808 241.612C290.089 244.452 311.961 211.755 315.421 211.577Z" fill="#304937"/>
<g style="mix-blend-mode:screen" opacity="0.3">
<path d="M159.921 64.2406C171.119 64.2406 180.196 55.1633 180.196 43.9658C180.196 32.7683 171.119 23.6909 159.921 23.6909C148.724 23.6909 139.646 32.7683 139.646 43.9658C139.646 55.1633 148.724 64.2406 159.921 64.2406Z" fill="#6EF1FA"/>
</g>
<g style="mix-blend-mode:screen" opacity="0.3">
<path d="M162.272 28.3936C160.498 30.1682 163.825 33.54 167.641 37.2667C171.456 40.9933 174.207 43.744 175.981 41.9694C177.756 40.1948 176.114 35.7139 172.343 31.9428C168.572 28.1718 164.047 26.5747 162.317 28.3493L162.272 28.3936Z" fill="#6EF1FA"/>
</g>
<g style="mix-blend-mode:screen" opacity="0.3">
<path d="M134.278 25.1107C141.212 25.1107 146.833 19.4894 146.833 12.5553C146.833 5.6212 141.212 0 134.278 0C127.344 0 121.723 5.6212 121.723 12.5553C121.723 19.4894 127.344 25.1107 134.278 25.1107Z" fill="#6EF1FA"/>
</g>
<g style="mix-blend-mode:screen" opacity="0.3">
<path d="M136.008 4.21462C137.783 5.98922 135.52 8.2962 132.947 10.825C130.374 13.3538 128.466 15.2172 126.736 13.4426C125.006 11.6679 125.627 8.1631 128.156 5.58993C130.684 3.01675 134.234 2.44001 136.008 4.21462Z" fill="#6EF1FA"/>
</g>
</svg>
