<svg width="441" height="360" viewBox="0 0 441 360" fill="none" xmlns="http://www.w3.org/2000/svg">
<path d="M396.354 199.471C391.629 212.054 378.671 212.054 378.671 212.054C378.671 212.054 403.324 233.901 386.905 242.649C371.561 250.788 364.216 243.725 363.281 242.742C363.889 244.005 372.637 262.203 357.761 263.793C343.212 265.384 336.101 257.899 335.306 257.057C335.821 258.414 342.042 274.319 335.868 274.833C329.412 275.442 318.231 270.623 318.231 270.623C318.231 270.623 329.412 293.031 318.231 292.469C307.098 291.861 299.473 273.664 299.473 273.664C299.473 273.664 298.864 293.639 285.953 301.264C273.042 308.889 265.604 297.756 265.604 297.756C265.604 297.756 271.872 315.345 258.961 321.801C246.05 328.256 234.308 321.801 234.308 321.801C234.308 321.801 234.869 353.518 223.736 354.687C212.602 355.857 206.708 341.168 206.708 341.168C206.708 341.168 195.621 362.874 181.212 359.365C167.506 356.044 171.108 344.208 171.482 343.039C170.547 343.834 157.682 354.921 148.607 346.454C139.204 337.659 151.554 324.748 151.554 324.748C151.554 324.748 131.579 333.542 131.017 323.578C130.409 313.567 143.929 311.228 143.929 311.228C143.929 311.228 120.445 313.567 120.445 300.095C120.445 286.622 138.642 283.581 138.642 283.581C138.642 283.581 117.732 278.482 125.029 270.623C132.327 262.764 145.659 261.361 145.659 261.361C145.659 261.361 137.473 246.064 156.232 235.538C165.822 230.158 172.09 230.72 175.973 232.544C179.715 234.275 181.212 237.269 181.212 237.269C181.212 237.269 177.423 212.616 195.293 206.768C213.163 200.874 216.718 215.142 216.718 215.142C216.718 215.142 215.502 202.184 221.958 199.471C228.414 196.804 235.477 210.277 235.477 210.277C235.477 210.277 239.594 182.022 254.844 183.519C269.253 184.969 275.615 187.776 276.27 188.056C275.615 186.98 267.054 172.853 278.843 166.023C289.649 159.754 302.466 175.098 303.776 176.735C302.7 174.864 291.426 155.638 298.537 151.1C298.818 150.866 299.145 150.726 299.473 150.585C308.829 146.89 322.956 161.953 322.956 161.953C322.956 161.953 324.687 121.254 340.546 119.43C356.404 117.559 361.69 131.405 361.69 131.405C361.69 131.405 371.514 121.067 376.005 129.581C380.449 138.095 376.005 150.585 376.005 150.585C376.005 150.585 399.816 147.638 401.594 161.953C403.324 176.221 392.191 186.232 392.191 186.232C392.191 186.232 401.126 186.933 396.354 199.471Z" fill="#F8F3EC"/>
<path d="M323.33 188.103C323.33 188.103 346.58 202.605 331.47 210.183C316.36 217.715 293.718 210.183 293.718 210.183C293.718 210.183 294.888 240.497 273.977 242.789C253.02 245.034 247.219 232.544 247.219 232.544C247.219 232.544 242.588 256.168 231.548 256.963C221.35 257.759 226.028 242.274 226.776 239.842C225.092 243.584 209.888 276.611 195.293 268.331C179.856 259.536 175.973 232.544 175.973 232.544C179.715 234.275 181.212 237.269 181.212 237.269C181.212 237.269 177.423 212.616 195.293 206.768C213.163 200.874 216.718 215.142 216.718 215.142C216.718 215.142 215.502 202.184 221.958 199.471C228.413 196.804 235.477 210.277 235.477 210.277C235.477 210.277 239.594 182.021 254.844 183.518C269.252 184.969 275.615 187.775 276.269 188.056C275.615 186.98 267.054 172.853 278.842 166.023C289.649 159.754 302.466 175.098 303.776 176.735C302.7 174.864 291.426 155.638 298.537 151.1L303.589 171.169C303.589 171.169 343.071 153.018 343.071 167.379C343.071 181.741 323.33 188.103 323.33 188.103Z" fill="#D8D0C7"/>
<path d="M237.91 197.131C244.973 197.085 261.393 200.921 265.604 220.849C264.34 236.006 227.899 219.258 227.899 219.258C225.279 238.158 214.286 253.689 187.2 263.84C152.817 276.704 109.919 260.519 108.142 236.754C106.364 212.99 133.543 184.033 169.798 178.373C192.252 174.864 205.959 180.618 220.414 192.874C213.397 175.145 231.548 160.456 241.418 162.093C248.529 167.426 246.751 193.249 237.863 197.178L237.91 197.131Z" fill="#3B087D"/>
<path d="M127.883 222.393C133.496 223.141 134.292 227.866 133.543 233.433C132.795 239 130.83 243.397 125.216 242.648C119.603 241.9 115.673 236.801 116.422 231.187C117.17 225.574 122.269 221.644 127.883 222.393Z" fill="#FED220"/>
<path d="M327.353 61.3756C327.634 62.779 351.585 65.9133 354.86 75.4564C349.293 87.3386 312.617 82.5202 312.617 82.5202C309.998 101.419 288.993 127.523 261.908 137.674C227.524 150.538 191.176 148.995 182.849 126.681C174.522 104.367 199.503 63.5275 233.886 50.6629C260.785 40.6052 287.73 43.1781 302.232 55.3877C303.121 41.6343 319.166 20.2558 323.844 20.7236C331.236 22.8287 327.072 59.9722 327.4 61.3756H327.353Z" fill="#3578A6"/>
<path d="M209.139 93.0924C214.426 95.104 214.098 99.8755 212.133 105.162C210.169 110.448 207.221 114.237 201.935 112.226C196.649 110.214 193.983 104.32 195.994 99.0335C198.006 93.7474 203.9 91.0809 209.186 93.0924H209.139Z" fill="#FED220"/>
<path d="M129.427 142.82C103.089 137.019 95.3706 156.76 95.3706 165.602C95.3706 176.501 110.995 184.969 118.48 183.284C136.35 179.168 148.045 164.058 148.045 164.058C148.045 164.058 159.927 175.566 166.336 173.648C172.745 171.73 160.535 157.602 160.535 157.602C160.535 157.602 176.581 140.902 169.845 140.574C163.108 140.247 145.753 148.901 145.753 148.901C145.753 148.901 138.034 144.691 129.38 142.82H129.427Z" fill="#3B087D"/>
<path d="M108.937 157.088C111.697 158.117 111.557 160.643 110.481 163.403C109.405 166.163 107.908 168.128 105.148 167.099C102.388 166.069 100.984 162.982 102.06 160.222C103.136 157.462 106.177 156.058 108.937 157.134V157.088Z" fill="#FED220"/>
<path d="M330.534 151.614C330.534 151.614 335.539 167.66 321.271 182.957C307.004 198.301 276.55 205.224 264.246 193.67C251.99 182.068 262.843 150.071 278.842 142.352C296.431 133.885 311.962 139.124 311.962 139.124C308.079 139.311 311.869 113.161 319.073 112.74C323.33 112.459 331.329 129.908 331.329 129.908C331.329 129.908 354.111 123.359 356.871 126.681C362.906 134.025 335.072 155.31 330.487 151.614H330.534Z" fill="#3B087D"/>
<path d="M275.474 171.168C278.608 171.543 279.122 174.162 278.748 177.297C278.374 180.431 277.345 182.91 274.164 182.536C270.983 182.162 268.784 179.355 269.112 176.221C269.439 173.086 272.293 170.841 275.427 171.168H275.474Z" fill="#FED220"/>
<path d="M416.282 107.922C416.282 107.922 417.733 91.1278 400.143 85.3738C382.554 79.6199 365.9 89.5372 361.971 100.484C358.041 111.43 367.491 127.055 383.63 130.002C399.769 132.902 408.844 125.839 408.844 125.839C408.844 125.839 421.241 143.475 427.65 141.744C434.059 140.013 426.059 120.131 426.059 120.131C426.059 120.131 442.526 110.542 439.813 103.337C437.099 96.1332 416.282 107.969 416.282 107.969V107.922Z" fill="#3578A6"/>
<path d="M376.8 98.2851C379.934 98.6594 380.449 101.279 380.075 104.413C379.701 107.548 378.671 110.027 375.49 109.653C372.309 109.278 370.111 106.472 370.438 103.337C370.766 100.203 373.619 97.9577 376.753 98.2851H376.8Z" fill="#FED220"/>
<path d="M82.5059 237.035C84.1899 238.392 85.2659 263.092 70.9044 273.664C55.1395 285.265 37.597 287.37 25.9955 276.424C18.23 269.079 23.3758 239.421 35.0708 229.27C53.9232 212.99 73.337 219.212 73.337 219.212C71.0447 214.44 83.535 200.172 89.9907 201.856C94.2009 202.979 90.1311 223.89 88.6809 223.562C90.8328 222.206 104.118 234.181 101.592 240.637C100.095 244.473 82.5059 237.082 82.5059 237.082V237.035Z" fill="#3578A6"/>
<path d="M34.1819 257.197C37.8308 256.168 39.5617 258.835 40.6376 262.437C41.7135 266.039 41.62 269.266 38.0179 270.342C34.4158 271.418 30.5799 269.313 29.5507 265.664C28.5215 262.016 30.5799 258.226 34.2287 257.197H34.1819Z" fill="#FED220"/>
<path d="M147.109 315.953C147.109 315.953 132.748 323.064 128.537 313.941C124.327 304.819 139.484 297.943 139.484 297.943L147.109 315.953Z" fill="#F8F3EC"/>
<path d="M146.829 316.561C146.829 316.561 132.467 323.672 128.257 314.55C124.047 305.428 139.203 298.551 139.203 298.551" stroke="#D8D0C7" stroke-miterlimit="10"/>
<path d="M236.833 270.623C236.833 270.623 247.032 282.973 239.079 289.148C230.939 295.463 221.022 282.084 221.022 282.084L236.833 270.576V270.623Z" fill="#F8F3EC"/>
<path d="M237.535 270.763C237.535 270.763 247.733 283.113 239.781 289.288C231.828 295.463 221.723 282.225 221.723 282.225" stroke="#D8D0C7" stroke-miterlimit="10"/>
<path d="M216.905 305.428C216.905 305.428 214.005 321.192 204.181 319.087C194.357 316.982 197.959 300.75 197.959 300.75L216.952 305.428H216.905Z" fill="#F8F3EC"/>
<path d="M217.233 306.036C217.233 306.036 214.333 321.801 204.509 319.695C194.685 317.59 198.287 301.358 198.287 301.358" stroke="#D8D0C7" stroke-miterlimit="10"/>
<path d="M423.861 214.861C421.943 218.837 416.049 220.007 410.716 217.387C405.383 214.768 398.974 210.885 400.939 206.908C402.903 202.932 412.4 200.359 417.733 202.979C423.066 205.599 425.779 210.885 423.861 214.861Z" fill="#D8D0C7"/>
<path d="M99.8612 328.958C103.276 326.151 109.124 327.555 112.866 332.139C116.609 336.724 120.819 342.945 117.404 345.752C113.989 348.559 104.259 346.922 100.516 342.337C96.7738 337.753 96.4931 331.765 99.908 328.958H99.8612Z" fill="#F8F3EC"/>
<path d="M367.678 284.985C367.163 288.166 362.859 290.084 358.041 289.288C353.223 288.493 347.281 286.949 347.796 283.768C348.311 280.587 355.141 276.938 359.959 277.734C364.777 278.529 368.192 281.757 367.678 284.938V284.985Z" fill="#D8D0C7"/>
<path d="M324.687 242.836C324.687 242.836 325.669 255.56 316.266 256.542C306.864 257.525 303.028 248.449 303.028 248.449C308.594 236.567 315.986 235.912 324.687 242.836Z" fill="#F8F3EC"/>
<path d="M315.518 259.302C307.705 259.302 302.98 253.174 301.53 249.712L305.834 247.888C305.974 248.169 309.202 255.326 316.687 254.578C323.704 253.829 323.002 243.491 323.002 243.35L327.68 242.976C328.055 248.169 326.371 258.226 317.202 259.209C316.64 259.256 316.079 259.302 315.564 259.302H315.518Z" fill="#D8D0C7"/>
<path d="M364.356 168.362C364.356 168.362 377.08 169.297 376.659 178.7C376.238 188.103 366.648 190.582 366.648 190.582C355.702 183.285 356.216 175.893 364.356 168.362Z" fill="#F8F3EC"/>
<path d="M364.824 167.847C364.824 167.847 377.548 168.783 377.127 178.186C376.706 187.588 367.116 190.068 367.116 190.068" stroke="#D8D0C7" stroke-miterlimit="10"/>
<path d="M430.036 168.783C432.515 170.841 432 175.519 428.913 179.261C425.825 183.004 421.475 187.401 418.995 185.343C416.516 183.285 416.797 175.566 419.931 171.823C423.065 168.081 427.556 166.724 430.036 168.783Z" fill="#D8D0C7"/>
<g style="mix-blend-mode:screen" opacity="0.3">
<path d="M405.056 67.7375C416.863 67.7375 426.434 58.1661 426.434 46.359C426.434 34.552 416.863 24.9805 405.056 24.9805C393.248 24.9805 383.677 34.552 383.677 46.359C383.677 58.1661 393.248 67.7375 405.056 67.7375Z" fill="#6EF1FA"/>
</g>
<g style="mix-blend-mode:screen" opacity="0.3">
<path d="M407.535 29.9393C405.664 31.8105 409.172 35.3658 413.195 39.2954C417.218 43.2249 420.119 46.1253 421.99 44.2541C423.861 42.3828 422.13 37.6581 418.154 33.6818C414.178 29.7055 409.406 28.0214 407.582 29.8926L407.535 29.9393Z" fill="#6EF1FA"/>
</g>
<g style="mix-blend-mode:screen" opacity="0.3">
<path d="M378.063 26.4776C385.375 26.4776 391.302 20.5504 391.302 13.2388C391.302 5.92721 385.375 0 378.063 0C370.752 0 364.824 5.92721 364.824 13.2388C364.824 20.5504 370.752 26.4776 378.063 26.4776Z" fill="#6EF1FA"/>
</g>
<g style="mix-blend-mode:screen" opacity="0.3">
<path d="M379.841 4.44397C381.712 6.31517 379.326 8.74777 376.613 11.4142C373.9 14.0807 371.888 16.0454 370.064 14.1742C368.239 12.303 368.894 8.60739 371.561 5.89414C374.227 3.18089 377.97 2.57276 379.841 4.44397Z" fill="#6EF1FA"/>
</g>
<path d="M61.5568 127.689C66.6364 129.738 72.4151 127.281 74.4639 122.201C76.5127 117.121 74.0558 111.343 68.9762 109.294C63.8966 107.245 58.1178 109.702 56.069 114.782C54.0203 119.861 56.4772 125.64 61.5568 127.689Z" fill="url(#paint0_radial_2449_3305)"/>
<path d="M21.039 161.738C27.6042 164.386 35.0729 161.21 37.7208 154.645C40.3688 148.08 37.1933 140.611 30.6282 137.963C24.063 135.315 16.5943 138.491 13.9463 145.056C11.2984 151.621 14.4739 159.09 21.039 161.738Z" fill="url(#paint1_radial_2449_3305)"/>
<path d="M32.8849 192.897C37.9166 194.926 43.6408 192.493 45.6703 187.461C47.6997 182.429 45.2659 176.705 40.2342 174.676C35.2025 172.646 29.4784 175.08 27.4489 180.112C25.4194 185.143 27.8532 190.868 32.8849 192.897Z" fill="url(#paint2_radial_2449_3305)"/>
<defs>
<radialGradient id="paint0_radial_2449_3305" cx="0" cy="0" r="1" gradientUnits="userSpaceOnUse" gradientTransform="translate(118.728 63.2313) rotate(-158.034) scale(293.498 293.499)">
<stop stop-color="#6EF1FA"/>
<stop offset="0.04" stop-color="#6BECF7"/>
<stop offset="0.08" stop-color="#64DDEE"/>
<stop offset="0.12" stop-color="#57C6E0"/>
<stop offset="0.17" stop-color="#46A5CC"/>
<stop offset="0.22" stop-color="#317BB3"/>
<stop offset="0.24" stop-color="#2768A8"/>
<stop offset="0.28" stop-color="#245495"/>
<stop offset="0.35" stop-color="#22387A"/>
<stop offset="0.43" stop-color="#1F2365"/>
<stop offset="0.51" stop-color="#1E1356"/>
<stop offset="0.6" stop-color="#1D0A4D"/>
<stop offset="0.74" stop-color="#1D084B"/>
</radialGradient>
<radialGradient id="paint1_radial_2449_3305" cx="0" cy="0" r="1" gradientUnits="userSpaceOnUse" gradientTransform="translate(110.836 82.7976) rotate(-158.034) scale(293.498)">
<stop stop-color="#6EF1FA"/>
<stop offset="0.04" stop-color="#6BECF7"/>
<stop offset="0.08" stop-color="#64DDEE"/>
<stop offset="0.12" stop-color="#57C6E0"/>
<stop offset="0.17" stop-color="#46A5CC"/>
<stop offset="0.22" stop-color="#317BB3"/>
<stop offset="0.24" stop-color="#2768A8"/>
<stop offset="0.28" stop-color="#245495"/>
<stop offset="0.35" stop-color="#22387A"/>
<stop offset="0.43" stop-color="#1F2365"/>
<stop offset="0.51" stop-color="#1E1356"/>
<stop offset="0.6" stop-color="#1D0A4D"/>
<stop offset="0.74" stop-color="#1D084B"/>
</radialGradient>
<radialGradient id="paint2_radial_2449_3305" cx="0" cy="0" r="1" gradientUnits="userSpaceOnUse" gradientTransform="translate(98.4604 99.8492) rotate(-158.034) scale(250.508 250.507)">
<stop stop-color="#6EF1FA"/>
<stop offset="0.04" stop-color="#6BECF7"/>
<stop offset="0.08" stop-color="#64DDEE"/>
<stop offset="0.12" stop-color="#57C6E0"/>
<stop offset="0.17" stop-color="#46A5CC"/>
<stop offset="0.22" stop-color="#317BB3"/>
<stop offset="0.24" stop-color="#2768A8"/>
<stop offset="0.28" stop-color="#245495"/>
<stop offset="0.35" stop-color="#22387A"/>
<stop offset="0.43" stop-color="#1F2365"/>
<stop offset="0.51" stop-color="#1E1356"/>
<stop offset="0.6" stop-color="#1D0A4D"/>
<stop offset="0.74" stop-color="#1D084B"/>
</radialGradient>
</defs>
</svg>
