<svg width="534" height="457" viewBox="0 0 534 457" fill="none" xmlns="http://www.w3.org/2000/svg">
<path d="M246.149 312.53C246.149 312.53 202.065 313.369 190.106 327.838C166.643 356.155 213.743 374.792 198.053 392.713C190.199 401.717 171.631 389.817 159.776 390.25C152.983 390.491 148.598 396.155 146.048 400.911C144.859 403.142 141.854 403.407 140.176 401.487C138.498 399.568 136.384 398.97 134.032 402.759C128.844 411.008 126.254 420.888 155.062 431.915C183.822 442.913 192.498 416.813 192.498 416.813C192.498 416.813 207.213 416.195 218.526 403.188C235.228 384.082 198.503 362.124 213.198 345.301C227.894 328.478 245.755 333.086 245.755 333.086L246.139 312.492L246.149 312.53Z" fill="url(#paint0_radial_2839_648)"/>
<path d="M191.66 250.027C191.66 250.027 191.712 269.923 186.007 274.07C180.301 278.218 170.628 273.452 144.14 280.55C117.653 287.647 92.9435 308.982 100.166 335.935C107.388 362.888 129.423 369.578 136.734 371.734C146.933 374.738 171.074 378.12 172.398 367.083C173.315 359.646 161.441 358.921 161.441 358.921C161.441 358.921 158.472 343.963 152.061 335.705C145.65 327.447 129.452 329.667 130.851 311.461C132.249 293.255 186.519 291.806 196.796 289.052C207.073 286.299 209.944 268.778 209.944 268.778L191.621 250.037L191.66 250.027Z" fill="url(#paint1_radial_2839_648)"/>
<path d="M218.973 137.422C218.973 137.422 208.358 134.572 192.599 151.306C169.053 176.361 154.851 201.697 164.958 246.707C175.064 291.716 201.816 308.407 230.036 329.027C258.256 349.647 281.49 348.866 301.09 341.661C320.69 334.455 361.36 300.863 378.948 294.987C396.535 289.11 418.86 270.201 425.57 258.635C432.281 247.069 417.081 226.951 417.081 226.951C417.081 226.951 360.225 104.271 314.345 95.6149C255.148 84.4175 222.267 125.982 218.983 137.461L218.973 137.422Z" fill="#222B25"/>
<path d="M405.236 233.783C405.236 233.783 417.017 251.533 401.586 261.113C386.155 270.693 369.867 272.73 360.608 277.58C351.35 282.43 311.523 313.427 296.488 317.04C281.453 320.653 247.43 304.747 238.199 241.131C228.967 177.515 262.908 124.236 281.551 116.872C306.328 107.115 338.299 127.77 338.299 127.77" fill="#F8F3EC"/>
<path d="M302.619 185.879C302.619 185.879 291.394 176.25 298.297 163.386C302.291 155.956 311.214 156.059 315.573 157.593C318.277 158.531 322.759 156.332 323.198 153.471C324.75 143.288 330 110.291 399.266 120.287C432.518 125.094 484.94 152.114 475.11 206.331C466.948 251.414 411.254 245.845 400.184 236.176C398.019 234.303 392.986 237.855 393.695 240.658C395.072 246.108 395.233 253.38 387.387 255.898C374.29 260.072 365.878 248.069 365.878 248.069C332.361 237.93 312.718 215.968 302.58 185.889L302.619 185.879Z" fill="url(#paint2_radial_2839_648)"/>
<path d="M162.12 228.513C162.12 228.513 163.547 236.319 140.355 242.533C117.164 248.748 113.94 178.077 70.8926 189.611C54.333 194.049 53.8265 207.361 45.3786 219.267C23.7525 249.628 45.8076 279.506 51.1624 280.565C56.5172 281.624 55.5657 266.749 55.5657 266.749C55.5657 266.749 68.5475 267.885 77.0676 257.953C88.4235 244.644 76.6006 222.083 78.6626 218.454C80.7247 214.826 92.1418 213.845 100.425 239.017C108.708 264.19 122.567 270.618 140.606 267.822C158.644 265.025 167.722 257.023 167.722 257.023L162.208 228.531L162.12 228.513Z" fill="url(#paint3_radial_2839_648)"/>
<path d="M163.098 203.312C163.098 203.312 162.693 191.408 143.382 187.437C124.071 183.467 95.1241 175.803 87.5383 147.492C79.9526 119.182 91.2911 97.8966 124.759 88.9288C124.759 88.9288 144.329 73.543 157.086 83.3012C169.843 93.0594 172.051 118.363 172.051 118.363C172.051 118.363 179.345 117.198 181.699 122.262C184.054 127.326 177.285 133.711 155.932 132.824C134.579 131.937 130.176 109.299 130.176 109.299C130.176 109.299 102.856 112.048 109.963 138.574C117.071 165.1 134.364 155.645 143.155 157.737C163.923 162.647 172.558 177.5 172.558 177.5L163.059 203.322L163.098 203.312Z" fill="url(#paint4_radial_2839_648)"/>
<path d="M294.746 186.284C294.746 186.284 306.226 183.208 309.203 190.599C312.181 197.989 306.209 204.245 306.209 204.245C297.731 201.612 293.015 196.266 294.746 186.284Z" fill="#F8F3EC"/>
<path d="M311.046 210.971C311.046 210.971 319.209 205.292 323.185 212.374C327.161 219.455 323.428 222.742 323.428 222.742C315.259 221.73 311.383 217.656 311.085 210.961L311.046 210.971Z" fill="#F8F3EC"/>
<path d="M328.379 229.894C328.379 229.894 335.287 221.392 341.72 226.319C348.153 231.246 345.17 239.195 345.17 239.195C334.683 243.335 329.697 239.309 328.379 229.894Z" fill="#F8F3EC"/>
<path d="M348.325 247.245C348.325 247.245 353.888 234.656 361.703 238.381C369.518 242.106 363.228 254.931 363.228 254.931L348.314 247.206L348.325 247.245Z" fill="#F8F3EC"/>
<path d="M294.747 186.284C294.747 186.284 306.226 183.208 309.204 190.599C312.182 197.989 306.21 204.245 306.21 204.245" stroke="#D8D0C7" stroke-width="0.930251" stroke-miterlimit="10"/>
<path d="M311.046 210.971C311.046 210.971 319.209 205.292 323.185 212.374C327.161 219.455 323.428 222.742 323.428 222.742" stroke="#D8D0C7" stroke-width="0.930251" stroke-miterlimit="10"/>
<path d="M328.379 229.894C328.379 229.894 335.287 221.393 341.719 226.319C348.152 231.246 345.169 239.195 345.169 239.195" stroke="#D8D0C7" stroke-width="0.930251" stroke-miterlimit="10"/>
<path d="M348.325 247.245C348.325 247.245 353.888 234.656 361.703 238.381C369.518 242.106 363.228 254.931 363.228 254.931" stroke="#D8D0C7" stroke-width="0.930251" stroke-miterlimit="10"/>
<path d="M270.901 270.567C270.901 270.567 281.199 274.251 278.689 281.948C276.179 289.645 267.694 289.466 267.694 289.466C260.333 280.922 262.424 274.917 270.901 270.567Z" fill="#F8F3EC"/>
<path d="M271.392 270.228C271.392 270.228 281.69 273.911 279.18 281.608C276.67 289.306 268.185 289.127 268.185 289.127" stroke="#D8D0C7" stroke-width="0.930251" stroke-miterlimit="10"/>
<path d="M278.573 159.277C278.573 159.277 292.233 160.771 291.043 169.361C289.853 177.952 275.735 175.833 275.735 175.833L278.573 159.277Z" fill="#F8F3EC"/>
<path d="M279.064 158.938C279.064 158.938 292.724 160.432 291.534 169.022C290.344 177.612 276.226 175.493 276.226 175.493" stroke="#D8D0C7" stroke-width="0.930251" stroke-miterlimit="10"/>
<path d="M306.59 236.688C306.59 236.688 318.082 229.162 322.638 236.545C327.193 243.928 314.909 251.293 314.909 251.293L306.6 236.727L306.59 236.688Z" fill="#F8F3EC"/>
<path d="M306.765 236.101C306.765 236.101 318.257 228.574 322.812 235.958C327.368 243.341 315.084 250.706 315.084 250.706" stroke="#D8D0C7" stroke-width="0.930251" stroke-miterlimit="10"/>
<path d="M267.96 183.112C281.464 179.369 281.502 204.797 291.033 211.512C300.563 218.228 314.678 251.979 292.858 260.985C280.613 266.012 269.71 268.601 258.685 223.422C249.209 184.645 267.971 183.15 267.971 183.15L267.96 183.112Z" fill="#ADD13F"/>
<path d="M290.806 298.32C283.534 285.139 298.138 274.492 311.667 265.879C325.196 257.266 332.179 257.889 335.037 263.898C337.894 269.908 331.858 276.388 325.016 281.879C314.898 290.036 299.746 314.463 290.796 298.281L290.806 298.32Z" fill="#009245"/>
<path d="M292.924 143.336C293.911 147.021 290.745 151.028 285.82 152.348C280.895 153.667 274.562 154.699 273.585 151.054C272.608 147.408 277.369 140.355 282.256 139.046C287.142 137.736 291.937 139.652 292.913 143.298L292.924 143.336Z" fill="#D8D0C7"/>
<path d="M407.538 266.418C407.057 270.205 402.58 272.735 397.544 272.089C392.508 271.443 386.221 270.01 386.714 266.262C387.206 262.514 394.255 257.799 399.291 258.445C404.328 259.09 408.03 262.67 407.538 266.418Z" fill="#D8D0C7"/>
<path d="M384.478 297.786C384.756 294.012 389.12 291.222 394.172 291.614C399.223 292.006 405.592 293.126 405.276 296.91C404.96 300.694 398.159 305.717 393.107 305.325C388.056 304.933 384.191 301.521 384.468 297.747L384.478 297.786Z" fill="#F8F3EC"/>
<path d="M438.101 291.44C436.955 295.072 432.084 296.751 427.256 295.177C422.429 293.602 416.513 291.072 417.67 287.479C418.827 283.885 426.621 280.55 431.438 282.085C436.256 283.621 439.248 287.807 438.101 291.44Z" fill="#F8F3EC"/>
<path d="M343.381 280.451C346.51 278.324 351.408 280.004 354.235 284.193C357.061 288.382 360.156 294.037 357.027 296.164C353.897 298.291 345.699 296.082 342.834 291.903C339.968 287.725 340.252 282.578 343.381 280.451Z" fill="#D8D0C7"/>
<path d="M281.973 110.69C284.677 113.333 284.052 118.446 280.49 122.061C276.927 125.676 272.021 129.858 269.318 127.216C266.615 124.573 267.086 116.092 270.648 112.478C274.21 108.863 279.27 108.048 281.973 110.69Z" fill="#D8D0C7"/>
<path d="M257.782 104.952C256.772 108.631 251.993 110.493 247.09 109.105C242.187 107.717 236.208 105.412 237.228 101.772C238.248 98.1319 245.919 94.4968 250.811 95.8462C255.704 97.1955 258.83 101.263 257.821 104.941L257.782 104.952Z" fill="#F8F3EC"/>
<path d="M216.597 92.8765C220.347 92.2875 224.021 95.9168 224.777 100.91C225.533 105.903 225.895 112.373 222.135 112.924C218.375 113.474 211.924 108.012 211.158 102.98C210.391 97.9478 212.799 93.437 216.548 92.8481L216.597 92.8765Z" fill="#F8F3EC"/>
<path d="M252.95 242.665C256.634 241.678 260.641 244.844 261.961 249.769C263.281 254.694 264.312 261.027 260.667 262.004C257.021 262.98 249.968 258.22 248.659 253.333C247.35 248.447 249.265 243.652 252.911 242.675L252.95 242.665Z" fill="#D8D0C7"/>
<path d="M311.148 127.895C313.661 129.051 314.273 133.043 312.545 136.831C310.817 140.62 308.187 145.232 305.674 144.076C303.161 142.92 301.68 136.459 303.447 132.66C305.214 128.862 308.635 126.739 311.148 127.895Z" fill="#D8D0C7"/>
<path d="M259.665 266.637C262.177 267.792 262.79 271.785 261.061 275.573C259.333 279.361 256.703 283.973 254.191 282.818C251.678 281.662 250.196 275.201 251.963 271.402C253.73 267.603 257.152 265.481 259.665 266.637Z" fill="#D8D0C7"/>
<path d="M330.201 244.453C331.957 242.32 335.976 242.739 339.215 245.363C342.453 247.986 346.236 251.711 344.48 253.845C342.724 255.978 336.098 255.758 332.888 253.085C329.678 250.412 328.483 246.576 330.229 244.404L330.201 244.453Z" fill="#D8D0C7"/>
<path d="M377.427 237.036C380.347 234.591 383.654 236.074 386.316 239.185C388.979 242.295 389.847 245.845 386.966 248.28C384.085 250.714 382.199 248.019 379.537 244.908C376.874 241.798 374.546 239.47 377.427 237.036Z" fill="#FDD120"/>
<path d="M316.78 174.976C319.135 171.976 317.512 168.711 314.344 166.194C311.175 163.676 307.598 162.889 305.242 165.889C302.887 168.889 305.693 170.673 308.862 173.191C312.03 175.709 314.436 178.015 316.791 175.015L316.78 174.976Z" fill="#FDD120"/>
<path d="M215.944 145.508C215.944 145.508 205.478 185.098 199.18 186.411C192.881 187.725 203.56 150.946 203.56 150.946C207.122 145.004 211.072 141.909 215.983 145.498L215.944 145.508Z" fill="#304937"/>
<path d="M187.085 234.501C183.775 243.868 210.534 288.197 209.045 292.878C207.12 298.88 172.911 268.476 173.904 246.429C178.858 230.637 183.442 228.661 187.085 234.501Z" fill="#304937"/>
<path d="M223.542 261.975C220.232 271.341 246.991 315.671 245.502 320.352C243.577 326.354 209.368 295.95 210.361 273.903C215.315 258.111 219.899 256.135 223.542 261.975Z" fill="#304937"/>
<path d="M242.178 121.644C242.178 121.644 231.712 161.234 225.413 162.548C219.115 163.861 229.793 127.082 229.793 127.082C233.355 121.14 237.306 118.045 242.216 121.634L242.178 121.644Z" fill="#304937"/>
<path d="M264.788 189.739C268.233 187.237 270.715 186.572 271.818 194.257C272.921 201.942 277.198 222.867 271.179 226.932C265.161 230.997 260.541 212.824 259.716 204.316C258.891 195.808 264.788 189.739 264.788 189.739Z" fill="#009245"/>
<path d="M327.744 264.605C329.988 265.999 331.234 267.079 329.231 268.447C327.228 269.814 322.275 274.134 318.455 271.666C314.635 269.198 318.559 265.071 320.941 263.726C323.324 262.381 327.734 264.566 327.734 264.566L327.744 264.605Z" fill="#ADD13F"/>
<g style="mix-blend-mode:screen" opacity="0.3">
<path d="M379.286 100.951C389.074 98.3278 394.883 88.2668 392.26 78.4786C389.638 68.6904 379.577 62.8817 369.788 65.5044C360 68.1271 354.192 78.1882 356.814 87.9764C359.437 97.7645 369.498 103.573 379.286 100.951Z" fill="#6EF1FA"/>
</g>
<g style="mix-blend-mode:screen" opacity="0.3">
<path d="M368.835 70.1655C370.802 71.3011 368.683 75.0278 366.221 79.1791C363.758 83.3304 361.998 86.3791 360.031 85.2435C358.064 84.1079 358.45 79.8065 360.863 75.6269C363.276 71.4472 366.858 68.9911 368.786 70.1371L368.835 70.1655Z" fill="#6EF1FA"/>
</g>
<g style="mix-blend-mode:screen" opacity="0.3">
<path d="M392.537 60.739C398.599 59.1149 402.196 52.8845 400.572 46.8231C398.948 40.7617 392.717 37.1646 386.656 38.7888C380.594 40.4129 376.997 46.6433 378.621 52.7047C380.246 58.766 386.476 62.3631 392.537 60.739Z" fill="#6EF1FA"/>
</g>
<g style="mix-blend-mode:screen" opacity="0.3">
<path d="M386.131 42.8781C384.995 44.8451 387.513 46.3317 390.355 47.9396C393.196 49.5474 395.3 50.7294 396.397 48.7729C397.494 46.8163 396.13 43.8981 393.317 42.2411C390.504 40.5841 387.266 40.9112 386.131 42.8781Z" fill="#6EF1FA"/>
</g>
<path opacity="0.5" d="M335.433 142.67C335.629 131.768 370.067 118.509 374.336 134.283C375.219 137.579 341.825 137.05 340.517 142.721C339.846 145.644 335.422 144.335 335.433 142.67Z" fill="#F8F3EC"/>
<path opacity="0.5" d="M383.413 133.097C385.726 132.477 387.075 130.013 386.427 127.593C385.778 125.172 383.378 123.713 381.064 124.333C378.751 124.952 377.402 127.417 378.05 129.837C378.699 132.258 381.1 133.717 383.413 133.097Z" fill="#F8F3EC"/>
<path d="M423.188 24.7365C422.813 29.419 418.707 32.9163 414.024 32.5411C409.342 32.1659 405.844 28.0592 406.22 23.3767C406.595 18.6943 410.701 15.1969 415.384 15.5722C420.066 15.9474 423.564 20.0541 423.188 24.7365Z" fill="url(#paint5_radial_2839_648)"/>
<path d="M432.068 74.2653C438.124 74.7506 443.427 70.2345 443.912 64.1783C444.398 58.122 439.881 52.819 433.825 52.3337C427.769 51.8484 422.466 56.3646 421.981 62.4208C421.495 68.477 426.011 73.78 432.068 74.2653Z" fill="url(#paint6_radial_2839_648)"/>
<path d="M411.024 93.6041C415.666 93.976 419.73 90.5148 420.102 85.8732C420.474 81.2315 417.013 77.1672 412.371 76.7952C407.73 76.4233 403.665 79.8846 403.293 84.5262C402.921 89.1678 406.383 93.2321 411.024 93.6041Z" fill="url(#paint7_radial_2839_648)"/>
<defs>
<radialGradient id="paint0_radial_2839_648" cx="0" cy="0" r="1" gradientUnits="userSpaceOnUse" gradientTransform="translate(607.069 133.375) rotate(41.16) scale(598.587 598.587)">
<stop offset="0.35" stop-color="#3B087D"/>
<stop offset="0.51" stop-color="#3D087A"/>
<stop offset="0.62" stop-color="#450A70"/>
<stop offset="0.72" stop-color="#530E61"/>
<stop offset="0.81" stop-color="#66134B"/>
<stop offset="0.9" stop-color="#7F1A2E"/>
<stop offset="0.98" stop-color="#9D220C"/>
<stop offset="1" stop-color="#A92500"/>
</radialGradient>
<radialGradient id="paint1_radial_2839_648" cx="0" cy="0" r="1" gradientUnits="userSpaceOnUse" gradientTransform="translate(280.672 -116.616) rotate(-15) scale(598.587 598.587)">
<stop offset="0.63" stop-color="#3B087D"/>
<stop offset="1" stop-color="#A92500"/>
</radialGradient>
<radialGradient id="paint2_radial_2839_648" cx="0" cy="0" r="1" gradientUnits="userSpaceOnUse" gradientTransform="translate(284.281 -72.9003) rotate(-15) scale(598.667 598.667)">
<stop offset="0.32" stop-color="#3B087D"/>
<stop offset="0.66" stop-color="#9D0C56"/>
</radialGradient>
<radialGradient id="paint3_radial_2839_648" cx="0" cy="0" r="1" gradientUnits="userSpaceOnUse" gradientTransform="translate(273.677 -76.7927) rotate(-15) scale(598.587 598.587)">
<stop offset="0.35" stop-color="#3B087D"/>
<stop offset="0.79" stop-color="#A92500"/>
</radialGradient>
<radialGradient id="paint4_radial_2839_648" cx="0" cy="0" r="1" gradientUnits="userSpaceOnUse" gradientTransform="translate(273.676 -76.7928) rotate(-15) scale(598.587 598.587)">
<stop offset="0.35" stop-color="#3B087D"/>
<stop offset="0.79" stop-color="#A92500"/>
</radialGradient>
<radialGradient id="paint5_radial_2839_648" cx="0" cy="0" r="1" gradientUnits="userSpaceOnUse" gradientTransform="translate(394.852 -38.8374) rotate(4.58153) scale(251.898 251.897)">
<stop stop-color="#6EF1FA"/>
<stop offset="0.04" stop-color="#6BECF7"/>
<stop offset="0.08" stop-color="#64DDEE"/>
<stop offset="0.12" stop-color="#57C6E0"/>
<stop offset="0.17" stop-color="#46A5CC"/>
<stop offset="0.22" stop-color="#317BB3"/>
<stop offset="0.24" stop-color="#2768A8"/>
<stop offset="0.28" stop-color="#245495"/>
<stop offset="0.35" stop-color="#22387A"/>
<stop offset="0.43" stop-color="#1F2365"/>
<stop offset="0.51" stop-color="#1E1356"/>
<stop offset="0.6" stop-color="#1D0A4D"/>
<stop offset="0.74" stop-color="#1D084B"/>
</radialGradient>
<radialGradient id="paint6_radial_2839_648" cx="0" cy="0" r="1" gradientUnits="userSpaceOnUse" gradientTransform="translate(393.405 -20.7877) rotate(4.58153) scale(251.897 251.897)">
<stop stop-color="#6EF1FA"/>
<stop offset="0.04" stop-color="#6BECF7"/>
<stop offset="0.08" stop-color="#64DDEE"/>
<stop offset="0.12" stop-color="#57C6E0"/>
<stop offset="0.17" stop-color="#46A5CC"/>
<stop offset="0.22" stop-color="#317BB3"/>
<stop offset="0.24" stop-color="#2768A8"/>
<stop offset="0.28" stop-color="#245495"/>
<stop offset="0.35" stop-color="#22387A"/>
<stop offset="0.43" stop-color="#1F2365"/>
<stop offset="0.51" stop-color="#1E1356"/>
<stop offset="0.6" stop-color="#1D0A4D"/>
<stop offset="0.74" stop-color="#1D084B"/>
</radialGradient>
<radialGradient id="paint7_radial_2839_648" cx="0" cy="0" r="1" gradientUnits="userSpaceOnUse" gradientTransform="translate(396.327 -2.95215) rotate(4.58153) scale(215 215)">
<stop stop-color="#6EF1FA"/>
<stop offset="0.04" stop-color="#6BECF7"/>
<stop offset="0.08" stop-color="#64DDEE"/>
<stop offset="0.12" stop-color="#57C6E0"/>
<stop offset="0.17" stop-color="#46A5CC"/>
<stop offset="0.22" stop-color="#317BB3"/>
<stop offset="0.24" stop-color="#2768A8"/>
<stop offset="0.28" stop-color="#245495"/>
<stop offset="0.35" stop-color="#22387A"/>
<stop offset="0.43" stop-color="#1F2365"/>
<stop offset="0.51" stop-color="#1E1356"/>
<stop offset="0.6" stop-color="#1D0A4D"/>
<stop offset="0.74" stop-color="#1D084B"/>
</radialGradient>
</defs>
</svg>
