<svg width="490" height="230" viewBox="0 0 490 230" fill="none" xmlns="http://www.w3.org/2000/svg">
<path fill-rule="evenodd" clip-rule="evenodd" d="M287.344 12.1498C277.11 8.36918 266.876 9.38741 261.719 14.1199C254.72 9.95176 245.87 6.65425 235.621 4.33747C231.163 2.68318 227.19 1.47514 224.285 1.06486C211.175 -0.786532 134.852 -0.221588 132.618 2.74144C130.391 5.70482 82.8178 20.5607 82.117 24.3673C81.4153 28.1741 51.2491 42.8602 47.5204 53.9803C43.7917 65.1006 31.8726 78.0862 36.6926 82.3471C37.0953 82.7031 39.029 82.5583 42.2382 81.9978C42.9452 84.3372 44.004 86.5672 45.3872 88.6843C40.6166 90.9393 35.5936 93.8249 30.5895 97.273C11.61 110.351 -3.89146 129.29 0.8679 136.198C21.3931 130.847 28.8462 135.365 47.8257 122.288C55.8194 116.78 62.4917 110.718 67.1815 105.029C70.1619 106.29 73.3592 107.433 76.7529 108.454C74.9304 110.765 73.1357 113.234 71.4022 115.84C58.6385 135.032 51.2811 158.375 58.2656 163.021C75.3347 150.429 83.9334 151.855 96.6972 132.663C100.987 126.213 104.363 119.748 106.691 113.83C125.155 115.356 146.272 114.348 168.348 110.399C153.754 139.237 147.485 167.307 157.594 174.03C184.974 153.831 200.472 153.297 219.588 129.939C220.553 146.649 224.676 159.826 231.17 160.626C242.294 138.563 251.894 135.546 255.183 108.86C256.689 96.6435 256.433 85.2852 254.795 76.446C267.899 66.6944 276.401 55.9863 278.642 45.4578C288.01 47.0201 293.18 41.548 304.886 39.0647C305.161 38.3184 305.32 37.5438 305.372 36.7492C306.106 36.5573 306.867 36.3744 307.657 36.2067C310.628 28.1622 300.063 16.8485 287.344 12.1498Z" fill="#2EA11F" fill-opacity="0.22"/>
<path d="M476.939 130.654C470.182 126.854 462.887 126.421 458.737 129.163C454.296 125.455 448.459 122.153 441.533 119.379C438.585 117.715 435.928 116.418 433.933 115.804C424.941 113.034 371.32 104.872 369.421 106.701C367.526 108.53 332.477 113.619 331.558 116.212C330.639 118.805 307.824 125.727 303.961 133.112C300.097 140.497 290.277 148.273 293.182 151.803C293.425 152.098 294.798 152.211 297.112 152.177C297.345 153.9 297.838 155.586 298.572 157.228C294.972 158.275 291.122 159.734 287.224 161.593C272.44 168.641 259.439 180.192 262.004 185.573C277.006 184.12 281.73 188.126 296.514 181.078C302.741 178.109 308.103 174.604 312.032 171.138C313.983 172.358 316.099 173.518 318.367 174.615C316.829 176.033 315.291 177.563 313.781 179.198C302.673 191.234 294.892 206.788 299.272 210.832C312.662 203.91 318.536 205.875 329.645 193.839C333.378 189.794 336.471 185.635 338.768 181.744C351.554 184.885 366.486 186.545 382.422 186.25C368.946 204.85 361.397 223.845 367.737 229.696C389.215 218.593 400.15 219.957 416.184 205.71C414.987 217.543 416.402 227.252 420.869 228.542C431.149 214.308 438.224 213.267 443.525 194.91C445.952 186.506 447.047 178.506 446.888 172.119C457.177 166.746 464.343 160.187 467.096 153.05C473.495 155.198 477.737 151.938 486.23 151.508C486.507 151.016 486.705 150.49 486.831 149.938C487.367 149.886 487.921 149.843 488.494 149.814C491.482 144.502 485.337 135.378 476.939 130.654Z" fill="#2EA11F" fill-opacity="0.22"/>
</svg>
