<svg width="636" height="352" viewBox="0 0 636 352" fill="none" xmlns="http://www.w3.org/2000/svg">
<g opacity="0.25">
<path d="M427.647 251.293V313.311C427.647 317.217 432.376 319.136 435.118 316.326L453.416 297.344C462.462 314.064 486.929 326.057 515.712 326.057C552.241 326.057 581.778 306.8 581.778 283.09C581.778 259.379 552.241 240.191 515.712 240.191C487.134 240.191 462.873 251.978 453.621 268.425L435.186 248.346C432.513 245.468 427.647 247.318 427.647 251.293Z" fill="#3B087D"/>
<path d="M559.434 272.947C553.815 272.947 552.444 277.47 552.444 283.089C552.444 288.709 553.815 293.231 559.434 293.231C565.054 293.231 569.577 288.709 569.577 283.089C569.577 277.47 565.054 272.947 559.434 272.947Z" fill="#FED220"/>
<path d="M-3.05176e-05 178.516V240.533C-3.05176e-05 244.439 4.72873 246.358 7.47005 243.548L25.7684 224.566C34.8147 241.287 59.2811 253.279 88.065 253.279C124.593 253.279 154.131 234.023 154.131 210.313C154.131 186.602 124.593 167.414 88.065 167.414C59.4867 167.414 35.2259 179.201 25.974 195.647L7.5386 175.569C4.86581 172.691 -3.05176e-05 174.541 -3.05176e-05 178.516Z" fill="#3B087D"/>
<path d="M131.857 200.171C126.237 200.171 124.867 204.694 124.867 210.313C124.867 215.932 126.237 220.455 131.857 220.455C137.477 220.455 142 215.932 142 210.313C142 204.694 137.477 200.171 131.857 200.171Z" fill="#FED220"/>
<path d="M186.684 276.441V338.459C186.684 342.365 191.412 344.284 194.154 341.474L212.452 322.492C221.498 339.213 245.965 351.205 274.749 351.205C311.277 351.205 340.814 331.949 340.814 308.238C340.814 284.527 311.277 265.34 274.749 265.34C246.17 265.34 221.91 277.127 212.658 293.573L194.222 273.495C191.549 270.617 186.684 272.467 186.684 276.441Z" fill="#3B087D"/>
<path d="M318.54 298.098C312.92 298.098 311.549 302.62 311.549 308.24C311.549 313.859 312.92 318.382 318.54 318.382C324.159 318.382 328.683 313.859 328.683 308.24C328.683 302.62 324.159 298.098 318.54 298.098Z" fill="#FED220"/>
<path d="M295.173 113.48V175.498C295.173 179.404 299.902 181.323 302.643 178.513L320.941 159.531C329.988 176.252 354.454 188.244 383.238 188.244C419.766 188.244 449.304 168.988 449.304 145.277C449.304 121.567 419.766 102.379 383.238 102.379C354.66 102.379 330.399 114.166 321.147 130.612L302.711 110.534C300.039 107.656 295.173 109.506 295.173 113.48Z" fill="#3B087D"/>
<path d="M427.029 135.067C421.409 135.067 420.039 139.59 420.039 145.209C420.039 150.829 421.409 155.352 427.029 155.352C432.649 155.352 437.172 150.829 437.172 145.209C437.172 139.59 432.649 135.067 427.029 135.067Z" fill="#FED220"/>
<path d="M481.855 11.1016V73.1191C481.855 77.0252 486.584 78.944 489.326 76.1344L507.624 57.1523C516.67 73.873 541.137 85.8653 569.92 85.8653C606.449 85.8653 635.986 66.6091 635.986 42.8985C635.986 19.1879 606.449 0 569.92 0C541.342 0 517.081 11.7869 507.829 28.2335L489.394 8.15483C486.721 5.27666 481.855 7.12696 481.855 11.1016Z" fill="#3B087D"/>
<path d="M613.713 32.7578C608.093 32.7578 606.722 37.2807 606.722 42.9C606.722 48.5193 608.093 53.0421 613.713 53.0421C619.332 53.0421 623.855 48.5193 623.855 42.9C623.855 37.2807 619.332 32.7578 613.713 32.7578Z" fill="#FED220"/>
<path d="M120.617 11.1016V73.1191C120.617 77.0252 125.346 78.944 128.087 76.1344L146.386 57.1523C155.432 73.873 179.898 85.8653 208.682 85.8653C245.21 85.8653 274.748 66.6091 274.748 42.8985C274.748 19.1879 245.21 0 208.682 0C180.104 0 155.843 11.7869 146.591 28.2335L128.156 8.15483C125.483 5.27666 120.617 7.12696 120.617 11.1016Z" fill="#3B087D"/>
<path d="M252.405 32.7578C246.785 32.7578 245.415 37.2807 245.415 42.9C245.415 48.5193 246.785 53.0421 252.405 53.0421C258.025 53.0421 262.548 48.5193 262.548 42.9C262.548 37.2807 258.025 32.7578 252.405 32.7578Z" fill="#FED220"/>
</g>
</svg>
