<svg width="636" height="352" viewBox="0 0 636 352" fill="none" xmlns="http://www.w3.org/2000/svg">
<g opacity="0.25">
<path d="M208.339 251.294V313.312C208.339 317.218 203.61 319.137 200.869 316.327L182.57 297.345C173.524 314.065 149.058 326.058 120.274 326.058C83.7458 326.058 54.208 306.801 54.208 283.091C54.208 259.38 83.7458 240.192 120.274 240.192C148.852 240.192 173.113 251.979 182.365 268.426L200.8 248.347C203.473 245.469 208.339 247.319 208.339 251.294Z" fill="#3B087D"/>
<path d="M76.5511 272.948C82.1708 272.948 83.5415 277.471 83.5415 283.09C83.5415 288.71 82.1708 293.232 76.5511 293.232C70.9314 293.232 66.4082 288.71 66.4082 283.09C66.4082 277.471 70.9314 272.948 76.5511 272.948Z" fill="#FED220"/>
<path d="M635.986 178.515V240.532C635.986 244.438 631.258 246.357 628.516 243.547L610.218 224.565C601.172 241.286 576.705 253.278 547.921 253.278C511.393 253.278 481.855 234.022 481.855 210.312C481.855 186.601 511.393 167.413 547.921 167.413C576.5 167.413 600.76 179.2 610.012 195.647L628.448 175.568C631.121 172.69 635.986 174.54 635.986 178.515Z" fill="#3B087D"/>
<path d="M504.129 200.172C509.749 200.172 511.12 204.695 511.12 210.314C511.12 215.933 509.749 220.456 504.129 220.456C498.509 220.456 493.986 215.933 493.986 210.314C493.986 204.695 498.509 200.172 504.129 200.172Z" fill="#FED220"/>
<path d="M449.303 276.442V338.46C449.303 342.366 444.574 344.285 441.833 341.475L423.534 322.493C414.488 339.214 390.022 351.206 361.238 351.206C324.71 351.206 295.172 331.95 295.172 308.239C295.172 284.528 324.71 265.341 361.238 265.341C389.816 265.341 414.077 277.128 423.329 293.574L441.764 273.496C444.437 270.617 449.303 272.468 449.303 276.442Z" fill="#3B087D"/>
<path d="M317.446 298.098C323.065 298.098 324.436 302.62 324.436 308.24C324.436 313.859 323.065 318.382 317.446 318.382C311.826 318.382 307.303 313.859 307.303 308.24C307.303 302.62 311.826 298.098 317.446 298.098Z" fill="#FED220"/>
<path d="M340.814 113.481V175.499C340.814 179.405 336.085 181.324 333.343 178.514L315.045 159.532C305.999 176.253 281.532 188.245 252.748 188.245C216.22 188.245 186.683 168.989 186.683 145.278C186.683 121.568 216.22 102.38 252.748 102.38C281.327 102.38 305.588 114.167 314.839 130.613L333.275 110.535C335.948 107.657 340.814 109.507 340.814 113.481Z" fill="#3B087D"/>
<path d="M208.957 135.068C214.577 135.068 215.948 139.591 215.948 145.21C215.948 150.83 214.577 155.353 208.957 155.353C203.338 155.353 198.814 150.83 198.814 145.21C198.814 139.591 203.338 135.068 208.957 135.068Z" fill="#FED220"/>
<path d="M154.131 11.1016V73.1191C154.131 77.0252 149.402 78.944 146.661 76.1344L128.362 57.1523C119.316 73.873 94.8498 85.8653 66.0659 85.8653C29.5378 85.8653 0 66.6091 0 42.8985C0 19.1879 29.5378 0 66.0659 0C94.6442 0 118.905 11.7869 128.157 28.2335L146.592 8.15483C149.265 5.27666 154.131 7.12696 154.131 11.1016Z" fill="#3B087D"/>
<path d="M22.2738 32.7588C27.8935 32.7588 29.2641 37.2817 29.2641 42.901C29.2641 48.5203 27.8935 53.0431 22.2738 53.0431C16.654 53.0431 12.1309 48.5203 12.1309 42.901C12.1309 37.2817 16.654 32.7588 22.2738 32.7588Z" fill="#FED220"/>
<path d="M515.368 11.1016V73.1191C515.368 77.0252 510.639 78.944 507.898 76.1344L489.6 57.1523C480.553 73.873 456.087 85.8653 427.303 85.8653C390.775 85.8653 361.237 66.6091 361.237 42.8985C361.237 19.1879 390.775 0 427.303 0C455.881 0 480.142 11.7869 489.394 28.2335L507.83 8.15483C510.502 5.27666 515.368 7.12696 515.368 11.1016Z" fill="#3B087D"/>
<path d="M383.581 32.7588C389.201 32.7588 390.572 37.2817 390.572 42.901C390.572 48.5203 389.201 53.0431 383.581 53.0431C377.962 53.0431 373.438 48.5203 373.438 42.901C373.438 37.2817 377.962 32.7588 383.581 32.7588Z" fill="#FED220"/>
</g>
</svg>
