<svg width="67" height="65" viewBox="0 0 67 65" fill="none" xmlns="http://www.w3.org/2000/svg">
<path d="M33.2189 0C28.8565 0 24.5369 0.859232 20.5066 2.52864C16.4763 4.19804 12.8142 6.64493 9.72959 9.72959C3.49984 15.9593 0 24.4087 0 33.2189C0 47.9016 9.53382 60.3587 22.7217 64.7768C24.3827 65.0426 24.9142 64.0128 24.9142 63.1159V57.5019C15.7125 59.495 13.7526 53.0506 13.7526 53.0506C12.2245 49.1972 10.0653 48.1674 10.0653 48.1674C7.0424 46.1078 10.2979 46.1743 10.2979 46.1743C13.6197 46.4068 15.3803 49.5958 15.3803 49.5958C18.2704 54.6451 23.1536 53.1502 25.047 52.353C25.346 50.1937 26.2097 48.7321 27.1398 47.9016C19.7652 47.0712 12.0252 44.2143 12.0252 31.5579C12.0252 27.8706 13.2876 24.9142 15.4468 22.5556C15.1146 21.7252 13.9519 18.2704 15.779 13.7858C15.779 13.7858 18.5694 12.8889 24.9142 17.1742C27.5385 16.4433 30.3953 16.0779 33.2189 16.0779C36.0425 16.0779 38.8993 16.4433 41.5236 17.1742C47.8684 12.8889 50.6588 13.7858 50.6588 13.7858C52.4858 18.2704 51.3232 21.7252 50.991 22.5556C53.1502 24.9142 54.4125 27.8706 54.4125 31.5579C54.4125 44.2476 46.6393 47.0379 39.2315 47.8684C40.4274 48.8982 41.5236 50.9245 41.5236 54.0139V63.1159C41.5236 64.0128 42.0551 65.0758 43.7493 64.7768C56.9372 60.3255 66.4378 47.9016 66.4378 33.2189C66.4378 28.8565 65.5785 24.5369 63.9091 20.5066C62.2397 16.4763 59.7928 12.8142 56.7082 9.72959C53.6235 6.64493 49.9615 4.19804 45.9312 2.52864C41.9009 0.859232 37.5812 0 33.2189 0Z" fill="#3B087D"/>
</svg>
