<svg width="281" height="523" viewBox="0 0 281 523" fill="none" xmlns="http://www.w3.org/2000/svg">
<path d="M325.109 399.363C325.109 461.124 248.913 522.565 248.913 522.565H103.176C103.176 522.565 186.431 486.15 186.431 404.497C186.431 322.843 100.369 360.622 100.369 297.337C100.369 247.687 199.425 219.213 199.425 149.831C199.425 103.39 152.824 3.3688 151.3 0C155.792 3.52922 298.481 115.903 298.481 180.712C298.481 275.52 226.054 259.959 226.054 289.236C226.054 333.19 325.109 328.699 325.109 399.363Z" fill="#118E00"/>
<path d="M168.546 297.337C170.551 306.16 180.015 312.336 190.763 317.39C212.98 327.175 239.77 339.447 249.475 364.312C268.404 412.438 247.71 467.462 214.344 503.636C208.248 510.374 201.751 516.63 194.934 522.566H189.72C224.049 491.364 249.234 449.174 247.469 402.171C247.149 378.91 238.486 356.051 217.793 344.099C197.821 330.303 164.215 328.298 154.991 301.428C141.596 256.19 197.019 234.212 222.846 215.122C242.577 201.808 249.795 180.632 246.908 157.692C244.181 134.351 231.428 112.534 215.627 95.129L216.67 93.9258C246.667 115.823 268.564 157.211 256.854 195.311C248.191 221.619 222.766 235.255 201.751 248.65C183.464 259.478 163.252 274.558 168.546 297.337Z" fill="#3B087D"/>
<path d="M117.796 458.045C117.796 490.417 77.858 522.62 77.858 522.62H1.4713C1.4713 522.62 45.1088 503.534 45.1088 460.736C45.1088 417.938 0 437.739 0 404.569C0 378.545 51.9193 363.62 51.9193 327.255C51.9193 302.913 27.494 250.487 26.6953 248.722C29.0495 250.571 103.839 309.471 103.839 343.441C103.839 393.133 65.8766 384.977 65.8766 400.322C65.8766 423.361 117.796 421.007 117.796 458.045Z" fill="#118E00"/>
<path d="M35.7338 404.569C36.7848 409.193 41.7454 412.43 47.3788 415.079C59.0239 420.208 73.0652 426.64 78.1521 439.673C88.0735 464.898 77.2272 493.738 59.7385 512.699C56.5435 516.23 53.1382 519.51 49.5648 522.621H46.8322C64.8253 506.267 78.0259 484.153 77.1011 459.517C76.9329 447.325 72.3925 435.343 61.5462 429.079C51.0783 421.848 33.4636 420.797 28.629 406.713C21.6083 383.002 50.6579 371.482 64.1948 361.476C74.5366 354.498 78.3202 343.399 76.8068 331.375C75.3774 319.141 68.6931 307.706 60.4112 298.583L60.9577 297.952C76.6807 309.429 88.1575 331.123 82.0197 351.092C77.4794 364.882 64.1527 372.029 53.1382 379.05C43.5531 384.725 32.9591 392.629 35.7338 404.569Z" fill="#3B087D"/>
</svg>
