<svg width="277" height="523" viewBox="0 0 277 523" fill="none" xmlns="http://www.w3.org/2000/svg">
<path d="M-49.0918 399.363C-49.0918 461.124 27.1049 522.565 27.1049 522.565H172.841C172.841 522.565 89.5864 486.15 89.5864 404.497C89.5864 322.843 175.648 360.622 175.648 297.337C175.648 247.687 76.5928 219.213 76.5928 149.831C76.5928 103.39 123.193 3.3688 124.717 0C120.226 3.52922 -22.463 115.903 -22.463 180.712C-22.463 275.52 49.964 259.959 49.964 289.236C49.964 333.19 -49.0918 328.699 -49.0918 399.363Z" fill="#118E00"/>
<path d="M107.472 297.337C105.467 306.16 96.0023 312.336 85.2546 317.39C63.0372 327.175 36.248 339.447 26.5429 364.312C7.61404 412.438 28.3075 467.462 61.6737 503.636C67.7694 510.374 74.2663 516.63 81.0839 522.566H86.2973C51.9687 491.364 26.7835 449.174 28.5481 402.171C28.8689 378.91 37.5314 356.051 58.2248 344.099C78.1964 330.303 111.803 328.298 121.027 301.428C134.421 256.19 78.9984 234.212 53.1717 215.122C33.4408 201.808 26.2222 180.632 29.1096 157.692C31.8367 134.351 44.5895 112.534 60.3903 95.129L59.3476 93.9258C29.3501 115.823 7.45377 157.211 19.164 195.311C27.8264 221.619 53.252 235.255 74.2663 248.65C92.5535 259.478 112.766 274.558 107.472 297.337Z" fill="#3B087D"/>
<path d="M158.22 458.046C158.22 490.418 198.158 522.621 198.158 522.621H274.544C274.544 522.621 230.907 503.535 230.907 460.737C230.907 417.939 276.016 437.74 276.016 404.569C276.016 378.546 224.096 363.621 224.096 327.256C224.096 302.914 248.522 250.488 249.32 248.723C246.966 250.572 172.177 309.472 172.177 343.442C172.177 393.134 210.139 384.978 210.139 400.323C210.139 423.362 158.22 421.008 158.22 458.046Z" fill="#118E00"/>
<path d="M240.282 404.569C239.231 409.193 234.27 412.43 228.637 415.079C216.992 420.208 202.95 426.64 197.864 439.673C187.942 464.898 198.788 493.738 216.277 512.699C219.472 516.23 222.877 519.51 226.451 522.621H229.183C211.19 506.267 197.99 484.153 198.915 459.517C199.083 447.325 203.623 435.343 214.469 429.079C224.937 421.848 242.552 420.797 247.387 406.713C254.407 383.002 225.358 371.482 211.821 361.476C201.479 354.498 197.695 343.399 199.209 331.375C200.638 319.141 207.323 307.706 215.604 298.583L215.058 297.952C199.335 309.429 187.858 331.123 193.996 351.092C198.536 364.882 211.863 372.029 222.877 379.05C232.463 384.725 243.057 392.629 240.282 404.569Z" fill="#3B087D"/>
</svg>
