<svg width="1355" height="1284" viewBox="0 0 1355 1284" fill="none" xmlns="http://www.w3.org/2000/svg">
<path fill-rule="evenodd" clip-rule="evenodd" d="M1268.25 552.257C1268.25 755.704 1131.46 931.45 933.273 1014.13C985.374 1062.46 1021.32 1114.32 979.003 1138.57C910.075 1178.07 831.302 1138.57 800.531 1113.89C790.272 1157.07 748.863 1243.43 665.228 1243.49C581.593 1243.43 540.184 1157.07 529.931 1113.89C499.16 1138.57 420.381 1178.07 351.458 1138.57C307.033 1113.12 348.85 1057.23 405.068 1006.95C215.855 921.562 86.6345 749.993 86.6345 552.257C55.8694 478.196 86.6345 385.619 172.8 367.104C185.108 260.232 258.634 169.607 369.729 169.607C400.5 88.0241 559.506 40 677.44 40C795.374 40 942.072 70.8588 966.689 157.264C1079.52 165.067 1185.6 243.668 1200.56 367.104C1268.25 367.104 1299.02 472.024 1268.25 552.257Z" fill="#3BFFDE"/>
<path d="M355.287 208.945L468.202 354.753L412.787 189.229C390.747 180.459 365.271 198.719 355.287 208.945Z" fill="#0FBAE0"/>
<path d="M568.291 1029.25L556.205 1099.98C541.941 1100.41 510.957 1095.87 501.13 1074.22L550.598 1024.93C475.398 1004.69 433.148 968.59 418.962 947.247L954.374 947.247C923.603 978.106 823.905 1039.82 671.28 1039.82C632.224 1039.82 597.977 1035.78 568.291 1029.25Z" fill="#0FBAE0"/>
<path d="M157.002 408.969L314.353 509.052L206.186 373.177C182.549 371.29 163.548 396.252 157.002 408.969Z" fill="#0FBAE0"/>
<path d="M637.707 67.1248C520.777 79.4683 409.998 157.265 453.081 209.075C520.777 233.762 600.782 153.53 637.707 147.358C674.633 141.186 779.255 153.53 779.255 122.671C779.255 91.8118 754.638 54.7812 637.707 67.1248Z" fill="white"/>
<path d="M1163.19 347.783L1028.25 490.525L1193.25 400.75C1197.72 377.398 1175.07 355.709 1163.19 347.783Z" fill="#0FBAE0"/>
<path d="M848.005 1088.46L787.35 1008.96L787.348 1092.14C806.27 1106.47 835.67 1095.66 848.005 1088.46Z" fill="#0FBAE0"/>
<path d="M934.832 170.004L886.694 348.587L987.684 200.081C979.61 177.722 949.085 170.714 934.832 170.004Z" fill="#0FBAE0"/>
<path fill-rule="evenodd" clip-rule="evenodd" d="M1268.25 552.257C1268.25 755.704 1131.46 931.45 933.273 1014.13C985.374 1062.46 1021.32 1114.32 979.003 1138.57C910.075 1178.07 831.302 1138.57 800.531 1113.89C790.272 1157.07 748.863 1243.43 665.228 1243.49C581.593 1243.43 540.184 1157.07 529.931 1113.89C499.16 1138.57 420.381 1178.07 351.458 1138.57C307.033 1113.12 348.85 1057.23 405.068 1006.95C215.855 921.562 86.6345 749.993 86.6345 552.257C55.8694 478.196 86.6345 385.619 172.8 367.104C185.108 260.232 258.634 169.607 369.729 169.607C400.5 88.0241 559.506 40 677.44 40C795.374 40 942.072 70.8588 966.689 157.264C1079.52 165.067 1185.6 243.668 1200.56 367.104C1268.25 367.104 1299.02 472.024 1268.25 552.257Z" fill="#3BFFDE"/>
<path d="M355.287 208.945L468.202 354.753L412.787 189.229C390.747 180.459 365.271 198.719 355.287 208.945Z" fill="#0FBAE0"/>
<path d="M568.291 1029.25L556.205 1099.98C541.941 1100.41 510.957 1095.87 501.13 1074.22L550.598 1024.93C475.398 1004.69 433.148 968.59 418.962 947.247L954.374 947.247C923.603 978.106 823.905 1039.82 671.28 1039.82C632.224 1039.82 597.977 1035.78 568.291 1029.25Z" fill="#0FBAE0"/>
<path d="M157.002 408.969L314.353 509.052L206.186 373.177C182.549 371.29 163.548 396.252 157.002 408.969Z" fill="#0FBAE0"/>
<path d="M637.707 67.1248C520.777 79.4683 409.998 157.265 453.081 209.075C520.777 233.762 600.782 153.53 637.707 147.358C674.633 141.186 779.255 153.53 779.255 122.671C779.255 91.8118 754.638 54.7812 637.707 67.1248Z" fill="white"/>
<path d="M1163.19 347.783L1028.25 490.525L1193.25 400.75C1197.72 377.398 1175.07 355.709 1163.19 347.783Z" fill="#0FBAE0"/>
<path d="M848.005 1088.46L787.35 1008.96L787.348 1092.14C806.27 1106.47 835.67 1095.66 848.005 1088.46Z" fill="#0FBAE0"/>
<path d="M934.832 170.004L886.694 348.587L987.684 200.081C979.61 177.722 949.085 170.714 934.832 170.004Z" fill="#0FBAE0"/>
<path d="M1135.74 390.129C1117.6 390.129 1104.43 404.892 1104.43 421.367C1104.43 437.841 1117.6 452.617 1135.74 452.617C1153.87 452.617 1167.88 439.157 1167.88 421.367C1167.88 403.584 1153.87 390.129 1135.74 390.129ZM685.05 483.805C627.405 483.805 581.275 524.898 581.275 586.378C581.275 647.841 627.405 688.977 685.05 688.977C711.353 688.977 736.112 680.603 756.78 659.986L726.669 629.167C715.431 641.271 701.016 649.894 680.325 649.894C653.657 649.894 632.174 632.347 628.983 603.476H774.551V590.059C774.551 522.048 738.386 483.805 685.05 483.805ZM870.177 483.805C831.588 483.805 793.401 503.327 793.401 546.902C793.401 621.413 896.407 589.639 896.407 629.941C896.407 645.408 878.518 652.319 864.597 652.319C844.374 652.319 831.659 642.208 819.357 628.405L788.539 659.948C807.89 681.419 832.905 688.976 861.82 688.976C900.773 688.976 944.164 672.683 944.164 626.273C944.164 550.13 841.133 578.636 841.133 543.64C841.133 528.977 856.253 522.861 868.999 522.861C885.191 522.861 897.106 529.733 906.241 542.65L936.587 511.615C920.872 491.534 894.829 483.805 870.177 483.805ZM1071.13 483.805C1046.05 483.805 1024.96 497.23 1014.62 519.587H1013.85V488.678H966.127V684.077H1013.85V579.447C1013.85 568.87 1020.19 530.197 1065.15 530.197C1072.07 530.197 1078.97 531.595 1086.22 533.358L1088.08 486.609C1082.57 485.009 1077.04 483.805 1071.13 483.805ZM1112.29 488.678V684.077H1160V488.678H1112.29ZM678.303 520.411C708.13 520.411 726.435 538.349 726.855 566.831H628.983C632.57 538.739 650.08 520.411 678.303 520.411Z" fill="#231F20"/>
<path d="M211.822 583.007C211.822 666.575 278.032 734.326 359.654 734.326C441.301 734.326 507.494 666.575 507.494 583.007C507.494 499.456 441.301 431.705 359.654 431.705C278.032 431.705 211.822 499.456 211.822 583.007Z" fill="url(#paint0_radial_2_172)"/>
<path d="M297.248 463.957C285.85 464.436 274.937 465.996 264.047 467.654C233.212 494.453 213.283 533.934 211.941 578.249C220.656 587.656 232.165 608.891 245.435 621.174C247.189 620.378 249.094 619.696 251.134 619.062C244.618 611.32 235.514 601.052 234.141 596.324C227.434 573.18 235.205 551.506 251.983 549.8C267.032 548.248 279.937 525.339 290.541 510.319C312.359 479.417 345.893 484.575 344.202 469.107C342.273 460.074 337.043 457.32 330.392 457.32C320.383 457.307 307.185 463.559 297.248 463.957Z" fill="url(#paint1_radial_2_172)"/>
<path d="M257.469 617.218C255.286 617.859 253.167 618.445 251.135 619.062C249.317 619.566 247.896 620.297 245.436 621.174C240.015 623.652 236.086 627.446 235.166 635.561C233.515 650.257 247.175 661.8 258.675 665.172C273.287 669.453 274.509 664.449 282.168 675.042C287.517 682.451 288.549 696.188 291.288 705.229C292.812 710.282 294.883 715.311 297.359 720.226C307.796 725.197 318.868 728.983 330.448 731.347C333.322 713.93 332.028 690.395 335.821 680.233C343.64 659.42 348.037 650.241 337.512 628.762C314.281 622.043 307.241 619.915 283.835 615.008C279.073 614.001 276.097 613.497 273.414 613.497C269.255 613.497 265.827 614.724 257.469 617.218Z" fill="url(#paint2_radial_2_172)"/>
<path d="M401.229 496.582C394.388 506.59 370.363 509.336 362.656 520.604C356.656 529.402 362.863 546.681 357.632 556.648C355.219 561.246 356.33 574.585 359.267 578.932C368.521 592.71 383.895 585.049 395.459 590.012C409.563 596.04 411.182 612.791 422.889 625.049C434.612 637.316 407.928 656.228 429.707 700.843C432.032 705.636 434.747 709.145 437.652 711.542C452.382 702.167 465.344 690.217 476.011 676.293C479.313 653.767 471.875 646.553 481.178 625.927C486.9 613.205 496.734 591.182 507.33 576.251C505.528 534.463 487.194 497.086 458.843 470.814C456.185 471.57 452.803 471.7 448.184 470.84C444.216 470.101 440.652 469.768 437.413 469.768C415.539 469.768 409.031 485.176 401.229 496.582Z" fill="url(#paint3_radial_2_172)"/>
<path d="M342.768 743.588C337.871 740.711 331.728 736.26 325.997 732.377C323.624 734.53 321.703 737.69 319.807 740.224C326.371 742.523 335.227 742.718 342.768 743.588ZM316.91 725.61C306.425 717.608 280.472 692.416 269.717 677.225C265.764 679.606 261.359 686.089 255.637 687.209C253.383 687.632 248.327 688.273 246.827 687.632C245.335 686.998 247.168 683.765 248.788 681.604C251.589 677.859 255.669 673.001 261.645 668.265C248.851 649.077 242.78 635.055 234.08 611.92C229.049 615.129 225.397 617.996 221.016 621.57C219.54 622.756 215.476 623.512 213.508 621.7C209.928 618.41 209.873 612.635 214.897 608.971C216.968 607.451 227.191 600.23 229.58 598.191C223.286 579.636 218.024 555.241 216.635 542.601C212.445 546.329 206.548 550.57 204.889 551.724C202.508 552.414 200.912 551.634 200.23 551.513C197.841 577.76 200.595 606.655 208.222 632.749C221.326 677.607 258.081 720.394 307.679 736.309C308.838 734.537 314.536 727.787 316.91 725.61ZM215.104 528.969C214.477 519.262 213.722 505.971 213.722 505.971C206.754 521.471 202.587 530.821 200.65 548.921C205.524 540.083 215.104 528.969 215.104 528.969ZM289.527 417.96C318.338 405.75 346.379 399.048 378.762 403.581C382.357 404.085 382.056 407.212 378.238 407.245L373.666 407.367C347.586 407.781 309.235 416.262 289.384 427.766C288.972 441.308 291.48 462.835 294.131 479.797C312.163 472.039 340.046 464.062 361.221 461.681C349.197 448.61 332.847 436.238 330.894 434.801C328.934 433.371 327.958 430.926 327.958 427.766C328.236 421.859 333.188 421.128 335.847 421.827C344.657 420.064 353.419 418.115 368.341 418.561C431.423 415.742 489.061 452.266 511.054 493.908C566.779 584.105 511.079 708.55 438.105 741.687C406.906 755.871 380.143 761.979 330.807 754.936C281.384 747.877 240.978 723.149 209.595 671.166C170.935 607.102 192.697 532.47 198.126 516.825C221.405 460.65 259.55 430.885 289.527 417.96ZM224.318 486.215C223.469 492.974 224.35 505.443 226.009 520.334C239.422 508.051 265.344 492.031 287.011 482.242C284.503 465.345 281.837 438.391 282.114 431.218C262.074 442.469 240.081 465.094 223.961 488.286M227.263 533.925C229.16 547.313 235.438 576.192 241.097 590.839C254.518 580.498 284.908 561.31 302.107 553.543C296.092 531.114 292.044 516.955 288.678 494.322C264.368 505.387 238.66 522.584 227.263 533.925ZM246.335 603.797C254.303 627.063 262.011 644.821 272.074 659.476C283.837 648.997 307.965 632.457 326.418 623.415C320.338 610.044 311.568 585.048 305.457 566.331C281.694 578.272 263.947 589.914 246.335 603.797ZM279.59 669.638C292.099 686.057 311.687 706.894 325.315 718.405C338.212 707.796 352.832 697.877 364.992 691.833C354.499 675.187 338.998 651.004 332.506 636.137C309.235 646.697 296.02 655.543 279.59 669.638ZM333.339 725.659C338.3 730.794 357.959 744.117 357.959 744.117C371.047 744.694 387.564 743.117 399.366 741.013C392.858 733.41 376.619 709.875 371.69 701.955C359.11 707.357 343.188 717.292 333.339 725.659ZM413.144 737.577C419.771 735.4 436.661 727.552 440.177 725.188C441.011 711.248 440.876 695.423 440.312 685.943C422.558 685.943 397.556 691.264 383.23 697.405C391.541 711.102 403.009 726.196 413.144 737.577ZM449.543 720.022C462.869 711.508 475.394 701.728 484.482 689.964C476.664 687.95 459.187 685.521 450.519 686.089C450.519 686.089 450.242 707.357 449.543 720.022ZM488.672 684.497C491.188 681.922 494.958 676.462 496.426 673.278C497.895 660.354 497.942 633.846 497.403 626.113C482.171 619.784 458.631 614.78 441.432 613.488C447.019 634.488 449.821 665.382 450.242 675.447C458.488 676.308 479.306 680.63 488.672 684.497ZM511.03 624.553C510.339 626.998 506.133 629.459 504.173 628.842C504.467 633.188 503.482 654.764 502.363 663.091C505.292 656.942 510.879 641.661 512.562 635.203L514.935 625.715C517.292 617.647 524.928 589.776 518.006 553.114C510.339 512.382 495.934 497.84 490.903 491.374C478.108 484.258 458.758 477.792 458.758 477.792C476.299 502.097 482.369 513.535 492.862 542.48C498.95 545.713 509.983 551.977 511.355 553.699C512.466 555.047 512.483 557.484 509.022 557.427C506.133 557.401 500.546 554.584 496.212 553.398C500.824 569.174 504.387 598.614 504.125 618.347C504.125 618.347 511.729 622.116 511.03 624.553ZM481.688 477.792C457.361 447.302 402.311 421.372 341.022 425.271C354.713 434.516 366.118 448.473 376.102 459.959C391.405 458.521 423.549 461.113 435.629 464.533C433.574 462.047 431.05 459.578 430.391 458.107C428.677 454.338 432.803 453.526 436.113 455.687C440.312 458.424 445.145 461.706 448.987 465.711C456.09 467.343 473.576 473.477 481.688 477.792ZM497.267 615.267C496.212 595.6 493.275 569.336 486.155 551.05C467.282 543.3 441.503 538.449 418.867 538.231C425.851 554.9 433.97 582.772 437.939 600.701C454.288 602.708 479.862 607.444 497.267 615.267ZM444.225 474.622C427.176 471.462 402.31 469.448 383.857 470.585C396.437 488.424 405.66 503.949 414.319 526.077C437.661 526.671 469.377 533.803 482.377 539.035C474.623 517.857 459.876 490.966 444.225 474.622ZM337.316 618.232C365.127 605.152 395.667 599.263 426.407 600.115C418.018 570.367 413.208 556.557 406.073 538.449C371.913 539.968 342.768 548.588 316.22 561.464C316.22 561.464 325.997 593.649 337.316 618.232ZM429.558 612.635C394.756 612.204 364.381 620.726 343.618 631.173C352.412 650.58 369.81 676.259 376.318 686.844C387.628 682.538 399.796 679.297 409.224 677.786C418.662 676.283 431.233 674.87 439.757 675.024C438.218 652.44 435.631 637.209 429.558 612.635ZM312.276 549.222C337.436 538.287 364.698 529.538 401.462 526.378C392.097 503.38 381.763 487.141 369.596 472.259C342.499 474.484 317.76 481.958 296.37 491.008C299.513 508.051 305.458 528.669 312.276 549.222Z" fill="#231F20"/>
<rect x="75" y="4" width="74.7812" height="30" rx="3" fill="#444444"/>
<rect x="75.5" y="4.5" width="73.7812" height="29" rx="2.5" stroke="white" stroke-opacity="0.0980392"/>
<path d="M86.3438 16C86.2969 15.6042 86.1068 15.2969 85.7734 15.0781C85.4401 14.8594 85.0313 14.75 84.5469 14.75C84.1927 14.75 83.8828 14.8073 83.6172 14.9219C83.3542 15.0365 83.1484 15.194 83 15.3945C82.8542 15.5951 82.7813 15.8229 82.7813 16.0781C82.7813 16.2917 82.832 16.4753 82.9336 16.6289C83.0378 16.7799 83.1706 16.9062 83.332 17.0078C83.4935 17.1068 83.6628 17.1888 83.8398 17.2539C84.0169 17.3164 84.1797 17.3672 84.3281 17.4062L85.1406 17.625C85.349 17.6797 85.5807 17.7552 85.8359 17.8516C86.0938 17.9479 86.3398 18.0794 86.5742 18.2461C86.8112 18.4102 87.0065 18.6211 87.1602 18.8789C87.3138 19.1367 87.3906 19.4531 87.3906 19.8281C87.3906 20.2604 87.2773 20.651 87.0508 21C86.8268 21.349 86.4987 21.6263 86.0664 21.832C85.6367 22.0378 85.1146 22.1406 84.5 22.1406C83.9271 22.1406 83.431 22.0482 83.0117 21.8633C82.5951 21.6784 82.2669 21.4206 82.0273 21.0898C81.7904 20.7591 81.6563 20.375 81.625 19.9375H82.625C82.651 20.2396 82.7526 20.4896 82.9297 20.6875C83.1094 20.8828 83.3359 21.0286 83.6094 21.125C83.8854 21.2187 84.1823 21.2656 84.5 21.2656C84.8698 21.2656 85.2018 21.2057 85.4961 21.0859C85.7904 20.9635 86.0234 20.7943 86.1953 20.5781C86.3672 20.3594 86.4531 20.1042 86.4531 19.8125C86.4531 19.5469 86.3789 19.3307 86.2305 19.1641C86.082 18.9974 85.8867 18.862 85.6445 18.7578C85.4023 18.6536 85.1406 18.5625 84.8594 18.4844L83.875 18.2031C83.25 18.0234 82.7552 17.7669 82.3906 17.4336C82.026 17.1003 81.8438 16.6641 81.8438 16.125C81.8438 15.6771 81.9648 15.2865 82.207 14.9531C82.4518 14.6172 82.7799 14.3568 83.1914 14.1719C83.6055 13.9844 84.0677 13.8906 84.5781 13.8906C85.0938 13.8906 85.5521 13.9831 85.9531 14.168C86.3542 14.3503 86.6719 14.6003 86.9062 14.918C87.1432 15.2357 87.2682 15.5964 87.2813 16H86.3438ZM91.374 22.125C90.7959 22.125 90.2972 21.9974 89.8779 21.7422C89.4613 21.4844 89.1396 21.125 88.9131 20.6641C88.6891 20.2005 88.5771 19.6615 88.5771 19.0469C88.5771 18.4323 88.6891 17.8906 88.9131 17.4219C89.1396 16.9505 89.4548 16.5833 89.8584 16.3203C90.2646 16.0547 90.7386 15.9219 91.2803 15.9219C91.5928 15.9219 91.9014 15.974 92.2061 16.0781C92.5107 16.1823 92.7881 16.3516 93.0381 16.5859C93.2881 16.8177 93.4873 17.125 93.6357 17.5078C93.7842 17.8906 93.8584 18.362 93.8584 18.9219V19.3125H89.2334V18.5156H92.9209C92.9209 18.1771 92.8532 17.875 92.7178 17.6094C92.585 17.3437 92.3949 17.1341 92.1475 16.9805C91.9027 16.8268 91.6136 16.75 91.2803 16.75C90.9131 16.75 90.5954 16.8411 90.3271 17.0234C90.0615 17.2031 89.8571 17.4375 89.7139 17.7266C89.5706 18.0156 89.499 18.3255 89.499 18.6562V19.1875C89.499 19.6406 89.5771 20.0247 89.7334 20.3398C89.8923 20.6523 90.1123 20.8906 90.3936 21.0547C90.6748 21.2161 91.0016 21.2969 91.374 21.2969C91.6162 21.2969 91.835 21.263 92.0303 21.1953C92.2282 21.125 92.3988 21.0208 92.542 20.8828C92.6852 20.7422 92.7959 20.5677 92.874 20.3594L93.7646 20.6094C93.6709 20.9115 93.5133 21.1771 93.292 21.4062C93.0706 21.6328 92.7972 21.8099 92.4717 21.9375C92.1462 22.0625 91.7803 22.125 91.374 22.125ZM97.6982 22.125C97.1357 22.125 96.6514 21.9922 96.2451 21.7266C95.8389 21.4609 95.5264 21.0951 95.3076 20.6289C95.0889 20.1628 94.9795 19.6302 94.9795 19.0312C94.9795 18.4219 95.0915 17.8841 95.3154 17.418C95.542 16.9492 95.8571 16.5833 96.2607 16.3203C96.667 16.0547 97.141 15.9219 97.6826 15.9219C98.1045 15.9219 98.4847 16 98.8232 16.1562C99.1618 16.3125 99.4391 16.5312 99.6553 16.8125C99.8714 17.0937 100.006 17.4219 100.058 17.7969H99.1357C99.0654 17.5234 98.9092 17.2812 98.667 17.0703C98.4274 16.8568 98.1045 16.75 97.6982 16.75C97.3389 16.75 97.0238 16.8437 96.7529 17.0312C96.4847 17.2161 96.2751 17.4779 96.124 17.8164C95.9756 18.1523 95.9014 18.5469 95.9014 19C95.9014 19.4635 95.9743 19.8672 96.1201 20.2109C96.2686 20.5547 96.4769 20.8216 96.7451 21.0117C97.016 21.2018 97.3337 21.2969 97.6982 21.2969C97.9378 21.2969 98.1553 21.2552 98.3506 21.1719C98.5459 21.0885 98.7113 20.9688 98.8467 20.8125C98.9821 20.6562 99.0785 20.4687 99.1357 20.25H100.058C100.006 20.6042 99.8766 20.9232 99.6709 21.207C99.4678 21.4883 99.1982 21.7122 98.8623 21.8789C98.529 22.043 98.141 22.125 97.6982 22.125ZM104.015 16V16.7812H100.905V16H104.015ZM101.812 14.5625H102.733V20.2812C102.733 20.5417 102.771 20.737 102.847 20.8672C102.925 20.9948 103.024 21.0807 103.144 21.125C103.266 21.1667 103.395 21.1875 103.53 21.1875C103.632 21.1875 103.715 21.1823 103.78 21.1719C103.845 21.1589 103.897 21.1484 103.937 21.1406L104.124 21.9687C104.062 21.9922 103.974 22.0156 103.862 22.0391C103.75 22.0651 103.608 22.0781 103.437 22.0781C103.176 22.0781 102.921 22.0221 102.671 21.9102C102.424 21.7982 102.218 21.6276 102.054 21.3984C101.892 21.1693 101.812 20.8802 101.812 20.5312V14.5625ZM105.401 22V16H106.323V22H105.401ZM105.87 15C105.69 15 105.535 14.9388 105.405 14.8164C105.278 14.694 105.214 14.5469 105.214 14.375C105.214 14.2031 105.278 14.056 105.405 13.9336C105.535 13.8112 105.69 13.75 105.87 13.75C106.05 13.75 106.203 13.8112 106.331 13.9336C106.461 14.056 106.526 14.2031 106.526 14.375C106.526 14.5469 106.461 14.694 106.331 14.8164C106.203 14.9388 106.05 15 105.87 15ZM110.449 22.125C109.908 22.125 109.432 21.9961 109.023 21.7383C108.617 21.4805 108.299 21.1198 108.07 20.6562C107.844 20.1927 107.73 19.651 107.73 19.0312C107.73 18.4062 107.844 17.8607 108.07 17.3945C108.299 16.9284 108.617 16.5664 109.023 16.3086C109.432 16.0508 109.908 15.9219 110.449 15.9219C110.991 15.9219 111.465 16.0508 111.871 16.3086C112.28 16.5664 112.598 16.9284 112.824 17.3945C113.053 17.8607 113.168 18.4062 113.168 19.0312C113.168 19.651 113.053 20.1927 112.824 20.6562C112.598 21.1198 112.28 21.4805 111.871 21.7383C111.465 21.9961 110.991 22.125 110.449 22.125ZM110.449 21.2969C110.861 21.2969 111.199 21.1914 111.465 20.9805C111.73 20.7695 111.927 20.4922 112.055 20.1484C112.182 19.8047 112.246 19.4323 112.246 19.0312C112.246 18.6302 112.182 18.2565 112.055 17.9102C111.927 17.5638 111.73 17.2839 111.465 17.0703C111.199 16.8568 110.861 16.75 110.449 16.75C110.038 16.75 109.699 16.8568 109.434 17.0703C109.168 17.2839 108.971 17.5638 108.844 17.9102C108.716 18.2565 108.652 18.6302 108.652 19.0312C108.652 19.4323 108.716 19.8047 108.844 20.1484C108.971 20.4922 109.168 20.7695 109.434 20.9805C109.699 21.1914 110.038 21.2969 110.449 21.2969ZM115.497 18.3906V22H114.575V16H115.466V16.9375H115.544C115.685 16.6328 115.898 16.388 116.185 16.2031C116.471 16.0156 116.841 15.9219 117.294 15.9219C117.7 15.9219 118.056 16.0052 118.36 16.1719C118.665 16.3359 118.902 16.5859 119.071 16.9219C119.241 17.2552 119.325 17.6771 119.325 18.1875V22H118.403V18.25C118.403 17.7786 118.281 17.4115 118.036 17.1484C117.791 16.8828 117.455 16.75 117.028 16.75C116.734 16.75 116.471 16.8138 116.239 16.9414C116.01 17.069 115.829 17.2552 115.696 17.5C115.563 17.7448 115.497 18.0417 115.497 18.3906ZM126.791 22.1094C126.275 22.1094 125.816 22.0208 125.412 21.8437C125.011 21.6667 124.692 21.4206 124.455 21.1055C124.221 20.7878 124.093 20.4193 124.072 20H125.057C125.077 20.2578 125.166 20.4805 125.322 20.668C125.479 20.8529 125.683 20.9961 125.936 21.0977C126.188 21.1992 126.468 21.25 126.775 21.25C127.119 21.25 127.424 21.1901 127.689 21.0703C127.955 20.9505 128.163 20.7839 128.314 20.5703C128.465 20.3568 128.541 20.1094 128.541 19.8281C128.541 19.5339 128.468 19.2747 128.322 19.0508C128.176 18.8242 127.963 18.6471 127.682 18.5195C127.4 18.3919 127.057 18.3281 126.65 18.3281H126.01V17.4687H126.65C126.968 17.4687 127.247 17.4115 127.486 17.2969C127.729 17.1823 127.917 17.0208 128.053 16.8125C128.191 16.6042 128.26 16.3594 128.26 16.0781C128.26 15.8073 128.2 15.5716 128.08 15.3711C127.96 15.1706 127.791 15.0143 127.572 14.9023C127.356 14.7904 127.101 14.7344 126.807 14.7344C126.531 14.7344 126.27 14.7852 126.025 14.8867C125.783 14.9857 125.585 15.1302 125.432 15.3203C125.278 15.5078 125.195 15.7344 125.182 16H124.244C124.26 15.5807 124.386 15.2135 124.623 14.8984C124.86 14.5807 125.17 14.3333 125.553 14.1562C125.938 13.9792 126.361 13.8906 126.822 13.8906C127.317 13.8906 127.742 13.9909 128.096 14.1914C128.45 14.3893 128.722 14.651 128.912 14.9766C129.102 15.3021 129.197 15.6536 129.197 16.0313C129.197 16.4818 129.079 16.8659 128.842 17.1836C128.607 17.5013 128.288 17.7214 127.885 17.8438V17.9062C128.39 17.9896 128.785 18.2044 129.068 18.5508C129.352 18.8945 129.494 19.3203 129.494 19.8281C129.494 20.263 129.376 20.6536 129.139 21C128.904 21.3437 128.584 21.6146 128.178 21.8125C127.771 22.0104 127.309 22.1094 126.791 22.1094ZM131.092 22V21.2969L133.732 18.4062C134.042 18.0677 134.298 17.7734 134.498 17.5234C134.699 17.2708 134.847 17.0339 134.943 16.8125C135.042 16.5885 135.092 16.3542 135.092 16.1094C135.092 15.8281 135.024 15.5846 134.889 15.3789C134.756 15.1732 134.574 15.0143 134.342 14.9023C134.11 14.7904 133.85 14.7344 133.561 14.7344C133.253 14.7344 132.985 14.7982 132.756 14.9258C132.529 15.0508 132.354 15.2266 132.229 15.4531C132.106 15.6797 132.045 15.9453 132.045 16.25H131.123C131.123 15.7812 131.231 15.3698 131.447 15.0156C131.663 14.6615 131.958 14.3854 132.33 14.1875C132.705 13.9896 133.126 13.8906 133.592 13.8906C134.061 13.8906 134.476 13.9896 134.838 14.1875C135.2 14.3854 135.484 14.6523 135.689 14.9883C135.895 15.3242 135.998 15.6979 135.998 16.1094C135.998 16.4036 135.945 16.6914 135.838 16.9727C135.734 17.2513 135.551 17.5625 135.291 17.9062C135.033 18.2474 134.675 18.6641 134.217 19.1562L132.42 21.0781V21.1406H136.139V22H131.092ZM140.408 22.1094C140.08 22.1042 139.752 22.0417 139.424 21.9219C139.096 21.8021 138.796 21.6003 138.525 21.3164C138.255 21.0299 138.037 20.6432 137.873 20.1562C137.709 19.6667 137.627 19.0521 137.627 18.3125C137.627 17.6042 137.693 16.9766 137.826 16.4297C137.959 15.8802 138.152 15.418 138.404 15.043C138.657 14.6654 138.962 14.3789 139.318 14.1836C139.678 13.9883 140.083 13.8906 140.533 13.8906C140.981 13.8906 141.38 13.9805 141.729 14.1602C142.08 14.3372 142.367 14.5846 142.588 14.9023C142.809 15.2201 142.952 15.5859 143.018 16H142.064C141.976 15.6406 141.804 15.3424 141.549 15.1055C141.294 14.8685 140.955 14.75 140.533 14.75C139.913 14.75 139.425 15.0195 139.068 15.5586C138.714 16.0977 138.536 16.8542 138.533 17.8281H138.596C138.742 17.6068 138.915 17.418 139.115 17.2617C139.318 17.1029 139.542 16.9805 139.787 16.8945C140.032 16.8086 140.291 16.7656 140.564 16.7656C141.023 16.7656 141.442 16.8802 141.822 17.1094C142.202 17.3359 142.507 17.6497 142.736 18.0508C142.965 18.4492 143.08 18.9062 143.08 19.4219C143.08 19.9167 142.969 20.3698 142.748 20.7812C142.527 21.1901 142.215 21.5156 141.814 21.7578C141.416 21.9974 140.947 22.1146 140.408 22.1094ZM140.408 21.25C140.736 21.25 141.031 21.168 141.291 21.0039C141.554 20.8398 141.761 20.6198 141.912 20.3437C142.066 20.0677 142.143 19.7604 142.143 19.4219C142.143 19.0911 142.068 18.7904 141.92 18.5195C141.774 18.2461 141.572 18.0286 141.314 17.8672C141.059 17.7057 140.768 17.625 140.439 17.625C140.192 17.625 139.962 17.6745 139.748 17.7734C139.535 17.8698 139.347 18.0026 139.186 18.1719C139.027 18.3411 138.902 18.5352 138.811 18.7539C138.719 18.9701 138.674 19.1979 138.674 19.4375C138.674 19.7552 138.748 20.0521 138.896 20.3281C139.048 20.6042 139.253 20.8268 139.514 20.9961C139.777 21.1654 140.075 21.25 140.408 21.25Z" fill="white"/>
<defs>
<radialGradient id="paint0_radial_2_172" cx="0" cy="0" r="1" gradientUnits="userSpaceOnUse" gradientTransform="translate(312.34 554.944) scale(104.839 107.305)">
<stop stop-color="#BFE6F9"/>
<stop offset="1" stop-color="#1478C7"/>
</radialGradient>
<radialGradient id="paint1_radial_2_172" cx="0" cy="0" r="1" gradientUnits="userSpaceOnUse" gradientTransform="translate(306.508 556.439) scale(128.62 131.646)">
<stop stop-color="#A6D71C"/>
<stop offset="0.9607" stop-color="#23A03D"/>
<stop offset="1" stop-color="#23A03D"/>
</radialGradient>
<radialGradient id="paint2_radial_2_172" cx="0" cy="0" r="1" gradientUnits="userSpaceOnUse" gradientTransform="translate(339.02 547.845) scale(163.474 167.321)">
<stop stop-color="#A6D71C"/>
<stop offset="0.9607" stop-color="#23A03D"/>
<stop offset="1" stop-color="#23A03D"/>
</radialGradient>
<radialGradient id="paint3_radial_2_172" cx="0" cy="0" r="1" gradientUnits="userSpaceOnUse" gradientTransform="translate(351.005 476.448) scale(216.082 221.166)">
<stop stop-color="#A6D71C"/>
<stop offset="0.9607" stop-color="#23A03D"/>
<stop offset="1" stop-color="#23A03D"/>
</radialGradient>
</defs>
</svg>
