<svg width="41" height="41" viewBox="0 0 41 41" fill="none" xmlns="http://www.w3.org/2000/svg">
<path fill-rule="evenodd" clip-rule="evenodd" d="M17.9375 17.5002C16.2301 16.8933 14.7919 15.7031 13.8763 14.1394C12.9608 12.5757 12.6267 10.739 12.9331 8.95306C13.2395 7.16714 14.1666 5.54674 15.5509 4.37759C16.9353 3.20844 18.688 2.56563 20.5 2.5625C22.3146 2.56095 24.0713 3.20135 25.4591 4.37039C26.847 5.53943 27.7766 7.16174 28.0834 8.95022C28.3902 10.7387 28.0545 12.5781 27.1356 14.1428C26.2167 15.7076 24.7739 16.8969 23.0625 17.5002V33.0563C25.5239 32.552 27.783 31.3362 29.5596 29.5596C31.3362 27.783 32.552 25.5239 33.0563 23.0625H30.75C30.0704 23.0625 29.4186 22.7925 28.938 22.312C28.4575 21.8314 28.1875 21.1796 28.1875 20.5C28.1875 19.8204 28.4575 19.1686 28.938 18.688C29.4186 18.2075 30.0704 17.9375 30.75 17.9375H35.875C36.5546 17.9375 37.2064 18.2075 37.687 18.688C38.1675 19.1686 38.4375 19.8204 38.4375 20.5C38.4375 30.4066 30.4066 38.4375 20.5 38.4375C10.5934 38.4375 2.5625 30.4066 2.5625 20.5C2.5625 19.8204 2.83248 19.1686 3.31304 18.688C3.7936 18.2075 4.44538 17.9375 5.125 17.9375H10.25C10.9296 17.9375 11.5814 18.2075 12.062 18.688C12.5425 19.1686 12.8125 19.8204 12.8125 20.5C12.8125 21.1796 12.5425 21.8314 12.062 22.312C11.5814 22.7925 10.9296 23.0625 10.25 23.0625H7.94375C8.44799 25.5239 9.66383 27.783 11.4404 29.5596C13.217 31.3362 15.4761 32.552 17.9375 33.0563V17.5002ZM20.5 7.6875C19.8204 7.6875 19.1686 7.95748 18.688 8.43804C18.2075 8.9186 17.9375 9.57039 17.9375 10.25C17.9375 10.9296 18.2075 11.5814 18.688 12.062C19.1686 12.5425 19.8204 12.8125 20.5 12.8125C21.1796 12.8125 21.8314 12.5425 22.312 12.062C22.7925 11.5814 23.0625 10.9296 23.0625 10.25C23.0625 9.57039 22.7925 8.9186 22.312 8.43804C21.8314 7.95748 21.1796 7.6875 20.5 7.6875Z" fill="#BEF3FC"/>
</svg>
