<svg width="48" height="147" viewBox="0 0 48 147" fill="none" xmlns="http://www.w3.org/2000/svg">
<path fill-rule="evenodd" clip-rule="evenodd" d="M21 118.774C19.0011 118.063 17.3173 116.67 16.2454 114.839C15.1736 113.008 14.7825 110.858 15.1412 108.767C15.4999 106.676 16.5852 104.779 18.206 103.411C19.8267 102.042 21.8786 101.289 24 101.286C26.1244 101.284 28.181 102.034 29.8058 103.402C31.4307 104.771 32.5189 106.67 32.8781 108.764C33.2373 110.858 32.8443 113.011 31.7685 114.843C30.6927 116.675 29.0036 118.067 27 118.774V136.986C29.8816 136.395 32.5264 134.972 34.6063 132.892C36.6862 130.812 38.1097 128.167 38.7 125.286H36C35.2043 125.286 34.4413 124.97 33.8787 124.407C33.3161 123.844 33 123.081 33 122.286C33 121.49 33.3161 120.727 33.8787 120.164C34.4413 119.602 35.2043 119.286 36 119.286H42C42.7957 119.286 43.5587 119.602 44.1213 120.164C44.6839 120.727 45 121.49 45 122.286C45 133.884 35.598 143.286 24 143.286C12.402 143.286 3 133.884 3 122.286C3 121.49 3.31607 120.727 3.87868 120.164C4.44129 119.602 5.20435 119.286 6 119.286H12C12.7956 119.286 13.5587 119.602 14.1213 120.164C14.6839 120.727 15 121.49 15 122.286C15 123.081 14.6839 123.844 14.1213 124.407C13.5587 124.97 12.7956 125.286 12 125.286H9.3C9.89033 128.167 11.3138 130.812 13.3937 132.892C15.4736 134.972 18.1184 136.395 21 136.986V118.774ZM24 107.286C23.2044 107.286 22.4413 107.602 21.8787 108.164C21.3161 108.727 21 109.49 21 110.286C21 111.081 21.3161 111.844 21.8787 112.407C22.4413 112.97 23.2044 113.286 24 113.286C24.7956 113.286 25.5587 112.97 26.1213 112.407C26.6839 111.844 27 111.081 27 110.286C27 109.49 26.6839 108.727 26.1213 108.164C25.5587 107.602 24.7956 107.286 24 107.286Z" fill="#BEF3FC"/>
<ellipse cx="23.5" cy="96.0356" rx="3.5" ry="6.25" stroke="#BEF3FC" stroke-width="4.57143"/>
<ellipse cx="23.5" cy="46.0356" rx="3.5" ry="6.25" stroke="#BEF3FC" stroke-width="4.57143"/>
<ellipse cx="23.5" cy="71.0356" rx="3.5" ry="6.25" stroke="#BEF3FC" stroke-width="4.57143"/>
<ellipse cx="23.5" cy="21.0356" rx="3.5" ry="6.25" stroke="#BEF3FC" stroke-width="4.57143"/>
<ellipse cx="23.5" cy="83.5356" rx="3.5" ry="6.25" stroke="#BEF3FC" stroke-width="4.57143"/>
<ellipse cx="23.5" cy="33.5356" rx="3.5" ry="6.25" stroke="#BEF3FC" stroke-width="4.57143"/>
<ellipse cx="23.5" cy="58.5356" rx="3.5" ry="6.25" stroke="#BEF3FC" stroke-width="4.57143"/>
<ellipse cx="23.5" cy="8.53564" rx="3.5" ry="6.25" stroke="#BEF3FC" stroke-width="4.57143"/>
</svg>
