<svg width="89" height="57" viewBox="0 0 89 57" fill="none" xmlns="http://www.w3.org/2000/svg">
<path d="M37.9182 55.6538C54.1878 55.741 67.943 48.1952 73.2014 37.7238L73.5509 37.0264L74.0388 37.6355L84.5485 50.7761L84.5475 50.7771C85.1635 51.5364 86.0018 51.6574 86.6939 51.3579C87.396 51.0541 87.9887 50.2931 87.9946 49.1881L88.2115 8.77757C88.2173 7.691 87.648 6.92211 86.9604 6.60188C86.2843 6.28711 85.4534 6.38235 84.8121 7.12063L84.8111 7.12062L74.2469 19.4303L73.7427 20.0175L73.4144 19.3175C68.3864 8.61834 54.6004 0.791543 38.213 0.70347C27.8272 0.647733 18.4381 3.70643 11.6475 8.66844C4.85667 13.6306 0.690409 20.4712 0.650004 28.0003C0.60964 35.5292 4.70247 42.4031 11.4395 47.4267C18.1764 52.45 27.5321 55.5981 37.9182 55.6538Z" fill="#3578A6" stroke="white"/>
<path d="M12.9005 34.1745C13.6281 34.1784 14.1864 34.0158 14.6226 33.7433C15.0597 33.47 15.4073 33.0658 15.6779 32.5341C16.2287 31.4517 16.4352 29.8991 16.4449 28.085C16.4547 26.271 16.2647 24.7163 15.7257 23.628C15.4608 23.0933 15.1177 22.6845 14.6834 22.4065C14.2502 22.1294 13.6936 21.9608 12.9661 21.9569C10.0748 21.9414 7.63055 24.5907 7.61206 28.0376C7.59372 31.4844 10.0093 34.159 12.9005 34.1745Z" fill="#FED220" stroke="white"/>
</svg>
