<svg width="224" height="216" viewBox="0 0 224 216" fill="none" xmlns="http://www.w3.org/2000/svg">
<path d="M39.2387 53.5696C73.897 27.2178 110.001 64.8901 113.769 86.6291C119.406 69.5411 170.487 36.327 196.507 77.7111C221.139 116.889 175.941 167.38 111.089 184.078C103.927 185.922 96.2957 184.888 90.0262 180.966C38.6942 148.85 5.24846 78.2571 39.2387 53.5696Z" fill="#CB9FD2" stroke="#1A1A1A" stroke-width="6.29182" stroke-linejoin="round"/>
<path d="M119.498 196.734C109.988 193.082 106.037 180.873 110.673 169.465C115.31 158.056 126.777 151.768 136.287 155.42C145.797 159.072 149.747 171.28 145.111 182.689C140.475 194.097 129.008 200.385 119.498 196.734Z" fill="#24CB71" stroke="#1A1A1A" stroke-width="6.29182"/>
<path d="M81.2587 191.449C91.4025 190.514 98.517 179.835 97.1495 167.597C95.7819 155.358 86.4502 146.195 76.3064 147.13C66.1626 148.065 59.0481 158.744 60.4156 170.982C61.7831 183.221 71.1149 192.384 81.2587 191.449Z" fill="#24CB71" stroke="#1A1A1A" stroke-width="6.29182"/>
<path d="M91.9204 119.898C94.2151 120.215 96.3417 118.545 96.6703 116.168C96.9988 113.792 95.4049 111.608 93.1101 111.29C90.8154 110.973 88.6887 112.643 88.3602 115.02C88.0316 117.396 89.6256 119.58 91.9204 119.898Z" fill="#1A1A1A"/>
<path d="M124.994 124.469C127.196 124.773 129.239 123.16 129.556 120.865C129.873 118.57 128.345 116.463 126.143 116.159C123.941 115.854 121.898 117.468 121.581 119.763C121.264 122.057 122.792 124.165 124.994 124.469Z" fill="#1A1A1A"/>
<path d="M94.9346 128.727C96.9202 140.896 113.488 143.077 119.016 132.056" stroke="#1A1A1A" stroke-width="6.29182" stroke-linecap="round"/>
<path d="M65.8913 130.013C70.901 130.706 75.5164 127.258 76.2 122.313C76.8835 117.368 73.3765 112.797 68.3668 112.105C63.3571 111.412 58.7417 114.86 58.0581 119.805C57.3746 124.751 60.8816 129.321 65.8913 130.013Z" fill="#FFC9C1"/>
<path d="M152.981 142.051C158.083 142.757 162.773 139.319 163.457 134.374C164.14 129.429 160.558 124.848 155.456 124.143C150.354 123.437 145.664 126.875 144.98 131.82C144.296 136.765 147.878 141.346 152.981 142.051Z" fill="#FFC9C1"/>
<g style="mix-blend-mode:screen" opacity="0.3">
<path d="M112 216C50.1444 216 0 167.647 0 108C0 48.3532 50.1444 0 112 0C173.856 0 224 48.3532 224 108C224 167.647 173.856 216 112 216Z" fill="#6EF1FA"/>
</g>
<g style="mix-blend-mode:screen" opacity="0.3">
<path d="M124.946 24.8438C115.106 34.3329 133.621 52.1872 154.597 72.289C175.573 92.391 190.981 106.874 200.692 97.385C210.403 87.896 201.469 63.923 180.493 43.9465C159.517 23.9696 134.657 15.3548 124.946 24.8438Z" fill="#6EF1FA"/>
</g>
</svg>
