<svg width="565" height="187" viewBox="0 0 565 187" fill="none" xmlns="http://www.w3.org/2000/svg">
<g opacity="0.3" style="mix-blend-mode:screen">
<path d="M92.7678 21.9118C83.5866 12.0054 68.1131 11.4175 58.2067 20.5987C48.3003 29.7799 47.7125 45.2535 56.8937 55.1598C66.0749 65.0662 81.5484 65.6541 91.4548 56.4729C101.361 47.2917 101.949 31.8182 92.7678 21.9118Z" fill="#6EF1FA"/>
</g>
<g opacity="0.3" style="mix-blend-mode:screen">
<path d="M134.974 134.149C148.48 134.149 159.43 123.2 159.43 109.693C159.43 96.1862 148.48 85.2369 134.974 85.2369C121.467 85.2369 110.518 96.1862 110.518 109.693C110.518 123.2 121.467 134.149 134.974 134.149Z" fill="#6EF1FA"/>
</g>
<g opacity="0.3" style="mix-blend-mode:screen">
<path d="M132.145 90.8635C134.294 93.0123 130.251 97.0553 125.671 101.607C121.091 106.159 117.726 109.439 115.606 107.29C113.485 105.141 115.436 99.7129 120.016 95.1892C124.597 90.6656 130.025 88.7148 132.145 90.8635Z" fill="#6EF1FA"/>
</g>
<g opacity="0.3" style="mix-blend-mode:screen">
<path d="M62.944 53.4088C63.0593 50.3722 68.7729 50.5892 75.2248 50.8543C81.6768 51.1195 86.3692 51.3578 86.2346 54.3736C86.1 57.3895 80.7926 59.6486 74.3613 59.3643C67.9301 59.0799 62.8094 56.4246 62.944 53.4088Z" fill="#6EF1FA"/>
</g>
<g opacity="0.3" style="mix-blend-mode:screen">
<path d="M77.5574 81.5728C71.8683 75.4343 62.2801 75.0701 56.1416 80.7592C50.003 86.4484 49.6387 96.0366 55.3279 102.175C61.0171 108.314 70.6053 108.678 76.7438 102.989C82.8824 97.2996 83.2466 87.7113 77.5574 81.5728Z" fill="#6EF1FA"/>
</g>
<g opacity="0.3" style="mix-blend-mode:screen">
<path d="M57.6575 97.2019C57.7729 94.1653 61.6692 94.2933 66.0036 94.478C70.338 94.6627 73.5728 94.8256 73.4382 97.8414C73.3036 100.857 69.6742 103.18 65.2999 102.994C60.9256 102.808 57.5229 100.218 57.6383 97.1811L57.6575 97.2019Z" fill="#6EF1FA"/>
</g>
<g opacity="0.3" style="mix-blend-mode:screen">
<path d="M38.2195 71.1954C32.5304 65.0569 22.9422 64.6926 16.8037 70.3818C10.6652 76.0709 10.3008 85.6591 15.99 91.7977C21.6792 97.9362 31.2674 98.3005 37.4059 92.6113C43.5445 86.9222 43.9087 77.3339 38.2195 71.1954Z" fill="#6EF1FA"/>
</g>
<g opacity="0.3" style="mix-blend-mode:screen">
<path d="M18.3195 86.8243C18.4349 83.7877 22.3313 83.9158 26.6657 84.1004C31 84.2851 34.2349 84.448 34.1003 87.4639C33.9657 90.4797 30.3364 92.8026 25.962 92.6164C21.5877 92.4302 18.185 89.8402 18.3004 86.8036L18.3195 86.8243Z" fill="#6EF1FA"/>
</g>
<g opacity="0.3" style="mix-blend-mode:screen">
<path d="M411.573 142.818C425.08 142.818 436.029 131.869 436.029 118.362C436.029 104.856 425.08 93.9062 411.573 93.9062C398.067 93.9062 387.117 104.856 387.117 118.362C387.117 131.869 398.067 142.818 411.573 142.818Z" fill="#6EF1FA"/>
</g>
<g opacity="0.3" style="mix-blend-mode:screen">
<path d="M408.745 99.5323C410.894 101.681 406.851 105.724 402.271 110.276C397.69 114.828 394.326 118.108 392.205 115.959C390.085 113.81 392.036 108.382 396.616 103.858C401.196 99.3344 406.625 97.3836 408.745 99.5323Z" fill="#6EF1FA"/>
</g>
<g opacity="0.3" style="mix-blend-mode:screen">
<path d="M378.154 91.1065C386.524 91.1065 393.309 84.3217 393.309 75.9522C393.309 67.5827 386.524 60.798 378.154 60.798C369.785 60.798 363 67.5827 363 75.9522C363 84.3217 369.785 91.1065 378.154 91.1065Z" fill="#6EF1FA"/>
</g>
<g opacity="0.3" style="mix-blend-mode:screen">
<path d="M380.218 65.8872C382.367 68.0359 379.624 70.8067 376.543 73.8602C373.461 76.9136 371.142 79.1754 369.022 77.0267C366.901 74.878 367.665 70.637 370.775 67.5553C373.885 64.4735 378.098 63.7384 380.246 65.8872H380.218Z" fill="#6EF1FA"/>
</g>
<g opacity="0.3" style="mix-blend-mode:screen">
<path d="M412.506 69.3086C420.875 69.3086 427.66 62.5238 427.66 54.1544C427.66 45.7849 420.875 39.0001 412.506 39.0001C404.137 39.0001 397.352 45.7849 397.352 54.1544C397.352 62.5238 404.137 69.3086 412.506 69.3086Z" fill="#6EF1FA"/>
</g>
<g opacity="0.3" style="mix-blend-mode:screen">
<path d="M414.57 44.0887C416.718 46.2375 413.976 49.0082 410.894 52.0616C407.812 55.1151 405.494 57.3769 403.373 55.2282C401.253 53.0795 402.016 48.8386 405.126 45.7568C408.236 42.6751 412.449 41.94 414.598 44.0887H414.57Z" fill="#6EF1FA"/>
</g>
<g opacity="0.3" style="mix-blend-mode:screen">
<path d="M280.827 161.818C294.334 161.818 305.283 150.869 305.283 137.362C305.283 123.855 294.334 112.906 280.827 112.906C267.321 112.906 256.371 123.855 256.371 137.362C256.371 150.869 267.321 161.818 280.827 161.818Z" fill="#6EF1FA"/>
</g>
<g opacity="0.3" style="mix-blend-mode:screen">
<path d="M278.001 118.532C280.15 120.681 276.107 124.724 271.526 129.276C266.946 133.828 263.582 137.107 261.461 134.959C259.341 132.81 261.292 127.382 265.872 122.858C270.452 118.334 275.88 116.383 278.001 118.532Z" fill="#6EF1FA"/>
</g>
<g opacity="0.3" style="mix-blend-mode:screen">
<path d="M218.154 96.4348C226.524 96.4348 233.309 89.65 233.309 81.2806C233.309 72.9111 226.524 66.1263 218.154 66.1263C209.785 66.1263 203 72.9111 203 81.2806C203 89.65 209.785 96.4348 218.154 96.4348Z" fill="#6EF1FA"/>
</g>
<g opacity="0.3" style="mix-blend-mode:screen">
<path d="M220.218 71.2154C222.367 73.3642 219.624 76.1349 216.543 79.1884C213.461 82.2419 211.142 84.5037 209.022 82.3549C206.901 80.2062 207.665 75.9653 210.775 72.8835C213.885 69.8018 218.098 69.0667 220.246 71.2154H220.218Z" fill="#6EF1FA"/>
</g>
<g opacity="0.3" style="mix-blend-mode:screen">
<path d="M281.76 88.3084C290.129 88.3084 296.914 81.5236 296.914 73.1541C296.914 64.7847 290.129 57.9999 281.76 57.9999C273.39 57.9999 266.606 64.7847 266.606 73.1541C266.606 81.5236 273.39 88.3084 281.76 88.3084Z" fill="#6EF1FA"/>
</g>
<g opacity="0.3" style="mix-blend-mode:screen">
<path d="M283.825 63.0888C285.974 65.2376 283.232 68.0083 280.15 71.0618C277.068 74.1152 274.75 76.3771 272.629 74.2283C270.509 72.0796 271.272 67.8387 274.382 64.7569C277.492 61.6752 281.705 60.9401 283.854 63.0888H283.825Z" fill="#6EF1FA"/>
</g>
<g opacity="0.3" style="mix-blend-mode:screen">
<path d="M257.041 112.446C262.651 112.446 267.199 107.717 267.199 101.882C267.199 96.0477 262.651 91.318 257.041 91.318C251.431 91.318 246.883 96.0477 246.883 101.882C246.883 107.717 251.431 112.446 257.041 112.446Z" fill="#6EF1FA"/>
</g>
<g opacity="0.3" style="mix-blend-mode:screen">
<path d="M258.552 94.6631C260.011 96.2484 258.149 98.2927 256.055 100.546C253.962 102.798 252.387 104.467 250.946 102.882C249.506 101.297 250.025 98.1675 252.137 95.8938C254.25 93.62 257.111 93.0777 258.571 94.6631H258.552Z" fill="#6EF1FA"/>
</g>
<g opacity="0.3" style="mix-blend-mode:screen">
<path d="M311.082 115.697C316.916 115.697 321.646 110.967 321.646 105.133C321.646 99.2984 316.916 94.5686 311.082 94.5686C305.248 94.5686 300.518 99.2984 300.518 105.133C300.518 110.967 305.248 115.697 311.082 115.697Z" fill="#6EF1FA"/>
</g>
<g opacity="0.3" style="mix-blend-mode:screen">
<path d="M312.187 97.9139C313.646 99.4993 311.783 101.544 309.69 103.796C307.596 106.049 306.022 107.718 304.581 106.133C303.141 104.547 303.659 101.418 305.772 99.1446C307.885 96.8709 310.746 96.3285 312.206 97.9139H312.187Z" fill="#6EF1FA"/>
</g>
<g opacity="0.3" style="mix-blend-mode:screen">
<path d="M238.757 143.326C243.245 143.326 246.884 139.506 246.884 134.794C246.884 130.081 243.245 126.261 238.757 126.261C234.269 126.261 230.631 130.081 230.631 134.794C230.631 139.506 234.269 143.326 238.757 143.326Z" fill="#6EF1FA"/>
</g>
<g opacity="0.3" style="mix-blend-mode:screen">
<path d="M239.957 128.643C241.151 129.964 239.627 131.667 237.914 133.545C236.201 135.422 234.913 136.813 233.734 135.492C232.556 134.17 232.98 131.563 234.708 129.668C236.437 127.773 238.778 127.321 239.972 128.643H239.957Z" fill="#6EF1FA"/>
</g>
<g opacity="0.3" style="mix-blend-mode:screen">
<path d="M506.941 129.852C490.958 129.852 478.001 116.896 478.001 100.913C478.001 84.9295 490.958 71.9726 506.941 71.9726C522.924 71.9726 535.881 84.9295 535.881 100.913C535.881 116.896 522.924 129.852 506.941 129.852Z" fill="#6EF1FA"/>
</g>
<g opacity="0.3" style="mix-blend-mode:screen">
<path d="M510.287 78.6302C507.744 81.1729 512.528 85.9572 517.948 91.3437C523.368 96.7302 527.349 100.611 529.859 98.0684C532.368 95.5257 530.059 89.102 524.639 83.749C519.219 78.3959 512.796 76.0875 510.287 78.6302Z" fill="#6EF1FA"/>
</g>
<g opacity="0.3" style="mix-blend-mode:screen">
<path d="M546.487 68.6601C536.583 68.6601 528.555 60.6314 528.555 50.7274C528.555 40.8234 536.583 32.7947 546.487 32.7947C556.391 32.7947 564.42 40.8234 564.42 50.7274C564.42 60.6314 556.391 68.6601 546.487 68.6601Z" fill="#6EF1FA"/>
</g>
<g opacity="0.3" style="mix-blend-mode:screen">
<path d="M544.045 38.8173C541.503 41.36 544.748 44.6388 548.395 48.2521C552.041 51.8654 554.785 54.5419 557.294 51.9992C559.803 49.4565 558.9 44.438 555.22 40.7912C551.539 37.1445 546.554 36.2746 544.012 38.8173H544.045Z" fill="#6EF1FA"/>
</g>
<g opacity="0.3" style="mix-blend-mode:screen">
<path d="M505.837 42.8653C495.933 42.8653 487.904 34.8366 487.904 24.9326C487.904 15.0286 495.933 6.99986 505.837 6.99986C515.741 6.99986 523.77 15.0286 523.77 24.9326C523.77 34.8366 515.741 42.8653 505.837 42.8653Z" fill="#6EF1FA"/>
</g>
<g opacity="0.3" style="mix-blend-mode:screen">
<path d="M503.395 13.022C500.852 15.5647 504.097 18.8434 507.744 22.4567C511.391 26.0701 514.134 28.7466 516.644 26.2039C519.153 23.6612 518.25 18.6427 514.569 14.9959C510.889 11.3492 505.904 10.4793 503.361 13.022H503.395Z" fill="#6EF1FA"/>
</g>
</svg>
