<svg width="569" height="165" viewBox="0 0 569 165" fill="none" xmlns="http://www.w3.org/2000/svg">
<path d="M301.816 29.8171L333.312 6.81108L337.488 45.5899L301.816 29.8171Z" fill="#202D4A"/>
<ellipse cx="240.944" cy="35.4138" rx="77.8018" ry="13.94" transform="rotate(-6.14651 240.944 35.4138)" fill="#202D4A"/>
<path d="M260.995 20.1927C261.291 22.9405 251.772 26.2189 239.734 27.5153C227.696 28.8116 217.698 27.635 217.402 24.8872C217.106 22.1394 225.961 12.7011 237.999 11.4047C250.037 10.1083 260.699 17.4449 260.995 20.1927Z" fill="#202D4A"/>
<ellipse cx="219.541" cy="53.6567" rx="13.3443" ry="4.05093" transform="rotate(15.9977 219.541 53.6567)" fill="#202D4A"/>
<path d="M523.923 100.139L557.701 80.6378L557.701 119.641L523.923 100.139Z" fill="#202D4A"/>
<ellipse cx="462.802" cy="99.1866" rx="77.8018" ry="13.94" fill="#202D4A"/>
<path d="M484.367 86.1997C484.367 88.9633 474.552 91.2038 462.444 91.2038C450.337 91.2038 440.522 88.9633 440.522 86.1997C440.522 83.436 450.337 75 462.444 75C474.552 75 484.367 83.436 484.367 86.1997Z" fill="#202D4A"/>
<ellipse cx="439.568" cy="115.033" rx="13.3443" ry="4.05093" transform="rotate(22.1442 439.568 115.033)" fill="#202D4A"/>
<path d="M140.749 131.718L177.956 120.019L169.483 158.091L140.749 131.718Z" fill="#202D4A"/>
<ellipse cx="81.294" cy="117.51" rx="77.8018" ry="13.94" transform="rotate(12.5465 81.294 117.51)" fill="#202D4A"/>
<path d="M105.165 109.518C104.565 112.216 94.4977 112.27 82.6792 109.64C70.8608 107.01 61.7667 102.691 62.3671 99.9932C62.9674 97.2956 74.3807 91.1932 86.1992 93.8234C98.0176 96.4535 105.766 106.82 105.165 109.518Z" fill="#202D4A"/>
<ellipse cx="55.1731" cy="127.931" rx="13.3443" ry="4.05093" transform="rotate(34.6907 55.1731 127.931)" fill="#202D4A"/>
</svg>
