<svg width="749" height="301" viewBox="0 0 749 301" fill="none" xmlns="http://www.w3.org/2000/svg">
<path d="M30.7505 31.8107C30.9119 30.465 32.0535 29.4521 33.4089 29.4521H719.656C721.031 29.4521 722.182 30.4934 722.32 31.8613L742.441 231.603C742.6 233.18 741.362 234.549 739.777 234.549H9.44323C7.83802 234.549 6.59359 233.146 6.78482 231.552L30.7505 31.8107Z" fill="url(#paint0_linear_2_172)"/>
<mask id="path-2-inside-1_2_172" fill="white">
<path d="M473.812 251.149C473.812 210.389 463.234 171.297 444.404 142.475C425.574 113.653 400.036 97.4609 373.406 97.4609C346.777 97.4609 321.238 113.653 302.408 142.475C283.578 171.297 273 210.389 273 251.149L373.406 251.149H473.812Z"/>
</mask>
<path d="M473.812 251.149C473.812 210.389 463.234 171.297 444.404 142.475C425.574 113.653 400.036 97.4609 373.406 97.4609C346.777 97.4609 321.238 113.653 302.408 142.475C283.578 171.297 273 210.389 273 251.149L373.406 251.149H473.812Z" fill="#FFB304" stroke="#F47E00" stroke-width="5.355" mask="url(#path-2-inside-1_2_172)"/>
<path d="M0 292.383C0 291.496 0.719254 290.776 1.6065 290.776H49.8015C50.6887 290.776 51.408 291.496 51.408 292.383V298.809C51.408 299.696 50.6887 300.415 49.8015 300.415H1.6065C0.719254 300.415 0 299.696 0 298.809V292.383Z" fill="#F47E00"/>
<path d="M696.15 292.383C696.15 291.496 696.869 290.776 697.756 290.776H746.705C747.707 290.776 748.464 291.684 748.285 292.67L747.119 299.096C746.98 299.86 746.315 300.415 745.538 300.415H697.756C696.869 300.415 696.15 299.696 696.15 298.809V292.383Z" fill="#F47E00"/>
<path d="M373.392 123.658C403.714 123.658 428.254 147.514 428.254 176.894C428.254 206.274 403.714 230.131 373.392 230.131C343.07 230.131 318.531 206.274 318.531 176.894C318.531 147.515 343.07 123.658 373.392 123.658Z" fill="#E0320A" stroke="#7A0400" stroke-width="1.6065"/>
<ellipse cx="380.706" cy="181.77" rx="48.3517" ry="49.1643" fill="#FF4D00"/>
<path d="M344.042 192.91C344.087 193.119 344.213 193.303 344.393 193.419C344.573 193.536 344.792 193.576 345.002 193.532C345.211 193.487 345.395 193.361 345.511 193.181C345.628 193.001 345.668 192.782 345.624 192.572C345.624 192.572 345.624 192.572 345.624 192.572C345.394 191.475 345.224 190.319 345.076 189.173C344.583 185.061 344.256 180.825 344.855 176.83C344.859 176.803 344.864 176.776 344.868 176.749C345.932 171.719 349.954 167.789 353.085 163.561C353.111 163.527 353.136 163.494 353.162 163.461C356.44 159.252 361.592 156.603 366.802 154.111C366.84 154.093 366.879 154.074 366.917 154.055C368.403 153.337 370.183 152.543 372.093 152.14C372.13 152.132 372.166 152.125 372.203 152.117C374.613 151.604 376.922 151.024 379.249 150.488L379.119 150.504C379.136 150.503 379.154 150.502 379.171 150.501C380.257 150.43 381.366 150.346 382.486 150.341C382.921 150.339 383.357 150.351 383.792 150.384C383.799 150.384 383.804 150.385 383.809 150.385C384.536 150.435 385.258 150.421 385.988 150.514C385.332 150.194 384.636 149.89 383.94 149.683C383.935 149.682 383.93 149.68 383.925 149.679C383.492 149.546 383.053 149.425 382.61 149.317C381.469 149.042 380.294 148.854 379.104 148.875C379.085 148.875 379.066 148.875 379.047 148.876L378.918 148.892C376.54 149.324 374.189 149.918 371.877 150.288C371.842 150.293 371.808 150.298 371.774 150.303C369.852 150.584 367.725 150.408 365.656 151.342C365.604 151.365 365.553 151.389 365.502 151.414C360.293 153.833 354.587 156.467 350.622 161.51C350.591 161.55 350.56 161.591 350.53 161.632C347.348 166.006 344.462 170.861 343.276 176.469C343.27 176.5 343.265 176.531 343.26 176.562C342.617 180.907 342.972 185.155 343.472 189.378C343.624 190.556 343.795 191.725 344.042 192.91Z" fill="#FF8B58"/>
<path d="M415.652 183.773C415.645 183.448 415.508 183.14 415.273 182.915C415.038 182.69 414.724 182.568 414.399 182.576C414.074 182.583 413.765 182.719 413.54 182.954C413.316 183.189 413.194 183.504 413.201 183.829C413.201 183.829 413.201 183.829 413.201 183.829C413.215 184.558 413.178 185.364 413.129 186.145C412.864 189.872 412.369 193.69 411.271 197.147C411.258 197.186 411.245 197.225 411.231 197.263C410 200.593 406.976 203.707 404.198 206.709C404.155 206.755 404.111 206.8 404.066 206.846C401.715 209.142 398.731 210.929 395.707 212.324C395.669 212.341 395.632 212.357 395.594 212.373C393.988 213.082 392.236 212.949 390.451 212.652L390.574 212.679C390.558 212.674 390.542 212.669 390.525 212.665C389.584 212.39 388.569 212.192 387.559 211.897C387.226 211.799 386.894 211.69 386.57 211.564C386.569 211.564 386.565 211.562 386.562 211.561C386.14 211.392 385.664 211.311 385.214 211.177C385.199 211.173 385.181 211.175 385.165 211.181C385.149 211.187 385.136 211.196 385.128 211.209C385.12 211.222 385.117 211.238 385.118 211.256C385.12 211.273 385.126 211.29 385.136 211.301C385.136 211.301 385.136 211.301 385.136 211.301C385.451 211.648 385.744 212.041 386.098 212.336C386.101 212.338 386.104 212.341 386.107 212.343C386.392 212.576 386.679 212.808 386.974 213.033C387.865 213.713 388.831 214.346 389.942 214.671C389.961 214.677 389.981 214.682 390 214.688L390.123 214.715C392.11 215.049 394.377 214.83 396.283 213.9C396.328 213.879 396.372 213.858 396.417 213.836C399.572 212.255 402.514 210.362 405.091 207.855C405.141 207.804 405.19 207.753 405.239 207.703C407.982 204.711 411.773 202.536 413.545 198.074C413.563 198.023 413.581 197.971 413.598 197.919C414.815 194.061 415.292 190.209 415.576 186.3C415.627 185.474 415.668 184.647 415.652 183.773Z" fill="#FF8B58"/>
<path d="M8.24741 236.844C8.43753 235.527 9.56645 234.549 10.8975 234.549H739.391C740.746 234.549 741.888 235.562 742.049 236.907L748.271 288.759C748.461 290.349 747.222 291.751 745.62 291.755L3.10099 293.98C1.46682 293.985 0.209532 292.538 0.442962 290.92L8.24741 236.844Z" fill="#FFB204"/>
<rect x="59.4399" width="625.464" height="29.4525" rx="1.6065" fill="#FFB304"/>
<path d="M286.847 224.63C286.847 220.69 287.895 211.901 289.079 206.669C290.217 201.638 291.686 196.81 294.572 189.173C296.47 184.149 297.211 179.242 299.68 174.016C301.998 169.108 303.95 164.026 306.594 159.552C307.837 157.535 309.136 155.504 310.524 153.494C311.221 152.484 311.905 151.495 313.75 148.445" stroke="#FFD269" stroke-width="2.6775" stroke-linecap="round"/>
<path d="M432.867 142.159C433.262 143.829 435.43 148.032 438.412 152.012C441.585 156.247 443.003 161.702 445.359 166.384C448.074 171.779 449.37 176.592 450.913 181.197C452.563 186.124 453.892 191.699 455.185 196.771C456.408 201.565 457.893 206.138 458.379 212.889C458.475 214.803 458.574 216.756 458.674 219.04C458.774 221.324 458.873 223.879 458.974 226.512" stroke="#FFD269" stroke-width="2.6775" stroke-linecap="round"/>
<line x1="6.96094" y1="238.03" x2="743.273" y2="238.03" stroke="#FFD269" stroke-width="2.6775"/>
<defs>
<linearGradient id="paint0_linear_2_172" x1="373.73" y1="29.4521" x2="375.334" y2="234.549" gradientUnits="userSpaceOnUse">
<stop stop-color="#FFB204"/>
<stop offset="1" stop-color="#F47E00"/>
</linearGradient>
</defs>
</svg>
