<svg width="145" height="127" viewBox="0 0 145 127" fill="none" xmlns="http://www.w3.org/2000/svg">
<path d="M56.8564 0.366291C31.8052 1.62703 10.8474 6.46664 3.52034 12.7703C-1.14605 16.7966 -1.18698 22.5716 3.47941 26.5165C13.1397 34.7316 43.8805 40.0186 77.937 39.2865C115.227 38.4731 141.261 31.6814 144.167 22.0022C144.822 19.8874 144.781 19.196 144.003 16.9186C143.144 14.4378 139.91 11.5096 135.817 9.55748C121.203 2.44041 89.5211 -1.2198 56.8564 0.366291ZM92.673 8.70343C105.485 9.67949 111.625 10.5742 120.712 12.811C129.104 14.9258 135.653 17.8946 135.653 19.6841C135.653 21.3108 128.899 24.5237 121.531 26.3944C116.087 27.7772 106.549 29.3633 97.9943 30.3393C88.7434 31.3967 55.6284 31.3967 46.4184 30.3393C30.2907 28.5092 19.5662 26.0691 12.6075 22.6936C8.10487 20.4568 7.9002 19.2774 11.7889 17.0406C18.5019 13.2584 33.3607 10.0862 50.9211 8.70343C60.5404 7.97139 82.9309 7.97139 92.673 8.70343Z" fill="#43A1B4"/>
<path d="M8.95235 34.0424C9.23842 34.87 14.7555 44.4696 20.5995 54.4417C23.1741 58.7863 24.7679 61.931 24.7679 62.6345C24.7679 63.7103 26.3209 65.7792 27.1791 65.7792C27.7921 65.7792 30.0807 72.1927 31.1432 76.9512C32.1649 81.5855 32.3283 83.4888 31.8788 85.3095C31.7153 86.0956 31.8379 86.7991 32.2875 87.5025C33.064 88.6611 33.7996 96.109 33.7996 102.605C33.7996 105.005 33.9222 111.129 34.0856 116.26L34.3717 125.57L35.8838 125.694C37.9271 125.86 40.3383 124.536 43.4442 121.515C44.8745 120.15 46.1006 119.115 46.1823 119.198C46.2232 119.281 46.8362 120.356 47.4492 121.556C51.209 128.673 57.5842 128.797 62.1205 121.887L63.6326 119.529L64.6951 121.101C69.354 128.177 75.0345 128.508 79.6933 121.887L81.2872 119.653L82.3088 121.143C85.8234 126.522 89.2971 128.094 93.2612 126.149C95.1002 125.28 96.4489 123.749 97.8792 120.894L98.7783 119.115L101.435 121.598C105.235 125.115 108.137 126.398 110.344 125.529C110.916 125.322 110.998 123.832 110.998 113.322C110.998 100.454 111.611 89.1162 112.387 88.1645C112.632 87.8335 112.877 85.9301 112.918 83.8199C112.959 79.8062 114.185 74.1375 116.147 69.048C116.964 66.8136 117.414 66.1929 118.395 65.7792C119.825 65.1585 120.397 64.2482 120.397 62.4276C120.397 61.6414 121.051 59.9863 121.95 58.3726C124.198 54.483 129.388 45.3799 132.943 39.1319C134.619 36.2355 135.886 33.7114 135.763 33.6287C135.313 33.1735 131.758 34.9528 131.063 35.9458C130.655 36.5251 128.775 39.7939 126.854 43.2283C120.765 53.9451 119.988 55.2278 119.988 54.4003C119.988 53.9451 120.56 50.428 121.214 46.5385C122.808 37.4768 122.808 37.6009 121.133 37.932C120.397 38.0561 119.621 38.3044 119.416 38.5112C119.212 38.6768 118.272 43.4766 117.291 49.1867C115.697 58.3726 115.37 59.6553 114.471 60.5656C113.899 61.1449 113.45 61.931 113.45 62.3448C113.45 63.4206 105.685 71.1583 104.581 71.1583C103.968 71.1583 103.233 70.3721 101.884 68.1377C99.0235 63.5034 99.0644 63.131 104.704 51.0073C107.279 45.5041 109.363 40.787 109.363 40.4974C109.363 40.2077 108.995 40.125 108.464 40.2905C107.933 40.4146 107.156 40.5387 106.666 40.5387C105.971 40.5387 105.194 41.9042 102.17 48.4419L98.5331 56.3037L98.3287 49.2694C98.2061 45.3799 97.9201 42.0283 97.7157 41.8215C97.4705 41.6146 96.6941 41.5318 95.9993 41.6559L94.6507 41.8628V50.9246C94.6507 59.4484 94.6098 60.0277 93.8334 60.8138C93.3838 61.269 93.016 62.1793 93.016 62.8413C93.016 63.8758 92.3213 64.7033 88.2754 68.2618C85.6599 70.5376 83.2896 72.3996 83.0444 72.3168C82.7584 72.2341 81.042 70.4962 79.2029 68.4687C76.6692 65.655 75.8518 64.4551 75.8518 63.5861C75.8518 62.9241 75.6475 62.0552 75.4432 61.6414C75.0345 60.8552 75.7292 58.0002 79.3255 46.5385C79.8568 44.7179 80.3472 43.0628 80.3472 42.8973C80.3472 42.6904 79.5707 42.6076 78.6308 42.6904L76.9144 42.8145L74.7484 49.8074C73.5633 53.6555 72.5416 56.8416 72.4599 56.9243C72.419 57.0071 71.3564 53.7796 70.1304 49.8074L67.9236 42.6076H66.1663C65.1855 42.6076 64.409 42.6904 64.409 42.7318C64.409 42.8145 64.7768 43.9731 65.2264 45.3386C65.6759 46.6627 66.9019 50.5935 67.8827 54.0693C69.6809 60.1104 69.7218 60.4414 69.0679 61.4345C68.6184 62.0965 68.4958 62.9241 68.6184 63.6689C68.8227 64.7447 68.4549 65.324 65.5533 68.6342C63.7552 70.7031 62.0387 72.3996 61.7935 72.3996C60.9762 72.3996 51.3316 63.6689 51.3316 62.9241C51.3316 62.5517 51.0455 61.8483 50.7186 61.3931C50.2281 60.7725 50.1464 58.8277 50.1055 51.2556V41.8628L48.7978 41.6559C48.0622 41.5732 47.3266 41.5318 47.1631 41.6559C46.9588 41.7387 46.8362 45.1317 46.8362 49.1453C46.8362 53.5727 46.6727 56.2623 46.4684 56.014C46.264 55.8071 44.5476 52.29 42.6269 48.1936L39.194 40.7456L37.3959 40.4974C36.4151 40.3319 35.5568 40.2905 35.4751 40.3319C35.3934 40.4146 36.742 43.4766 38.4993 47.2006C44.7928 60.8138 44.6293 60.3587 44.5885 63.2137C44.5885 65.4895 44.3841 66.1102 42.9538 68.4687C40.6652 72.1927 40.2157 72.11 35.7612 67.517C33.1048 64.8275 32.1649 63.5448 31.9605 62.4689C31.7971 61.6 31.2249 60.6069 30.4893 59.9863C29.345 58.9932 29.2224 58.6208 27.6286 49.0212C25.8305 38.4285 25.7079 38.0561 23.4193 38.0561C22.3568 38.0561 22.275 38.1802 22.4794 39.1733C22.602 39.8353 23.1741 43.2283 23.7463 46.7454C24.3184 50.2625 24.8905 53.49 25.0131 53.8624C25.667 56.0968 23.9506 53.5727 18.9239 44.9248C12.8756 34.4976 13.5295 35.3251 9.27929 33.5873C8.87062 33.4218 8.74802 33.5459 8.95235 34.0424ZM53.7019 69.9583C56.113 72.0272 58.3198 73.972 58.6468 74.303C59.1372 74.7581 58.7285 75.4202 56.0721 78.7718C54.1923 81.1717 52.6393 82.744 52.1898 82.744C51.7811 82.744 49.8603 81.1303 47.9396 79.1028C43.5668 74.6754 43.4442 73.9306 46.1006 69.5859C47.7761 66.855 48.3483 66.1929 49.0021 66.1929C49.1656 66.1929 51.2907 67.8894 53.7019 69.9583ZM76.8326 70.7031C78.7943 72.8548 80.3063 74.7581 80.2655 74.9236C79.9794 75.7098 72.8685 83.1578 72.419 83.1578C72.1329 83.1578 70.2122 81.2958 68.0871 78.9787L64.2864 74.8409L66.0846 72.8961C71.4382 67.1033 72.3373 66.2343 72.8277 66.524C73.1137 66.6895 74.9119 68.5515 76.8326 70.7031ZM98.6148 69.2549C99.9634 71.4893 100.331 72.4824 100.29 73.8478C100.29 75.4616 99.9634 75.9581 97.2253 78.9787C94.6098 81.8337 93.9968 82.3303 92.8526 82.3303C91.6674 82.3303 91.2179 81.9165 88.8067 78.8132C87.2946 76.8684 86.0686 75.1305 86.0686 74.9236C86.0686 74.2202 95.5907 66.1516 96.2445 66.2757C96.6123 66.3585 97.6749 67.6825 98.6148 69.2549ZM37.4776 75.7098C37.5185 76.9098 37.1915 78.3166 36.5785 79.6407L35.6386 81.7096L35.2708 79.8476C34.8212 77.6546 33.1457 70.91 32.6961 69.7101C32.5735 69.2549 33.5544 69.9997 34.9438 71.3652C37.2324 73.6409 37.4367 74.0133 37.4776 75.7098ZM111.038 74.303C110.385 76.9925 109.69 79.7648 109.526 80.4683C109.24 81.7096 109.24 81.7096 108.219 79.4338C107.606 78.1097 107.197 76.496 107.238 75.5029C107.279 74.0961 107.606 73.5582 109.649 71.5307C110.957 70.2066 112.06 69.2135 112.142 69.2549C112.183 69.3377 111.692 71.6134 111.038 74.303ZM68.9044 86.0543C68.9044 87.2542 68.5366 87.8749 66.4524 89.9851C64.2456 92.2609 63.8369 92.5092 62.57 92.3437C61.4666 92.2195 60.6901 91.6403 58.8102 89.4472C55.3365 85.5163 55.3365 85.1853 58.8102 80.6338L61.7118 76.8684L65.3081 80.7579C68.3323 84.0267 68.8636 84.8129 68.9044 86.0543ZM86.2321 80.8407C87.9076 82.9923 88.9293 84.7302 88.9293 85.3508C88.9293 86.0543 87.9894 87.3783 86.0277 89.53C82.3497 93.5436 81.8184 93.585 78.5491 90.2334C74.9119 86.5094 74.9528 85.8474 79.2029 81.1303C81.0828 79.1028 82.7992 77.4063 83.0853 77.3649C83.3305 77.3649 84.7609 78.9373 86.2321 80.8407ZM105.072 80.5096C107.033 84.8129 106.829 86.137 103.519 89.861C102.211 91.4334 100.781 92.6747 100.372 92.6747C99.9226 92.6747 98.86 91.5989 97.7157 89.9851C95.1411 86.3025 95.3046 85.6819 99.8817 80.9648C101.843 78.9787 103.478 77.3649 103.56 77.3649C103.601 77.3649 104.295 78.7718 105.072 80.5096ZM45.7736 81.6682C47.6944 83.7785 49.2882 85.8887 49.2882 86.3025C49.2882 87.6266 45.5284 92.6333 44.5476 92.6747C42.7086 92.7161 38.6219 86.7577 38.581 83.9854C38.581 82.7854 41.0739 77.7787 41.6869 77.7787C42.0139 77.7787 43.8529 79.5166 45.7736 81.6682ZM56.7669 92.0127C59.7502 95.447 59.8319 96.3159 57.1756 99.9572C54.6009 103.516 53.8653 103.516 50.8412 99.9986C47.6944 96.3573 47.5718 95.1574 49.9421 91.8885C51.6176 89.6127 52.7619 88.8679 53.9879 89.2403C54.2331 89.3231 55.4591 90.5644 56.7669 92.0127ZM94.7733 91.5989C97.4705 95.3229 97.3888 96.1504 93.9968 100.123C92.5256 101.819 91.2179 103.267 91.0544 103.309C90.564 103.474 89.951 102.854 87.785 99.9572C84.8835 96.0677 84.9243 95.447 88.398 91.8058C90.0736 90.0265 91.4222 88.9507 91.9943 88.9507C92.5665 88.9507 93.4656 89.7783 94.7733 91.5989ZM41.2374 95.9849C41.4008 97.1435 41.1148 97.9297 39.9296 99.8744C39.1123 101.24 38.2541 102.398 37.968 102.481C37.3959 102.688 37.1507 100.909 36.8237 94.3298L36.6194 89.5714L38.8262 92.054C40.3792 93.7919 41.1148 94.9505 41.2374 95.9849ZM76.1379 92.3437C77.8543 94.0815 78.7125 95.2401 78.7125 95.9022C78.7125 97.2676 73.6041 102.605 72.3373 102.605C71.7243 102.605 70.58 101.654 68.7818 99.6675C65.6351 96.1918 65.6351 95.9849 68.9044 92.3023C71.9286 88.9093 72.7051 88.9093 76.1379 92.3437ZM108.423 90.3575C108.3 90.6472 108.055 93.5436 107.892 96.7711C107.687 100.909 107.483 102.605 107.115 102.605C106.829 102.605 105.93 101.488 105.113 100.164C103.028 96.6883 103.11 95.5298 105.807 92.3437C107.851 89.9024 108.872 89.1162 108.423 90.3575ZM66.2481 101.654C69.6809 105.336 69.7626 106.412 66.9837 109.805C65.3898 111.75 64.8177 112.122 63.7552 112.122C62.6518 112.122 62.0387 111.708 60.1589 109.515C58.5242 107.653 57.8703 106.619 57.8703 105.75C57.8703 104.219 61.7118 98.8814 62.8152 98.8814C63.2648 98.8814 64.7768 100.123 66.2481 101.654ZM48.43 102.233C51.5359 105.833 51.6176 106.66 49.2065 110.053C46.9179 113.405 46.3458 113.322 43.199 109.515C41.8504 107.902 40.7061 106.205 40.7061 105.75C40.7061 105.336 41.4826 103.723 42.4634 102.15C44.7111 98.4262 45.1606 98.4676 48.43 102.233ZM85.0469 101.736C86.7634 104.054 86.886 104.343 86.6407 105.998C86.2729 108.191 82.7584 112.536 81.328 112.536C80.715 112.536 79.6116 111.626 78.1404 110.012C75.0345 106.536 75.0754 105.543 78.4265 101.943C81.655 98.4262 82.4723 98.3848 85.0469 101.736ZM102.375 102.026C103.274 103.516 104.05 105.171 104.05 105.667C104.05 107.116 99.5956 112.536 98.4105 112.536C97.2253 112.536 93.8334 107.984 93.8334 106.371C93.8334 104.964 98.574 99.3779 99.8 99.3365C100.454 99.2951 101.108 99.9986 102.375 102.026ZM75.5658 112.039C78.4265 115.35 78.7534 117.212 77.037 119.777C74.585 123.46 72.7459 124.287 70.5391 122.798C68.7818 121.598 66.3298 117.956 66.6976 117.088C66.8611 116.757 67.0654 115.97 67.188 115.35C67.4332 113.819 72.0512 108.688 72.7868 109.143C73.1137 109.309 74.3397 110.633 75.5658 112.039ZM40.6652 111.584C42.1773 113.488 42.5043 114.274 42.6269 115.888C42.7086 117.791 42.6677 117.915 40.4609 119.943C39.194 121.101 38.0089 122.053 37.8045 122.053C37.6002 122.053 37.4367 119.281 37.4367 115.639C37.4367 108.067 37.6819 107.778 40.6652 111.584ZM57.7886 111.75C58.9328 113.115 59.9137 114.605 59.9137 115.06C59.9137 115.515 60.118 116.26 60.3223 116.715C60.6493 117.294 60.5675 117.832 60.0771 118.825C58.2381 122.467 55.5817 124.494 53.7019 123.749C51.4133 122.839 49.1656 118.908 49.5743 116.426C49.9012 114.315 53.6201 109.226 54.8053 109.226C55.2957 109.267 56.4808 110.26 57.7886 111.75ZM107.32 115.639C107.32 123.046 107.442 122.922 103.601 119.198C101.884 117.501 101.639 117.088 101.802 115.929C101.966 114.398 105.807 109.226 106.747 109.226C107.197 109.226 107.32 110.384 107.32 115.639ZM92.9752 111.915C94.1194 113.405 94.6507 114.564 94.6507 115.432C94.6507 116.136 94.855 117.088 95.0594 117.543C95.7132 118.743 93.8742 122.053 91.7083 123.46C90.3188 124.37 89.2154 124.08 87.3764 122.301C83.8618 118.991 83.7392 115.763 87.0086 111.957C89.6649 108.812 90.6457 108.812 92.9752 111.915Z" fill="#43A1B4"/>
</svg>
