<svg width="237" height="186" viewBox="0 0 237 186" fill="none" xmlns="http://www.w3.org/2000/svg">
<path d="M123.897 16.5002L134.629 30.0556L151.646 26.9998L156.374 43.6303L173.265 47.3194L171.268 64.4931L185.462 74.3653L177.045 89.4677L186.381 104.02L172.825 114.752L175.881 131.769L159.25 136.497L155.561 153.388L138.388 151.391L128.515 165.585L113.413 157.168L98.8607 166.504L88.1288 152.948L71.1116 156.004L66.3841 139.374L49.4929 135.685L51.4895 118.511L37.2957 108.639L45.7124 93.5362L36.3771 78.9837L49.9325 68.2519L46.8768 51.2347L63.5073 46.5072L67.1963 29.616L84.37 31.6125L94.2423 17.4188L109.345 25.8355L123.897 16.5002Z" fill="#4A3D20"/>
<path d="M166.478 102.52L213.485 84.9218L205.222 134.43L166.478 102.52Z" fill="#4A3D20"/>
<ellipse cx="42.4984" cy="83.7691" rx="31.0145" ry="20.357" transform="rotate(9.47565 42.4984 83.7691)" fill="#4A3D20"/>
</svg>
