<svg width="906" height="624" viewBox="0 0 906 624" fill="none" xmlns="http://www.w3.org/2000/svg">
<ellipse cx="817.9" cy="529.842" rx="28.6353" ry="28.4361" fill="#274326"/>
<ellipse cx="817.9" cy="472.97" rx="28.6353" ry="28.4361" fill="#274326"/>
<ellipse cx="817.9" cy="416.098" rx="28.6353" ry="28.4361" fill="#274326"/>
<ellipse cx="817.9" cy="359.225" rx="28.6353" ry="28.4361" fill="#274326"/>
<ellipse cx="817.9" cy="302.353" rx="28.6353" ry="28.4361" fill="#274326"/>
<ellipse cx="817.9" cy="245.481" rx="28.6353" ry="28.4361" fill="#274326"/>
<ellipse cx="817.9" cy="188.608" rx="28.6353" ry="28.4361" fill="#274326"/>
<ellipse cx="817.9" cy="131.736" rx="28.6353" ry="28.4361" fill="#274326"/>
<ellipse cx="81.2535" cy="529.842" rx="28.6353" ry="28.4361" fill="#274326"/>
<ellipse cx="81.2535" cy="472.97" rx="28.6353" ry="28.4361" fill="#274326"/>
<ellipse cx="81.2535" cy="416.098" rx="28.6353" ry="28.4361" fill="#274326"/>
<ellipse cx="81.2535" cy="359.225" rx="28.6353" ry="28.4361" fill="#274326"/>
<ellipse cx="81.2535" cy="302.353" rx="28.6353" ry="28.4361" fill="#274326"/>
<ellipse cx="81.2535" cy="245.481" rx="28.6353" ry="28.4361" fill="#274326"/>
<ellipse cx="81.2535" cy="188.609" rx="28.6353" ry="28.4361" fill="#274326"/>
<ellipse cx="81.2535" cy="131.736" rx="28.6353" ry="28.4361" fill="#274326"/>
<ellipse cx="135.662" cy="74.8641" rx="28.4361" ry="28.6353" transform="rotate(90 135.662 74.8641)" fill="#274326"/>
<ellipse cx="192.931" cy="74.8641" rx="28.4361" ry="28.6353" transform="rotate(90 192.931 74.8641)" fill="#274326"/>
<ellipse cx="250.203" cy="74.8641" rx="28.4361" ry="28.6353" transform="rotate(90 250.203 74.8641)" fill="#274326"/>
<ellipse cx="307.474" cy="74.8641" rx="28.4361" ry="28.6353" transform="rotate(90 307.474 74.8641)" fill="#274326"/>
<ellipse cx="364.745" cy="74.8641" rx="28.4361" ry="28.6353" transform="rotate(90 364.745 74.8641)" fill="#274326"/>
<ellipse cx="422.015" cy="74.8641" rx="28.4361" ry="28.6353" transform="rotate(90 422.015 74.8641)" fill="#274326"/>
<ellipse cx="479.286" cy="74.8641" rx="28.4361" ry="28.6353" transform="rotate(90 479.286 74.8641)" fill="#274326"/>
<ellipse cx="536.556" cy="74.8641" rx="28.4361" ry="28.6353" transform="rotate(90 536.556 74.8641)" fill="#274326"/>
<ellipse cx="593.827" cy="74.8641" rx="28.4361" ry="28.6353" transform="rotate(90 593.827 74.8641)" fill="#274326"/>
<ellipse cx="651.097" cy="74.8641" rx="28.4361" ry="28.6353" transform="rotate(90 651.097 74.8641)" fill="#274326"/>
<ellipse cx="708.369" cy="74.8641" rx="28.4361" ry="28.6353" transform="rotate(90 708.369 74.8641)" fill="#274326"/>
<ellipse cx="765.639" cy="74.8641" rx="28.4361" ry="28.6353" transform="rotate(90 765.639 74.8641)" fill="#274326"/>
<ellipse cx="808.591" cy="84.1058" rx="28.4361" ry="28.6353" transform="rotate(90 808.591 84.1058)" fill="#274326"/>
<ellipse cx="92.7084" cy="84.1058" rx="28.4361" ry="28.6353" transform="rotate(90 92.7084 84.1058)" fill="#274326"/>
<ellipse cx="92.7084" cy="583.16" rx="28.4361" ry="28.6353" transform="rotate(90 92.7084 583.16)" fill="#274326"/>
<ellipse cx="808.591" cy="583.16" rx="28.4361" ry="28.6353" transform="rotate(90 808.591 583.16)" fill="#274326"/>
<ellipse cx="138.525" cy="595.245" rx="28.4361" ry="28.6353" transform="rotate(90 138.525 595.245)" fill="#274326"/>
<ellipse cx="195.797" cy="595.245" rx="28.4361" ry="28.6353" transform="rotate(90 195.797 595.245)" fill="#274326"/>
<ellipse cx="253.067" cy="595.245" rx="28.4361" ry="28.6353" transform="rotate(90 253.067 595.245)" fill="#274326"/>
<ellipse cx="310.337" cy="595.245" rx="28.4361" ry="28.6353" transform="rotate(90 310.337 595.245)" fill="#274326"/>
<ellipse cx="367.609" cy="595.245" rx="28.4361" ry="28.6353" transform="rotate(90 367.609 595.245)" fill="#274326"/>
<ellipse cx="424.879" cy="595.245" rx="28.4361" ry="28.6353" transform="rotate(90 424.879 595.245)" fill="#274326"/>
<ellipse cx="482.151" cy="595.245" rx="28.4361" ry="28.6353" transform="rotate(90 482.151 595.245)" fill="#274326"/>
<ellipse cx="539.42" cy="595.245" rx="28.4361" ry="28.6353" transform="rotate(90 539.42 595.245)" fill="#274326"/>
<ellipse cx="596.692" cy="595.245" rx="28.4361" ry="28.6353" transform="rotate(90 596.692 595.245)" fill="#274326"/>
<ellipse cx="653.962" cy="595.245" rx="28.4361" ry="28.6353" transform="rotate(90 653.962 595.245)" fill="#274326"/>
<ellipse cx="711.232" cy="595.245" rx="28.4361" ry="28.6353" transform="rotate(90 711.232 595.245)" fill="#274326"/>
<ellipse cx="768.503" cy="595.245" rx="28.4361" ry="28.6353" transform="rotate(90 768.503 595.245)" fill="#274326"/>
<rect x="94.6547" y="88.7348" width="707.555" height="488.519" rx="58.3885" stroke="#274326" stroke-width="30.9519"/>
<circle cx="79.808" cy="12.4316" r="11.4739" transform="rotate(-1.21285 79.808 12.4316)" fill="#6EF1FA" fill-opacity="0.3"/>
<path d="M75.3445 4.47348L75.9884 2.48436C84.7218 0.463947 87.6273 5.86429 88.3142 8.83368C88.4986 9.63075 84.6553 1.76739 75.3445 4.47348Z" fill="white" fill-opacity="0.5"/>
<circle cx="809.435" cy="12.4316" r="11.4739" transform="rotate(-1.21285 809.435 12.4316)" fill="#6EF1FA" fill-opacity="0.3"/>
<path d="M804.971 4.47372L805.615 2.4846C814.349 0.464191 817.254 5.86453 817.941 8.83393C818.126 9.631 814.282 1.76763 804.971 4.47372Z" fill="white" fill-opacity="0.5"/>
<circle cx="106.926" cy="76.5886" r="27.0095" fill="#6EF1FA" fill-opacity="0.3"/>
<path d="M103.228 55.4992L105.447 51.7993C123.947 51.7993 127.277 64.0091 127.277 70.2991C127.277 71.9875 123.207 54.3892 103.228 55.4992Z" fill="white" fill-opacity="0.5"/>
<circle cx="69.5585" cy="113.958" r="23.6796" fill="#6EF1FA" fill-opacity="0.3"/>
<path d="M60.6959 97.3435L62.1114 93.2675C80.2193 89.4802 85.9783 100.75 87.2659 106.906C87.6116 108.559 80.0252 92.1667 60.6959 97.3435Z" fill="white" fill-opacity="0.5"/>
<circle cx="92.4632" cy="232.848" r="23.6796" transform="rotate(31.23 92.4632 232.848)" fill="#6EF1FA" fill-opacity="0.3"/>
<path d="M93.5005 214.046L96.8242 211.295C114.272 217.445 113.353 230.067 111.262 235.999C110.701 237.592 112.713 219.641 93.5005 214.046Z" fill="white" fill-opacity="0.5"/>
<circle cx="60.1228" cy="171.279" r="30.3395" transform="rotate(-7.3712 60.1228 171.279)" fill="#6EF1FA" fill-opacity="0.3"/>
<path d="M46.132 151.624L47.2606 146.213C69.647 138.424 78.8172 151.797 81.4654 159.408C82.1763 161.451 69.8419 141.869 46.132 151.624Z" fill="white" fill-opacity="0.5"/>
<circle cx="60.7317" cy="301.183" r="30.3395" transform="rotate(-50.288 60.7317 301.183)" fill="#6EF1FA" fill-opacity="0.3"/>
<path d="M37.1007 296.316L34.242 291.584C45.3328 270.637 61.1548 274.186 68.2772 277.957C70.189 278.969 47.8218 273.027 37.1007 296.316Z" fill="white" fill-opacity="0.5"/>
<circle cx="54.4726" cy="62.1305" r="17.3897" transform="rotate(-35.3542 54.4726 62.1305)" fill="#6EF1FA" fill-opacity="0.3"/>
<path d="M42.1039 55.9454L41.2197 52.9026C50.4561 42.9396 58.6942 47.2423 62.0816 50.3828C62.9909 51.2257 51.4814 44.6312 42.1039 55.9454Z" fill="white" fill-opacity="0.5"/>
<circle cx="8.95281" cy="335.823" r="8.75769" transform="rotate(-1.21285 8.95281 335.823)" fill="#6EF1FA" fill-opacity="0.3"/>
<path d="M5.54475 329.749L6.03623 328.23C12.7021 326.688 14.9198 330.81 15.4441 333.077C15.5848 333.685 12.6514 327.683 5.54475 329.749Z" fill="white" fill-opacity="0.5"/>
<circle cx="47.9877" cy="386.125" r="11.4739" transform="rotate(-1.21285 47.9877 386.125)" fill="#6EF1FA" fill-opacity="0.3"/>
<path d="M43.5242 378.167L44.1681 376.178C52.9015 374.157 55.8069 379.558 56.4939 382.527C56.6783 383.324 52.835 375.461 43.5242 378.167Z" fill="white" fill-opacity="0.5"/>
<circle cx="42.0687" cy="541.522" r="11.4739" transform="rotate(-1.21285 42.0687 541.522)" fill="#6EF1FA" fill-opacity="0.3"/>
<path d="M37.6043 533.564L38.2482 531.575C46.9816 529.555 49.887 534.955 50.574 537.924C50.7584 538.721 46.9151 530.858 37.6043 533.564Z" fill="white" fill-opacity="0.5"/>
<path d="M54.7591 516.555C54.7591 557.21 91.7449 582 91.7449 582H118.006C118.006 582 91.745 562.396 91.745 519.267C91.745 476.138 114.698 496.093 114.698 462.666C114.698 436.441 88.2795 421.401 88.2795 384.755C88.2795 360.225 100.708 307.394 101.114 305.615C99.9165 307.479 61.8611 366.834 61.8611 401.066C61.8611 451.142 81.1776 442.923 81.1776 458.387C81.1776 481.603 54.7591 479.231 54.7591 516.555Z" fill="#2A7429"/>
<circle cx="94.002" cy="502.634" r="30.3395" transform="rotate(30.0898 94.002 502.634)" fill="#6EF1FA" fill-opacity="0.3"/>
<path d="M94.8493 478.523L99.0368 474.913C121.544 482.347 120.689 498.539 118.162 506.192C117.483 508.246 119.603 485.2 94.8493 478.523Z" fill="white" fill-opacity="0.5"/>
<circle cx="117.546" cy="391.305" r="11.4739" transform="rotate(-1.21285 117.546 391.305)" fill="#6EF1FA" fill-opacity="0.3"/>
<path d="M113.083 383.347L113.727 381.358C122.46 379.337 125.366 384.738 126.052 387.707C126.237 388.504 122.394 380.641 113.083 383.347Z" fill="white" fill-opacity="0.5"/>
<circle cx="81.2615" cy="355.275" r="17.3897" transform="rotate(28.1973 81.2615 355.275)" fill="#6EF1FA" fill-opacity="0.3"/>
<path d="M81.2912 341.446L83.6217 339.299C96.6557 343.131 96.4725 352.424 95.1696 356.855C94.8198 358.045 95.5978 344.803 81.2912 341.446Z" fill="white" fill-opacity="0.5"/>
<circle cx="68.7768" cy="436.932" r="17.3897" transform="rotate(-30.6428 68.7768 436.932)" fill="#6EF1FA" fill-opacity="0.3"/>
<path d="M56.9591 429.752L56.3278 426.647C66.3513 417.476 74.2082 422.441 77.3262 425.849C78.1632 426.764 67.2342 419.246 56.9591 429.752Z" fill="white" fill-opacity="0.5"/>
<circle cx="27.0095" cy="27.0095" r="27.0095" transform="matrix(-1 0 0 1 826.081 49.5796)" fill="#6EF1FA" fill-opacity="0.3"/>
<path d="M802.771 55.4997L800.552 51.7998C782.052 51.7998 778.722 64.0096 778.722 70.2996C778.722 71.988 782.792 54.3896 802.771 55.4997Z" fill="white" fill-opacity="0.5"/>
<circle cx="23.6796" cy="23.6796" r="23.6796" transform="matrix(-1 0 0 1 860.119 90.2788)" fill="#6EF1FA" fill-opacity="0.3"/>
<path d="M845.302 97.3437L843.887 93.2677C825.779 89.4805 820.02 100.75 818.732 106.907C818.386 108.559 825.973 92.167 845.302 97.3437Z" fill="white" fill-opacity="0.5"/>
<circle cx="23.6796" cy="23.6796" r="23.6796" transform="matrix(-0.855093 0.518475 0.518475 0.855093 821.506 200.322)" fill="#6EF1FA" fill-opacity="0.3"/>
<path d="M812.499 214.046L809.175 211.294C791.727 217.444 792.646 230.067 794.737 235.999C795.298 237.591 793.286 219.641 812.499 214.046Z" fill="white" fill-opacity="0.5"/>
<circle cx="30.3395" cy="30.3395" r="30.3395" transform="matrix(-0.991736 -0.128297 -0.128297 0.991736 879.856 145.083)" fill="#6EF1FA" fill-opacity="0.3"/>
<path d="M859.867 151.625L858.738 146.213C836.352 138.424 827.182 151.797 824.534 159.408C823.823 161.452 836.157 141.869 859.867 151.625Z" fill="white" fill-opacity="0.5"/>
<circle cx="30.3395" cy="30.3395" r="30.3395" transform="matrix(-0.638929 -0.769266 -0.769266 0.638929 887.991 305.137)" fill="#6EF1FA" fill-opacity="0.3"/>
<path d="M868.898 296.317L871.757 291.585C860.666 270.637 844.844 274.187 837.722 277.958C835.81 278.97 858.177 273.028 868.898 296.317Z" fill="white" fill-opacity="0.5"/>
<circle cx="17.3897" cy="17.3897" r="17.3897" transform="matrix(-0.815591 -0.578629 -0.578629 0.815591 875.771 58.0112)" fill="#6EF1FA" fill-opacity="0.3"/>
<path d="M863.894 55.9464L864.778 52.9036C855.542 42.9406 847.304 47.2433 843.916 50.3837C843.007 51.2267 854.517 44.6322 863.894 55.9464Z" fill="white" fill-opacity="0.5"/>
<circle cx="8.75769" cy="8.75769" r="8.75769" transform="matrix(-0.999776 -0.0211666 -0.0211666 0.999776 905.988 327.253)" fill="#6EF1FA" fill-opacity="0.3"/>
<path d="M900.454 329.749L899.963 328.231C893.297 326.689 891.079 330.811 890.555 333.077C890.414 333.686 893.348 327.684 900.454 329.749Z" fill="white" fill-opacity="0.5"/>
<circle cx="11.4739" cy="11.4739" r="11.4739" transform="matrix(-0.999776 -0.0211666 -0.0211666 0.999776 869.725 374.896)" fill="#6EF1FA" fill-opacity="0.3"/>
<path d="M862.474 378.167L861.83 376.178C853.097 374.157 850.191 379.558 849.504 382.527C849.32 383.324 853.163 375.461 862.474 378.167Z" fill="white" fill-opacity="0.5"/>
<circle cx="11.4739" cy="11.4739" r="11.4739" transform="matrix(-0.999776 -0.0211666 -0.0211666 0.999776 875.646 530.294)" fill="#6EF1FA" fill-opacity="0.3"/>
<path d="M868.396 533.564L867.752 531.575C859.018 529.555 856.113 534.955 855.426 537.924C855.242 538.721 859.085 530.858 868.396 533.564Z" fill="white" fill-opacity="0.5"/>
<path d="M851.241 516.556C851.241 557.21 802.507 581.26 802.507 581.26H776.246C776.246 581.26 814.255 562.396 814.255 519.267C814.255 476.138 791.302 496.093 791.302 462.666C791.302 436.441 817.72 421.401 817.72 384.755C817.72 360.225 805.292 307.394 804.885 305.615C806.083 307.479 844.139 366.834 844.139 401.066C844.139 451.142 824.822 442.923 824.822 458.387C824.822 481.604 851.241 479.231 851.241 516.556Z" fill="#2A7429"/>
<circle cx="30.3395" cy="30.3395" r="30.3395" transform="matrix(-0.865241 0.501356 0.501356 0.865241 823.038 461.173)" fill="#6EF1FA" fill-opacity="0.3"/>
<path d="M811.151 478.523L806.963 474.914C784.456 482.347 785.311 498.54 787.838 506.192C788.517 508.246 786.397 485.201 811.151 478.523Z" fill="white" fill-opacity="0.5"/>
<circle cx="11.4739" cy="11.4739" r="11.4739" transform="matrix(-0.999776 -0.0211666 -0.0211666 0.999776 800.167 380.077)" fill="#6EF1FA" fill-opacity="0.3"/>
<path d="M792.916 383.347L792.272 381.358C783.539 379.337 780.633 384.738 779.947 387.707C779.762 388.504 783.605 380.641 792.916 383.347Z" fill="white" fill-opacity="0.5"/>
<circle cx="17.3897" cy="17.3897" r="17.3897" transform="matrix(-0.881326 0.472509 0.472509 0.881326 831.847 331.732)" fill="#6EF1FA" fill-opacity="0.3"/>
<path d="M824.708 341.446L822.377 339.299C809.343 343.132 809.526 352.424 810.829 356.856C811.179 358.045 810.401 344.803 824.708 341.446Z" fill="white" fill-opacity="0.5"/>
<circle cx="17.3897" cy="17.3897" r="17.3897" transform="matrix(-0.860362 -0.509684 -0.509684 0.860362 861.046 430.834)" fill="#6EF1FA" fill-opacity="0.3"/>
<path d="M849.04 429.752L849.671 426.647C839.648 417.476 831.791 422.441 828.673 425.849C827.836 426.764 838.765 419.247 849.04 429.752Z" fill="white" fill-opacity="0.5"/>
</svg>
