<svg width="1440" height="198" viewBox="0 0 1440 198" fill="none" xmlns="http://www.w3.org/2000/svg">
<mask id="mask0_2751_1681" style="mask-type:alpha" maskUnits="userSpaceOnUse" x="0" y="0" width="1440" height="198">
<rect width="1440" height="198" fill="#D9D9D9"/>
</mask>
<g mask="url(#mask0_2751_1681)">
<path d="M1280.02 -27C1368.59 -18.7617 1548.43 2.67061 1559.24 22.43C1570.05 42.2209 1449.64 47.145 1388.11 47.145C1452.66 55.3833 1577.25 76.8156 1559.24 96.575C1541.22 116.366 1341.55 123.342 1243.99 124.383C1283.01 131.58 1360.18 150.961 1356.58 170.751C1352.08 195.466 541.413 217.12 541.413 170.751C541.413 133.663 613.472 124.383 649.502 124.383C496.389 124.383 189.216 118.828 185.613 96.575C183.084 81.0137 234.752 66.5571 284.529 56.8037C193.024 70.187 75.9657 79.1829 73.0526 47.1765C69.4497 7.62624 251.693 -4.3367 343.275 -5.34677L1280.05 -26.9684L1280.02 -27Z" fill="#2EB2EF"/>
<path d="M1066.63 -5C1124.43 -0.526357 1241.8 11.073 1248.85 21.8151C1255.9 32.5304 1177.34 35.2092 1137.18 35.2092C1179.3 39.6829 1260.6 51.2822 1248.85 62.0243C1237.1 72.7396 1106.8 76.5435 1043.13 77.1061C1068.59 81.0172 1118.95 91.5182 1116.6 102.233C1113.67 115.628 584.678 127.361 584.678 102.233C584.678 82.1423 631.688 77.1061 655.219 77.1061C555.297 77.1061 354.877 74.079 352.527 62.0243C350.881 53.586 384.598 45.7638 417.061 40.4597C357.332 47.6926 280.941 52.568 279.034 35.2092C276.684 13.7786 395.619 7.29582 455.374 6.73327L1066.66 -5H1066.63Z" fill="#6EF1FA"/>
</g>
</svg>
