<svg width="73" height="140" viewBox="0 0 73 140" fill="none" xmlns="http://www.w3.org/2000/svg">
<path d="M37.5653 139.289C36.3609 140.048 34.828 140.048 33.6236 139.289L4.79583 121.133C4.77781 121.121 4.75695 121.115 4.73565 121.115C4.67329 121.115 4.62274 121.065 4.62274 121.002V3.69818C4.62274 1.65574 6.27847 1.52588e-05 8.32091 1.52588e-05H62.8689C64.9114 1.52588e-05 66.5671 1.65574 66.5671 3.69818V121.002C66.5671 121.064 66.5162 121.115 66.4534 121.115C66.432 121.115 66.411 121.121 66.3928 121.133L37.5653 139.289Z" fill="#D9D9D9"/>
<rect y="36.0571" width="72.1143" height="24.0381" rx="3.69817" fill="#D9D9D9"/>
<path d="M9.45006 8.25297H15.3701L19.4423 18.1768H19.6476L23.7198 8.25297H29.6399V25.7736H24.986V15.6445H24.8491L20.948 25.6368H18.142L14.2409 15.5761H14.104V25.7736H9.45006V8.25297Z" fill="#E73427"/>
<path d="M32.207 25.7736V8.25291H36.9635V21.9409H44.0471V25.7736H32.207Z" fill="#1D539F"/>
<path d="M46.6824 25.7736V8.25291H51.439V15.0969H57.7355V8.25291H62.4921V25.7736H57.7355V18.9296H51.439V25.7736H46.6824Z" fill="#F8B92A"/>
<path d="M8.51582 28.7105H9.5382L10.2415 30.4243H10.2769L10.9802 28.7105H12.0026V31.7363H11.1988V29.987H11.1752L10.5015 31.7126H10.0169L9.34318 29.9752H9.31954V31.7363H8.51582V28.7105ZM13.1778 31.7363H12.2914L13.2901 28.7105H14.413L15.4117 31.7363H14.5253L13.8634 29.5438H13.8397L13.1778 31.7363ZM13.0124 30.5425H14.6789V31.1571H13.0124V30.5425ZM16.9501 28.7105H17.7597V30.7848C17.7587 30.9818 17.709 31.1551 17.6105 31.3049C17.513 31.4536 17.3781 31.5698 17.2057 31.6535C17.0343 31.7363 16.8368 31.7776 16.6132 31.7776C16.4192 31.7776 16.2419 31.7441 16.0814 31.6772C15.9208 31.6092 15.7928 31.5028 15.6972 31.358C15.6017 31.2123 15.5544 31.0232 15.5554 30.7907H16.3768C16.3798 30.8666 16.3926 30.9306 16.4153 30.9828C16.4389 31.035 16.4714 31.0744 16.5128 31.101C16.5551 31.1266 16.6063 31.1394 16.6664 31.1394C16.7275 31.1394 16.7787 31.1261 16.8201 31.0995C16.8624 31.0729 16.8944 31.0335 16.9161 30.9813C16.9378 30.9281 16.9491 30.8626 16.9501 30.7848V28.7105ZM21.0802 30.2234C21.0802 30.5602 21.0147 30.8444 20.8837 31.0759C20.7527 31.3063 20.5759 31.4812 20.3533 31.6003C20.1307 31.7185 19.8825 31.7776 19.6087 31.7776C19.3329 31.7776 19.0837 31.718 18.8611 31.5989C18.6395 31.4787 18.4632 31.3034 18.3322 31.0729C18.2022 30.8414 18.1372 30.5583 18.1372 30.2234C18.1372 29.8865 18.2022 29.6029 18.3322 29.3724C18.4632 29.1409 18.6395 28.9661 18.8611 28.8479C19.0837 28.7287 19.3329 28.6691 19.6087 28.6691C19.8825 28.6691 20.1307 28.7287 20.3533 28.8479C20.5759 28.9661 20.7527 29.1409 20.8837 29.3724C21.0147 29.6029 21.0802 29.8865 21.0802 30.2234ZM20.2352 30.2234C20.2352 30.0421 20.211 29.8895 20.1628 29.7654C20.1155 29.6403 20.0451 29.5457 19.9515 29.4817C19.8589 29.4167 19.7446 29.3842 19.6087 29.3842C19.4728 29.3842 19.3581 29.4167 19.2645 29.4817C19.1719 29.5457 19.1015 29.6403 19.0532 29.7654C19.0059 29.8895 18.9823 30.0421 18.9823 30.2234C18.9823 30.4046 19.0059 30.5578 19.0532 30.6829C19.1015 30.807 19.1719 30.9015 19.2645 30.9665C19.3581 31.0305 19.4728 31.0626 19.6087 31.0626C19.7446 31.0626 19.8589 31.0305 19.9515 30.9665C20.0451 30.9015 20.1155 30.807 20.1628 30.6829C20.211 30.5578 20.2352 30.4046 20.2352 30.2234ZM21.4603 31.7363V28.7105H22.7664C22.9909 28.7105 23.1874 28.7514 23.3559 28.8331C23.5243 28.9149 23.6553 29.0326 23.7488 29.1862C23.8424 29.3399 23.8892 29.5241 23.8892 29.7388C23.8892 29.9555 23.8409 30.1382 23.7444 30.2869C23.6489 30.4356 23.5144 30.5479 23.3411 30.6238C23.1687 30.6996 22.9673 30.7375 22.7368 30.7375H21.9567V30.0993H22.5713C22.6679 30.0993 22.7501 30.0875 22.8181 30.0638C22.887 30.0392 22.9397 30.0003 22.9762 29.9471C23.0136 29.8939 23.0323 29.8245 23.0323 29.7388C23.0323 29.6521 23.0136 29.5817 22.9762 29.5275C22.9397 29.4724 22.887 29.432 22.8181 29.4064C22.7501 29.3798 22.6679 29.3665 22.5713 29.3665H22.2818V31.7363H21.4603ZM23.2332 30.3475L23.9897 31.7363H23.0973L22.3586 30.3475H23.2332ZM25.0682 31.7363V28.7105H25.8896V31.0744H27.113V31.7363H25.0682ZM27.445 31.7363V28.7105H29.6257V29.3724H28.2665V29.8924H29.5134V30.5543H28.2665V31.0744H29.6198V31.7363H27.445ZM30.8191 31.7363H29.9326L30.9314 28.7105H32.0542L33.053 31.7363H32.1665L31.5046 29.5438H31.481L30.8191 31.7363ZM30.6536 30.5425H32.3201V31.1571H30.6536V30.5425ZM35.1672 29.7092C35.1543 29.657 35.1342 29.6112 35.1066 29.5718C35.079 29.5315 35.0445 29.4975 35.0032 29.4699C34.9628 29.4413 34.9155 29.4202 34.8613 29.4064C34.8081 29.3916 34.7495 29.3842 34.6855 29.3842C34.5476 29.3842 34.4299 29.4172 34.3324 29.4832C34.2359 29.5492 34.162 29.6442 34.1108 29.7683C34.0606 29.8924 34.0354 30.0421 34.0354 30.2175C34.0354 30.3948 34.0596 30.5464 34.1078 30.6725C34.1561 30.7986 34.228 30.8951 34.3235 30.9621C34.4191 31.0291 34.5378 31.0626 34.6796 31.0626C34.8047 31.0626 34.9086 31.0443 34.9913 31.0079C35.0751 30.9715 35.1376 30.9197 35.179 30.8528C35.2203 30.7858 35.241 30.707 35.241 30.6164L35.3829 30.6312H34.6914V30.0461H36.0329V30.4657C36.0329 30.7415 35.9743 30.9774 35.8571 31.1734C35.7409 31.3684 35.5803 31.5181 35.3755 31.6225C35.1716 31.7259 34.9377 31.7776 34.6737 31.7776C34.3792 31.7776 34.1206 31.7151 33.898 31.59C33.6754 31.4649 33.5016 31.2866 33.3765 31.0552C33.2524 30.8237 33.1904 30.5484 33.1904 30.2293C33.1904 29.9791 33.2283 29.7575 33.3041 29.5644C33.3809 29.3714 33.4873 29.2084 33.6232 29.0754C33.7592 28.9415 33.9163 28.8405 34.0945 28.7725C34.2728 28.7036 34.4639 28.6691 34.6678 28.6691C34.847 28.6691 35.0135 28.6947 35.1672 28.746C35.3218 28.7962 35.4582 28.8681 35.5764 28.9617C35.6956 29.0542 35.7916 29.1641 35.8645 29.2911C35.9374 29.4182 35.9817 29.5576 35.9975 29.7092H35.1672ZM38.2066 28.7105H39.028V30.6489C39.028 30.8794 38.9729 31.0788 38.8626 31.2472C38.7532 31.4147 38.6006 31.5442 38.4046 31.6358C38.2086 31.7264 37.981 31.7717 37.722 31.7717C37.461 31.7717 37.2325 31.7264 37.0365 31.6358C36.8405 31.5442 36.6878 31.4147 36.5785 31.2472C36.4701 31.0788 36.4159 30.8794 36.4159 30.6489V28.7105H37.2374V30.578C37.2374 30.6715 37.2581 30.7553 37.2994 30.8291C37.3408 30.902 37.3979 30.9591 37.4708 31.0005C37.5447 31.0419 37.6284 31.0626 37.722 31.0626C37.8165 31.0626 37.9003 31.0419 37.9732 31.0005C38.046 30.9591 38.1032 30.902 38.1445 30.8291C38.1859 30.7553 38.2066 30.6715 38.2066 30.578V28.7105ZM39.4184 31.7363V28.7105H41.5991V29.3724H40.2399V29.8924H41.4868V30.5543H40.2399V31.0744H41.5932V31.7363H39.4184ZM42.8354 31.7363V28.7105H43.6568V29.8924H44.7442V28.7105H45.5657V31.7363H44.7442V30.5543H43.6568V31.7363H42.8354ZM46.7417 31.7363H45.8552L46.854 28.7105H47.9768L48.9756 31.7363H48.0891L47.4272 29.5438H47.4036L46.7417 31.7363ZM46.5762 30.5425H48.2428V31.1571H46.5762V30.5425ZM51.9496 29.8452H51.1164C51.1104 29.7762 51.0947 29.7137 51.0691 29.6575C51.0445 29.6014 51.01 29.5531 50.9657 29.5127C50.9223 29.4714 50.8696 29.4399 50.8076 29.4182C50.7455 29.3955 50.6751 29.3842 50.5963 29.3842C50.4584 29.3842 50.3417 29.4177 50.2462 29.4847C50.1516 29.5516 50.0797 29.6477 50.0304 29.7728C49.9822 29.8979 49.9581 30.0481 49.9581 30.2234C49.9581 30.4086 49.9827 30.5637 50.0319 30.6888C50.0822 30.8129 50.1546 30.9064 50.2491 30.9695C50.3437 31.0315 50.4574 31.0626 50.5904 31.0626C50.6662 31.0626 50.7342 31.0532 50.7943 31.0345C50.8544 31.0148 50.9066 30.9867 50.9509 30.9503C50.9952 30.9138 51.0312 30.87 51.0587 30.8188C51.0873 30.7666 51.1065 30.708 51.1164 30.643L51.9496 30.6489C51.9398 30.7769 51.9038 30.9074 51.8418 31.0404C51.7797 31.1724 51.6916 31.2945 51.5773 31.4068C51.464 31.5181 51.3237 31.6077 51.1562 31.6757C50.9888 31.7437 50.7943 31.7776 50.5727 31.7776C50.2949 31.7776 50.0457 31.718 49.8251 31.5989C49.6054 31.4797 49.4316 31.3044 49.3036 31.0729C49.1765 30.8414 49.113 30.5583 49.113 30.2234C49.113 29.8865 49.178 29.6029 49.308 29.3724C49.438 29.1409 49.6133 28.9661 49.8339 28.8479C50.0546 28.7287 50.3008 28.6691 50.5727 28.6691C50.7637 28.6691 50.9396 28.6952 51.1001 28.7474C51.2607 28.7996 51.4015 28.876 51.5227 28.9764C51.6438 29.0759 51.7413 29.1985 51.8152 29.3443C51.8891 29.4901 51.9339 29.657 51.9496 29.8452ZM52.3223 31.7363V28.7105H53.1438V29.9338H53.1851L54.0952 28.7105H55.0526L54.0302 30.0579L55.0762 31.7363H54.0952L53.4156 30.6016L53.1438 30.9562V31.7363H52.3223ZM56.1178 28.7105V31.7363H55.2964V28.7105H56.1178ZM59.1251 28.7105V31.7363H58.4396L57.3463 30.1466H57.3286V31.7363H56.5071V28.7105H57.2045L58.28 30.2943H58.3037V28.7105H59.1251ZM61.4787 29.7092C61.4659 29.657 61.4457 29.6112 61.4181 29.5718C61.3905 29.5315 61.356 29.4975 61.3147 29.4699C61.2743 29.4413 61.227 29.4202 61.1728 29.4064C61.1197 29.3916 61.061 29.3842 60.997 29.3842C60.8591 29.3842 60.7414 29.4172 60.6439 29.4832C60.5474 29.5492 60.4735 29.6442 60.4223 29.7683C60.3721 29.8924 60.347 30.0421 60.347 30.2175C60.347 30.3948 60.3711 30.5464 60.4194 30.6725C60.4676 30.7986 60.5395 30.8951 60.6351 30.9621C60.7306 31.0291 60.8493 31.0626 60.9911 31.0626C61.1162 31.0626 61.2201 31.0443 61.3029 31.0079C61.3866 30.9715 61.4491 30.9197 61.4905 30.8528C61.5319 30.7858 61.5525 30.707 61.5525 30.6164L61.6944 30.6312H61.0029V30.0461H62.3444V30.4657C62.3444 30.7415 62.2858 30.9774 62.1686 31.1734C62.0524 31.3684 61.8919 31.5181 61.687 31.6225C61.4831 31.7259 61.2492 31.7776 60.9852 31.7776C60.6907 31.7776 60.4322 31.7151 60.2096 31.59C59.987 31.4649 59.8131 31.2866 59.688 31.0552C59.5639 30.8237 59.5019 30.5484 59.5019 30.2293C59.5019 29.9791 59.5398 29.7575 59.6156 29.5644C59.6925 29.3714 59.7988 29.2084 59.9348 29.0754C60.0707 28.9415 60.2278 28.8405 60.4061 28.7725C60.5843 28.7036 60.7754 28.6691 60.9793 28.6691C61.1586 28.6691 61.325 28.6947 61.4787 28.746C61.6333 28.7962 61.7697 28.8681 61.8879 28.9617C62.0071 29.0542 62.1031 29.1641 62.176 29.2911C62.2489 29.4182 62.2932 29.5576 62.309 29.7092H61.4787Z" fill="black"/>
<path d="M17.9612 49.4946C17.9612 50.3928 17.7865 51.1506 17.4372 51.7678C17.0879 52.3824 16.6164 52.8487 16.0228 53.1665C15.4292 53.4817 14.7673 53.6392 14.0371 53.6392C13.3017 53.6392 12.6372 53.4803 12.0436 53.1625C11.4526 52.8421 10.9825 52.3746 10.6331 51.76C10.2864 51.1427 10.1131 50.3876 10.1131 49.4946C10.1131 48.5963 10.2864 47.8398 10.6331 47.2252C10.9825 46.608 11.4526 46.1418 12.0436 45.8266C12.6372 45.5088 13.3017 45.3499 14.0371 45.3499C14.7673 45.3499 15.4292 45.5088 16.0228 45.8266C16.6164 46.1418 17.0879 46.608 17.4372 47.2252C17.7865 47.8398 17.9612 48.5963 17.9612 49.4946ZM15.7076 49.4946C15.7076 49.0113 15.6433 48.6042 15.5146 48.2732C15.3885 47.9397 15.2007 47.6875 14.9512 47.5168C14.7043 47.3434 14.3996 47.2568 14.0371 47.2568C13.6747 47.2568 13.3687 47.3434 13.1192 47.5168C12.8723 47.6875 12.6845 47.9397 12.5558 48.2732C12.4297 48.6042 12.3667 49.0113 12.3667 49.4946C12.3667 49.9778 12.4297 50.3863 12.5558 50.7198C12.6845 51.0508 12.8723 51.3029 13.1192 51.4763C13.3687 51.647 13.6747 51.7324 14.0371 51.7324C14.3996 51.7324 14.7043 51.647 14.9512 51.4763C15.2007 51.3029 15.3885 51.0508 15.5146 50.7198C15.6433 50.3863 15.7076 49.9778 15.7076 49.4946ZM18.9747 53.5289V45.4602H24.648V47.2252H21.1652V48.612H24.3013V50.3771H21.1652V53.5289H18.9747ZM25.4537 53.5289V45.4602H31.127V47.2252H27.6443V48.612H30.7803V50.3771H27.6443V53.5289H25.4537ZM34.1233 45.4602V53.5289H31.9327V45.4602H34.1233ZM42.6943 48.486H40.4723C40.4565 48.3021 40.4145 48.1353 40.3462 47.9856C40.2805 47.8359 40.1886 47.7072 40.0704 47.5995C39.9548 47.4892 39.8143 47.4052 39.6488 47.3474C39.4834 47.287 39.2956 47.2568 39.0855 47.2568C38.7177 47.2568 38.4065 47.3461 38.1517 47.5247C37.8996 47.7033 37.7078 47.9594 37.5765 48.2929C37.4478 48.6265 37.3835 49.027 37.3835 49.4946C37.3835 49.9884 37.4491 50.402 37.5804 50.7356C37.7144 51.0666 37.9075 51.3161 38.1596 51.4842C38.4117 51.6496 38.7151 51.7324 39.0697 51.7324C39.2719 51.7324 39.4532 51.7074 39.6134 51.6575C39.7736 51.605 39.9128 51.5301 40.031 51.433C40.1492 51.3358 40.2451 51.2189 40.3186 51.0823C40.3948 50.9431 40.446 50.7868 40.4723 50.6135L42.6943 50.6292C42.6681 50.9707 42.5722 51.3187 42.4067 51.6733C42.2412 52.0252 42.0062 52.3509 41.7015 52.6504C41.3994 52.9472 41.0252 53.1862 40.5786 53.3674C40.1321 53.5486 39.6134 53.6392 39.0224 53.6392C38.2817 53.6392 37.6172 53.4803 37.0289 53.1625C36.4432 52.8447 35.9796 52.3772 35.6381 51.76C35.2993 51.1427 35.1299 50.3876 35.1299 49.4946C35.1299 48.5963 35.3032 47.8398 35.6499 47.2252C35.9966 46.608 36.4642 46.1418 37.0525 45.8266C37.6409 45.5088 38.2975 45.3499 39.0224 45.3499C39.532 45.3499 40.0008 45.4195 40.4289 45.5587C40.8571 45.6979 41.2327 45.9015 41.5557 46.1694C41.8788 46.4346 42.1388 46.7617 42.3358 47.1504C42.5328 47.5391 42.6523 47.9843 42.6943 48.486ZM45.8787 45.4602V53.5289H43.6881V45.4602H45.8787ZM49.0128 53.5289H46.6489L49.3122 45.4602H52.3065L54.9698 53.5289H52.6059L50.8409 47.6823H50.7778L49.0128 53.5289ZM48.5715 50.3456H53.0156V51.9845H48.5715V50.3456ZM55.7469 53.5289V45.4602H57.9374V51.7639H61.1996V53.5289H55.7469Z" fill="black"/>
<path d="M15.8506 94.7465C15.8279 94.4619 15.7212 94.24 15.5305 94.0807C15.3427 93.9213 15.0568 93.8416 14.6726 93.8416C14.4279 93.8416 14.2273 93.8715 14.0708 93.9313C13.9172 93.9882 13.8034 94.0664 13.7294 94.166C13.6554 94.2656 13.617 94.3794 13.6141 94.5075C13.6084 94.6128 13.6269 94.7081 13.6696 94.7934C13.7151 94.876 13.7863 94.9514 13.883 95.0196C13.9798 95.0851 14.1035 95.1448 14.2544 95.1989C14.4052 95.253 14.5844 95.3013 14.7921 95.344L15.5092 95.4977C15.9929 95.6001 16.4069 95.7353 16.7512 95.9032C17.0955 96.071 17.3772 96.2688 17.5963 96.4964C17.8154 96.7212 17.9762 96.9745 18.0786 97.2561C18.1839 97.5378 18.2379 97.8451 18.2408 98.1781C18.2379 98.7528 18.0942 99.2394 17.8097 99.6378C17.5252 100.036 17.1183 100.339 16.589 100.547C16.0626 100.755 15.4295 100.858 14.6897 100.858C13.93 100.858 13.267 100.746 12.7008 100.521C12.1374 100.296 11.6992 99.9508 11.3862 99.4841C11.076 99.0146 10.9195 98.4142 10.9167 97.683H13.1703C13.1845 97.9504 13.2513 98.1752 13.3709 98.3573C13.4904 98.5394 13.6582 98.6774 13.8745 98.7713C14.0936 98.8652 14.3539 98.9122 14.6556 98.9122C14.9088 98.9122 15.1208 98.8809 15.2915 98.8183C15.4622 98.7557 15.5917 98.6689 15.6799 98.5579C15.7681 98.447 15.8136 98.3203 15.8165 98.1781C15.8136 98.0443 15.7695 97.9277 15.6842 97.8281C15.6017 97.7256 15.4651 97.6346 15.2744 97.5549C15.0838 97.4724 14.8263 97.3956 14.5019 97.3244L13.6312 97.1366C12.8573 96.9688 12.2469 96.6885 11.8002 96.2958C11.3563 95.9003 11.1358 95.3611 11.1386 94.6782C11.1358 94.1233 11.2837 93.6382 11.5825 93.2228C11.8841 92.8045 12.301 92.4787 12.8331 92.2454C13.368 92.012 13.9812 91.8954 14.6726 91.8954C15.3783 91.8954 15.9886 92.0135 16.5037 92.2496C17.0187 92.4858 17.4156 92.8187 17.6945 93.2484C17.9762 93.6752 18.1184 94.1746 18.1213 94.7465H15.8506ZM19.1435 100.756V92.0149H25.4432V93.927H21.5166V95.4294H25.1189V97.3415H21.5166V98.8439H25.4262V100.756H19.1435ZM28.8908 100.756H26.33L29.2152 92.0149H32.459L35.3442 100.756H32.7834L30.8712 94.4221H30.8029L28.8908 100.756ZM28.4128 97.3074H33.2272V99.0829H28.4128V97.3074ZM40.5578 94.7465C40.535 94.4619 40.4283 94.24 40.2376 94.0807C40.0498 93.9213 39.7639 93.8416 39.3797 93.8416C39.135 93.8416 38.9344 93.8715 38.7779 93.9313C38.6243 93.9882 38.5105 94.0664 38.4365 94.166C38.3625 94.2656 38.3241 94.3794 38.3213 94.5075C38.3156 94.6128 38.3341 94.7081 38.3767 94.7934C38.4223 94.876 38.4934 94.9514 38.5901 95.0196C38.6869 95.0851 38.8107 95.1448 38.9615 95.1989C39.1123 95.253 39.2915 95.3013 39.4993 95.344L40.2163 95.4977C40.7 95.6001 41.114 95.7353 41.4583 95.9032C41.8026 96.071 42.0843 96.2688 42.3034 96.4964C42.5225 96.7212 42.6833 96.9745 42.7857 97.2561C42.891 97.5378 42.9451 97.8451 42.9479 98.1781C42.9451 98.7528 42.8014 99.2394 42.5168 99.6378C42.2323 100.036 41.8254 100.339 41.2961 100.547C40.7697 100.755 40.1366 100.858 39.3968 100.858C38.6371 100.858 37.9741 100.746 37.4079 100.521C36.8445 100.296 36.4063 99.9508 36.0933 99.4841C35.7831 99.0146 35.6266 98.4142 35.6238 97.683H37.8774C37.8916 97.9504 37.9585 98.1752 38.078 98.3573C38.1975 98.5394 38.3654 98.6774 38.5816 98.7713C38.8007 98.8652 39.0611 98.9122 39.3627 98.9122C39.6159 98.9122 39.8279 98.8809 39.9986 98.8183C40.1694 98.7557 40.2988 98.6689 40.387 98.5579C40.4752 98.447 40.5208 98.3203 40.5236 98.1781C40.5208 98.0443 40.4767 97.9277 40.3913 97.8281C40.3088 97.7256 40.1722 97.6346 39.9816 97.5549C39.7909 97.4724 39.5334 97.3956 39.209 97.3244L38.3383 97.1366C37.5644 96.9688 36.954 96.6885 36.5073 96.2958C36.0634 95.9003 35.8429 95.3611 35.8457 94.6782C35.8429 94.1233 35.9909 93.6382 36.2896 93.2228C36.5912 92.8045 37.0081 92.4787 37.5402 92.2454C38.0751 92.012 38.6883 91.8954 39.3797 91.8954C40.0854 91.8954 40.6958 92.0135 41.2108 92.2496C41.7258 92.4858 42.1227 92.8187 42.4016 93.2484C42.6833 93.6752 42.8255 94.1746 42.8284 94.7465H40.5578ZM52.3186 96.3855C52.3186 97.3586 52.1294 98.1795 51.7509 98.8482C51.3725 99.514 50.8617 100.019 50.2187 100.363C49.5756 100.705 48.8585 100.876 48.0675 100.876C47.2708 100.876 46.5509 100.703 45.9078 100.359C45.2676 100.012 44.7583 99.5055 44.3799 98.8396C44.0043 98.1709 43.8165 97.3529 43.8165 96.3855C43.8165 95.4123 44.0043 94.5928 44.3799 93.927C44.7583 93.2583 45.2676 92.7533 45.9078 92.4118C46.5509 92.0675 47.2708 91.8954 48.0675 91.8954C48.8585 91.8954 49.5756 92.0675 50.2187 92.4118C50.8617 92.7533 51.3725 93.2583 51.7509 93.927C52.1294 94.5928 52.3186 95.4123 52.3186 96.3855ZM49.8772 96.3855C49.8772 95.8619 49.8075 95.4209 49.6681 95.0623C49.5315 94.701 49.328 94.4278 49.0577 94.2429C48.7903 94.0551 48.4602 93.9612 48.0675 93.9612C47.6749 93.9612 47.3434 94.0551 47.073 94.2429C46.8056 94.4278 46.6021 94.701 46.4627 95.0623C46.3261 95.4209 46.2578 95.8619 46.2578 96.3855C46.2578 96.909 46.3261 97.3515 46.4627 97.7128C46.6021 98.0714 46.8056 98.3445 47.073 98.5323C47.3434 98.7173 47.6749 98.8097 48.0675 98.8097C48.4602 98.8097 48.7903 98.7173 49.0577 98.5323C49.328 98.3445 49.5315 98.0714 49.6681 97.7128C49.8075 97.3515 49.8772 96.909 49.8772 96.3855ZM60.9797 92.0149V100.756H58.9993L55.8408 96.1635H55.7896V100.756H53.4165V92.0149H55.4311L58.5383 96.5903H58.6066V92.0149H60.9797Z" fill="black"/>
<path d="M11.5956 88.2652V85.6387L16.6123 81.4887C16.945 81.2129 17.2295 80.9547 17.4659 80.7139C17.7067 80.4688 17.8905 80.217 18.0175 79.9588C18.1488 79.7005 18.2145 79.4138 18.2145 79.0986C18.2145 78.7527 18.1401 78.4573 17.9912 78.2121C17.8468 77.967 17.6454 77.7787 17.3871 77.6474C17.1288 77.5117 16.8312 77.4439 16.4941 77.4439C16.157 77.4439 15.8594 77.5117 15.6011 77.6474C15.3472 77.7831 15.1502 77.9823 15.0101 78.245C14.87 78.5076 14.8 78.8272 14.8 79.2036H11.333C11.333 78.2581 11.5453 77.4439 11.9699 76.761C12.3945 76.0781 12.9942 75.5527 13.7691 75.185C14.5439 74.8173 15.4522 74.6335 16.4941 74.6335C17.571 74.6335 18.5034 74.8064 19.2914 75.1522C20.0837 75.4937 20.6944 75.9752 21.1234 76.5968C21.5568 77.2184 21.7734 77.9473 21.7734 78.7834C21.7734 79.2999 21.6662 79.8143 21.4517 80.3265C21.2372 80.8343 20.852 81.3968 20.296 82.014C19.7401 82.6313 18.9499 83.3667 17.9256 84.2203L16.6648 85.2709V85.3497H21.9179V88.2652H11.5956ZM29.4068 88.6329C28.1855 88.6285 27.1305 88.3462 26.2418 87.7859C25.3532 87.2255 24.6681 86.4179 24.1866 85.3629C23.705 84.3079 23.4665 83.0428 23.4708 81.5675C23.4752 80.0879 23.716 78.8315 24.1931 77.7984C24.6747 76.7653 25.3576 75.9796 26.2418 75.4411C27.1305 74.9027 28.1855 74.6335 29.4068 74.6335C30.6282 74.6335 31.6832 74.9049 32.5718 75.4477C33.4604 75.9861 34.1455 76.7719 34.6271 77.805C35.1086 78.8381 35.3472 80.0923 35.3428 81.5675C35.3428 83.0515 35.102 84.321 34.6205 85.376C34.139 86.431 33.4539 87.2387 32.5652 87.799C31.681 88.3549 30.6282 88.6329 29.4068 88.6329ZM29.4068 85.6649C30.0372 85.6649 30.5537 85.3366 30.9565 84.68C31.3636 84.019 31.565 82.9815 31.5606 81.5675C31.5606 80.6439 31.4687 79.8887 31.2848 79.3021C31.1009 78.7155 30.847 78.2822 30.5231 78.002C30.1992 77.7175 29.8271 77.5752 29.4068 77.5752C28.7765 77.5752 28.2621 77.8947 27.8637 78.5339C27.4654 79.173 27.2618 80.1842 27.2531 81.5675C27.2487 82.5087 27.3384 83.2835 27.5223 83.892C27.7061 84.4961 27.96 84.9426 28.284 85.2315C28.6123 85.5205 28.9866 85.6649 29.4068 85.6649ZM37.0566 88.2652V85.6387L42.0733 81.4887C42.406 81.2129 42.6905 80.9547 42.9269 80.7139C43.1677 80.4688 43.3516 80.217 43.4785 79.9588C43.6098 79.7005 43.6755 79.4138 43.6755 79.0986C43.6755 78.7527 43.6011 78.4573 43.4522 78.2121C43.3078 77.967 43.1064 77.7787 42.8481 77.6474C42.5899 77.5117 42.2922 77.4439 41.9551 77.4439C41.618 77.4439 41.3204 77.5117 41.0621 77.6474C40.8082 77.7831 40.6112 77.9823 40.4711 78.245C40.331 78.5076 40.261 78.8272 40.261 79.2036H36.794C36.794 78.2581 37.0063 77.4439 37.4309 76.761C37.8555 76.0781 38.4553 75.5527 39.2301 75.185C40.0049 74.8173 40.9133 74.6335 41.9551 74.6335C43.032 74.6335 43.9644 74.8064 44.7524 75.1522C45.5447 75.4937 46.1554 75.9752 46.5844 76.5968C47.0178 77.2184 47.2345 77.9473 47.2345 78.7834C47.2345 79.2999 47.1272 79.8143 46.9127 80.3265C46.6982 80.8343 46.313 81.3968 45.757 82.014C45.2011 82.6313 44.4109 83.3667 43.3866 84.2203L42.1258 85.2709V85.3497H47.3789V88.2652H37.0566ZM54.3951 88.4491C53.362 88.4491 52.4449 88.2674 51.6438 87.904C50.847 87.5363 50.2189 87.0307 49.7592 86.3872C49.304 85.7437 49.0719 85.0039 49.0632 84.1678H52.609C52.6221 84.6318 52.8016 85.0017 53.1475 85.2775C53.4977 85.5533 53.9135 85.6912 54.3951 85.6912C54.7672 85.6912 55.0955 85.6124 55.38 85.4548C55.6646 85.2928 55.8878 85.0652 56.0498 84.7719C56.2117 84.4786 56.2905 84.1372 56.2862 83.7476C56.2905 83.3536 56.2117 83.0121 56.0498 82.7232C55.8878 82.4299 55.6646 82.2045 55.38 82.0469C55.0955 81.8849 54.7672 81.8039 54.3951 81.8039C54.0098 81.8039 53.6531 81.898 53.3247 82.0863C53.0008 82.2701 52.7622 82.5262 52.609 82.8545L49.4046 82.2242L49.9299 74.8173H58.9652V77.7328H52.9242L52.6615 80.7008H52.7403C52.9505 80.2937 53.3138 79.9566 53.8304 79.6895C54.3469 79.4181 54.9466 79.2824 55.6295 79.2824C56.4306 79.2824 57.1442 79.4685 57.7702 79.8406C58.4005 80.2127 58.8974 80.727 59.2607 81.3837C59.6284 82.0359 59.8101 82.7889 59.8057 83.6425C59.8101 84.5793 59.5869 85.411 59.136 86.1377C58.6895 86.86 58.0613 87.4269 57.2514 87.8384C56.4416 88.2455 55.4895 88.4491 54.3951 88.4491Z" fill="black"/>
</svg>
