<svg width="1728" height="4202" viewBox="0 0 1728 4202" fill="none" xmlns="http://www.w3.org/2000/svg">
<g filter="url(#filter0_f_3101_5341)">
<path d="M864.479 1952.56C864.191 1945.77 880.585 1903.66 888.026 1882.5C894.663 1863.2 912.521 1952.52 912.106 1954.54C911.692 1956.56 906.611 1954.77 908.556 1965.2C909.204 1968.67 924.042 1964.54 924.106 1966.04C924.169 1967.54 927.336 1971.41 928.006 1975.38C928.675 1979.36 926.932 1985.44 925.019 1987.52C923.105 1989.6 915.24 1992.94 915.41 1996.94C915.58 2000.93 917.726 2004.34 921.223 2004.2C924.72 2004.05 926.356 2018.99 924.528 2023.07C922.7 2027.15 926.015 2034.52 937.218 2039.05C948.42 2043.58 983.812 2075.6 994.791 2086.65C1005.77 2097.69 1040.23 2154.78 1045.27 2167.58C1050.32 2180.37 1145.8 2425.04 1147.14 2432.99C1148.47 2440.94 1176.02 2453.28 1184.77 2458.91C1193.52 2464.55 1199.09 2477.82 1200.62 2490.27C1202.15 2502.72 1187.4 2520.86 1184.99 2522.96C1182.58 2525.07 1190.24 2528.75 1191.39 2532.2C1192.54 2535.65 1191.1 2537.22 1188.17 2538.84C1185.23 2540.47 1187.94 2545.36 1188.53 2547.33C1189.11 2549.31 1219.43 2756.21 1221.92 2756.11C1224.42 2756 1234.19 2738.57 1238.1 2736.4C1242.01 2734.23 1247.16 2737.52 1251.82 2741.32C1256.4 2745.05 1272.18 2820.02 1275.75 2836.95L1275.95 2837.88C1279.08 2852.77 1281.68 2855.16 1276.69 2855.37C1274.19 2855.48 1294.82 2952.19 1296.18 2960.64C1297.54 2969.09 1281.93 2955.24 1272.34 2953.14C1262.74 2951.05 1233.38 2943.29 1227.32 2942.04C1221.27 2940.8 1198.57 2936.76 1189.95 2934.12C1181.33 2931.49 1139.55 2925.76 1130.46 2923.64C1121.36 2921.52 1093.51 2925.71 1080 2925.78C1066.49 2925.86 1052.81 2921.94 1044.3 2921.8C1035.79 2921.66 1033.99 2914.73 1031.91 2912.82C1029.82 2910.9 1002.81 2911.05 994.228 2909.41C985.651 2907.78 896.795 2913.05 888.324 2913.91C879.853 2914.77 823.988 2919.15 811.478 2919.18C798.968 2919.21 762.714 2925.76 756.241 2926.53C749.768 2927.31 750.065 2934.3 746.611 2935.45C743.156 2936.6 742.072 2934.64 737.428 2931.34C732.783 2928.03 724.939 2931.87 714.948 2932.29C704.957 2932.72 693.743 2939.7 689.874 2942.87C686.005 2946.03 677.375 2954.91 672.879 2955.1C668.383 2955.29 662.973 2957.52 658.477 2957.71C653.981 2957.9 651.674 2962.51 648.74 2964.13C645.807 2965.76 638.994 2958.54 635.912 2956.67C632.83 2954.8 625.506 2959.11 618.013 2959.43C612.019 2959.69 559.161 2975.95 533.482 2984.04C536.679 2957.22 542.988 2901.57 542.648 2893.57C542.309 2885.58 547.694 2886.69 550.429 2888.24C551.191 2886.54 552.172 2882.16 550.004 2878.25C547.294 2873.36 541.714 2871.59 541.544 2867.6C541.375 2863.6 554.588 2833.01 554.896 2828.5C555.204 2823.98 567.874 2815.93 574.114 2809.66C580.353 2803.39 573.604 2797.67 573.455 2794.18C573.307 2790.68 586.71 2788.11 589.537 2783.98C592.365 2779.86 601.701 2693.39 603.051 2689.83C604.131 2686.98 600.362 2685.44 598.343 2685.02C598.006 2681.03 597.404 2672.35 597.685 2669.53C598.035 2666.02 586.897 2662.99 582.518 2654.16C578.14 2645.34 589.301 2625.35 591.671 2622.25C594.042 2619.14 600.621 2620.87 606.158 2621.63C611.696 2622.4 615.662 2586.2 617.066 2572.12C618.469 2558.05 667.403 2355.29 667.776 2352.27C668.148 2349.25 676.419 2308.37 682.924 2296.58C689.43 2284.79 691.334 2247.18 692.844 2235.6C694.332 2224.19 698.153 2221.92 704.338 2218.25L704.611 2218.09C710.956 2214.31 711.957 2190.75 714.572 2181.63C717.187 2172.51 723.108 2158.75 726.892 2153.58C730.676 2148.42 735.087 2146.23 736.809 2139.65C738.531 2133.07 757.334 2116.26 762.596 2110.53C767.857 2104.8 767.709 2101.3 769.367 2093.22C771.025 2085.15 834.024 2048.44 836.479 2047.33C838.934 2046.23 835.267 2042.38 839.094 2038.21C842.155 2034.88 848.207 2032.82 850.85 2032.21C849.855 2028.42 848.329 2020.01 850.192 2016.72C852.52 2012.62 852.849 2008.6 858.259 2006.37C863.669 2004.14 859.939 1998.79 859.79 1995.3C859.642 1991.8 852.127 1991.62 849.003 1988.75C845.878 1985.88 849.429 1975.22 851.108 1967.64C852.452 1961.58 861.992 1964.68 866.594 1966.98C869.581 1954.84 864.768 1959.35 864.479 1952.56Z" fill="url(#paint0_linear_3101_5341)"/>
<path d="M1586.18 3489.17C1586.18 5385.17 1196.79 6922.17 864.27 6922.17C531.747 6922.17 262.184 5385.17 262.184 3489.17C262.184 1593.18 531.747 56.1719 864.27 56.1719C1196.79 56.1719 1586.18 1593.18 1586.18 3489.17Z" fill="url(#paint1_radial_3101_5341)" fill-opacity="0.75"/>
<path d="M1278.85 2847.74C1276.85 2850.45 1301.62 2961.67 1301.62 2961.67L1152.47 2927.61L1136.47 2724.74L1224.64 2751.42C1230.01 2745.42 1241.77 2732.54 1245.84 2729.01C1250.93 2724.6 1252.71 2729.24 1255.5 2732.8C1257.73 2735.64 1282.09 2837.11 1282.84 2842.33C1283.58 2847.54 1280.84 2845.04 1278.85 2847.74Z" fill="url(#paint2_linear_3101_5341)"/>
<path d="M535.485 2888.15C515.714 2894.21 509.286 2948.62 511.457 2973.87L508.905 2991.35L625.493 2959.79C631.267 2899.28 642.708 2775.78 642.284 2765.81C641.754 2753.34 617.79 2763.05 612.529 2763.27C608.32 2763.45 581.423 2775.45 568.501 2781.43C569.893 2783.18 572.85 2787.65 573.542 2791.53C574.407 2796.38 550.904 2816.92 543.831 2821.02C536.759 2825.12 528.45 2846.65 525.461 2853.83C522.473 2861.02 560.198 2880.59 535.485 2888.15Z" fill="url(#paint3_linear_3101_5341)"/>
<path d="M676.253 2442.75C665.447 2463.64 627.014 2806.08 609.148 2974.69C879.238 2897.43 1099.34 2926.45 1175.64 2950.61C1149.43 2784.73 1125.39 2444.79 1115.22 2424.1C1103.72 2400.67 1060.05 2355.11 1038.85 2334.4C1042.48 2328.96 1033.85 2297.59 1018.36 2276.18C1002.86 2254.77 993.284 2260.75 978.061 2258.33C973.52 2151.48 911.323 2066.19 889.696 2051.44C837.775 2101.04 812.418 2219.41 807.828 2265.57C760.98 2273.28 750.62 2322.81 751.296 2346.62C741.84 2361.32 689.759 2416.64 676.253 2442.75Z" fill="url(#paint4_linear_3101_5341)"/>
<path d="M690.941 2499.74C680.754 2520.61 645.127 2863.12 628.587 3031.77C884.237 2955.09 1092.79 2984.61 1165.1 3008.96C1139.91 2842.94 1116.36 2502.8 1106.69 2482.07C1095.74 2458.61 1054.27 2412.93 1034.14 2392.16C1037.57 2386.73 1029.32 2355.33 1014.6 2333.87C999.873 2312.42 990.816 2318.37 976.392 2315.92C971.848 2209.01 912.743 2123.54 892.225 2108.74C843.158 2158.24 819.409 2276.6 815.165 2322.77C770.81 2330.38 761.109 2379.92 761.803 2403.73C752.88 2418.42 703.675 2473.65 690.941 2499.74Z" fill="url(#paint5_linear_3101_5341)"/>
<path d="M716.365 2553.96C707.397 2571.75 677.289 2863.58 662.579 3007.3C887.147 2941.68 1061.69 2966.97 1125.16 2987.64C1103.22 2846.2 1085.25 2556.29 1076.78 2538.64C1067.19 2518.66 1033.17 2479.68 1015.51 2462C1018.53 2457.38 1011.32 2430.63 998.417 2412.36C985.51 2394.1 977.551 2399.18 964.887 2397.11C961.016 2306.01 908.57 2236.5 890.57 2223.91C847.43 2266.15 827.085 2363.78 823.308 2403.12C784.352 2409.66 775.779 2451.87 776.362 2472.17C768.511 2484.69 727.575 2531.71 716.365 2553.96Z" fill="url(#paint6_linear_3101_5341)"/>
<path d="M886.632 2803.6C873.928 2806.15 885.155 2878.73 885.394 2915.76L933.35 2913.72C931.633 2892.94 932.622 2849.49 933.822 2830.62C935.322 2807.04 921.537 2800.62 916.892 2797.31C913.177 2794.67 905.496 2427.13 896.51 2317.75C903.561 2428.71 899.336 2801.06 886.632 2803.6Z" fill="#0D2E55"/>
<path d="M706.712 2845.34C696.678 2854.17 689.454 2910.3 687.097 2937.25C709.739 2940.13 788.293 2932.65 792.86 2917.64C798.568 2898.89 792.215 2843.61 789.293 2833.72C786.37 2823.84 774.306 2834.36 753.825 2835.23C750.828 2835.36 745.786 2575.43 747.71 2561.84C749.25 2550.97 778.008 2509.34 792.195 2489.89C777.604 2507.69 746.552 2546.38 739.069 2558.7C729.715 2574.12 719.254 2834.29 706.712 2845.34Z" fill="#0D2E55"/>
<path d="M1107.43 2830.31C1107.97 2842.8 1113.93 2877.07 1111.38 2923.22C1089.07 2928.01 1030.95 2921.84 1025.13 2907.27C1017.85 2889.07 1019.49 2833.45 1021.56 2823.35C1023.64 2813.25 1043.04 2822.44 1063.52 2821.56C1066.52 2821.44 1043 2562.3 1039.93 2548.92C1037.47 2538.22 1005.28 2499.18 989.496 2481C1005.54 2497.5 1039.77 2533.41 1048.27 2545.06C1057.48 2557.69 1088.26 2766.67 1099.12 2823.15C1099.12 2823.15 1107.4 2829.43 1107.43 2830.31Z" fill="#0D2E55"/>
<path d="M534.286 2912.33C529.005 2910.55 525.291 2959.75 524.291 2983.31L538.151 2979.72C539.063 2958 539.566 2914.1 534.286 2912.33Z" fill="#D3FF86"/>
<path d="M712.549 2853.09C698.98 2853.67 700.759 2909 699.004 2934.74L717.941 2930.94C719.543 2907.2 724.957 2852.57 712.549 2853.09Z" fill="#D3FF86"/>
<path d="M913.221 2817.54L899.233 2818.14L899.707 2911.7L914.693 2911.06L913.221 2817.54Z" fill="#D3FF86"/>
<path d="M1102.39 2841.03L1091.69 2836.48L1095.04 2915.41L1107.16 2917.9L1102.39 2841.03Z" fill="#D3FF86"/>
<path d="M1267.39 2884.56L1254.93 2874.08L1263.69 2950.78L1279.44 2956.11L1267.39 2884.56Z" fill="#D3FF86"/>
<path d="M349.113 3070.57C623.922 2872.08 1291.88 2822.1 1492.41 3101.32C1506.7 3119.74 1480.39 3136.48 1471.22 3144.41C1462.05 3152.33 1484.59 3235.23 1440.83 3277.27C1397.08 3319.3 1514.39 3783.35 1508.72 3803.18C1503.06 3823 1089.44 3981.69 1077.87 3980.18C1066.3 3978.66 1044.17 3575.85 1042.19 3552.83C1040.21 3529.82 1013.07 3362.24 922.722 3367.59C832.672 3372.91 810.16 3493.6 802.344 3535.49L802.266 3535.91C794.522 3577.42 777.437 4070.28 771.177 4076.07C764.918 4081.86 743.821 4091.8 731.503 4096.34C719.186 4100.88 148.498 4002.1 139.973 3989.91C131.448 3977.72 246.022 3541.48 257.251 3487.77C266.234 3444.8 322.235 3191.73 349.113 3070.57Z" fill="url(#paint7_linear_3101_5341)"/>
<path d="M1521.99 3652.49C1521.99 4101.22 1197.59 4464.99 920.575 4464.99C643.556 4464.99 418.988 4101.22 418.988 3652.49C418.988 3203.76 643.556 2839.99 920.575 2839.99C1197.59 2839.99 1521.99 3203.76 1521.99 3652.49Z" fill="url(#paint8_radial_3101_5341)" fill-opacity="0.75"/>
<path d="M283.374 1658.1C291.413 1610.98 193.278 1465.69 143.205 1398.94L-14.7344 1372C-55.523 1928.7 -63.32 3188.8 -29.4076 3243.08C12.9829 3310.92 104.585 2706.16 120.056 2615.48C135.526 2524.79 141.572 2011.07 153.404 1911.58C165.236 1812.09 273.326 1717 283.374 1658.1Z" fill="url(#paint9_linear_3101_5341)"/>
<path d="M184.441 157.845C184.441 128.848 66.14 134.85 6.98974 141.476H-30V4259H1773V280.617C1749.51 279.837 1696.92 278.746 1674.53 280.617C1646.54 282.955 1593.55 425.604 1549.06 427.943C1504.57 430.281 1434.59 744.226 1434.59 811.458C1434.59 878.69 1593.55 1553.93 1593.55 1586.67C1593.55 1619.41 1514.57 2308.69 1532.57 2378.26C1550.56 2447.83 1577.05 2940.67 1549.06 2971.66C1521.07 3002.64 1489.58 3715.3 1509.07 3743.95C1533.98 3780.54 1270.64 3745.7 1241.15 3743.95C1211.66 3742.19 1002.21 3757.39 984.219 3790.13C966.224 3822.87 586.829 3748.04 504.852 3743.95C422.874 3739.85 325.401 3202.96 295.91 3162.62C266.418 3122.28 214.932 2458.94 219.931 2412.75C224.929 2366.57 200.436 1725.23 168.945 1707.69C137.454 1690.15 104.963 1460.39 104.963 1439.35C104.963 1418.3 189.439 1292.02 189.439 1255.19C189.439 1218.36 308.406 893.306 315.404 834.259C322.402 775.211 281.414 701.548 258.92 682.256C236.426 662.963 297.409 295.817 294.41 255.478C291.411 215.139 184.441 194.092 184.441 157.845Z" fill="url(#paint10_linear_3101_5341)"/>
<path d="M1423.14 1594.32C1416.92 1544.3 1524.23 1396.33 1578.65 1328.6L1742.31 1308.27C1759.97 1896.48 1785.97 3086.75 1748.72 3142.17C1702.14 3211.44 1561.31 2706.89 1549.36 2610.62C1537.4 2514.35 1553.61 1973.17 1545.78 1867.82C1537.95 1762.47 1430.9 1656.84 1423.14 1594.32Z" fill="url(#paint11_linear_3101_5341)"/>
<path d="M233 3904.9C129.45 3984.21 77.3815 4110.06 70.5 4261.9L1801 4302.9V4160.9C1733.98 4058.73 1645.52 3893.37 1612 3863.9C1554.55 3813.4 1429.94 3759.21 1367 3778.9C1213.51 3826.9 628.111 3744.24 446.5 3766.41C399.227 3779.57 355.071 3811.4 233 3904.9Z" fill="url(#paint12_linear_3101_5341)"/>
<path d="M341 3600.04C341 3660.67 298.959 3720.99 298.959 3720.99H218.549C218.549 3720.99 264.485 3685.24 264.485 3605.08C264.485 3524.92 217 3562.01 217 3499.88C217 3451.14 271.654 3423.19 271.654 3355.07C271.654 3309.48 245.942 3211.29 245.101 3207.99C247.58 3211.45 326.308 3321.77 326.308 3385.39C326.308 3478.46 286.346 3463.19 286.346 3491.93C286.346 3535.08 341 3530.67 341 3600.04Z" fill="url(#paint13_linear_3101_5341)"/>
<path d="M255.598 3499.77C256.702 3508.44 261.915 3514.5 267.834 3519.47C280.07 3529.08 294.823 3541.13 300.168 3565.55C310.593 3612.82 299.196 3666.86 280.82 3702.39C277.463 3709.01 273.885 3715.16 270.131 3720.99H267.259C286.165 3690.34 300.035 3648.9 299.064 3602.74C298.887 3579.89 294.116 3557.44 282.72 3545.7C271.721 3532.15 253.213 3530.18 248.133 3503.79C240.756 3459.36 271.279 3437.77 285.503 3419.02C296.369 3405.94 300.345 3385.15 298.754 3362.62C297.253 3339.69 290.229 3318.26 281.527 3301.17L282.101 3299.99C298.622 3321.49 310.681 3362.14 304.232 3399.56C299.461 3425.4 285.459 3438.8 273.885 3451.95C263.814 3462.59 252.683 3477.4 255.598 3499.77Z" fill="#3B087D"/>
<path d="M699.428 4151.9C690.654 4151.9 678.447 4148.18 664.237 4143.89C650.79 4139.79 635.531 4135.12 626.185 4135.12C624.373 4135.12 623.228 4135.31 622.56 4135.41C607.397 4139.03 584.985 4143.79 565.911 4143.79C552.368 4143.79 542.355 4141.32 535.679 4136.36C525.569 4137.5 515.556 4138.17 505.828 4138.17C463.102 4138.17 427.052 4127.02 398.537 4104.9C377.937 4088.97 365.92 4068.19 362.773 4043.21C357.814 4003.07 377.079 3960.65 392.815 3933.67C351.806 3952.26 276.273 3982.1 212.089 3982.1C152.674 3982.1 66.0781 3901.82 -3.63715 3837.37C-39.973 3803.72 -77.5487 3768.92 -91.0912 3766.44C-92.7124 3766.16 -94.429 3765.97 -96.2411 3765.97C-119.225 3765.97 -150.22 3789.51 -172.918 3806.68C-181.883 3813.44 -189.608 3819.36 -195.712 3822.88C-204.2 3827.84 -215.167 3844.81 -224.799 3859.78C-239.868 3883.14 -251.789 3901.63 -266.571 3901.63H-267.811C-273.343 3901.16 -281.163 3897.82 -287.553 3884C-298.902 3859.3 -302.526 3805.15 -274.392 3767.59C-253.22 3739.17 -227.375 3733.26 -209.35 3733.26C-202.102 3733.26 -196.189 3734.22 -191.992 3735.17C-181.311 3724.21 -149.934 3697.13 -100.533 3697.13C-95.8597 3697.13 -91.0912 3697.42 -86.3227 3697.89C-32.7249 3703.42 12.7664 3751.57 56.8272 3798.09C102.891 3846.72 150.48 3897.06 205.318 3897.06C277.131 3897.06 301.355 3874.46 309.366 3861.02C289.148 3859.3 273.793 3851.01 266.545 3837.57C263.398 3831.84 261.968 3825.46 262.063 3818.69C245.182 3830.51 220.768 3842.14 190.059 3842.14C162.497 3842.14 134.363 3832.61 106.42 3813.92C85.5336 3799.91 73.0402 3779.69 69.13 3753.76C61.4051 3702.76 90.5881 3639.16 120.916 3601.7C159.731 3553.74 226.872 3525.14 269.406 3525.14C271.409 3525.14 273.412 3525.14 275.319 3525.33L276.654 3525.14C284.57 3524.38 292.867 3523.99 302.023 3523.99C305.456 3523.99 308.794 3523.99 312.227 3524.18C328.25 3524.66 346.942 3526.09 364.204 3533.43H365.158L366.97 3534.1C423.047 3557.27 429.532 3612.37 429.341 3638.02C432.393 3637.26 435.35 3636.49 438.402 3635.83C444.601 3634.68 449.941 3634.11 454.996 3634.11C459.574 3634.11 463.865 3634.59 467.871 3635.54C471.495 3636.4 475.024 3637.73 478.934 3639.64C481.032 3640.69 483.13 3641.83 485.133 3643.26C485.419 3643.45 487.422 3644.88 489.043 3646.7L489.424 3646.98L490.283 3648.22C494.67 3655.75 496.672 3665.48 496.482 3678.16C509.261 3674.92 528.431 3673.2 553.99 3673.2C559.712 3673.2 566.006 3673.2 572.777 3673.49C624.182 3674.92 644.209 3695.03 660.327 3711.15C670.341 3721.25 678.352 3729.16 692.371 3731.26C693.134 3731.36 693.992 3731.45 694.66 3731.45C702.671 3731.45 708.489 3723.54 717.263 3710.57C729.375 3692.74 745.969 3668.34 782.114 3668.34C796.706 3668.34 813.014 3672.25 831.992 3680.16C887.593 3703.52 936.804 3767.4 933.752 3797.81C941 3807.06 958.262 3831.46 956.927 3850.72C955.115 3876.65 920.209 3900.2 892.934 3901.25C892.075 3901.25 891.122 3901.25 890.263 3901.25C872.525 3901.25 827.319 3889.81 827.319 3875.41C827.319 3867.31 831.134 3853.58 856.407 3853.58C861.271 3853.58 866.135 3854.06 870.426 3854.44C873.383 3854.73 875.958 3854.92 877.961 3854.92H878.056C878.724 3853.2 878.533 3847.67 878.438 3844.33C878.151 3835.09 877.77 3822.31 887.498 3814.59C890.74 3807.72 874.05 3771.02 857.742 3750.62C847.824 3738.13 833.137 3730.4 819.499 3730.4C811.392 3730.4 800.234 3733.07 792.032 3745.66C779.062 3803.43 752.263 3828.13 702.862 3828.13C672.725 3828.13 643.065 3804.29 616.838 3783.22C598.432 3768.35 580.979 3754.33 567.151 3751.28C564.48 3750.71 561.81 3750.42 559.33 3750.42C541.305 3750.42 529.956 3766.44 525.569 3774.26C534.439 3786.37 564.29 3822.12 610.067 3822.12C611.784 3822.12 613.596 3822.12 615.408 3821.93C617.887 3821.74 620.272 3821.74 622.751 3821.74C690.273 3821.74 747.686 3875.8 747.972 3939.77C748.162 3972.28 737.195 4000.5 716.404 4021.47C691.894 4046.17 655.654 4059.13 611.784 4059.13C537.681 4059.13 527.191 4037.87 519.657 4005.36C519.084 4002.98 518.607 4000.6 517.94 3998.21C514.983 3986.58 518.703 3973.23 528.907 3959.6C547.886 3934.24 587.178 3910.31 611.402 3909.45C621.321 3909.45 624.945 3914.98 626.089 3917.27C632.765 3931.09 615.885 3956.26 577.832 4003.93L577.546 4004.31C579.263 4007.65 585.08 4013.75 598.718 4013.75C604.726 4013.75 611.593 4012.51 619.127 4010.13C653.46 3999.17 666.24 3979.24 666.24 3936.53C666.24 3902.59 645.831 3886.09 603.868 3886.09C570.298 3886.09 534.248 3897.15 524.33 3900.39C499.438 3936.24 447.748 4028.53 482.558 4062.38C497.149 4076.58 518.798 4084.49 548.744 4086.69C575.829 4072.86 599.863 4065.81 620.081 4065.81H621.13C654.033 4066.19 684.932 4089.55 701.527 4109.47C708.679 4118.05 716.786 4130.35 715.069 4140.46C714.592 4143.13 712.017 4151.99 698.856 4151.99L699.428 4151.9Z" fill="url(#paint14_radial_3101_5341)"/>
<path d="M470.247 3685.64C466.749 3698.2 455.497 3698.57 442.639 3695.15C429.78 3691.73 420.231 3685.92 423.729 3673.36C427.227 3660.8 440.464 3653.41 453.228 3656.83C465.992 3660.24 473.651 3673.17 470.152 3685.64H470.247Z" fill="#FED220"/>
<path d="M315.175 3834.65C326.58 3827.75 323.941 3816.63 317.249 3805.02C310.557 3793.42 302.169 3785.74 290.764 3792.55C279.36 3799.36 275.59 3814.42 282.376 3826.02C289.162 3837.63 303.865 3841.46 315.27 3834.56L315.175 3834.65Z" fill="#FED220"/>
<path d="M130 3860.47C130 3930.44 173.059 4000.04 173.059 4000.04H255.414C255.414 4000.04 208.367 3958.79 208.367 3866.29C208.367 3773.78 257 3816.58 257 3744.89C257 3688.64 201.024 3656.38 201.024 3577.78C201.024 3525.17 227.358 3411.86 228.219 3408.04C225.681 3412.04 145.048 3539.35 145.048 3612.77C145.048 3720.17 185.976 3702.54 185.976 3735.71C185.976 3785.5 130 3780.42 130 3860.47Z" fill="url(#paint15_linear_3101_5341)"/>
<path d="M217.256 3744.67C216.133 3754.68 210.833 3761.68 204.813 3767.41C192.37 3778.51 177.366 3792.42 171.931 3820.61C161.329 3875.18 172.919 3937.56 191.606 3978.58C195.02 3986.22 198.659 3993.31 202.477 4000.04H205.397C186.171 3964.67 172.066 3916.83 173.054 3863.54C173.234 3837.16 178.085 3811.24 189.675 3797.69C200.86 3782.05 219.682 3779.78 224.848 3749.31C232.35 3698.02 201.309 3673.1 186.845 3651.46C175.794 3636.36 171.751 3612.35 173.368 3586.34C174.896 3559.88 182.038 3535.14 190.888 3515.41L190.304 3514.04C173.503 3538.87 161.24 3585.8 167.798 3628.99C172.65 3658.82 186.89 3674.28 198.659 3689.47C208.901 3701.75 220.221 3718.85 217.256 3744.67Z" fill="#3B087D"/>
<path d="M460 4058.89C460 4134.19 407.787 4209.1 407.787 4209.1H307.924C307.924 4209.1 364.973 4164.7 364.973 4065.15C364.973 3965.6 306 4011.66 306 3934.5C306 3873.97 373.877 3839.25 373.877 3754.66C373.877 3698.04 341.944 3576.09 340.9 3571.99C343.978 3576.29 441.753 3713.29 441.753 3792.31C441.753 3907.9 392.123 3888.93 392.123 3924.62C392.123 3978.21 460 3972.74 460 4058.89Z" fill="url(#paint16_linear_3101_5341)"/>
<path d="M353.936 3934.37C355.308 3945.13 361.781 3952.66 369.132 3958.83C384.328 3970.76 402.651 3985.73 409.289 4016.06C422.236 4074.77 408.082 4141.88 385.261 4186.01C381.091 4194.23 376.648 4201.86 371.985 4209.1H368.419C391.899 4171.04 409.124 4119.58 407.918 4062.24C407.698 4033.87 401.773 4005.98 387.62 3991.41C373.96 3974.58 350.974 3972.13 344.665 3939.36C335.503 3884.17 373.411 3857.37 391.076 3834.08C404.571 3817.84 409.508 3792.01 407.533 3764.03C405.668 3735.56 396.946 3708.94 386.138 3687.71L386.852 3686.24C407.369 3712.95 422.345 3763.44 414.336 3809.91C408.411 3842.01 391.021 3858.64 376.648 3874.98C364.14 3888.19 350.315 3906.58 353.936 3934.37Z" fill="#3B087D"/>
<rect x="169" y="3398.89" width="1478" height="853" fill="url(#paint17_linear_3101_5341)" fill-opacity="0.5"/>
<path d="M1538 3681.04C1538 3741.67 1495.96 3801.99 1495.96 3801.99H1415.55C1415.55 3801.99 1461.48 3766.24 1461.48 3686.08C1461.48 3605.92 1414 3643.01 1414 3580.88C1414 3532.14 1468.65 3504.19 1468.65 3436.07C1468.65 3390.48 1442.94 3292.29 1442.1 3288.99C1444.58 3292.45 1523.31 3402.77 1523.31 3466.39C1523.31 3559.46 1483.35 3544.19 1483.35 3572.93C1483.35 3616.08 1538 3611.67 1538 3681.04Z" fill="url(#paint18_linear_3101_5341)"/>
<path d="M1452.6 3580.77C1453.7 3589.44 1458.91 3595.5 1464.83 3600.47C1477.07 3610.08 1491.82 3622.13 1497.17 3646.55C1507.59 3693.82 1496.2 3747.86 1477.82 3783.39C1474.46 3790.01 1470.89 3796.16 1467.13 3801.99H1464.26C1483.17 3771.34 1497.04 3729.9 1496.06 3683.74C1495.89 3660.89 1491.12 3638.44 1479.72 3626.7C1468.72 3613.15 1450.21 3611.18 1445.13 3584.79C1437.76 3540.36 1468.28 3518.77 1482.5 3500.02C1493.37 3486.94 1497.34 3466.15 1495.75 3443.62C1494.25 3420.69 1487.23 3399.26 1478.53 3382.17L1479.1 3380.99C1495.62 3402.49 1507.68 3443.14 1501.23 3480.56C1496.46 3506.4 1482.46 3519.8 1470.89 3532.95C1460.81 3543.59 1449.68 3558.4 1452.6 3580.77Z" fill="#3B087D"/>
<path d="M1327 3941.47C1327 4011.44 1370.06 4081.04 1370.06 4081.04H1452.41C1452.41 4081.04 1405.37 4039.79 1405.37 3947.29C1405.37 3854.78 1454 3897.58 1454 3825.89C1454 3769.64 1398.02 3737.38 1398.02 3658.78C1398.02 3606.17 1424.36 3492.86 1425.22 3489.04C1422.68 3493.04 1342.05 3620.35 1342.05 3693.77C1342.05 3801.17 1382.98 3783.54 1382.98 3816.71C1382.98 3866.5 1327 3861.42 1327 3941.47Z" fill="url(#paint19_linear_3101_5341)"/>
<path d="M1414.26 3825.67C1413.13 3835.68 1407.83 3842.68 1401.81 3848.41C1389.37 3859.51 1374.37 3873.42 1368.93 3901.61C1358.33 3956.18 1369.92 4018.56 1388.61 4059.58C1392.02 4067.22 1395.66 4074.31 1399.48 4081.04H1402.4C1383.17 4045.67 1369.07 3997.83 1370.05 3944.54C1370.23 3918.16 1375.09 3892.24 1386.67 3878.69C1397.86 3863.05 1416.68 3860.78 1421.85 3830.31C1429.35 3779.02 1398.31 3754.1 1383.84 3732.46C1372.79 3717.36 1368.75 3693.35 1370.37 3667.34C1371.9 3640.88 1379.04 3616.14 1387.89 3596.41L1387.3 3595.04C1370.5 3619.87 1358.24 3666.8 1364.8 3709.99C1369.65 3739.82 1383.89 3755.28 1395.66 3770.47C1405.9 3782.75 1417.22 3799.85 1414.26 3825.67Z" fill="#3B087D"/>
<path d="M1400.5 4071.21C1330.1 4074.41 1196.17 4203.54 1138 4267.71H1642V4196.71C1621.17 4164.54 1577.8 4102.21 1571 4110.21C1562.5 4120.21 1488.5 4067.21 1400.5 4071.21Z" fill="#04031A"/>
<path d="M261.56 4102.18C321.5 4104.91 435.534 4215.2 485.059 4270H55.9406V4209.36C73.6786 4181.89 110.602 4128.66 116.392 4135.49C123.629 4144.03 186.634 4098.76 261.56 4102.18Z" fill="#04031A"/>
<path d="M1657 4139.89C1657 4215.19 1604.79 4290.1 1604.79 4290.1H1504.92C1504.92 4290.1 1561.97 4245.7 1561.97 4146.15C1561.97 4046.6 1503 4092.66 1503 4015.5C1503 3954.97 1570.88 3920.25 1570.88 3835.66C1570.88 3779.04 1538.94 3657.09 1537.9 3652.99C1540.98 3657.29 1638.75 3794.29 1638.75 3873.31C1638.75 3988.9 1589.12 3969.93 1589.12 4005.62C1589.12 4059.21 1657 4053.74 1657 4139.89Z" fill="url(#paint20_linear_3101_5341)"/>
<path d="M1550.94 4015.37C1552.31 4026.13 1558.78 4033.66 1566.13 4039.83C1581.33 4051.76 1599.65 4066.73 1606.29 4097.06C1619.24 4155.77 1605.08 4222.88 1582.26 4267.01C1578.09 4275.23 1573.65 4282.86 1568.98 4290.1H1565.42C1588.9 4252.04 1606.12 4200.58 1604.92 4143.24C1604.7 4114.87 1598.77 4086.98 1584.62 4072.41C1570.96 4055.58 1547.97 4053.13 1541.66 4020.36C1532.5 3965.17 1570.41 3938.37 1588.08 3915.08C1601.57 3898.84 1606.51 3873.01 1604.53 3845.03C1602.67 3816.56 1593.95 3789.94 1583.14 3768.71L1583.85 3767.24C1604.37 3793.95 1619.35 3844.44 1611.34 3890.91C1605.41 3923.01 1588.02 3939.64 1573.65 3955.98C1561.14 3969.19 1547.32 3987.58 1550.94 4015.37Z" fill="#3B087D"/>
<path d="M600.766 1795.58V1827.07C600.766 1829.05 598.365 1830.03 596.974 1828.6L587.684 1818.96C583.092 1827.45 570.671 1833.54 556.059 1833.54C537.515 1833.54 522.52 1823.77 522.52 1811.73C522.52 1799.69 537.515 1789.95 556.059 1789.95C570.567 1789.95 582.883 1795.93 587.58 1804.28L596.939 1794.09C598.296 1792.63 600.766 1793.57 600.766 1795.58Z" fill="#3B087D"/>
<path d="M533.862 1806.58C536.715 1806.58 537.411 1808.88 537.411 1811.73C537.411 1814.58 536.715 1816.88 533.862 1816.88C531.009 1816.88 528.713 1814.58 528.713 1811.73C528.713 1808.88 531.009 1806.58 533.862 1806.58Z" fill="#FED220"/>
<path d="M817.868 1758.64V1790.12C817.868 1792.1 815.467 1793.08 814.075 1791.65L804.786 1782.02C800.193 1790.5 787.773 1796.59 773.16 1796.59C754.616 1796.59 739.621 1786.82 739.621 1774.78C739.621 1762.74 754.616 1753 773.16 1753C787.668 1753 799.985 1758.98 804.682 1767.33L814.04 1757.14C815.397 1755.68 817.868 1756.62 817.868 1758.64Z" fill="#3B087D"/>
<path d="M750.926 1769.63C753.779 1769.63 754.475 1771.93 754.475 1774.78C754.475 1777.63 753.779 1779.93 750.926 1779.93C748.074 1779.93 745.777 1777.63 745.777 1774.78C745.777 1771.93 748.074 1769.63 750.926 1769.63Z" fill="#FED220"/>
<path d="M723.094 1808.35V1839.84C723.094 1841.82 720.693 1842.8 719.302 1841.37L710.012 1831.73C705.42 1840.22 692.999 1846.31 678.387 1846.31C659.843 1846.31 644.848 1836.53 644.848 1824.5C644.848 1812.46 659.843 1802.72 678.387 1802.72C692.895 1802.72 705.211 1808.7 709.908 1817.05L719.267 1806.86C720.624 1805.4 723.094 1806.34 723.094 1808.35Z" fill="#3B087D"/>
<path d="M656.155 1819.35C659.008 1819.35 659.704 1821.64 659.704 1824.5C659.704 1827.35 659.008 1829.65 656.155 1829.65C653.302 1829.65 651.006 1827.35 651.006 1824.5C651.006 1821.64 653.302 1819.35 656.155 1819.35Z" fill="#FED220"/>
<path d="M906.481 1808.35V1839.84C906.481 1841.82 904.08 1842.8 902.689 1841.37L893.399 1831.73C888.807 1840.22 876.386 1846.31 861.774 1846.31C843.23 1846.31 828.234 1836.53 828.234 1824.5C828.234 1812.46 843.23 1802.72 861.774 1802.72C876.282 1802.72 888.598 1808.7 893.295 1817.05L902.654 1806.86C904.011 1805.4 906.481 1806.34 906.481 1808.35Z" fill="#3B087D"/>
<path d="M839.577 1819.35C842.43 1819.35 843.126 1821.64 843.126 1824.5C843.126 1827.35 842.43 1829.65 839.577 1829.65C836.724 1829.65 834.428 1827.35 834.428 1824.5C834.428 1821.64 836.724 1819.35 839.577 1819.35Z" fill="#FED220"/>
<path d="M668.02 1725.62V1757.1C668.02 1759.09 665.619 1760.06 664.228 1758.63L654.938 1749C650.346 1757.49 637.925 1763.58 623.313 1763.58C604.769 1763.58 589.773 1753.8 589.773 1741.76C589.773 1729.72 604.769 1719.98 623.313 1719.98C637.821 1719.98 650.137 1725.97 654.834 1734.32L664.193 1724.12C665.55 1722.66 668.02 1723.6 668.02 1725.62Z" fill="#3B087D"/>
<path d="M601.079 1736.58C603.932 1736.58 604.628 1738.87 604.628 1741.73C604.628 1744.58 603.932 1746.88 601.079 1746.88C598.226 1746.88 595.93 1744.58 595.93 1741.73C595.93 1738.87 598.226 1736.58 601.079 1736.58Z" fill="#FED220"/>
<path d="M573.246 1673.64V1705.13C573.246 1707.11 570.846 1708.08 569.454 1706.66L560.165 1697.02C555.572 1705.51 543.152 1711.6 528.539 1711.6C509.995 1711.6 495 1701.82 495 1689.78C495 1677.74 509.995 1668 528.539 1668C543.047 1668 555.364 1673.99 560.06 1682.34L569.419 1672.14C570.776 1670.68 573.246 1671.62 573.246 1673.64Z" fill="#3B087D"/>
<path d="M506.307 1684.63C509.16 1684.63 509.856 1686.93 509.856 1689.78C509.856 1692.64 509.16 1694.93 506.307 1694.93C503.454 1694.93 501.158 1692.64 501.158 1689.78C501.158 1686.93 503.454 1684.63 506.307 1684.63Z" fill="#FED220"/>
<path d="M756.633 1673.64V1705.13C756.633 1707.11 754.233 1708.08 752.841 1706.66L743.552 1697.02C738.959 1705.51 726.538 1711.6 711.926 1711.6C693.382 1711.6 678.387 1701.82 678.387 1689.78C678.387 1677.74 693.382 1668 711.926 1668C726.434 1668 738.75 1673.99 743.447 1682.34L752.806 1672.14C754.163 1670.68 756.633 1671.62 756.633 1673.64Z" fill="#3B087D"/>
<path d="M689.729 1684.63C692.582 1684.63 693.278 1686.93 693.278 1689.78C693.278 1692.64 692.582 1694.93 689.729 1694.93C686.876 1694.93 684.58 1692.64 684.58 1689.78C684.58 1686.93 686.876 1684.63 689.729 1684.63Z" fill="#FED220"/>
</g>
<defs>
<filter id="filter0_f_3101_5341" x="-316" y="36.1719" width="2137" height="6906" filterUnits="userSpaceOnUse" color-interpolation-filters="sRGB">
<feFlood flood-opacity="0" result="BackgroundImageFix"/>
<feBlend mode="normal" in="SourceGraphic" in2="BackgroundImageFix" result="shape"/>
<feGaussianBlur stdDeviation="10" result="effect1_foregroundBlur_3101_5341"/>
</filter>
<linearGradient id="paint0_linear_3101_5341" x1="868.455" y1="1880.69" x2="915.156" y2="2979.48" gradientUnits="userSpaceOnUse">
<stop stop-color="#1F6BAD"/>
<stop offset="1" stop-color="#3A5771"/>
</linearGradient>
<radialGradient id="paint1_radial_3101_5341" cx="0" cy="0" r="1" gradientUnits="userSpaceOnUse" gradientTransform="translate(864.27 3489.17) rotate(-90) scale(3433 602.086)">
<stop stop-color="#00FFEE" stop-opacity="0.9"/>
<stop offset="1" stop-color="#63D5FF" stop-opacity="0"/>
</radialGradient>
<linearGradient id="paint2_linear_3101_5341" x1="1254.33" y1="2767.47" x2="1134.39" y2="2929.06" gradientUnits="userSpaceOnUse">
<stop stop-color="#0F396A"/>
<stop offset="1" stop-color="#0A233F"/>
</linearGradient>
<linearGradient id="paint3_linear_3101_5341" x1="560.699" y1="2814.88" x2="613.912" y2="2925.68" gradientUnits="userSpaceOnUse">
<stop stop-color="#0F396A"/>
<stop offset="1" stop-color="#0C2748"/>
</linearGradient>
<linearGradient id="paint4_linear_3101_5341" x1="853.729" y1="2052.97" x2="892.392" y2="2962.65" gradientUnits="userSpaceOnUse">
<stop stop-color="#2E86C9"/>
<stop offset="1" stop-color="#3A6F9F"/>
</linearGradient>
<linearGradient id="paint5_linear_3101_5341" x1="858.16" y1="2110.19" x2="896.845" y2="3020.37" gradientUnits="userSpaceOnUse">
<stop stop-color="#056BBA"/>
<stop offset="1" stop-color="#1C345F"/>
</linearGradient>
<linearGradient id="paint6_linear_3101_5341" x1="861.045" y1="2225.17" x2="893.87" y2="2997.47" gradientUnits="userSpaceOnUse">
<stop stop-color="#19418A"/>
<stop offset="1" stop-color="#093458"/>
</linearGradient>
<linearGradient id="paint7_linear_3101_5341" x1="790.977" y1="2912.84" x2="841.085" y2="4091.78" gradientUnits="userSpaceOnUse">
<stop stop-color="#0062C3"/>
<stop offset="1" stop-color="#123155"/>
</linearGradient>
<radialGradient id="paint8_radial_3101_5341" cx="0" cy="0" r="1" gradientTransform="matrix(-8.21737 -426.376 263.218 -5.07483 920.575 3652.49)" gradientUnits="userSpaceOnUse">
<stop stop-color="#00FFEE"/>
<stop offset="1" stop-color="#63D5FF" stop-opacity="0"/>
</radialGradient>
<linearGradient id="paint9_linear_3101_5341" x1="153.818" y1="1400.75" x2="-137.38" y2="3107.76" gradientUnits="userSpaceOnUse">
<stop stop-color="#1F3D67"/>
<stop offset="0.533654" stop-color="#0F0A21"/>
</linearGradient>
<linearGradient id="paint10_linear_3101_5341" x1="882" y1="605.004" x2="871.5" y2="4259" gradientUnits="userSpaceOnUse">
<stop offset="0.0480769" stop-color="#00264D" stop-opacity="0"/>
<stop offset="0.399038" stop-color="#00080F"/>
</linearGradient>
<linearGradient id="paint11_linear_3101_5341" x1="1567.66" y1="1329.96" x2="1792.71" y2="3142.04" gradientUnits="userSpaceOnUse">
<stop stop-color="#142B4C"/>
<stop offset="0.533654" stop-color="#0D0627"/>
</linearGradient>
<linearGradient id="paint12_linear_3101_5341" x1="975" y1="3718.41" x2="975" y2="4302.91" gradientUnits="userSpaceOnUse">
<stop stop-color="#0C1040"/>
<stop offset="1" stop-color="#000F1E"/>
</linearGradient>
<linearGradient id="paint13_linear_3101_5341" x1="279" y1="4226.58" x2="279" y2="3346.26" gradientUnits="userSpaceOnUse">
<stop offset="0.35" stop-color="#005568"/>
<stop offset="0.79" stop-color="#7B39CB"/>
</linearGradient>
<radialGradient id="paint14_radial_3101_5341" cx="0" cy="0" r="1" gradientUnits="userSpaceOnUse" gradientTransform="translate(186.721 3265.91) scale(1413.57 1413.12)">
<stop offset="0.35" stop-color="#3B087D"/>
<stop offset="0.79" stop-color="#AA2500"/>
</radialGradient>
<linearGradient id="paint15_linear_3101_5341" x1="193.5" y1="4583.5" x2="193.5" y2="3567.61" gradientUnits="userSpaceOnUse">
<stop offset="0.35" stop-color="#15083B"/>
<stop offset="0.79" stop-color="#4C5F94"/>
</linearGradient>
<linearGradient id="paint16_linear_3101_5341" x1="383" y1="4837.02" x2="383" y2="3743.71" gradientUnits="userSpaceOnUse">
<stop offset="0.35" stop-color="#005568"/>
<stop offset="0.79" stop-color="#986AD0"/>
</linearGradient>
<linearGradient id="paint17_linear_3101_5341" x1="908" y1="3398.89" x2="908" y2="4251.89" gradientUnits="userSpaceOnUse">
<stop stop-color="#003C74" stop-opacity="0"/>
<stop offset="1" stop-color="#05001C"/>
</linearGradient>
<linearGradient id="paint18_linear_3101_5341" x1="1476" y1="4307.58" x2="1476" y2="3427.26" gradientUnits="userSpaceOnUse">
<stop offset="0.35" stop-color="#005568"/>
<stop offset="0.79" stop-color="#7B39CB"/>
</linearGradient>
<linearGradient id="paint19_linear_3101_5341" x1="1390.5" y1="4664.5" x2="1390.5" y2="3648.61" gradientUnits="userSpaceOnUse">
<stop offset="0.35" stop-color="#15083B"/>
<stop offset="0.79" stop-color="#4C5F94"/>
</linearGradient>
<linearGradient id="paint20_linear_3101_5341" x1="1580" y1="4918.02" x2="1580" y2="3824.71" gradientUnits="userSpaceOnUse">
<stop offset="0.35" stop-color="#005568"/>
<stop offset="0.79" stop-color="#986AD0"/>
</linearGradient>
</defs>
</svg>
