<svg width="60" height="60" viewBox="0 0 60 60" fill="none" xmlns="http://www.w3.org/2000/svg">
<path fill-rule="evenodd" clip-rule="evenodd" d="M2.28734 24.376L24.376 2.28734C27.4258 -0.76245 32.3705 -0.762446 35.4202 2.28734L57.5089 24.376C60.5587 27.4258 60.5587 32.3705 57.5089 35.4202L35.4202 57.5089C32.3705 60.5587 27.4258 60.5587 24.376 57.5089L2.28734 35.4202C-0.762447 32.3705 -0.762448 27.4258 2.28734 24.376ZM11.2172 35.0538C11.7892 35.3078 12.4408 35.4347 13.172 35.4347C13.7391 35.4347 14.239 35.36 14.6717 35.2107C15.1046 35.0562 15.4751 34.8446 15.7835 34.5757C16.0111 34.3737 16.2534 34.1487 16.4388 33.9006C16.488 33.8348 16.6118 33.869 16.6118 33.9512V34.043C16.6118 34.692 17.1375 35.218 17.7861 35.218H18.4518C19.1004 35.218 19.6261 34.692 19.6261 34.043V27.4806C19.6261 26.7985 19.4943 26.2135 19.2307 25.7256C18.967 25.2326 18.6064 24.8292 18.1488 24.5156C17.6961 24.2018 17.1763 23.9704 16.5894 23.821C16.0074 23.6717 15.3981 23.597 14.7614 23.597C13.846 23.597 13.0403 23.7364 12.3439 24.0151C11.6524 24.2891 11.0879 24.6823 10.6501 25.1953C10.4982 25.3714 10.3637 25.5591 10.2466 25.7581C9.8867 26.3694 10.3964 27.0536 11.103 27.111L11.7531 27.1639C12.3096 27.2091 12.7998 26.815 13.2125 26.4386C13.265 26.3906 13.3211 26.3445 13.381 26.3006C13.7192 26.0466 14.1743 25.9196 14.7463 25.9196C15.2886 25.9196 15.7064 26.0492 15.9999 26.3081C16.2984 26.567 16.4476 26.9329 16.4476 27.4059V27.4508C16.4476 27.6948 16.3555 27.8789 16.1715 28.0035C15.9874 28.128 15.6915 28.2225 15.2837 28.2872C14.8758 28.3469 14.3385 28.4118 13.672 28.4814C13.1049 28.5362 12.5627 28.6308 12.0453 28.7652C11.5331 28.8997 11.0754 29.0988 10.6725 29.3627C10.2695 29.6266 9.95121 29.9752 9.71748 30.4083C9.48361 30.8415 9.36675 31.3767 9.36675 32.014C9.36675 32.7709 9.53091 33.4033 9.85922 33.9111C10.1925 34.4139 10.6452 34.7948 11.2172 35.0538ZM23.9281 34.6884C24.81 35.1859 25.8632 35.4347 27.0876 35.4347C28.1511 35.4347 29.072 35.2481 29.8502 34.8749C30.6282 34.5018 31.2379 33.9842 31.6788 33.3225C31.9045 32.9851 32.0797 32.6211 32.2046 32.2303C32.4106 31.5851 31.8334 31.0087 31.1296 31.0087H30.3542C29.7472 31.0087 29.2713 31.4626 28.9574 31.9609C28.9391 31.9899 28.9203 32.0183 28.9008 32.0462C28.7036 32.3297 28.452 32.5462 28.1459 32.6955C27.845 32.8448 27.5052 32.9194 27.1264 32.9194C26.6129 32.9194 26.1642 32.785 25.7803 32.5164C25.3964 32.2477 25.098 31.857 24.8853 31.3445C24.6778 30.8319 24.574 30.21 24.574 29.4785C24.574 28.7571 24.6803 28.1425 24.893 27.6349C25.1059 27.1274 25.4015 26.7418 25.7803 26.478C26.1642 26.2094 26.6129 26.075 27.1264 26.075C27.7334 26.075 28.2236 26.2516 28.5973 26.605C28.7363 26.7328 28.8557 26.8757 28.9556 27.0338C29.2703 27.5317 29.7474 27.9857 30.3547 27.9857H31.1377C31.8384 27.9857 32.416 27.4135 32.2111 26.7709C32.0848 26.3746 31.9048 26.0083 31.671 25.6719C31.2145 25.0151 30.5946 24.5051 29.8112 24.1419C29.0278 23.7785 28.1147 23.597 27.0719 23.597C25.8632 23.597 24.8205 23.8482 23.9438 24.3509C23.0669 24.8484 22.3899 25.5426 21.9127 26.4333C21.4405 27.3189 21.2045 28.349 21.2045 29.5234C21.2045 30.6827 21.438 31.7077 21.9048 32.5984C22.377 33.4891 23.0514 34.1857 23.9281 34.6884ZM33.8313 34.2377C33.8313 34.8988 34.3546 35.4347 35 35.4347H35.8259C36.4713 35.4347 36.9944 34.8988 36.9944 34.2377V28.4203C36.9944 27.9892 37.0762 27.6139 37.2395 27.2944C37.4029 26.9697 37.6231 26.7187 37.9003 26.5412C38.1824 26.3586 38.4993 26.2672 38.8506 26.2672C39.3705 26.2672 39.7888 26.4372 40.1055 26.7771C40.4272 27.1169 40.5881 27.5733 40.5881 28.1464V34.2377C40.5881 34.8988 41.1114 35.4347 41.7568 35.4347H42.4861C43.1315 35.4347 43.6546 34.8988 43.6546 34.2377V28.2985C43.6546 27.6899 43.8156 27.2005 44.1374 26.8303C44.4591 26.4549 44.9071 26.2672 45.4812 26.2672C45.9861 26.2672 46.407 26.4296 46.7435 26.7542C47.0801 27.0788 47.2484 27.5657 47.2484 28.2149V34.2377C47.2484 34.8988 47.7716 35.4347 48.417 35.4347H49.2354C49.8808 35.4347 50.4041 34.8988 50.4041 34.2377V27.5758C50.4041 26.3079 50.0699 25.329 49.4017 24.6392C48.7383 23.9443 47.8746 23.597 46.8104 23.597C45.9737 23.597 45.2486 23.7999 44.6348 24.2056C44.0623 24.5823 43.656 25.0781 43.4162 25.6925C43.4021 25.7287 43.3485 25.7269 43.3364 25.69C43.1308 25.0672 42.6712 24.5698 42.1548 24.1979C41.6054 23.7972 40.9396 23.597 40.1575 23.597C39.3853 23.597 38.722 23.7947 38.1676 24.1904C37.6723 24.5437 37.1968 25.0126 36.9316 25.5968C36.9131 25.6375 36.8459 25.6242 36.8459 25.5794V24.9461C36.8459 24.285 36.3228 23.7491 35.6774 23.7491H35C34.3546 23.7491 33.8313 24.285 33.8313 24.9461V34.2377Z" fill="#69CEC3"/>
<path d="M14.0823 33.2388C14.5499 33.2388 14.9627 33.1468 15.321 32.9626C15.6791 32.7734 15.9601 32.5194 16.164 32.2008C16.368 31.8821 16.4699 31.5212 16.4699 31.1178V30.3498C16.4699 30.1564 16.244 30.0217 16.0596 30.0797C15.8905 30.1294 15.6989 30.1768 15.4851 30.2216C15.2712 30.2614 15.0573 30.2988 14.8434 30.3337C14.6295 30.3635 14.4355 30.3908 14.2614 30.4157C13.8884 30.4706 13.5625 30.5577 13.284 30.6772C13.0054 30.7967 12.789 30.9585 12.6349 31.1627C12.4807 31.3618 12.4035 31.6108 12.4035 31.9095C12.4035 32.3427 12.5602 32.6738 12.8736 32.9028C13.192 33.1268 13.5948 33.2388 14.0823 33.2388Z" fill="#69CEC3"/>
<path fill-rule="evenodd" clip-rule="evenodd" d="M13.172 35.4347C12.4408 35.4347 11.7892 35.3078 11.2172 35.0538C10.6452 34.7948 10.1925 34.4139 9.85922 33.9111C9.53091 33.4033 9.36675 32.7709 9.36675 32.014C9.36675 31.3767 9.48361 30.8415 9.71748 30.4083C9.95121 29.9752 10.2695 29.6266 10.6725 29.3627C11.0754 29.0988 11.5331 28.8997 12.0453 28.7652C12.5627 28.6308 13.1049 28.5362 13.672 28.4814C14.3385 28.4118 14.8758 28.3469 15.2837 28.2872C15.6915 28.2225 15.9874 28.128 16.1715 28.0035C16.3555 27.8789 16.4476 27.6948 16.4476 27.4508V27.4059C16.4476 26.9329 16.2984 26.567 15.9999 26.3081C15.7064 26.0492 15.2886 25.9196 14.7463 25.9196C14.1743 25.9196 13.7192 26.0466 13.381 26.3006C13.3211 26.3445 13.265 26.3906 13.2125 26.4386C12.7998 26.815 12.3096 27.2091 11.7531 27.1639L11.103 27.111C10.3964 27.0536 9.8867 26.3694 10.2466 25.7581C10.3637 25.5591 10.4982 25.3714 10.6501 25.1953C11.0879 24.6823 11.6524 24.2891 12.3439 24.0151C13.0403 23.7364 13.846 23.597 14.7614 23.597C15.3981 23.597 16.0074 23.6717 16.5894 23.821C17.1763 23.9704 17.6961 24.2018 18.1488 24.5156C18.6064 24.8292 18.967 25.2326 19.2307 25.7256C19.4943 26.2135 19.6261 26.7985 19.6261 27.4806V34.043C19.6261 34.692 19.1004 35.218 18.4518 35.218H17.7861C17.1375 35.218 16.6118 34.692 16.6118 34.043V33.9512C16.6118 33.869 16.488 33.8348 16.4388 33.9006C16.2534 34.1487 16.0111 34.3737 15.7835 34.5757C15.4751 34.8446 15.1046 35.0562 14.6717 35.2107C14.239 35.36 13.7391 35.4347 13.172 35.4347ZM15.321 32.9626C14.9627 33.1468 14.5499 33.2388 14.0823 33.2388C13.5948 33.2388 13.192 33.1268 12.8736 32.9028C12.5602 32.6738 12.4035 32.3427 12.4035 31.9095C12.4035 31.6108 12.4807 31.3618 12.6349 31.1627C12.789 30.9585 13.0054 30.7967 13.284 30.6772C13.5625 30.5577 13.8884 30.4706 14.2614 30.4157C14.4355 30.3908 14.6295 30.3635 14.8434 30.3337C15.0573 30.2988 15.2712 30.2614 15.4851 30.2216C15.6989 30.1768 15.8905 30.1294 16.0596 30.0797C16.244 30.0217 16.4699 30.1564 16.4699 30.3498V31.1178C16.4699 31.5212 16.368 31.8821 16.164 32.2008C15.9601 32.5194 15.6791 32.7734 15.321 32.9626Z" fill="#051031"/>
<path d="M27.0876 35.4347C25.8632 35.4347 24.81 35.1859 23.9281 34.6884C23.0514 34.1857 22.377 33.4891 21.9048 32.5984C21.438 31.7077 21.2045 30.6827 21.2045 29.5234C21.2045 28.349 21.4405 27.3189 21.9127 26.4333C22.3899 25.5426 23.0669 24.8484 23.9438 24.3509C24.8205 23.8482 25.8632 23.597 27.0719 23.597C28.1147 23.597 29.0278 23.7785 29.8112 24.1419C30.5946 24.5051 31.2145 25.0151 31.671 25.6719C31.9048 26.0083 32.0848 26.3746 32.2111 26.7709C32.416 27.4135 31.8384 27.9857 31.1377 27.9857H30.3547C29.7474 27.9857 29.2703 27.5317 28.9556 27.0338C28.8557 26.8757 28.7363 26.7328 28.5973 26.605C28.2236 26.2516 27.7334 26.075 27.1264 26.075C26.6129 26.075 26.1642 26.2094 25.7803 26.478C25.4015 26.7418 25.1059 27.1274 24.893 27.6349C24.6803 28.1425 24.574 28.7571 24.574 29.4785C24.574 30.21 24.6778 30.8319 24.8853 31.3445C25.098 31.857 25.3964 32.2477 25.7803 32.5164C26.1642 32.785 26.6129 32.9194 27.1264 32.9194C27.5052 32.9194 27.845 32.8448 28.1459 32.6955C28.452 32.5462 28.7036 32.3297 28.9008 32.0462C28.9203 32.0183 28.9391 31.9899 28.9574 31.9609C29.2713 31.4626 29.7472 31.0087 30.3542 31.0087H31.1296C31.8334 31.0087 32.4106 31.5851 32.2046 32.2303C32.0797 32.6211 31.9045 32.9851 31.6788 33.3225C31.2379 33.9842 30.6282 34.5018 29.8502 34.8749C29.072 35.2481 28.1511 35.4347 27.0876 35.4347Z" fill="#051031"/>
<path d="M35 35.4347C34.3546 35.4347 33.8313 34.8988 33.8313 34.2377V24.9461C33.8313 24.285 34.3546 23.7491 35 23.7491H35.6774C36.3228 23.7491 36.8459 24.285 36.8459 24.9461V25.5794C36.8459 25.6242 36.9131 25.6375 36.9316 25.5968C37.1968 25.0126 37.6723 24.5437 38.1676 24.1904C38.722 23.7947 39.3853 23.597 40.1575 23.597C40.9396 23.597 41.6054 23.7972 42.1548 24.1979C42.6712 24.5698 43.1308 25.0672 43.3364 25.69C43.3485 25.7269 43.4021 25.7287 43.4162 25.6925C43.656 25.0781 44.0623 24.5823 44.6348 24.2056C45.2486 23.7999 45.9737 23.597 46.8104 23.597C47.8746 23.597 48.7383 23.9443 49.4017 24.6392C50.0699 25.329 50.4041 26.3079 50.4041 27.5758V34.2377C50.4041 34.8988 49.8808 35.4347 49.2354 35.4347H48.417C47.7716 35.4347 47.2484 34.8988 47.2484 34.2377V28.2149C47.2484 27.5657 47.0801 27.0788 46.7435 26.7542C46.407 26.4296 45.9861 26.2672 45.4812 26.2672C44.9071 26.2672 44.4591 26.4549 44.1374 26.8303C43.8156 27.2005 43.6546 27.6899 43.6546 28.2985V34.2377C43.6546 34.8988 43.1315 35.4347 42.4861 35.4347H41.7568C41.1114 35.4347 40.5881 34.8988 40.5881 34.2377V28.1464C40.5881 27.5733 40.4272 27.1169 40.1055 26.7771C39.7888 26.4372 39.3705 26.2672 38.8506 26.2672C38.4993 26.2672 38.1824 26.3586 37.9003 26.5412C37.6231 26.7187 37.4029 26.9697 37.2395 27.2944C37.0762 27.6139 36.9944 27.9892 36.9944 28.4203V34.2377C36.9944 34.8988 36.4713 35.4347 35.8259 35.4347H35Z" fill="#051031"/>
</svg>
