<svg width="30" height="30" viewBox="0 0 30 30" fill="none" xmlns="http://www.w3.org/2000/svg">
<path d="M13.5947 22.7031C13.5947 23.2554 14.0424 23.7031 14.5947 23.7031C15.147 23.7031 15.5947 23.2554 15.5947 22.7031H14.5947H13.5947ZM15.3018 7.40142C14.9113 7.0109 14.2781 7.0109 13.8876 7.40142L7.52366 13.7654C7.13313 14.1559 7.13313 14.7891 7.52366 15.1796C7.91418 15.5701 8.54735 15.5701 8.93787 15.1796L14.5947 9.52274L20.2516 15.1796C20.6421 15.5701 21.2753 15.5701 21.6658 15.1796C22.0563 14.7891 22.0563 14.1559 21.6658 13.7654L15.3018 7.40142ZM14.5947 22.7031H15.5947L15.5947 8.10853H14.5947H13.5947L13.5947 22.7031H14.5947Z" fill="#69CEC3"/>
<circle cx="15" cy="15" r="14.1892" stroke="#69CEC3" stroke-width="1.62162"/>
</svg>
