<svg width="60" height="60" viewBox="0 0 60 60" fill="none" xmlns="http://www.w3.org/2000/svg">
<path fill-rule="evenodd" clip-rule="evenodd" d="M10.872 0C7.9886 0 5.22325 1.14544 3.18435 3.18435C1.14544 5.22325 0 7.9886 0 10.872V48.9242C0 51.8076 1.14544 54.573 3.18435 56.6119C5.22325 58.6508 7.9886 59.7962 10.872 59.7962H48.9242C51.8076 59.7962 54.573 58.6508 56.6119 56.6119C58.6508 54.573 59.7962 51.8076 59.7962 48.9242V10.872C59.7962 7.9886 58.6508 5.22325 56.6119 3.18435C54.573 1.14544 51.8076 0 48.9242 0H10.872ZM24.3398 14.1472C20.9559 14.1472 18.3955 14.718 15.5905 16.0933C15.4305 16.1715 15.2965 16.2942 15.2045 16.4467C13.2802 19.6621 9.51303 28.5935 9.51303 39.1665C9.51303 39.4084 9.60545 39.6395 9.77396 39.8107C11.5352 41.6318 13.1389 42.969 14.8566 43.9149C16.588 44.8635 18.3901 45.3908 20.521 45.6463C20.6985 45.6679 20.8786 45.6376 21.0392 45.559C21.1999 45.4803 21.3343 45.3567 21.4261 45.2032L22.3638 43.6431C21.5746 43.3664 20.8152 43.0113 20.097 42.5831C19.702 42.3489 19.3192 42.0949 18.95 41.822L18.8766 41.7677L18.8548 41.7514L18.8494 41.7459H18.844C18.5716 41.5119 18.4003 41.1817 18.3658 40.8243C18.3313 40.4669 18.4362 40.1099 18.6587 39.8281C18.8812 39.5463 19.2041 39.3614 19.5597 39.3121C19.9154 39.2627 20.2764 39.3527 20.5672 39.5634L20.5726 39.5661L20.6161 39.5987L20.8009 39.7346C20.964 39.8487 21.2086 40.0118 21.5103 40.1912C22.236 40.6304 23.0202 40.9644 23.8397 41.1833C25.8205 41.6835 27.8551 41.9391 29.8981 41.9443C31.942 41.9393 33.9776 41.6837 35.9593 41.1833C36.7778 40.9642 37.5611 40.6301 38.2859 40.1912C38.5945 40.0086 38.8938 39.8109 39.1828 39.5987L39.2236 39.5661L39.229 39.5634C39.5199 39.3593 39.8778 39.2742 40.2294 39.3255C40.581 39.3769 40.8997 39.5608 41.12 39.8395C41.3404 40.1183 41.4458 40.4708 41.4146 40.8247C41.3834 41.1787 41.218 41.5073 40.9523 41.7432L40.9468 41.7459L40.9414 41.7514L40.9196 41.7704L40.8463 41.8247C40.477 42.0976 40.0942 42.3516 39.6993 42.5858C38.9809 43.0131 38.2215 43.3673 37.4324 43.6431L38.3701 45.2032C38.5577 45.5158 38.9137 45.6925 39.2752 45.6463C41.4062 45.3908 43.2082 44.8635 44.9369 43.9122C46.6574 42.969 48.261 41.629 50.0195 39.8107C50.188 39.6385 50.2826 39.4074 50.2832 39.1665C50.2832 28.5962 46.516 19.6621 44.5917 16.4521C44.4997 16.2996 44.3657 16.1769 44.2057 16.0988C41.4007 14.7207 38.8404 14.15 35.4592 14.15C35.2644 14.1492 35.0743 14.2101 34.9162 14.3238C34.758 14.4375 34.6398 14.5984 34.5785 14.7833L33.9534 16.6505C32.6435 16.2247 31.2755 16.0046 29.8981 15.9982C28.5208 16.0046 27.1527 16.2247 25.8428 16.6505L25.2204 14.7805C25.1593 14.5961 25.0415 14.4356 24.8839 14.3219C24.7263 14.2082 24.5368 14.1471 24.3425 14.1472H24.3398ZM23.4129 34.5323C24.9459 34.5323 26.1907 33.0782 26.1907 31.287C26.1907 29.4958 24.9459 28.0444 23.4129 28.0444C21.88 28.0444 20.6324 29.4958 20.6324 31.287C20.6324 33.0809 21.8773 34.5323 23.4129 34.5323ZM36.3833 34.5323C37.919 34.5323 39.1638 33.0782 39.1638 31.287C39.1638 29.4958 37.919 28.0444 36.3833 28.0444C34.8503 28.0444 33.6055 29.4958 33.6055 31.287C33.6055 33.0809 34.8503 34.5323 36.3833 34.5323Z" fill="#69CEC3"/>
</svg>
