<svg width="60" height="60" viewBox="0 0 60 60" fill="none" xmlns="http://www.w3.org/2000/svg">
<path d="M32.9717 0C36.335 0.00896922 38.0421 0.0269077 39.516 0.068764L40.096 0.0896921C40.7657 0.11361 41.4264 0.143507 42.2247 0.179384C45.4057 0.328871 47.5762 0.831148 49.4806 1.56961C51.4537 2.32901 53.116 3.35748 54.7783 5.01678C56.2991 6.51085 57.4755 8.31886 58.2253 10.3146C58.9638 12.2191 59.466 14.3896 59.6155 17.5737C59.6514 18.369 59.6813 19.0297 59.7052 19.7024L59.7231 20.2824C59.768 21.7533 59.7859 23.4605 59.7919 26.8239L59.7949 29.0543V32.9708C59.8022 35.1516 59.7793 37.3323 59.7261 39.5124L59.7082 40.0924C59.6843 40.7651 59.6544 41.4258 59.6185 42.2211C59.469 45.4052 58.9608 47.5727 58.2253 49.4802C57.4755 51.4759 56.2991 53.2839 54.7783 54.778C53.2842 56.2989 51.4762 57.4753 49.4806 58.2252C47.5762 58.9636 45.4057 59.4659 42.2247 59.6154L40.096 59.7051L39.516 59.723C38.0421 59.7649 36.335 59.7858 32.9717 59.7918L30.7414 59.7948H26.8279C24.6462 59.8025 22.4646 59.7795 20.2836 59.726L19.7036 59.7081C18.9938 59.6812 18.2843 59.6503 17.5749 59.6154C14.3939 59.4659 12.2234 58.9636 10.316 58.2252C8.32142 57.4749 6.5145 56.2985 5.02134 54.778C3.49944 53.2842 2.322 51.4762 1.57127 49.4802C0.832826 47.5757 0.330563 45.4052 0.18108 42.2211L0.0913902 40.0924L0.0764423 39.5124C0.021331 37.3323 -0.00358548 35.1516 0.00170051 32.9708V26.8239C-0.00657456 24.6432 0.0153519 22.4625 0.0674733 20.2824L0.0884008 19.7024C0.112318 19.0297 0.142215 18.369 0.17809 17.5737C0.327574 14.3896 0.829836 12.2221 1.56828 10.3146C2.32076 8.31805 3.50027 6.50996 5.02433 5.01678C6.51663 3.49665 8.32249 2.32026 10.316 1.56961C12.2234 0.831148 14.3909 0.328871 17.5749 0.179384C18.3702 0.143507 19.0339 0.11361 19.7036 0.0896921L20.2836 0.0717535C22.4636 0.0186342 24.6443 -0.00428937 26.8249 0.00298952L32.9717 0ZM29.8983 14.9487C25.9338 14.9487 22.1316 16.5236 19.3283 19.3271C16.5249 22.1305 14.95 25.9327 14.95 29.8974C14.95 33.862 16.5249 37.6643 19.3283 40.4677C22.1316 43.2711 25.9338 44.8461 29.8983 44.8461C33.8628 44.8461 37.665 43.2711 40.4683 40.4677C43.2717 37.6643 44.8466 33.862 44.8466 29.8974C44.8466 25.9327 43.2717 22.1305 40.4683 19.3271C37.665 16.5236 33.8628 14.9487 29.8983 14.9487ZM29.8983 20.9282C31.0761 20.928 32.2425 21.1598 33.3307 21.6103C34.4189 22.0609 35.4078 22.7214 36.2408 23.5541C37.0737 24.3869 37.7346 25.3755 38.1855 26.4636C38.6364 27.5518 38.8686 28.718 38.8688 29.8959C38.869 31.0737 38.6372 32.2401 38.1866 33.3284C37.7361 34.4166 37.0756 35.4055 36.2429 36.2385C35.4102 37.0715 34.4215 37.7324 33.3335 38.1833C32.2454 38.6342 31.0791 38.8664 29.9013 38.8666C27.5226 38.8666 25.2413 37.9216 23.5593 36.2396C21.8773 34.5575 20.9323 32.2762 20.9323 29.8974C20.9323 27.5186 21.8773 25.2372 23.5593 23.5552C25.2413 21.8731 27.5226 20.9282 29.9013 20.9282M45.597 10.4641C44.6059 10.4641 43.6553 10.8578 42.9545 11.5587C42.2537 12.2595 41.8599 13.2101 41.8599 14.2013C41.8599 15.1924 42.2537 16.143 42.9545 16.8438C43.6553 17.5447 44.6059 17.9384 45.597 17.9384C46.5881 17.9384 47.5387 17.5447 48.2395 16.8438C48.9404 16.143 49.3341 15.1924 49.3341 14.2013C49.3341 13.2101 48.9404 12.2595 48.2395 11.5587C47.5387 10.8578 46.5881 10.4641 45.597 10.4641Z" fill="#69CEC3"/>
</svg>
