<svg width="63" height="60" viewBox="0 0 63 60" fill="none" xmlns="http://www.w3.org/2000/svg">
<path d="M55.5145 0C57.3549 0 59.12 0.699993 60.4213 1.94599C61.7227 3.19199 62.4538 4.88192 62.4538 6.64402V53.1522C62.4538 54.9143 61.7227 56.6042 60.4213 57.8502C59.12 59.0962 57.3549 59.7962 55.5145 59.7962H6.93931C5.09889 59.7962 3.33385 59.0962 2.03248 57.8502C0.731104 56.6042 0 54.9143 0 53.1522V6.64402C0 4.88192 0.731104 3.19199 2.03248 1.94599C3.33385 0.699993 5.09889 0 6.93931 0H55.5145ZM53.7797 51.4912V33.8845C53.7797 31.0123 52.588 28.2577 50.4667 26.2267C48.3455 24.1958 45.4685 23.0548 42.4686 23.0548C39.5194 23.0548 36.0844 24.7822 34.419 27.3734V23.6859H24.7387V51.4912H34.419V35.1137C34.419 32.5557 36.5702 30.4629 39.2418 30.4629C40.5301 30.4629 41.7656 30.9528 42.6766 31.825C43.5876 32.6972 44.0993 33.8802 44.0993 35.1137V51.4912H53.7797ZM13.4623 18.4704C15.0082 18.4704 16.4909 17.8824 17.584 16.8358C18.6772 15.7891 19.2913 14.3696 19.2913 12.8894C19.2913 9.79994 16.6891 7.27521 13.4623 7.27521C11.9071 7.27521 10.4157 7.8667 9.31599 8.91957C8.21633 9.97243 7.59855 11.4004 7.59855 12.8894C7.59855 15.9789 10.2355 18.4704 13.4623 18.4704ZM18.2851 51.4912V23.6859H8.67414V51.4912H18.2851Z" fill="#69CEC3"/>
</svg>
